G04 #@! TF.GenerationSoftware,KiCad,Pcbnew,5.0.2-bee76a0~70~ubuntu16.04.1*
G04 #@! TF.CreationDate,2019-03-26T22:40:40+05:30*
G04 #@! TF.ProjectId,neurolab,6e657572-6f6c-4616-922e-6b696361645f,rev?*
G04 #@! TF.SameCoordinates,Original*
G04 #@! TF.FileFunction,Paste,Top*
G04 #@! TF.FilePolarity,Positive*
%FSLAX46Y46*%
G04 Gerber Fmt 4.6, Leading zero omitted, Abs format (unit mm)*
G04 Created by KiCad (PCBNEW 5.0.2-bee76a0~70~ubuntu16.04.1) date Tue 26 Mar 2019 22:40:40 +0530*
%MOMM*%
%LPD*%
G01*
G04 APERTURE LIST*
%ADD10R,1.550000X0.600000*%
%ADD11R,0.750000X0.800000*%
%ADD12R,0.800000X0.750000*%
%ADD13R,0.800000X0.800000*%
%ADD14R,0.970000X1.270000*%
%ADD15R,1.270000X0.970000*%
%ADD16R,1.350000X0.400000*%
%ADD17R,0.900000X0.500000*%
%ADD18R,0.900000X0.800000*%
%ADD19R,1.200000X0.900000*%
%ADD20R,0.900000X1.200000*%
%ADD21R,0.450000X1.450000*%
%ADD22R,0.300000X1.400000*%
%ADD23R,1.450000X0.450000*%
%ADD24R,1.500000X0.600000*%
%ADD25R,0.299720X0.551180*%
%ADD26R,0.551180X0.299720*%
%ADD27R,3.500000X3.500000*%
%ADD28R,1.200000X1.400000*%
%ADD29R,1.100000X0.900000*%
%ADD30R,0.600000X0.450000*%
%ADD31R,0.600000X0.460000*%
%ADD32R,2.550000X2.500000*%
%ADD33R,1.060000X0.650000*%
%ADD34R,0.600000X1.550000*%
G04 APERTURE END LIST*
D10*
G04 #@! TO.C,U5*
X145425000Y-90895000D03*
X145425000Y-92165000D03*
X145425000Y-93435000D03*
X145425000Y-94705000D03*
X150825000Y-94705000D03*
X150825000Y-93435000D03*
X150825000Y-92165000D03*
X150825000Y-90895000D03*
G04 #@! TD*
D11*
G04 #@! TO.C,C1*
X143425000Y-113050000D03*
X143425000Y-114550000D03*
G04 #@! TD*
G04 #@! TO.C,C2*
X150775000Y-113000000D03*
X150775000Y-114500000D03*
G04 #@! TD*
G04 #@! TO.C,C3*
X155700000Y-112550000D03*
X155700000Y-111050000D03*
G04 #@! TD*
G04 #@! TO.C,C4*
X161500000Y-112550000D03*
X161500000Y-111050000D03*
G04 #@! TD*
D12*
G04 #@! TO.C,C5*
X156975000Y-107675000D03*
X158475000Y-107675000D03*
G04 #@! TD*
G04 #@! TO.C,C6*
X165900000Y-107650000D03*
X164400000Y-107650000D03*
G04 #@! TD*
D11*
G04 #@! TO.C,C7*
X134875000Y-83200000D03*
X134875000Y-84700000D03*
G04 #@! TD*
G04 #@! TO.C,C8*
X134875000Y-99600000D03*
X134875000Y-101100000D03*
G04 #@! TD*
D12*
G04 #@! TO.C,C9*
X141950000Y-97050000D03*
X140450000Y-97050000D03*
G04 #@! TD*
G04 #@! TO.C,C14*
X148875000Y-88975000D03*
X147375000Y-88975000D03*
G04 #@! TD*
G04 #@! TO.C,C15*
X148875000Y-105250000D03*
X147375000Y-105250000D03*
G04 #@! TD*
G04 #@! TO.C,C16*
X148875000Y-81200000D03*
X147375000Y-81200000D03*
G04 #@! TD*
G04 #@! TO.C,C17*
X148875000Y-97650000D03*
X147375000Y-97650000D03*
G04 #@! TD*
G04 #@! TO.C,C18*
X172325000Y-114825000D03*
X173825000Y-114825000D03*
G04 #@! TD*
D11*
G04 #@! TO.C,C19*
X167875000Y-108575000D03*
X167875000Y-110075000D03*
G04 #@! TD*
G04 #@! TO.C,C22*
X167675000Y-97250000D03*
X167675000Y-95750000D03*
G04 #@! TD*
G04 #@! TO.C,C23*
X165450000Y-97250000D03*
X165450000Y-95750000D03*
G04 #@! TD*
G04 #@! TO.C,C24*
X169400000Y-91850000D03*
X169400000Y-93350000D03*
G04 #@! TD*
D12*
G04 #@! TO.C,C25*
X167325000Y-89350000D03*
X165825000Y-89350000D03*
G04 #@! TD*
G04 #@! TO.C,C26*
X111225000Y-83050000D03*
X109725000Y-83050000D03*
G04 #@! TD*
G04 #@! TO.C,C27*
X106075000Y-94950000D03*
X107575000Y-94950000D03*
G04 #@! TD*
G04 #@! TO.C,C28*
X109725000Y-94950000D03*
X111225000Y-94950000D03*
G04 #@! TD*
G04 #@! TO.C,C29*
X103575000Y-83050000D03*
X102075000Y-83050000D03*
G04 #@! TD*
D11*
G04 #@! TO.C,C30*
X124250000Y-89325000D03*
X124250000Y-87825000D03*
G04 #@! TD*
D12*
G04 #@! TO.C,C31*
X158575000Y-88700000D03*
X157075000Y-88700000D03*
G04 #@! TD*
G04 #@! TO.C,C32*
X158575000Y-90975000D03*
X157075000Y-90975000D03*
G04 #@! TD*
G04 #@! TO.C,C33*
X111200000Y-99325000D03*
X109700000Y-99325000D03*
G04 #@! TD*
G04 #@! TO.C,C34*
X106000000Y-111000000D03*
X107500000Y-111000000D03*
G04 #@! TD*
G04 #@! TO.C,C35*
X109700000Y-111000000D03*
X111200000Y-111000000D03*
G04 #@! TD*
G04 #@! TO.C,C36*
X103550000Y-99325000D03*
X102050000Y-99325000D03*
G04 #@! TD*
D11*
G04 #@! TO.C,C37*
X124250000Y-105575000D03*
X124250000Y-104075000D03*
G04 #@! TD*
G04 #@! TO.C,C38*
X119775000Y-96500000D03*
X119775000Y-95000000D03*
G04 #@! TD*
G04 #@! TO.C,C39*
X134875000Y-86550000D03*
X134875000Y-88050000D03*
G04 #@! TD*
G04 #@! TO.C,C40*
X124475000Y-94975000D03*
X124475000Y-96475000D03*
G04 #@! TD*
D12*
G04 #@! TO.C,C41*
X117625000Y-85750000D03*
X119125000Y-85750000D03*
G04 #@! TD*
G04 #@! TO.C,C42*
X117625000Y-92025000D03*
X119125000Y-92025000D03*
G04 #@! TD*
D11*
G04 #@! TO.C,C43*
X119700000Y-112850000D03*
X119700000Y-111350000D03*
G04 #@! TD*
G04 #@! TO.C,C44*
X134875000Y-103075000D03*
X134875000Y-104575000D03*
G04 #@! TD*
G04 #@! TO.C,C45*
X124525000Y-111350000D03*
X124525000Y-112850000D03*
G04 #@! TD*
D12*
G04 #@! TO.C,C46*
X117625000Y-102025000D03*
X119125000Y-102025000D03*
G04 #@! TD*
G04 #@! TO.C,C47*
X117625000Y-108275000D03*
X119125000Y-108275000D03*
G04 #@! TD*
D11*
G04 #@! TO.C,C48*
X161425000Y-102600000D03*
X161425000Y-101100000D03*
G04 #@! TD*
G04 #@! TO.C,C49*
X163725000Y-102600000D03*
X163725000Y-101100000D03*
G04 #@! TD*
G04 #@! TO.C,C50*
X175900000Y-103675000D03*
X175900000Y-102175000D03*
G04 #@! TD*
D12*
G04 #@! TO.C,C51*
X173325000Y-100525000D03*
X174825000Y-100525000D03*
G04 #@! TD*
G04 #@! TO.C,C52*
X174800000Y-105225000D03*
X173300000Y-105225000D03*
G04 #@! TD*
D11*
G04 #@! TO.C,C53*
X99325000Y-115125000D03*
X99325000Y-113625000D03*
G04 #@! TD*
G04 #@! TO.C,C54*
X116250000Y-80650000D03*
X116250000Y-79150000D03*
G04 #@! TD*
G04 #@! TO.C,C55*
X101700000Y-115125000D03*
X101700000Y-113625000D03*
G04 #@! TD*
G04 #@! TO.C,C56*
X118450000Y-80650000D03*
X118450000Y-79150000D03*
G04 #@! TD*
G04 #@! TO.C,C57*
X104050000Y-115125000D03*
X104050000Y-113625000D03*
G04 #@! TD*
G04 #@! TO.C,C58*
X120725000Y-80675000D03*
X120725000Y-79175000D03*
G04 #@! TD*
G04 #@! TO.C,C59*
X106350000Y-115125000D03*
X106350000Y-113625000D03*
G04 #@! TD*
G04 #@! TO.C,C60*
X122950000Y-80675000D03*
X122950000Y-79175000D03*
G04 #@! TD*
G04 #@! TO.C,C61*
X108700000Y-115125000D03*
X108700000Y-113625000D03*
G04 #@! TD*
G04 #@! TO.C,C62*
X125175000Y-80675000D03*
X125175000Y-79175000D03*
G04 #@! TD*
D12*
G04 #@! TO.C,C63*
X100925000Y-78975000D03*
X99425000Y-78975000D03*
G04 #@! TD*
D13*
G04 #@! TO.C,D1*
X145725000Y-113000000D03*
X145725000Y-114600000D03*
G04 #@! TD*
G04 #@! TO.C,D2*
X183430000Y-112870000D03*
X183430000Y-114470000D03*
G04 #@! TD*
D14*
G04 #@! TO.C,J1*
X140595000Y-114550000D03*
X139325000Y-114550000D03*
X138055000Y-114550000D03*
G04 #@! TD*
G04 #@! TO.C,J2*
X162695000Y-107650000D03*
X161425000Y-107650000D03*
X160155000Y-107650000D03*
G04 #@! TD*
G04 #@! TO.C,J3*
X171880000Y-107250000D03*
X173150000Y-107250000D03*
X174420000Y-107250000D03*
G04 #@! TD*
D15*
G04 #@! TO.C,J6*
X113200000Y-83280000D03*
X113200000Y-84550000D03*
X113200000Y-85820000D03*
G04 #@! TD*
G04 #@! TO.C,J7*
X113225000Y-92180000D03*
X113225000Y-93450000D03*
X113225000Y-94720000D03*
G04 #@! TD*
G04 #@! TO.C,J9*
X113175000Y-99555000D03*
X113175000Y-100825000D03*
X113175000Y-102095000D03*
G04 #@! TD*
G04 #@! TO.C,J10*
X113225000Y-108230000D03*
X113225000Y-109500000D03*
X113225000Y-110770000D03*
G04 #@! TD*
D14*
G04 #@! TO.C,J12*
X131370000Y-96625000D03*
X130100000Y-96625000D03*
X128830000Y-96625000D03*
G04 #@! TD*
G04 #@! TO.C,J13*
X128830000Y-83400000D03*
X130100000Y-83400000D03*
X131370000Y-83400000D03*
G04 #@! TD*
G04 #@! TO.C,J14*
X131370000Y-113000000D03*
X130100000Y-113000000D03*
X128830000Y-113000000D03*
G04 #@! TD*
G04 #@! TO.C,J15*
X128830000Y-99675000D03*
X130100000Y-99675000D03*
X131370000Y-99675000D03*
G04 #@! TD*
D16*
G04 #@! TO.C,J18*
X95910000Y-81730000D03*
X95910000Y-82380000D03*
X95910000Y-83030000D03*
X95910000Y-83680000D03*
X95910000Y-84330000D03*
G04 #@! TD*
D14*
G04 #@! TO.C,J19*
X100695000Y-81075000D03*
X99425000Y-81075000D03*
X98155000Y-81075000D03*
G04 #@! TD*
D15*
G04 #@! TO.C,J24*
X161425000Y-104410000D03*
X161425000Y-105690000D03*
G04 #@! TD*
D17*
G04 #@! TO.C,L1*
X148175000Y-113000000D03*
X148175000Y-114500000D03*
G04 #@! TD*
G04 #@! TO.C,L2*
X173300000Y-102175000D03*
X173300000Y-103675000D03*
G04 #@! TD*
D18*
G04 #@! TO.C,Q1*
X180750000Y-105950000D03*
X180750000Y-104050000D03*
X178750000Y-105000000D03*
G04 #@! TD*
D19*
G04 #@! TO.C,R1*
X153500000Y-114575000D03*
X155700000Y-114575000D03*
G04 #@! TD*
G04 #@! TO.C,R2*
X142325000Y-83300000D03*
X140125000Y-83300000D03*
G04 #@! TD*
G04 #@! TO.C,R3*
X142325000Y-94000000D03*
X140125000Y-94000000D03*
G04 #@! TD*
G04 #@! TO.C,R4*
X142325000Y-100025000D03*
X140125000Y-100025000D03*
G04 #@! TD*
G04 #@! TO.C,R5*
X142325000Y-110575000D03*
X140125000Y-110575000D03*
G04 #@! TD*
D20*
G04 #@! TO.C,R6*
X178500000Y-108225000D03*
X178500000Y-110425000D03*
G04 #@! TD*
G04 #@! TO.C,R7*
X178500000Y-112600000D03*
X178500000Y-114800000D03*
G04 #@! TD*
G04 #@! TO.C,R8*
X167925000Y-114825000D03*
X167925000Y-112625000D03*
G04 #@! TD*
G04 #@! TO.C,R9*
X180975000Y-110425000D03*
X180975000Y-108225000D03*
G04 #@! TD*
G04 #@! TO.C,R10*
X153475000Y-94400000D03*
X153475000Y-92200000D03*
G04 #@! TD*
G04 #@! TO.C,R11*
X153475000Y-86825000D03*
X153475000Y-84625000D03*
G04 #@! TD*
G04 #@! TO.C,R12*
X153475000Y-110800000D03*
X153475000Y-108600000D03*
G04 #@! TD*
G04 #@! TO.C,R13*
X153475000Y-103050000D03*
X153475000Y-100850000D03*
G04 #@! TD*
G04 #@! TO.C,R14*
X99325000Y-93900000D03*
X99325000Y-91700000D03*
G04 #@! TD*
G04 #@! TO.C,R15*
X99325000Y-84050000D03*
X99325000Y-86250000D03*
G04 #@! TD*
G04 #@! TO.C,R16*
X112775000Y-87875000D03*
X112775000Y-90075000D03*
G04 #@! TD*
D19*
G04 #@! TO.C,R17*
X105675000Y-83050000D03*
X107875000Y-83050000D03*
G04 #@! TD*
G04 #@! TO.C,R18*
X103925000Y-94950000D03*
X101725000Y-94950000D03*
G04 #@! TD*
D20*
G04 #@! TO.C,R19*
X115050000Y-90075000D03*
X115050000Y-87875000D03*
G04 #@! TD*
D19*
G04 #@! TO.C,R20*
X122050000Y-85750000D03*
X124250000Y-85750000D03*
G04 #@! TD*
G04 #@! TO.C,R21*
X122050000Y-92025000D03*
X124250000Y-92025000D03*
G04 #@! TD*
D20*
G04 #@! TO.C,R22*
X99300000Y-110025000D03*
X99300000Y-107825000D03*
G04 #@! TD*
G04 #@! TO.C,R23*
X99300000Y-100200000D03*
X99300000Y-102400000D03*
G04 #@! TD*
G04 #@! TO.C,R24*
X112800000Y-104150000D03*
X112800000Y-106350000D03*
G04 #@! TD*
D19*
G04 #@! TO.C,R25*
X107850000Y-99325000D03*
X105650000Y-99325000D03*
G04 #@! TD*
G04 #@! TO.C,R26*
X103900000Y-111000000D03*
X101700000Y-111000000D03*
G04 #@! TD*
D20*
G04 #@! TO.C,R27*
X115075000Y-106350000D03*
X115075000Y-104150000D03*
G04 #@! TD*
D19*
G04 #@! TO.C,R28*
X122050000Y-102025000D03*
X124250000Y-102025000D03*
G04 #@! TD*
G04 #@! TO.C,R29*
X122050000Y-108275000D03*
X124250000Y-108275000D03*
G04 #@! TD*
D20*
G04 #@! TO.C,R30*
X122100000Y-96825000D03*
X122100000Y-94625000D03*
G04 #@! TD*
D19*
G04 #@! TO.C,R31*
X124250000Y-83375000D03*
X122050000Y-83375000D03*
G04 #@! TD*
D20*
G04 #@! TO.C,R32*
X126825000Y-96825000D03*
X126825000Y-94625000D03*
G04 #@! TD*
D19*
G04 #@! TO.C,R33*
X128850000Y-94550000D03*
X131050000Y-94550000D03*
G04 #@! TD*
D20*
G04 #@! TO.C,R34*
X134900000Y-94425000D03*
X134900000Y-96625000D03*
G04 #@! TD*
G04 #@! TO.C,R35*
X134875000Y-92275000D03*
X134875000Y-90075000D03*
G04 #@! TD*
G04 #@! TO.C,R36*
X122150000Y-113200000D03*
X122150000Y-111000000D03*
G04 #@! TD*
D19*
G04 #@! TO.C,R37*
X124250000Y-99675000D03*
X122050000Y-99675000D03*
G04 #@! TD*
D20*
G04 #@! TO.C,R38*
X126825000Y-113200000D03*
X126825000Y-111000000D03*
G04 #@! TD*
D19*
G04 #@! TO.C,R39*
X129000000Y-110850000D03*
X131200000Y-110850000D03*
G04 #@! TD*
D20*
G04 #@! TO.C,R40*
X134875000Y-110950000D03*
X134875000Y-113150000D03*
G04 #@! TD*
G04 #@! TO.C,R41*
X134875000Y-108800000D03*
X134875000Y-106600000D03*
G04 #@! TD*
D19*
G04 #@! TO.C,R42*
X155825000Y-79825000D03*
X153625000Y-79825000D03*
G04 #@! TD*
G04 #@! TO.C,R43*
X155825000Y-82175000D03*
X153625000Y-82175000D03*
G04 #@! TD*
D20*
G04 #@! TO.C,R44*
X183430000Y-108200000D03*
X183430000Y-110400000D03*
G04 #@! TD*
D21*
G04 #@! TO.C,U1*
X159625000Y-110175000D03*
X158975000Y-110175000D03*
X158325000Y-110175000D03*
X157675000Y-110175000D03*
X157675000Y-114575000D03*
X158325000Y-114575000D03*
X158975000Y-114575000D03*
X159625000Y-114575000D03*
G04 #@! TD*
G04 #@! TO.C,U2*
X165350000Y-110175000D03*
X164700000Y-110175000D03*
X164050000Y-110175000D03*
X163400000Y-110175000D03*
X163400000Y-114575000D03*
X164050000Y-114575000D03*
X164700000Y-114575000D03*
X165350000Y-114575000D03*
G04 #@! TD*
D22*
G04 #@! TO.C,U3*
X139675000Y-86775000D03*
X139175000Y-86775000D03*
X138675000Y-86775000D03*
X138175000Y-86775000D03*
X137675000Y-86775000D03*
X137675000Y-91175000D03*
X138175000Y-91175000D03*
X138675000Y-91175000D03*
X139175000Y-91175000D03*
X139675000Y-91175000D03*
G04 #@! TD*
G04 #@! TO.C,U4*
X139700000Y-103075000D03*
X139200000Y-103075000D03*
X138700000Y-103075000D03*
X138200000Y-103075000D03*
X137700000Y-103075000D03*
X137700000Y-107475000D03*
X138200000Y-107475000D03*
X138700000Y-107475000D03*
X139200000Y-107475000D03*
X139700000Y-107475000D03*
G04 #@! TD*
D10*
G04 #@! TO.C,U9*
X170475000Y-109045000D03*
X170475000Y-110315000D03*
X170475000Y-111585000D03*
X170475000Y-112855000D03*
X175875000Y-112855000D03*
X175875000Y-111585000D03*
X175875000Y-110315000D03*
X175875000Y-109045000D03*
G04 #@! TD*
D23*
G04 #@! TO.C,U11*
X117650000Y-88025000D03*
X117650000Y-88675000D03*
X117650000Y-89325000D03*
X117650000Y-89975000D03*
X122050000Y-89975000D03*
X122050000Y-89325000D03*
X122050000Y-88675000D03*
X122050000Y-88025000D03*
G04 #@! TD*
D24*
G04 #@! TO.C,U12*
X126850000Y-85190000D03*
X126850000Y-86460000D03*
X126850000Y-87730000D03*
X126850000Y-89000000D03*
X126850000Y-90270000D03*
X126850000Y-91540000D03*
X126850000Y-92810000D03*
X132250000Y-92810000D03*
X132250000Y-91540000D03*
X132250000Y-90270000D03*
X132250000Y-89000000D03*
X132250000Y-87730000D03*
X132250000Y-86460000D03*
X132250000Y-85190000D03*
G04 #@! TD*
D23*
G04 #@! TO.C,U14*
X117650000Y-104275000D03*
X117650000Y-104925000D03*
X117650000Y-105575000D03*
X117650000Y-106225000D03*
X122050000Y-106225000D03*
X122050000Y-105575000D03*
X122050000Y-104925000D03*
X122050000Y-104275000D03*
G04 #@! TD*
D24*
G04 #@! TO.C,U15*
X126850000Y-101465000D03*
X126850000Y-102735000D03*
X126850000Y-104005000D03*
X126850000Y-105275000D03*
X126850000Y-106545000D03*
X126850000Y-107815000D03*
X126850000Y-109085000D03*
X132250000Y-109085000D03*
X132250000Y-107815000D03*
X132250000Y-106545000D03*
X132250000Y-105275000D03*
X132250000Y-104005000D03*
X132250000Y-102735000D03*
X132250000Y-101465000D03*
G04 #@! TD*
D25*
G04 #@! TO.C,U16*
X157799560Y-99375280D03*
X158299940Y-99375280D03*
X158800320Y-99375280D03*
X159300700Y-99375280D03*
X159798540Y-99375280D03*
X160298920Y-99375280D03*
X160799300Y-99375280D03*
X161299680Y-99375280D03*
X161800060Y-99375280D03*
X162300440Y-99375280D03*
D26*
X163049740Y-98750440D03*
X163049740Y-98250060D03*
X163049740Y-97749680D03*
X163049740Y-97249300D03*
X163049740Y-96748920D03*
X163049740Y-96251080D03*
X163049740Y-95750700D03*
X163049740Y-95250320D03*
X163049740Y-94749940D03*
X163049740Y-94249560D03*
D25*
X162300440Y-93624720D03*
X161800060Y-93624720D03*
X161299680Y-93624720D03*
X160799300Y-93624720D03*
X160298920Y-93624720D03*
X159801080Y-93624720D03*
X159300700Y-93624720D03*
X158800320Y-93624720D03*
X158299940Y-93624720D03*
X157799560Y-93624720D03*
D26*
X157050260Y-94249560D03*
X157050260Y-94749940D03*
X157050260Y-95250320D03*
X157050260Y-95750700D03*
X157050260Y-96251080D03*
X157050260Y-96748920D03*
X157050260Y-97249300D03*
X157050260Y-97749680D03*
X157050260Y-98250060D03*
X157050260Y-98750440D03*
D27*
X160050000Y-96500000D03*
G04 #@! TD*
D23*
G04 #@! TO.C,U17*
X170675000Y-102825000D03*
X170675000Y-102175000D03*
X170675000Y-101525000D03*
X170675000Y-100875000D03*
X166275000Y-100875000D03*
X166275000Y-101525000D03*
X166275000Y-102175000D03*
X166275000Y-102825000D03*
G04 #@! TD*
D28*
G04 #@! TO.C,Y1*
X167375000Y-93700000D03*
X167375000Y-91500000D03*
X165775000Y-91500000D03*
X165775000Y-93700000D03*
G04 #@! TD*
D19*
G04 #@! TO.C,R45*
X163475000Y-79825000D03*
X165675000Y-79825000D03*
G04 #@! TD*
G04 #@! TO.C,R46*
X165675000Y-82150000D03*
X163475000Y-82150000D03*
G04 #@! TD*
G04 #@! TO.C,R47*
X160750000Y-79825000D03*
X158550000Y-79825000D03*
G04 #@! TD*
G04 #@! TO.C,R48*
X158550000Y-82175000D03*
X160750000Y-82175000D03*
G04 #@! TD*
G04 #@! TO.C,R49*
X170725000Y-82150000D03*
X168525000Y-82150000D03*
G04 #@! TD*
G04 #@! TO.C,R50*
X168525000Y-79825000D03*
X170725000Y-79825000D03*
G04 #@! TD*
D29*
G04 #@! TO.C,C10*
X142325000Y-89890000D03*
X142325000Y-88060000D03*
D30*
X141725000Y-88975000D03*
D31*
X142925000Y-88975000D03*
G04 #@! TD*
D29*
G04 #@! TO.C,C11*
X142325000Y-106165000D03*
X142325000Y-104335000D03*
D30*
X141725000Y-105250000D03*
D31*
X142925000Y-105250000D03*
G04 #@! TD*
D29*
G04 #@! TO.C,C12*
X156375000Y-84785000D03*
X156375000Y-86615000D03*
D30*
X156975000Y-85700000D03*
D31*
X155775000Y-85700000D03*
G04 #@! TD*
D29*
G04 #@! TO.C,C13*
X156250000Y-101035000D03*
X156250000Y-102865000D03*
D30*
X156850000Y-101950000D03*
D31*
X155650000Y-101950000D03*
G04 #@! TD*
D29*
G04 #@! TO.C,C20*
X99325000Y-88035000D03*
X99325000Y-89865000D03*
D30*
X99925000Y-88950000D03*
D31*
X98725000Y-88950000D03*
G04 #@! TD*
D29*
G04 #@! TO.C,C21*
X99300000Y-104285000D03*
X99300000Y-106115000D03*
D30*
X99900000Y-105200000D03*
D31*
X98700000Y-105200000D03*
G04 #@! TD*
D10*
G04 #@! TO.C,U6*
X145425000Y-107245000D03*
X145425000Y-108515000D03*
X145425000Y-109785000D03*
X145425000Y-111055000D03*
X150825000Y-111055000D03*
X150825000Y-109785000D03*
X150825000Y-108515000D03*
X150825000Y-107245000D03*
G04 #@! TD*
G04 #@! TO.C,U7*
X145450000Y-83295000D03*
X145450000Y-84565000D03*
X145450000Y-85835000D03*
X145450000Y-87105000D03*
X150850000Y-87105000D03*
X150850000Y-85835000D03*
X150850000Y-84565000D03*
X150850000Y-83295000D03*
G04 #@! TD*
G04 #@! TO.C,U8*
X145425000Y-99520000D03*
X145425000Y-100790000D03*
X145425000Y-102060000D03*
X145425000Y-103330000D03*
X150825000Y-103330000D03*
X150825000Y-102060000D03*
X150825000Y-100790000D03*
X150825000Y-99520000D03*
G04 #@! TD*
D32*
G04 #@! TO.C,C64*
X94250000Y-118625000D03*
X99300000Y-118625000D03*
G04 #@! TD*
G04 #@! TO.C,C65*
X94175000Y-130425000D03*
X99225000Y-130425000D03*
G04 #@! TD*
G04 #@! TO.C,C66*
X102775000Y-130425000D03*
X107825000Y-130425000D03*
G04 #@! TD*
G04 #@! TO.C,C67*
X107825000Y-118650000D03*
X102775000Y-118650000D03*
G04 #@! TD*
G04 #@! TO.C,C68*
X111375000Y-130425000D03*
X116425000Y-130425000D03*
G04 #@! TD*
G04 #@! TO.C,C69*
X111400000Y-118625000D03*
X116450000Y-118625000D03*
G04 #@! TD*
D33*
G04 #@! TO.C,U18*
X95700000Y-123625000D03*
X95700000Y-124575000D03*
X95700000Y-125525000D03*
X97900000Y-125525000D03*
X97900000Y-123625000D03*
X97900000Y-124575000D03*
G04 #@! TD*
G04 #@! TO.C,U19*
X106400000Y-124575000D03*
X106400000Y-123625000D03*
X106400000Y-125525000D03*
X104200000Y-125525000D03*
X104200000Y-124575000D03*
X104200000Y-123625000D03*
G04 #@! TD*
D34*
G04 #@! TO.C,U20*
X112020000Y-121850000D03*
X113290000Y-121850000D03*
X114560000Y-121850000D03*
X115830000Y-121850000D03*
X115830000Y-127250000D03*
X114560000Y-127250000D03*
X113290000Y-127250000D03*
X112020000Y-127250000D03*
G04 #@! TD*
M02*
