G04 #@! TF.GenerationSoftware,KiCad,Pcbnew,5.0.2-bee76a0~70~ubuntu16.04.1*
G04 #@! TF.CreationDate,2019-03-26T22:40:40+05:30*
G04 #@! TF.ProjectId,neurolab,6e657572-6f6c-4616-922e-6b696361645f,rev?*
G04 #@! TF.SameCoordinates,Original*
G04 #@! TF.FileFunction,Legend,Bot*
G04 #@! TF.FilePolarity,Positive*
%FSLAX46Y46*%
G04 Gerber Fmt 4.6, Leading zero omitted, Abs format (unit mm)*
G04 Created by KiCad (PCBNEW 5.0.2-bee76a0~70~ubuntu16.04.1) date Tue 26 Mar 2019 22:40:40 +0530*
%MOMM*%
%LPD*%
G01*
G04 APERTURE LIST*
%ADD10C,0.087500*%
%ADD11C,0.250000*%
%ADD12C,0.185000*%
%ADD13C,0.120000*%
%ADD14C,0.010000*%
%ADD15C,0.125000*%
G04 APERTURE END LIST*
D10*
X110483333Y-122666666D02*
X110833333Y-122783333D01*
X110483333Y-122900000D01*
X110833333Y-123183333D02*
X110833333Y-123016666D01*
X110483333Y-123016666D01*
X110483333Y-123366666D02*
X110483333Y-123433333D01*
X110500000Y-123466666D01*
X110533333Y-123500000D01*
X110600000Y-123516666D01*
X110716666Y-123516666D01*
X110783333Y-123500000D01*
X110816666Y-123466666D01*
X110833333Y-123433333D01*
X110833333Y-123366666D01*
X110816666Y-123333333D01*
X110783333Y-123300000D01*
X110716666Y-123283333D01*
X110600000Y-123283333D01*
X110533333Y-123300000D01*
X110500000Y-123333333D01*
X110483333Y-123366666D01*
X110483333Y-124000000D02*
X110483333Y-124066666D01*
X110500000Y-124100000D01*
X110533333Y-124133333D01*
X110600000Y-124150000D01*
X110716666Y-124150000D01*
X110783333Y-124133333D01*
X110816666Y-124100000D01*
X110833333Y-124066666D01*
X110833333Y-124000000D01*
X110816666Y-123966666D01*
X110783333Y-123933333D01*
X110716666Y-123916666D01*
X110600000Y-123916666D01*
X110533333Y-123933333D01*
X110500000Y-123966666D01*
X110483333Y-124000000D01*
X110483333Y-124300000D02*
X110766666Y-124300000D01*
X110800000Y-124316666D01*
X110816666Y-124333333D01*
X110833333Y-124366666D01*
X110833333Y-124433333D01*
X110816666Y-124466666D01*
X110800000Y-124483333D01*
X110766666Y-124500000D01*
X110483333Y-124500000D01*
X110483333Y-124616666D02*
X110483333Y-124816666D01*
X110833333Y-124716666D02*
X110483333Y-124716666D01*
X110483333Y-125150000D02*
X110833333Y-125266666D01*
X110483333Y-125383333D01*
X110833333Y-125666666D02*
X110833333Y-125500000D01*
X110483333Y-125500000D01*
X110833333Y-125783333D02*
X110483333Y-125783333D01*
X110650000Y-125783333D02*
X110650000Y-125983333D01*
X110833333Y-125983333D02*
X110483333Y-125983333D01*
D11*
X93827380Y-121173214D02*
X92827380Y-121173214D01*
X93827380Y-121744642D01*
X92827380Y-121744642D01*
X93779761Y-122601785D02*
X93827380Y-122506547D01*
X93827380Y-122316071D01*
X93779761Y-122220833D01*
X93684523Y-122173214D01*
X93303571Y-122173214D01*
X93208333Y-122220833D01*
X93160714Y-122316071D01*
X93160714Y-122506547D01*
X93208333Y-122601785D01*
X93303571Y-122649404D01*
X93398809Y-122649404D01*
X93494047Y-122173214D01*
X93160714Y-123506547D02*
X93827380Y-123506547D01*
X93160714Y-123077976D02*
X93684523Y-123077976D01*
X93779761Y-123125595D01*
X93827380Y-123220833D01*
X93827380Y-123363690D01*
X93779761Y-123458928D01*
X93732142Y-123506547D01*
X93827380Y-123982738D02*
X93160714Y-123982738D01*
X93351190Y-123982738D02*
X93255952Y-124030357D01*
X93208333Y-124077976D01*
X93160714Y-124173214D01*
X93160714Y-124268452D01*
X93827380Y-124744642D02*
X93779761Y-124649404D01*
X93732142Y-124601785D01*
X93636904Y-124554166D01*
X93351190Y-124554166D01*
X93255952Y-124601785D01*
X93208333Y-124649404D01*
X93160714Y-124744642D01*
X93160714Y-124887500D01*
X93208333Y-124982738D01*
X93255952Y-125030357D01*
X93351190Y-125077976D01*
X93636904Y-125077976D01*
X93732142Y-125030357D01*
X93779761Y-124982738D01*
X93827380Y-124887500D01*
X93827380Y-124744642D01*
X93827380Y-125982738D02*
X93827380Y-125506547D01*
X92827380Y-125506547D01*
X93827380Y-126744642D02*
X93303571Y-126744642D01*
X93208333Y-126697023D01*
X93160714Y-126601785D01*
X93160714Y-126411309D01*
X93208333Y-126316071D01*
X93779761Y-126744642D02*
X93827380Y-126649404D01*
X93827380Y-126411309D01*
X93779761Y-126316071D01*
X93684523Y-126268452D01*
X93589285Y-126268452D01*
X93494047Y-126316071D01*
X93446428Y-126411309D01*
X93446428Y-126649404D01*
X93398809Y-126744642D01*
X93827380Y-127220833D02*
X92827380Y-127220833D01*
X93208333Y-127220833D02*
X93160714Y-127316071D01*
X93160714Y-127506547D01*
X93208333Y-127601785D01*
X93255952Y-127649404D01*
X93351190Y-127697023D01*
X93636904Y-127697023D01*
X93732142Y-127649404D01*
X93779761Y-127601785D01*
X93827380Y-127506547D01*
X93827380Y-127316071D01*
X93779761Y-127220833D01*
X92827380Y-128744642D02*
X93827380Y-129077976D01*
X92827380Y-129411309D01*
X93827380Y-130268452D02*
X93827380Y-129697023D01*
X93827380Y-129982738D02*
X92827380Y-129982738D01*
X92970238Y-129887500D01*
X93065476Y-129792261D01*
X93113095Y-129697023D01*
X93732142Y-130697023D02*
X93779761Y-130744642D01*
X93827380Y-130697023D01*
X93779761Y-130649404D01*
X93732142Y-130697023D01*
X93827380Y-130697023D01*
X92827380Y-131363690D02*
X92827380Y-131458928D01*
X92875000Y-131554166D01*
X92922619Y-131601785D01*
X93017857Y-131649404D01*
X93208333Y-131697023D01*
X93446428Y-131697023D01*
X93636904Y-131649404D01*
X93732142Y-131601785D01*
X93779761Y-131554166D01*
X93827380Y-131458928D01*
X93827380Y-131363690D01*
X93779761Y-131268452D01*
X93732142Y-131220833D01*
X93636904Y-131173214D01*
X93446428Y-131125595D01*
X93208333Y-131125595D01*
X93017857Y-131173214D01*
X92922619Y-131220833D01*
X92875000Y-131268452D01*
X92827380Y-131363690D01*
X95053571Y-116744642D02*
X95053571Y-117077976D01*
X95577380Y-117220833D02*
X95577380Y-116744642D01*
X94577380Y-116744642D01*
X94577380Y-117220833D01*
X95577380Y-117554166D02*
X94910714Y-118077976D01*
X94910714Y-117554166D02*
X95577380Y-118077976D01*
X94910714Y-118458928D02*
X95910714Y-118458928D01*
X94958333Y-118458928D02*
X94910714Y-118554166D01*
X94910714Y-118744642D01*
X94958333Y-118839880D01*
X95005952Y-118887500D01*
X95101190Y-118935119D01*
X95386904Y-118935119D01*
X95482142Y-118887500D01*
X95529761Y-118839880D01*
X95577380Y-118744642D01*
X95577380Y-118554166D01*
X95529761Y-118458928D01*
X95529761Y-119744642D02*
X95577380Y-119649404D01*
X95577380Y-119458928D01*
X95529761Y-119363690D01*
X95434523Y-119316071D01*
X95053571Y-119316071D01*
X94958333Y-119363690D01*
X94910714Y-119458928D01*
X94910714Y-119649404D01*
X94958333Y-119744642D01*
X95053571Y-119792261D01*
X95148809Y-119792261D01*
X95244047Y-119316071D01*
X95577380Y-120220833D02*
X94910714Y-120220833D01*
X95101190Y-120220833D02*
X95005952Y-120268452D01*
X94958333Y-120316071D01*
X94910714Y-120411309D01*
X94910714Y-120506547D01*
X95577380Y-120839880D02*
X94910714Y-120839880D01*
X94577380Y-120839880D02*
X94625000Y-120792261D01*
X94672619Y-120839880D01*
X94625000Y-120887500D01*
X94577380Y-120839880D01*
X94672619Y-120839880D01*
X95577380Y-121316071D02*
X94910714Y-121316071D01*
X95005952Y-121316071D02*
X94958333Y-121363690D01*
X94910714Y-121458928D01*
X94910714Y-121601785D01*
X94958333Y-121697023D01*
X95053571Y-121744642D01*
X95577380Y-121744642D01*
X95053571Y-121744642D02*
X94958333Y-121792261D01*
X94910714Y-121887500D01*
X94910714Y-122030357D01*
X94958333Y-122125595D01*
X95053571Y-122173214D01*
X95577380Y-122173214D01*
X95529761Y-123030357D02*
X95577380Y-122935119D01*
X95577380Y-122744642D01*
X95529761Y-122649404D01*
X95434523Y-122601785D01*
X95053571Y-122601785D01*
X94958333Y-122649404D01*
X94910714Y-122744642D01*
X94910714Y-122935119D01*
X94958333Y-123030357D01*
X95053571Y-123077976D01*
X95148809Y-123077976D01*
X95244047Y-122601785D01*
X94910714Y-123506547D02*
X95577380Y-123506547D01*
X95005952Y-123506547D02*
X94958333Y-123554166D01*
X94910714Y-123649404D01*
X94910714Y-123792261D01*
X94958333Y-123887500D01*
X95053571Y-123935119D01*
X95577380Y-123935119D01*
X94910714Y-124268452D02*
X94910714Y-124649404D01*
X94577380Y-124411309D02*
X95434523Y-124411309D01*
X95529761Y-124458928D01*
X95577380Y-124554166D01*
X95577380Y-124649404D01*
X95577380Y-125411309D02*
X95053571Y-125411309D01*
X94958333Y-125363690D01*
X94910714Y-125268452D01*
X94910714Y-125077976D01*
X94958333Y-124982738D01*
X95529761Y-125411309D02*
X95577380Y-125316071D01*
X95577380Y-125077976D01*
X95529761Y-124982738D01*
X95434523Y-124935119D01*
X95339285Y-124935119D01*
X95244047Y-124982738D01*
X95196428Y-125077976D01*
X95196428Y-125316071D01*
X95148809Y-125411309D01*
X95577380Y-126030357D02*
X95529761Y-125935119D01*
X95434523Y-125887500D01*
X94577380Y-125887500D01*
X95577380Y-127173214D02*
X94577380Y-127173214D01*
X94577380Y-127411309D01*
X94625000Y-127554166D01*
X94720238Y-127649404D01*
X94815476Y-127697023D01*
X95005952Y-127744642D01*
X95148809Y-127744642D01*
X95339285Y-127697023D01*
X95434523Y-127649404D01*
X95529761Y-127554166D01*
X95577380Y-127411309D01*
X95577380Y-127173214D01*
X95529761Y-128554166D02*
X95577380Y-128458928D01*
X95577380Y-128268452D01*
X95529761Y-128173214D01*
X95434523Y-128125595D01*
X95053571Y-128125595D01*
X94958333Y-128173214D01*
X94910714Y-128268452D01*
X94910714Y-128458928D01*
X94958333Y-128554166D01*
X95053571Y-128601785D01*
X95148809Y-128601785D01*
X95244047Y-128125595D01*
X95529761Y-128982738D02*
X95577380Y-129077976D01*
X95577380Y-129268452D01*
X95529761Y-129363690D01*
X95434523Y-129411309D01*
X95386904Y-129411309D01*
X95291666Y-129363690D01*
X95244047Y-129268452D01*
X95244047Y-129125595D01*
X95196428Y-129030357D01*
X95101190Y-128982738D01*
X95053571Y-128982738D01*
X94958333Y-129030357D01*
X94910714Y-129125595D01*
X94910714Y-129268452D01*
X94958333Y-129363690D01*
X95577380Y-129839880D02*
X94910714Y-129839880D01*
X94577380Y-129839880D02*
X94625000Y-129792261D01*
X94672619Y-129839880D01*
X94625000Y-129887500D01*
X94577380Y-129839880D01*
X94672619Y-129839880D01*
X94910714Y-130744642D02*
X95720238Y-130744642D01*
X95815476Y-130697023D01*
X95863095Y-130649404D01*
X95910714Y-130554166D01*
X95910714Y-130411309D01*
X95863095Y-130316071D01*
X95529761Y-130744642D02*
X95577380Y-130649404D01*
X95577380Y-130458928D01*
X95529761Y-130363690D01*
X95482142Y-130316071D01*
X95386904Y-130268452D01*
X95101190Y-130268452D01*
X95005952Y-130316071D01*
X94958333Y-130363690D01*
X94910714Y-130458928D01*
X94910714Y-130649404D01*
X94958333Y-130744642D01*
X94910714Y-131220833D02*
X95577380Y-131220833D01*
X95005952Y-131220833D02*
X94958333Y-131268452D01*
X94910714Y-131363690D01*
X94910714Y-131506547D01*
X94958333Y-131601785D01*
X95053571Y-131649404D01*
X95577380Y-131649404D01*
D10*
X155233333Y-84641666D02*
X155233333Y-84808333D01*
X155333333Y-84608333D02*
X154983333Y-84725000D01*
X155333333Y-84841666D01*
X155333333Y-84958333D02*
X154983333Y-84958333D01*
X154983333Y-85041666D01*
X155000000Y-85091666D01*
X155033333Y-85125000D01*
X155066666Y-85141666D01*
X155133333Y-85158333D01*
X155183333Y-85158333D01*
X155250000Y-85141666D01*
X155283333Y-85125000D01*
X155316666Y-85091666D01*
X155333333Y-85041666D01*
X155333333Y-84958333D01*
X154983333Y-85275000D02*
X154983333Y-85491666D01*
X155116666Y-85375000D01*
X155116666Y-85425000D01*
X155133333Y-85458333D01*
X155150000Y-85475000D01*
X155183333Y-85491666D01*
X155266666Y-85491666D01*
X155300000Y-85475000D01*
X155316666Y-85458333D01*
X155333333Y-85425000D01*
X155333333Y-85325000D01*
X155316666Y-85291666D01*
X155300000Y-85275000D01*
X155300000Y-86108333D02*
X155316666Y-86091666D01*
X155333333Y-86041666D01*
X155333333Y-86008333D01*
X155316666Y-85958333D01*
X155283333Y-85925000D01*
X155250000Y-85908333D01*
X155183333Y-85891666D01*
X155133333Y-85891666D01*
X155066666Y-85908333D01*
X155033333Y-85925000D01*
X155000000Y-85958333D01*
X154983333Y-86008333D01*
X154983333Y-86041666D01*
X155000000Y-86091666D01*
X155016666Y-86108333D01*
X155333333Y-86258333D02*
X154983333Y-86258333D01*
X154983333Y-86391666D01*
X155000000Y-86425000D01*
X155016666Y-86441666D01*
X155050000Y-86458333D01*
X155100000Y-86458333D01*
X155133333Y-86441666D01*
X155150000Y-86425000D01*
X155166666Y-86391666D01*
X155166666Y-86258333D01*
X155000000Y-86791666D02*
X154983333Y-86758333D01*
X154983333Y-86708333D01*
X155000000Y-86658333D01*
X155033333Y-86625000D01*
X155066666Y-86608333D01*
X155133333Y-86591666D01*
X155183333Y-86591666D01*
X155250000Y-86608333D01*
X155283333Y-86625000D01*
X155316666Y-86658333D01*
X155333333Y-86708333D01*
X155333333Y-86741666D01*
X155316666Y-86791666D01*
X155300000Y-86808333D01*
X155183333Y-86808333D01*
X155183333Y-86741666D01*
X155133333Y-100833333D02*
X155133333Y-101000000D01*
X155233333Y-100800000D02*
X154883333Y-100916666D01*
X155233333Y-101033333D01*
X155233333Y-101150000D02*
X154883333Y-101150000D01*
X154883333Y-101233333D01*
X154900000Y-101283333D01*
X154933333Y-101316666D01*
X154966666Y-101333333D01*
X155033333Y-101350000D01*
X155083333Y-101350000D01*
X155150000Y-101333333D01*
X155183333Y-101316666D01*
X155216666Y-101283333D01*
X155233333Y-101233333D01*
X155233333Y-101150000D01*
X154916666Y-101483333D02*
X154900000Y-101500000D01*
X154883333Y-101533333D01*
X154883333Y-101616666D01*
X154900000Y-101650000D01*
X154916666Y-101666666D01*
X154950000Y-101683333D01*
X154983333Y-101683333D01*
X155033333Y-101666666D01*
X155233333Y-101466666D01*
X155233333Y-101683333D01*
X154900000Y-102283333D02*
X154883333Y-102250000D01*
X154883333Y-102200000D01*
X154900000Y-102150000D01*
X154933333Y-102116666D01*
X154966666Y-102100000D01*
X155033333Y-102083333D01*
X155083333Y-102083333D01*
X155150000Y-102100000D01*
X155183333Y-102116666D01*
X155216666Y-102150000D01*
X155233333Y-102200000D01*
X155233333Y-102233333D01*
X155216666Y-102283333D01*
X155200000Y-102300000D01*
X155083333Y-102300000D01*
X155083333Y-102233333D01*
X155233333Y-102450000D02*
X154883333Y-102450000D01*
X155233333Y-102650000D01*
X154883333Y-102650000D01*
X155233333Y-102816666D02*
X154883333Y-102816666D01*
X154883333Y-102900000D01*
X154900000Y-102950000D01*
X154933333Y-102983333D01*
X154966666Y-103000000D01*
X155033333Y-103016666D01*
X155083333Y-103016666D01*
X155150000Y-103000000D01*
X155183333Y-102983333D01*
X155216666Y-102950000D01*
X155233333Y-102900000D01*
X155233333Y-102816666D01*
X181633333Y-103883333D02*
X181633333Y-104050000D01*
X181733333Y-103850000D02*
X181383333Y-103966666D01*
X181733333Y-104083333D01*
X181383333Y-104150000D02*
X181733333Y-104266666D01*
X181383333Y-104383333D01*
X181700000Y-104700000D02*
X181716666Y-104683333D01*
X181733333Y-104633333D01*
X181733333Y-104600000D01*
X181716666Y-104550000D01*
X181683333Y-104516666D01*
X181650000Y-104500000D01*
X181583333Y-104483333D01*
X181533333Y-104483333D01*
X181466666Y-104500000D01*
X181433333Y-104516666D01*
X181400000Y-104550000D01*
X181383333Y-104600000D01*
X181383333Y-104633333D01*
X181400000Y-104683333D01*
X181416666Y-104700000D01*
X181383333Y-105066666D02*
X181733333Y-105183333D01*
X181383333Y-105300000D01*
X181700000Y-105616666D02*
X181716666Y-105600000D01*
X181733333Y-105550000D01*
X181733333Y-105516666D01*
X181716666Y-105466666D01*
X181683333Y-105433333D01*
X181650000Y-105416666D01*
X181583333Y-105400000D01*
X181533333Y-105400000D01*
X181466666Y-105416666D01*
X181433333Y-105433333D01*
X181400000Y-105466666D01*
X181383333Y-105516666D01*
X181383333Y-105550000D01*
X181400000Y-105600000D01*
X181416666Y-105616666D01*
X181700000Y-105966666D02*
X181716666Y-105950000D01*
X181733333Y-105900000D01*
X181733333Y-105866666D01*
X181716666Y-105816666D01*
X181683333Y-105783333D01*
X181650000Y-105766666D01*
X181583333Y-105750000D01*
X181533333Y-105750000D01*
X181466666Y-105766666D01*
X181433333Y-105783333D01*
X181400000Y-105816666D01*
X181383333Y-105866666D01*
X181383333Y-105900000D01*
X181400000Y-105950000D01*
X181416666Y-105966666D01*
X115650000Y-125866666D02*
X115600000Y-125883333D01*
X115516666Y-125883333D01*
X115483333Y-125866666D01*
X115466666Y-125850000D01*
X115450000Y-125816666D01*
X115450000Y-125783333D01*
X115466666Y-125750000D01*
X115483333Y-125733333D01*
X115516666Y-125716666D01*
X115583333Y-125700000D01*
X115616666Y-125683333D01*
X115633333Y-125666666D01*
X115650000Y-125633333D01*
X115650000Y-125600000D01*
X115633333Y-125566666D01*
X115616666Y-125550000D01*
X115583333Y-125533333D01*
X115500000Y-125533333D01*
X115450000Y-125550000D01*
X115333333Y-125883333D02*
X115150000Y-125650000D01*
X115333333Y-125650000D02*
X115150000Y-125883333D01*
X114833333Y-125883333D02*
X115033333Y-125883333D01*
X114933333Y-125883333D02*
X114933333Y-125533333D01*
X114966666Y-125583333D01*
X115000000Y-125616666D01*
X115033333Y-125633333D01*
X114416666Y-125750000D02*
X114150000Y-125750000D01*
X114283333Y-125883333D02*
X114283333Y-125616666D01*
X113800000Y-125883333D02*
X114000000Y-125883333D01*
X113900000Y-125883333D02*
X113900000Y-125533333D01*
X113933333Y-125583333D01*
X113966666Y-125616666D01*
X114000000Y-125633333D01*
X113666666Y-125566666D02*
X113650000Y-125550000D01*
X113616666Y-125533333D01*
X113533333Y-125533333D01*
X113500000Y-125550000D01*
X113483333Y-125566666D01*
X113466666Y-125600000D01*
X113466666Y-125633333D01*
X113483333Y-125683333D01*
X113683333Y-125883333D01*
X113466666Y-125883333D01*
X113066666Y-125866666D02*
X113016666Y-125883333D01*
X112933333Y-125883333D01*
X112900000Y-125866666D01*
X112883333Y-125850000D01*
X112866666Y-125816666D01*
X112866666Y-125783333D01*
X112883333Y-125750000D01*
X112900000Y-125733333D01*
X112933333Y-125716666D01*
X113000000Y-125700000D01*
X113033333Y-125683333D01*
X113050000Y-125666666D01*
X113066666Y-125633333D01*
X113066666Y-125600000D01*
X113050000Y-125566666D01*
X113033333Y-125550000D01*
X113000000Y-125533333D01*
X112916666Y-125533333D01*
X112866666Y-125550000D01*
X112750000Y-125883333D02*
X112566666Y-125650000D01*
X112750000Y-125650000D02*
X112566666Y-125883333D01*
X112450000Y-125566666D02*
X112433333Y-125550000D01*
X112400000Y-125533333D01*
X112316666Y-125533333D01*
X112283333Y-125550000D01*
X112266666Y-125566666D01*
X112250000Y-125600000D01*
X112250000Y-125633333D01*
X112266666Y-125683333D01*
X112466666Y-125883333D01*
X112250000Y-125883333D01*
D12*
X98327380Y-89614761D02*
X97327380Y-89614761D01*
X98327380Y-90354761D02*
X98327380Y-89931904D01*
X98327380Y-90143333D02*
X97327380Y-90143333D01*
X97470238Y-90072857D01*
X97565476Y-90002380D01*
X97613095Y-89931904D01*
X97946428Y-90671904D02*
X97946428Y-91235714D01*
X98327380Y-90953809D02*
X97565476Y-90953809D01*
X98327380Y-92151904D02*
X97327380Y-92151904D01*
X98327380Y-92891904D02*
X98327380Y-92469047D01*
X98327380Y-92680476D02*
X97327380Y-92680476D01*
X97470238Y-92610000D01*
X97565476Y-92539523D01*
X97613095Y-92469047D01*
X97946428Y-93209047D02*
X97946428Y-93772857D01*
X97375000Y-95076666D02*
X97327380Y-95006190D01*
X97327380Y-94900476D01*
X97375000Y-94794761D01*
X97470238Y-94724285D01*
X97565476Y-94689047D01*
X97755952Y-94653809D01*
X97898809Y-94653809D01*
X98089285Y-94689047D01*
X98184523Y-94724285D01*
X98279761Y-94794761D01*
X98327380Y-94900476D01*
X98327380Y-94970952D01*
X98279761Y-95076666D01*
X98232142Y-95111904D01*
X97898809Y-95111904D01*
X97898809Y-94970952D01*
X98327380Y-95429047D02*
X97327380Y-95429047D01*
X98327380Y-95851904D01*
X97327380Y-95851904D01*
X98327380Y-96204285D02*
X97327380Y-96204285D01*
X97327380Y-96380476D01*
X97375000Y-96486190D01*
X97470238Y-96556666D01*
X97565476Y-96591904D01*
X97755952Y-96627142D01*
X97898809Y-96627142D01*
X98089285Y-96591904D01*
X98184523Y-96556666D01*
X98279761Y-96486190D01*
X98327380Y-96380476D01*
X98327380Y-96204285D01*
X97375000Y-97895714D02*
X97327380Y-97825238D01*
X97327380Y-97719523D01*
X97375000Y-97613809D01*
X97470238Y-97543333D01*
X97565476Y-97508095D01*
X97755952Y-97472857D01*
X97898809Y-97472857D01*
X98089285Y-97508095D01*
X98184523Y-97543333D01*
X98279761Y-97613809D01*
X98327380Y-97719523D01*
X98327380Y-97790000D01*
X98279761Y-97895714D01*
X98232142Y-97930952D01*
X97898809Y-97930952D01*
X97898809Y-97790000D01*
X98327380Y-98248095D02*
X97327380Y-98248095D01*
X98327380Y-98670952D01*
X97327380Y-98670952D01*
X98327380Y-99023333D02*
X97327380Y-99023333D01*
X97327380Y-99199523D01*
X97375000Y-99305238D01*
X97470238Y-99375714D01*
X97565476Y-99410952D01*
X97755952Y-99446190D01*
X97898809Y-99446190D01*
X98089285Y-99410952D01*
X98184523Y-99375714D01*
X98279761Y-99305238D01*
X98327380Y-99199523D01*
X98327380Y-99023333D01*
X98327380Y-100327142D02*
X97327380Y-100327142D01*
X97422619Y-100644285D02*
X97375000Y-100679523D01*
X97327380Y-100750000D01*
X97327380Y-100926190D01*
X97375000Y-100996666D01*
X97422619Y-101031904D01*
X97517857Y-101067142D01*
X97613095Y-101067142D01*
X97755952Y-101031904D01*
X98327380Y-100609047D01*
X98327380Y-101067142D01*
X97946428Y-101384285D02*
X97946428Y-101948095D01*
X98327380Y-101666190D02*
X97565476Y-101666190D01*
X98327380Y-102864285D02*
X97327380Y-102864285D01*
X97422619Y-103181428D02*
X97375000Y-103216666D01*
X97327380Y-103287142D01*
X97327380Y-103463333D01*
X97375000Y-103533809D01*
X97422619Y-103569047D01*
X97517857Y-103604285D01*
X97613095Y-103604285D01*
X97755952Y-103569047D01*
X98327380Y-103146190D01*
X98327380Y-103604285D01*
X97946428Y-103921428D02*
X97946428Y-104485238D01*
D13*
G04 #@! TO.C,J16*
X94260000Y-89370000D02*
X94260000Y-104730000D01*
X94260000Y-104730000D02*
X91600000Y-104730000D01*
X91600000Y-104730000D02*
X91600000Y-89370000D01*
X91600000Y-89370000D02*
X94260000Y-89370000D01*
X91600000Y-90320000D02*
X85600000Y-90320000D01*
X85600000Y-90320000D02*
X85600000Y-91080000D01*
X85600000Y-91080000D02*
X91600000Y-91080000D01*
X91600000Y-90380000D02*
X85600000Y-90380000D01*
X91600000Y-90500000D02*
X85600000Y-90500000D01*
X91600000Y-90620000D02*
X85600000Y-90620000D01*
X91600000Y-90740000D02*
X85600000Y-90740000D01*
X91600000Y-90860000D02*
X85600000Y-90860000D01*
X91600000Y-90980000D02*
X85600000Y-90980000D01*
X94590000Y-90320000D02*
X94260000Y-90320000D01*
X94590000Y-91080000D02*
X94260000Y-91080000D01*
X94260000Y-91970000D02*
X91600000Y-91970000D01*
X91600000Y-92860000D02*
X85600000Y-92860000D01*
X85600000Y-92860000D02*
X85600000Y-93620000D01*
X85600000Y-93620000D02*
X91600000Y-93620000D01*
X94657071Y-92860000D02*
X94260000Y-92860000D01*
X94657071Y-93620000D02*
X94260000Y-93620000D01*
X94260000Y-94510000D02*
X91600000Y-94510000D01*
X91600000Y-95400000D02*
X85600000Y-95400000D01*
X85600000Y-95400000D02*
X85600000Y-96160000D01*
X85600000Y-96160000D02*
X91600000Y-96160000D01*
X94657071Y-95400000D02*
X94260000Y-95400000D01*
X94657071Y-96160000D02*
X94260000Y-96160000D01*
X94260000Y-97050000D02*
X91600000Y-97050000D01*
X91600000Y-97940000D02*
X85600000Y-97940000D01*
X85600000Y-97940000D02*
X85600000Y-98700000D01*
X85600000Y-98700000D02*
X91600000Y-98700000D01*
X94657071Y-97940000D02*
X94260000Y-97940000D01*
X94657071Y-98700000D02*
X94260000Y-98700000D01*
X94260000Y-99590000D02*
X91600000Y-99590000D01*
X91600000Y-100480000D02*
X85600000Y-100480000D01*
X85600000Y-100480000D02*
X85600000Y-101240000D01*
X85600000Y-101240000D02*
X91600000Y-101240000D01*
X94657071Y-100480000D02*
X94260000Y-100480000D01*
X94657071Y-101240000D02*
X94260000Y-101240000D01*
X94260000Y-102130000D02*
X91600000Y-102130000D01*
X91600000Y-103020000D02*
X85600000Y-103020000D01*
X85600000Y-103020000D02*
X85600000Y-103780000D01*
X85600000Y-103780000D02*
X91600000Y-103780000D01*
X94657071Y-103020000D02*
X94260000Y-103020000D01*
X94657071Y-103780000D02*
X94260000Y-103780000D01*
X96970000Y-90700000D02*
X96970000Y-89430000D01*
X96970000Y-89430000D02*
X95700000Y-89430000D01*
G04 #@! TO.C,J4*
X155510000Y-86945000D02*
X155510000Y-84405000D01*
X157290000Y-84405000D02*
X157290000Y-86945000D01*
X157290000Y-84405000D02*
X155510000Y-84405000D01*
X155510000Y-86945000D02*
X157290000Y-86945000D01*
G04 #@! TO.C,J5*
X155360000Y-103145000D02*
X155360000Y-100605000D01*
X157140000Y-100605000D02*
X157140000Y-103145000D01*
X157140000Y-100605000D02*
X155360000Y-100605000D01*
X155360000Y-103145000D02*
X157140000Y-103145000D01*
G04 #@! TO.C,J34*
X182070000Y-106200000D02*
X182070000Y-103660000D01*
X183850000Y-103660000D02*
X183850000Y-106200000D01*
X183850000Y-103660000D02*
X182070000Y-103660000D01*
X182070000Y-106200000D02*
X183850000Y-106200000D01*
G04 #@! TO.C,JP1*
X112065000Y-123485000D02*
X112065000Y-125265000D01*
X115885000Y-125265000D02*
X112065000Y-125265000D01*
X115885000Y-123485000D02*
X115885000Y-125265000D01*
X112065000Y-123485000D02*
X115885000Y-123485000D01*
D14*
G04 #@! TO.C,G\002A\002A\002A*
G36*
X128283947Y-104746053D02*
X127559200Y-104746053D01*
X127559200Y-105470800D01*
X128283947Y-105470800D01*
X128283947Y-104746053D01*
X128283947Y-104746053D01*
G37*
X128283947Y-104746053D02*
X127559200Y-104746053D01*
X127559200Y-105470800D01*
X128283947Y-105470800D01*
X128283947Y-104746053D01*
G36*
X138443947Y-102568426D02*
X134816827Y-102568426D01*
X134816827Y-105470800D01*
X135541574Y-105470800D01*
X135541574Y-103293173D01*
X137722587Y-103293173D01*
X137722587Y-105470800D01*
X135541574Y-105470800D01*
X134816827Y-105470800D01*
X134816827Y-106195546D01*
X138443947Y-106195546D01*
X138443947Y-102568426D01*
X138443947Y-102568426D01*
G37*
X138443947Y-102568426D02*
X134816827Y-102568426D01*
X134816827Y-105470800D01*
X135541574Y-105470800D01*
X135541574Y-103293173D01*
X137722587Y-103293173D01*
X137722587Y-105470800D01*
X135541574Y-105470800D01*
X134816827Y-105470800D01*
X134816827Y-106195546D01*
X138443947Y-106195546D01*
X138443947Y-102568426D01*
G36*
X125381574Y-102568426D02*
X121754454Y-102568426D01*
X121754454Y-105470800D01*
X122479200Y-105470800D01*
X122479200Y-103293173D01*
X124656827Y-103293173D01*
X124656827Y-105470800D01*
X122479200Y-105470800D01*
X121754454Y-105470800D01*
X121754454Y-106195546D01*
X125381574Y-106195546D01*
X125381574Y-102568426D01*
X125381574Y-102568426D01*
G37*
X125381574Y-102568426D02*
X121754454Y-102568426D01*
X121754454Y-105470800D01*
X122479200Y-105470800D01*
X122479200Y-103293173D01*
X124656827Y-103293173D01*
X124656827Y-105470800D01*
X122479200Y-105470800D01*
X121754454Y-105470800D01*
X121754454Y-106195546D01*
X125381574Y-106195546D01*
X125381574Y-102568426D01*
G36*
X122479200Y-98941306D02*
X121754454Y-98941306D01*
X121754454Y-100390800D01*
X122479200Y-100390800D01*
X122479200Y-98941306D01*
X122479200Y-98941306D01*
G37*
X122479200Y-98941306D02*
X121754454Y-98941306D01*
X121754454Y-100390800D01*
X122479200Y-100390800D01*
X122479200Y-98941306D01*
G36*
X123928694Y-98937920D02*
X124656827Y-98937920D01*
X124656827Y-98213173D01*
X123203947Y-98213173D01*
X123203947Y-97488426D01*
X121754454Y-97488426D01*
X121754454Y-98213173D01*
X122479200Y-98213173D01*
X122479200Y-98937920D01*
X123207334Y-98937920D01*
X123207334Y-99662666D01*
X123928694Y-99662666D01*
X123928694Y-98937920D01*
X123928694Y-98937920D01*
G37*
X123928694Y-98937920D02*
X124656827Y-98937920D01*
X124656827Y-98213173D01*
X123203947Y-98213173D01*
X123203947Y-97488426D01*
X121754454Y-97488426D01*
X121754454Y-98213173D01*
X122479200Y-98213173D01*
X122479200Y-98937920D01*
X123207334Y-98937920D01*
X123207334Y-99662666D01*
X123928694Y-99662666D01*
X123928694Y-98937920D01*
G36*
X126106320Y-96763680D02*
X125384960Y-96763680D01*
X125384960Y-97485040D01*
X126106320Y-97485040D01*
X126106320Y-96763680D01*
X126106320Y-96763680D01*
G37*
X126106320Y-96763680D02*
X125384960Y-96763680D01*
X125384960Y-97485040D01*
X126106320Y-97485040D01*
X126106320Y-96763680D01*
G36*
X124656827Y-96760293D02*
X125381574Y-96760293D01*
X125381574Y-96035546D01*
X123207334Y-96035546D01*
X123207334Y-97485040D01*
X124656827Y-97485040D01*
X124656827Y-96760293D01*
X124656827Y-96760293D01*
G37*
X124656827Y-96760293D02*
X125381574Y-96760293D01*
X125381574Y-96035546D01*
X123207334Y-96035546D01*
X123207334Y-97485040D01*
X124656827Y-97485040D01*
X124656827Y-96760293D01*
G36*
X131914454Y-103293173D02*
X132639200Y-103293173D01*
X132639200Y-101843680D01*
X131914454Y-101843680D01*
X131914454Y-102568426D01*
X131186320Y-102568426D01*
X131186320Y-101115546D01*
X130464960Y-101115546D01*
X130464960Y-103293173D01*
X131189707Y-103293173D01*
X131189707Y-104017920D01*
X131914454Y-104017920D01*
X131914454Y-103293173D01*
X131914454Y-103293173D01*
G37*
X131914454Y-103293173D02*
X132639200Y-103293173D01*
X132639200Y-101843680D01*
X131914454Y-101843680D01*
X131914454Y-102568426D01*
X131186320Y-102568426D01*
X131186320Y-101115546D01*
X130464960Y-101115546D01*
X130464960Y-103293173D01*
X131189707Y-103293173D01*
X131189707Y-104017920D01*
X131914454Y-104017920D01*
X131914454Y-103293173D01*
G36*
X132639200Y-100390800D02*
X131189707Y-100390800D01*
X131189707Y-101115546D01*
X132639200Y-101115546D01*
X132639200Y-100390800D01*
X132639200Y-100390800D01*
G37*
X132639200Y-100390800D02*
X131189707Y-100390800D01*
X131189707Y-101115546D01*
X132639200Y-101115546D01*
X132639200Y-100390800D01*
G36*
X137719200Y-99666053D02*
X136994454Y-99666053D01*
X136994454Y-100390800D01*
X137719200Y-100390800D01*
X137719200Y-99666053D01*
X137719200Y-99666053D01*
G37*
X137719200Y-99666053D02*
X136994454Y-99666053D01*
X136994454Y-100390800D01*
X137719200Y-100390800D01*
X137719200Y-99666053D01*
G36*
X131186320Y-99666053D02*
X130464960Y-99666053D01*
X130464960Y-100390800D01*
X131186320Y-100390800D01*
X131186320Y-99666053D01*
X131186320Y-99666053D01*
G37*
X131186320Y-99666053D02*
X130464960Y-99666053D01*
X130464960Y-100390800D01*
X131186320Y-100390800D01*
X131186320Y-99666053D01*
G36*
X130461574Y-100390800D02*
X129736827Y-100390800D01*
X129736827Y-101115546D01*
X130461574Y-101115546D01*
X130461574Y-100390800D01*
X130461574Y-100390800D01*
G37*
X130461574Y-100390800D02*
X129736827Y-100390800D01*
X129736827Y-101115546D01*
X130461574Y-101115546D01*
X130461574Y-100390800D01*
G36*
X129736827Y-99666053D02*
X129012080Y-99666053D01*
X129012080Y-100390800D01*
X129736827Y-100390800D01*
X129736827Y-99666053D01*
X129736827Y-99666053D01*
G37*
X129736827Y-99666053D02*
X129012080Y-99666053D01*
X129012080Y-100390800D01*
X129736827Y-100390800D01*
X129736827Y-99666053D01*
G36*
X136994454Y-98213173D02*
X136266320Y-98213173D01*
X136266320Y-97488426D01*
X135544960Y-97488426D01*
X135544960Y-98937920D01*
X136994454Y-98937920D01*
X136994454Y-98213173D01*
X136994454Y-98213173D01*
G37*
X136994454Y-98213173D02*
X136266320Y-98213173D01*
X136266320Y-97488426D01*
X135544960Y-97488426D01*
X135544960Y-98937920D01*
X136994454Y-98937920D01*
X136994454Y-98213173D01*
G36*
X137719200Y-96763680D02*
X136269707Y-96763680D01*
X136269707Y-97485040D01*
X137719200Y-97485040D01*
X137719200Y-96763680D01*
X137719200Y-96763680D01*
G37*
X137719200Y-96763680D02*
X136269707Y-96763680D01*
X136269707Y-97485040D01*
X137719200Y-97485040D01*
X137719200Y-96763680D01*
G36*
X136994454Y-95310800D02*
X136269707Y-95310800D01*
X136269707Y-96035546D01*
X136994454Y-96035546D01*
X136994454Y-95310800D01*
X136994454Y-95310800D01*
G37*
X136994454Y-95310800D02*
X136269707Y-95310800D01*
X136269707Y-96035546D01*
X136994454Y-96035546D01*
X136994454Y-95310800D01*
G36*
X131186320Y-95310800D02*
X130464960Y-95310800D01*
X130464960Y-96035546D01*
X131186320Y-96035546D01*
X131186320Y-95310800D01*
X131186320Y-95310800D01*
G37*
X131186320Y-95310800D02*
X130464960Y-95310800D01*
X130464960Y-96035546D01*
X131186320Y-96035546D01*
X131186320Y-95310800D01*
G36*
X130461574Y-94586053D02*
X129736827Y-94586053D01*
X129736827Y-95307413D01*
X130461574Y-95307413D01*
X130461574Y-94586053D01*
X130461574Y-94586053D01*
G37*
X130461574Y-94586053D02*
X129736827Y-94586053D01*
X129736827Y-95307413D01*
X130461574Y-95307413D01*
X130461574Y-94586053D01*
G36*
X131186320Y-93857920D02*
X130464960Y-93857920D01*
X130464960Y-94582666D01*
X131186320Y-94582666D01*
X131186320Y-93857920D01*
X131186320Y-93857920D01*
G37*
X131186320Y-93857920D02*
X130464960Y-93857920D01*
X130464960Y-94582666D01*
X131186320Y-94582666D01*
X131186320Y-93857920D01*
G36*
X135541574Y-92408426D02*
X133367334Y-92408426D01*
X133367334Y-93857920D01*
X134092080Y-93857920D01*
X134092080Y-93133173D01*
X134816827Y-93133173D01*
X134816827Y-93857920D01*
X134092080Y-93857920D01*
X133367334Y-93857920D01*
X133367334Y-94582666D01*
X135541574Y-94582666D01*
X135541574Y-92408426D01*
X135541574Y-92408426D01*
G37*
X135541574Y-92408426D02*
X133367334Y-92408426D01*
X133367334Y-93857920D01*
X134092080Y-93857920D01*
X134092080Y-93133173D01*
X134816827Y-93133173D01*
X134816827Y-93857920D01*
X134092080Y-93857920D01*
X133367334Y-93857920D01*
X133367334Y-94582666D01*
X135541574Y-94582666D01*
X135541574Y-92408426D01*
G36*
X130461574Y-92408426D02*
X129736827Y-92408426D01*
X129736827Y-93133173D01*
X130461574Y-93133173D01*
X130461574Y-92408426D01*
X130461574Y-92408426D01*
G37*
X130461574Y-92408426D02*
X129736827Y-92408426D01*
X129736827Y-93133173D01*
X130461574Y-93133173D01*
X130461574Y-92408426D01*
G36*
X132639200Y-91683680D02*
X131189707Y-91683680D01*
X131189707Y-93133173D01*
X131914454Y-93133173D01*
X131914454Y-94582666D01*
X132639200Y-94582666D01*
X132639200Y-91683680D01*
X132639200Y-91683680D01*
G37*
X132639200Y-91683680D02*
X131189707Y-91683680D01*
X131189707Y-93133173D01*
X131914454Y-93133173D01*
X131914454Y-94582666D01*
X132639200Y-94582666D01*
X132639200Y-91683680D01*
G36*
X134092080Y-90955546D02*
X133367334Y-90955546D01*
X133367334Y-91680293D01*
X134092080Y-91680293D01*
X134092080Y-90955546D01*
X134092080Y-90955546D01*
G37*
X134092080Y-90955546D02*
X133367334Y-90955546D01*
X133367334Y-91680293D01*
X134092080Y-91680293D01*
X134092080Y-90955546D01*
G36*
X136994454Y-90955577D02*
X136268014Y-90953853D01*
X136267152Y-90592326D01*
X136266290Y-90230800D01*
X134816796Y-90230800D01*
X134817658Y-90592326D01*
X134818520Y-90953853D01*
X135544960Y-90955577D01*
X135544960Y-91680293D01*
X136994454Y-91680293D01*
X136994454Y-90955577D01*
X136994454Y-90955577D01*
G37*
X136994454Y-90955577D02*
X136268014Y-90953853D01*
X136267152Y-90592326D01*
X136266290Y-90230800D01*
X134816796Y-90230800D01*
X134817658Y-90592326D01*
X134818520Y-90953853D01*
X135544960Y-90955577D01*
X135544960Y-91680293D01*
X136994454Y-91680293D01*
X136994454Y-90955577D01*
G36*
X137719200Y-90230800D02*
X136994454Y-90230800D01*
X136994454Y-90955546D01*
X137719200Y-90955546D01*
X137719200Y-90230800D01*
X137719200Y-90230800D01*
G37*
X137719200Y-90230800D02*
X136994454Y-90230800D01*
X136994454Y-90955546D01*
X137719200Y-90955546D01*
X137719200Y-90230800D01*
G36*
X129736827Y-91680293D02*
X130461574Y-91680293D01*
X130461574Y-90955546D01*
X132639200Y-90955546D01*
X132639200Y-90230800D01*
X131186320Y-90230800D01*
X131186320Y-89506053D01*
X130464960Y-89506053D01*
X130464960Y-90230800D01*
X129736827Y-90230800D01*
X129736827Y-89506053D01*
X129012080Y-89506053D01*
X129012080Y-90955546D01*
X128287334Y-90955546D01*
X128287334Y-91680293D01*
X129012080Y-91680293D01*
X129012080Y-92405040D01*
X129736827Y-92405040D01*
X129736827Y-91680293D01*
X129736827Y-91680293D01*
G37*
X129736827Y-91680293D02*
X130461574Y-91680293D01*
X130461574Y-90955546D01*
X132639200Y-90955546D01*
X132639200Y-90230800D01*
X131186320Y-90230800D01*
X131186320Y-89506053D01*
X130464960Y-89506053D01*
X130464960Y-90230800D01*
X129736827Y-90230800D01*
X129736827Y-89506053D01*
X129012080Y-89506053D01*
X129012080Y-90955546D01*
X128287334Y-90955546D01*
X128287334Y-91680293D01*
X129012080Y-91680293D01*
X129012080Y-92405040D01*
X129736827Y-92405040D01*
X129736827Y-91680293D01*
G36*
X125381574Y-89506053D02*
X121754454Y-89506053D01*
X121754454Y-92408426D01*
X122479200Y-92408426D01*
X122479200Y-90227413D01*
X124656827Y-90227413D01*
X124656827Y-92408426D01*
X122479200Y-92408426D01*
X121754454Y-92408426D01*
X121754454Y-93133173D01*
X125381574Y-93133173D01*
X125381574Y-89506053D01*
X125381574Y-89506053D01*
G37*
X125381574Y-89506053D02*
X121754454Y-89506053D01*
X121754454Y-92408426D01*
X122479200Y-92408426D01*
X122479200Y-90227413D01*
X124656827Y-90227413D01*
X124656827Y-92408426D01*
X122479200Y-92408426D01*
X121754454Y-92408426D01*
X121754454Y-93133173D01*
X125381574Y-93133173D01*
X125381574Y-89506053D01*
G36*
X140519974Y-87430026D02*
X119783414Y-87430026D01*
X119783414Y-93857920D01*
X121026320Y-93857920D01*
X121026320Y-88777920D01*
X126109707Y-88777920D01*
X126109707Y-90230800D01*
X126834454Y-90230800D01*
X126834454Y-88777920D01*
X127559200Y-88777920D01*
X127559200Y-90230800D01*
X126834454Y-90230800D01*
X126109707Y-90230800D01*
X126109707Y-93133173D01*
X126834454Y-93133173D01*
X126834454Y-91680293D01*
X127559200Y-91680293D01*
X127559200Y-90955546D01*
X128283947Y-90955546D01*
X128283947Y-89502666D01*
X129008694Y-89502666D01*
X129008694Y-88777920D01*
X129736827Y-88777920D01*
X129736827Y-89502666D01*
X130461574Y-89502666D01*
X130461574Y-88777920D01*
X132642587Y-88777920D01*
X132642587Y-90227413D01*
X134092080Y-90227413D01*
X134092080Y-89502666D01*
X136994454Y-89502666D01*
X136994454Y-88777920D01*
X139172080Y-88777920D01*
X139172080Y-89506053D01*
X138447334Y-89506053D01*
X138447334Y-90955546D01*
X139172080Y-90955546D01*
X139172080Y-92408426D01*
X137722587Y-92408426D01*
X137722587Y-93133173D01*
X136269707Y-93133173D01*
X136269707Y-94582666D01*
X137722587Y-94582666D01*
X137722587Y-95307383D01*
X138084114Y-95308245D01*
X138445640Y-95309106D01*
X138447364Y-96035546D01*
X137722587Y-96035546D01*
X137722587Y-96760293D01*
X138447334Y-96760293D01*
X138447334Y-97485040D01*
X139172080Y-97485040D01*
X139172080Y-98213173D01*
X138447364Y-98213173D01*
X138445640Y-98939613D01*
X138084114Y-98940475D01*
X137722587Y-98941337D01*
X137722587Y-99662666D01*
X138447334Y-99662666D01*
X138447334Y-100390800D01*
X139172080Y-100390800D01*
X139172080Y-101115546D01*
X136266320Y-101115546D01*
X136266320Y-100390800D01*
X135544960Y-100390800D01*
X135544960Y-101115546D01*
X134816827Y-101115546D01*
X134816827Y-100390800D01*
X135541574Y-100390800D01*
X135541574Y-99666053D01*
X134092080Y-99666053D01*
X134092080Y-98213173D01*
X133363916Y-98213173D01*
X133365640Y-97486733D01*
X135541574Y-97485029D01*
X135541574Y-96763680D01*
X134092080Y-96763680D01*
X134092080Y-95310800D01*
X132642587Y-95310800D01*
X132642587Y-96035546D01*
X133367364Y-96035546D01*
X133365640Y-96761986D01*
X133004114Y-96762848D01*
X132642587Y-96763710D01*
X132642587Y-98213173D01*
X131914454Y-98213173D01*
X131914454Y-97488426D01*
X130464960Y-97488426D01*
X130464960Y-98213173D01*
X129736827Y-98213173D01*
X129736827Y-97485040D01*
X130461574Y-97485040D01*
X130461574Y-96035546D01*
X129736827Y-96035546D01*
X129736827Y-95310830D01*
X129010387Y-95309106D01*
X129010387Y-94584360D01*
X129736827Y-94582636D01*
X129736827Y-93857920D01*
X129008694Y-93857920D01*
X129008694Y-92408426D01*
X128287334Y-92408426D01*
X128287334Y-93133173D01*
X126834454Y-93133173D01*
X126109707Y-93133173D01*
X126109707Y-93857920D01*
X121026320Y-93857920D01*
X119783414Y-93857920D01*
X119783414Y-101115546D01*
X121026320Y-101115546D01*
X121026320Y-98937920D01*
X121751067Y-98937920D01*
X121751067Y-98213173D01*
X121026320Y-98213173D01*
X121026320Y-96760293D01*
X122479200Y-96760293D01*
X122479200Y-95310800D01*
X121026320Y-95310800D01*
X121026320Y-94582666D01*
X122479200Y-94582666D01*
X122479200Y-95307413D01*
X123203947Y-95307413D01*
X123203947Y-94582666D01*
X123932080Y-94582666D01*
X123932080Y-95307413D01*
X124656827Y-95307413D01*
X124656827Y-94582666D01*
X126109707Y-94582666D01*
X126109707Y-95310800D01*
X125384960Y-95310800D01*
X125384960Y-96035546D01*
X126834454Y-96035546D01*
X126834454Y-93857920D01*
X128287364Y-93857920D01*
X128285640Y-94584360D01*
X127559200Y-94586084D01*
X127559200Y-96035546D01*
X129012080Y-96035546D01*
X129012080Y-96763680D01*
X127559200Y-96763680D01*
X127559200Y-97488426D01*
X126109707Y-97488426D01*
X126109707Y-98213173D01*
X125384960Y-98213173D01*
X125384960Y-98937920D01*
X126109707Y-98937920D01*
X126109707Y-98941306D01*
X126834454Y-98941306D01*
X126834454Y-98213173D01*
X127559200Y-98213173D01*
X127559200Y-98941306D01*
X126834454Y-98941306D01*
X126109707Y-98941306D01*
X126109707Y-99666053D01*
X123932080Y-99666053D01*
X123932080Y-100390800D01*
X126109707Y-100390800D01*
X126109707Y-101115546D01*
X123928694Y-101115546D01*
X123928694Y-100390800D01*
X122479200Y-100390800D01*
X122479200Y-101115546D01*
X121026320Y-101115546D01*
X119783414Y-101115546D01*
X119783414Y-106923680D01*
X121026320Y-106923680D01*
X121026320Y-101840293D01*
X126109707Y-101840293D01*
X126109707Y-103293173D01*
X126834454Y-103293173D01*
X126834454Y-101840293D01*
X127559200Y-101840293D01*
X127559200Y-101115546D01*
X128287334Y-101115546D01*
X128287334Y-101840293D01*
X129012080Y-101840293D01*
X129012080Y-102565040D01*
X129736827Y-102565040D01*
X129736827Y-101115546D01*
X129008694Y-101115546D01*
X129008694Y-100390800D01*
X127559200Y-100390800D01*
X127559200Y-99662666D01*
X129008694Y-99662666D01*
X129008694Y-98941337D01*
X128285640Y-98939613D01*
X128285640Y-97486733D01*
X129012080Y-97485009D01*
X129012080Y-98213173D01*
X129736827Y-98213173D01*
X129736827Y-98937920D01*
X131189707Y-98937920D01*
X131189707Y-99662666D01*
X131914454Y-99662666D01*
X131914454Y-98937889D01*
X132640894Y-98939613D01*
X132641748Y-99665206D01*
X132642602Y-100390800D01*
X133367334Y-100390800D01*
X133367334Y-103293173D01*
X132642617Y-103293173D01*
X132641755Y-103656393D01*
X132640894Y-104019613D01*
X131914454Y-104021337D01*
X131914454Y-104742651D01*
X132640047Y-104743505D01*
X133365640Y-104744360D01*
X133367364Y-105470800D01*
X131914454Y-105470800D01*
X131914454Y-106195546D01*
X133367334Y-106195546D01*
X133367334Y-106923680D01*
X134092080Y-106923680D01*
X134092080Y-101840293D01*
X139172080Y-101840293D01*
X139172080Y-106923680D01*
X134092080Y-106923680D01*
X133367334Y-106923680D01*
X131914454Y-106923680D01*
X131914454Y-106198933D01*
X130464960Y-106198933D01*
X130464960Y-106923680D01*
X129736827Y-106923680D01*
X129736827Y-106195546D01*
X130461574Y-106195546D01*
X130461574Y-105470800D01*
X131186320Y-105470800D01*
X131186320Y-104021306D01*
X130461574Y-104021306D01*
X130461574Y-103293173D01*
X129008694Y-103293173D01*
X129008694Y-102568426D01*
X128283947Y-102568426D01*
X128283947Y-101843680D01*
X127559200Y-101843680D01*
X127559200Y-103293173D01*
X126834454Y-103293173D01*
X126109707Y-103293173D01*
X126109707Y-106923680D01*
X126834454Y-106923680D01*
X126834454Y-104017920D01*
X128287334Y-104017920D01*
X128287334Y-104742666D01*
X129008663Y-104742666D01*
X129009525Y-104381140D01*
X129010387Y-104019613D01*
X129736827Y-104017889D01*
X129736827Y-105470800D01*
X129012080Y-105470800D01*
X129012080Y-106923680D01*
X126834454Y-106923680D01*
X126109707Y-106923680D01*
X121026320Y-106923680D01*
X119783414Y-106923680D01*
X119783414Y-108166586D01*
X140519974Y-108166586D01*
X140519974Y-87430026D01*
X140519974Y-87430026D01*
G37*
X140519974Y-87430026D02*
X119783414Y-87430026D01*
X119783414Y-93857920D01*
X121026320Y-93857920D01*
X121026320Y-88777920D01*
X126109707Y-88777920D01*
X126109707Y-90230800D01*
X126834454Y-90230800D01*
X126834454Y-88777920D01*
X127559200Y-88777920D01*
X127559200Y-90230800D01*
X126834454Y-90230800D01*
X126109707Y-90230800D01*
X126109707Y-93133173D01*
X126834454Y-93133173D01*
X126834454Y-91680293D01*
X127559200Y-91680293D01*
X127559200Y-90955546D01*
X128283947Y-90955546D01*
X128283947Y-89502666D01*
X129008694Y-89502666D01*
X129008694Y-88777920D01*
X129736827Y-88777920D01*
X129736827Y-89502666D01*
X130461574Y-89502666D01*
X130461574Y-88777920D01*
X132642587Y-88777920D01*
X132642587Y-90227413D01*
X134092080Y-90227413D01*
X134092080Y-89502666D01*
X136994454Y-89502666D01*
X136994454Y-88777920D01*
X139172080Y-88777920D01*
X139172080Y-89506053D01*
X138447334Y-89506053D01*
X138447334Y-90955546D01*
X139172080Y-90955546D01*
X139172080Y-92408426D01*
X137722587Y-92408426D01*
X137722587Y-93133173D01*
X136269707Y-93133173D01*
X136269707Y-94582666D01*
X137722587Y-94582666D01*
X137722587Y-95307383D01*
X138084114Y-95308245D01*
X138445640Y-95309106D01*
X138447364Y-96035546D01*
X137722587Y-96035546D01*
X137722587Y-96760293D01*
X138447334Y-96760293D01*
X138447334Y-97485040D01*
X139172080Y-97485040D01*
X139172080Y-98213173D01*
X138447364Y-98213173D01*
X138445640Y-98939613D01*
X138084114Y-98940475D01*
X137722587Y-98941337D01*
X137722587Y-99662666D01*
X138447334Y-99662666D01*
X138447334Y-100390800D01*
X139172080Y-100390800D01*
X139172080Y-101115546D01*
X136266320Y-101115546D01*
X136266320Y-100390800D01*
X135544960Y-100390800D01*
X135544960Y-101115546D01*
X134816827Y-101115546D01*
X134816827Y-100390800D01*
X135541574Y-100390800D01*
X135541574Y-99666053D01*
X134092080Y-99666053D01*
X134092080Y-98213173D01*
X133363916Y-98213173D01*
X133365640Y-97486733D01*
X135541574Y-97485029D01*
X135541574Y-96763680D01*
X134092080Y-96763680D01*
X134092080Y-95310800D01*
X132642587Y-95310800D01*
X132642587Y-96035546D01*
X133367364Y-96035546D01*
X133365640Y-96761986D01*
X133004114Y-96762848D01*
X132642587Y-96763710D01*
X132642587Y-98213173D01*
X131914454Y-98213173D01*
X131914454Y-97488426D01*
X130464960Y-97488426D01*
X130464960Y-98213173D01*
X129736827Y-98213173D01*
X129736827Y-97485040D01*
X130461574Y-97485040D01*
X130461574Y-96035546D01*
X129736827Y-96035546D01*
X129736827Y-95310830D01*
X129010387Y-95309106D01*
X129010387Y-94584360D01*
X129736827Y-94582636D01*
X129736827Y-93857920D01*
X129008694Y-93857920D01*
X129008694Y-92408426D01*
X128287334Y-92408426D01*
X128287334Y-93133173D01*
X126834454Y-93133173D01*
X126109707Y-93133173D01*
X126109707Y-93857920D01*
X121026320Y-93857920D01*
X119783414Y-93857920D01*
X119783414Y-101115546D01*
X121026320Y-101115546D01*
X121026320Y-98937920D01*
X121751067Y-98937920D01*
X121751067Y-98213173D01*
X121026320Y-98213173D01*
X121026320Y-96760293D01*
X122479200Y-96760293D01*
X122479200Y-95310800D01*
X121026320Y-95310800D01*
X121026320Y-94582666D01*
X122479200Y-94582666D01*
X122479200Y-95307413D01*
X123203947Y-95307413D01*
X123203947Y-94582666D01*
X123932080Y-94582666D01*
X123932080Y-95307413D01*
X124656827Y-95307413D01*
X124656827Y-94582666D01*
X126109707Y-94582666D01*
X126109707Y-95310800D01*
X125384960Y-95310800D01*
X125384960Y-96035546D01*
X126834454Y-96035546D01*
X126834454Y-93857920D01*
X128287364Y-93857920D01*
X128285640Y-94584360D01*
X127559200Y-94586084D01*
X127559200Y-96035546D01*
X129012080Y-96035546D01*
X129012080Y-96763680D01*
X127559200Y-96763680D01*
X127559200Y-97488426D01*
X126109707Y-97488426D01*
X126109707Y-98213173D01*
X125384960Y-98213173D01*
X125384960Y-98937920D01*
X126109707Y-98937920D01*
X126109707Y-98941306D01*
X126834454Y-98941306D01*
X126834454Y-98213173D01*
X127559200Y-98213173D01*
X127559200Y-98941306D01*
X126834454Y-98941306D01*
X126109707Y-98941306D01*
X126109707Y-99666053D01*
X123932080Y-99666053D01*
X123932080Y-100390800D01*
X126109707Y-100390800D01*
X126109707Y-101115546D01*
X123928694Y-101115546D01*
X123928694Y-100390800D01*
X122479200Y-100390800D01*
X122479200Y-101115546D01*
X121026320Y-101115546D01*
X119783414Y-101115546D01*
X119783414Y-106923680D01*
X121026320Y-106923680D01*
X121026320Y-101840293D01*
X126109707Y-101840293D01*
X126109707Y-103293173D01*
X126834454Y-103293173D01*
X126834454Y-101840293D01*
X127559200Y-101840293D01*
X127559200Y-101115546D01*
X128287334Y-101115546D01*
X128287334Y-101840293D01*
X129012080Y-101840293D01*
X129012080Y-102565040D01*
X129736827Y-102565040D01*
X129736827Y-101115546D01*
X129008694Y-101115546D01*
X129008694Y-100390800D01*
X127559200Y-100390800D01*
X127559200Y-99662666D01*
X129008694Y-99662666D01*
X129008694Y-98941337D01*
X128285640Y-98939613D01*
X128285640Y-97486733D01*
X129012080Y-97485009D01*
X129012080Y-98213173D01*
X129736827Y-98213173D01*
X129736827Y-98937920D01*
X131189707Y-98937920D01*
X131189707Y-99662666D01*
X131914454Y-99662666D01*
X131914454Y-98937889D01*
X132640894Y-98939613D01*
X132641748Y-99665206D01*
X132642602Y-100390800D01*
X133367334Y-100390800D01*
X133367334Y-103293173D01*
X132642617Y-103293173D01*
X132641755Y-103656393D01*
X132640894Y-104019613D01*
X131914454Y-104021337D01*
X131914454Y-104742651D01*
X132640047Y-104743505D01*
X133365640Y-104744360D01*
X133367364Y-105470800D01*
X131914454Y-105470800D01*
X131914454Y-106195546D01*
X133367334Y-106195546D01*
X133367334Y-106923680D01*
X134092080Y-106923680D01*
X134092080Y-101840293D01*
X139172080Y-101840293D01*
X139172080Y-106923680D01*
X134092080Y-106923680D01*
X133367334Y-106923680D01*
X131914454Y-106923680D01*
X131914454Y-106198933D01*
X130464960Y-106198933D01*
X130464960Y-106923680D01*
X129736827Y-106923680D01*
X129736827Y-106195546D01*
X130461574Y-106195546D01*
X130461574Y-105470800D01*
X131186320Y-105470800D01*
X131186320Y-104021306D01*
X130461574Y-104021306D01*
X130461574Y-103293173D01*
X129008694Y-103293173D01*
X129008694Y-102568426D01*
X128283947Y-102568426D01*
X128283947Y-101843680D01*
X127559200Y-101843680D01*
X127559200Y-103293173D01*
X126834454Y-103293173D01*
X126109707Y-103293173D01*
X126109707Y-106923680D01*
X126834454Y-106923680D01*
X126834454Y-104017920D01*
X128287334Y-104017920D01*
X128287334Y-104742666D01*
X129008663Y-104742666D01*
X129009525Y-104381140D01*
X129010387Y-104019613D01*
X129736827Y-104017889D01*
X129736827Y-105470800D01*
X129012080Y-105470800D01*
X129012080Y-106923680D01*
X126834454Y-106923680D01*
X126109707Y-106923680D01*
X121026320Y-106923680D01*
X119783414Y-106923680D01*
X119783414Y-108166586D01*
X140519974Y-108166586D01*
X140519974Y-87430026D01*
G04 #@! TO.C,REF\002A\002A\002A*
G36*
X170767036Y-108740749D02*
X170783972Y-108784544D01*
X170817601Y-108851293D01*
X170870334Y-108947137D01*
X170874525Y-108954599D01*
X170925001Y-109042871D01*
X170969223Y-109117363D01*
X171002731Y-109170760D01*
X171021064Y-109195746D01*
X171021962Y-109196445D01*
X171047414Y-109190409D01*
X171104255Y-109162723D01*
X171189389Y-109115188D01*
X171299717Y-109049611D01*
X171432144Y-108967797D01*
X171583571Y-108871548D01*
X171620707Y-108847594D01*
X171723757Y-108785183D01*
X171812432Y-108739737D01*
X171878714Y-108715246D01*
X171891807Y-108712733D01*
X171949443Y-108713848D01*
X172040865Y-108726343D01*
X172160208Y-108748660D01*
X172301609Y-108779240D01*
X172459203Y-108816528D01*
X172627126Y-108858965D01*
X172799514Y-108904994D01*
X172970501Y-108953057D01*
X173134224Y-109001597D01*
X173284818Y-109049057D01*
X173416420Y-109093878D01*
X173523163Y-109134503D01*
X173586494Y-109162823D01*
X173653957Y-109196183D01*
X173718511Y-109227682D01*
X173722045Y-109229387D01*
X173787250Y-109281498D01*
X173831156Y-109357554D01*
X173852197Y-109446092D01*
X173848807Y-109535648D01*
X173819423Y-109614758D01*
X173780736Y-109659264D01*
X173674636Y-109723356D01*
X173542405Y-109770322D01*
X173397527Y-109796090D01*
X173315394Y-109799741D01*
X173162105Y-109785039D01*
X173035166Y-109741890D01*
X172928418Y-109667972D01*
X172904657Y-109644921D01*
X172838009Y-109576325D01*
X172366916Y-109571614D01*
X171895822Y-109566903D01*
X171714106Y-109686946D01*
X171631856Y-109743277D01*
X171557865Y-109797528D01*
X171502448Y-109841959D01*
X171482056Y-109861056D01*
X171431723Y-109915124D01*
X171471158Y-109988350D01*
X171499415Y-110034633D01*
X171521354Y-110059957D01*
X171525299Y-110061576D01*
X171542023Y-110078884D01*
X171554476Y-110108497D01*
X171565700Y-110137114D01*
X171587024Y-110180934D01*
X171620529Y-110243718D01*
X171668296Y-110329228D01*
X171732407Y-110441226D01*
X171814944Y-110583473D01*
X171860065Y-110660773D01*
X171914111Y-110751702D01*
X171952604Y-110811339D01*
X171980044Y-110844961D01*
X172000934Y-110857844D01*
X172019775Y-110855265D01*
X172024152Y-110853115D01*
X172051714Y-110832197D01*
X172103416Y-110787440D01*
X172173475Y-110724057D01*
X172256107Y-110647262D01*
X172326156Y-110580844D01*
X172492414Y-110427790D01*
X172636519Y-110308056D01*
X172759921Y-110220573D01*
X172864068Y-110164274D01*
X172916954Y-110145284D01*
X172963250Y-110137440D01*
X173042221Y-110129338D01*
X173144846Y-110121691D01*
X173262103Y-110115212D01*
X173336248Y-110112163D01*
X173464427Y-110107908D01*
X173558138Y-110106036D01*
X173624583Y-110107099D01*
X173670961Y-110111646D01*
X173704474Y-110120227D01*
X173732321Y-110133394D01*
X173749324Y-110143735D01*
X173814862Y-110203456D01*
X173860532Y-110280411D01*
X173880450Y-110361380D01*
X173873244Y-110422058D01*
X173842066Y-110476999D01*
X173786230Y-110545867D01*
X173715474Y-110619005D01*
X173639537Y-110686752D01*
X173568159Y-110739450D01*
X173533668Y-110758853D01*
X173486441Y-110787919D01*
X173414506Y-110840783D01*
X173323485Y-110912616D01*
X173219000Y-110998588D01*
X173106675Y-111093868D01*
X172992130Y-111193627D01*
X172880990Y-111293034D01*
X172778875Y-111387259D01*
X172691408Y-111471473D01*
X172627198Y-111537591D01*
X172563057Y-111610999D01*
X172515763Y-111672753D01*
X172490235Y-111716066D01*
X172487429Y-111730445D01*
X172498752Y-111752479D01*
X172529144Y-111807438D01*
X172576780Y-111892152D01*
X172639835Y-112003448D01*
X172716485Y-112138156D01*
X172804905Y-112293103D01*
X172903270Y-112465119D01*
X173009756Y-112651032D01*
X173122537Y-112847670D01*
X173239789Y-113051863D01*
X173359687Y-113260439D01*
X173480407Y-113470225D01*
X173600123Y-113678052D01*
X173717011Y-113880747D01*
X173829246Y-114075140D01*
X173935004Y-114258058D01*
X174032460Y-114426330D01*
X174119788Y-114576785D01*
X174195165Y-114706251D01*
X174256765Y-114811557D01*
X174302764Y-114889532D01*
X174331337Y-114937004D01*
X174340304Y-114950763D01*
X174342076Y-114932231D01*
X174343799Y-114873933D01*
X174345464Y-114777809D01*
X174347063Y-114645799D01*
X174348587Y-114479846D01*
X174350029Y-114281889D01*
X174351380Y-114053870D01*
X174352632Y-113797729D01*
X174353776Y-113515408D01*
X174354804Y-113208847D01*
X174355708Y-112879987D01*
X174356479Y-112530769D01*
X174357109Y-112163135D01*
X174357590Y-111779024D01*
X174357914Y-111380377D01*
X174358072Y-110969137D01*
X174358087Y-110796580D01*
X174358087Y-106622586D01*
X173841954Y-106920268D01*
X173732665Y-106983286D01*
X173591940Y-107064406D01*
X173424486Y-107160916D01*
X173235012Y-107270103D01*
X173028223Y-107389255D01*
X172808828Y-107515660D01*
X172581533Y-107646605D01*
X172351046Y-107779379D01*
X172122073Y-107911269D01*
X172064163Y-107944624D01*
X171853232Y-108066247D01*
X171652535Y-108182228D01*
X171465059Y-108290825D01*
X171293792Y-108390294D01*
X171141723Y-108478892D01*
X171011838Y-108554878D01*
X170907125Y-108616507D01*
X170830573Y-108662037D01*
X170785169Y-108689725D01*
X170773609Y-108697472D01*
X170764385Y-108713772D01*
X170767036Y-108740749D01*
X170767036Y-108740749D01*
G37*
X170767036Y-108740749D02*
X170783972Y-108784544D01*
X170817601Y-108851293D01*
X170870334Y-108947137D01*
X170874525Y-108954599D01*
X170925001Y-109042871D01*
X170969223Y-109117363D01*
X171002731Y-109170760D01*
X171021064Y-109195746D01*
X171021962Y-109196445D01*
X171047414Y-109190409D01*
X171104255Y-109162723D01*
X171189389Y-109115188D01*
X171299717Y-109049611D01*
X171432144Y-108967797D01*
X171583571Y-108871548D01*
X171620707Y-108847594D01*
X171723757Y-108785183D01*
X171812432Y-108739737D01*
X171878714Y-108715246D01*
X171891807Y-108712733D01*
X171949443Y-108713848D01*
X172040865Y-108726343D01*
X172160208Y-108748660D01*
X172301609Y-108779240D01*
X172459203Y-108816528D01*
X172627126Y-108858965D01*
X172799514Y-108904994D01*
X172970501Y-108953057D01*
X173134224Y-109001597D01*
X173284818Y-109049057D01*
X173416420Y-109093878D01*
X173523163Y-109134503D01*
X173586494Y-109162823D01*
X173653957Y-109196183D01*
X173718511Y-109227682D01*
X173722045Y-109229387D01*
X173787250Y-109281498D01*
X173831156Y-109357554D01*
X173852197Y-109446092D01*
X173848807Y-109535648D01*
X173819423Y-109614758D01*
X173780736Y-109659264D01*
X173674636Y-109723356D01*
X173542405Y-109770322D01*
X173397527Y-109796090D01*
X173315394Y-109799741D01*
X173162105Y-109785039D01*
X173035166Y-109741890D01*
X172928418Y-109667972D01*
X172904657Y-109644921D01*
X172838009Y-109576325D01*
X172366916Y-109571614D01*
X171895822Y-109566903D01*
X171714106Y-109686946D01*
X171631856Y-109743277D01*
X171557865Y-109797528D01*
X171502448Y-109841959D01*
X171482056Y-109861056D01*
X171431723Y-109915124D01*
X171471158Y-109988350D01*
X171499415Y-110034633D01*
X171521354Y-110059957D01*
X171525299Y-110061576D01*
X171542023Y-110078884D01*
X171554476Y-110108497D01*
X171565700Y-110137114D01*
X171587024Y-110180934D01*
X171620529Y-110243718D01*
X171668296Y-110329228D01*
X171732407Y-110441226D01*
X171814944Y-110583473D01*
X171860065Y-110660773D01*
X171914111Y-110751702D01*
X171952604Y-110811339D01*
X171980044Y-110844961D01*
X172000934Y-110857844D01*
X172019775Y-110855265D01*
X172024152Y-110853115D01*
X172051714Y-110832197D01*
X172103416Y-110787440D01*
X172173475Y-110724057D01*
X172256107Y-110647262D01*
X172326156Y-110580844D01*
X172492414Y-110427790D01*
X172636519Y-110308056D01*
X172759921Y-110220573D01*
X172864068Y-110164274D01*
X172916954Y-110145284D01*
X172963250Y-110137440D01*
X173042221Y-110129338D01*
X173144846Y-110121691D01*
X173262103Y-110115212D01*
X173336248Y-110112163D01*
X173464427Y-110107908D01*
X173558138Y-110106036D01*
X173624583Y-110107099D01*
X173670961Y-110111646D01*
X173704474Y-110120227D01*
X173732321Y-110133394D01*
X173749324Y-110143735D01*
X173814862Y-110203456D01*
X173860532Y-110280411D01*
X173880450Y-110361380D01*
X173873244Y-110422058D01*
X173842066Y-110476999D01*
X173786230Y-110545867D01*
X173715474Y-110619005D01*
X173639537Y-110686752D01*
X173568159Y-110739450D01*
X173533668Y-110758853D01*
X173486441Y-110787919D01*
X173414506Y-110840783D01*
X173323485Y-110912616D01*
X173219000Y-110998588D01*
X173106675Y-111093868D01*
X172992130Y-111193627D01*
X172880990Y-111293034D01*
X172778875Y-111387259D01*
X172691408Y-111471473D01*
X172627198Y-111537591D01*
X172563057Y-111610999D01*
X172515763Y-111672753D01*
X172490235Y-111716066D01*
X172487429Y-111730445D01*
X172498752Y-111752479D01*
X172529144Y-111807438D01*
X172576780Y-111892152D01*
X172639835Y-112003448D01*
X172716485Y-112138156D01*
X172804905Y-112293103D01*
X172903270Y-112465119D01*
X173009756Y-112651032D01*
X173122537Y-112847670D01*
X173239789Y-113051863D01*
X173359687Y-113260439D01*
X173480407Y-113470225D01*
X173600123Y-113678052D01*
X173717011Y-113880747D01*
X173829246Y-114075140D01*
X173935004Y-114258058D01*
X174032460Y-114426330D01*
X174119788Y-114576785D01*
X174195165Y-114706251D01*
X174256765Y-114811557D01*
X174302764Y-114889532D01*
X174331337Y-114937004D01*
X174340304Y-114950763D01*
X174342076Y-114932231D01*
X174343799Y-114873933D01*
X174345464Y-114777809D01*
X174347063Y-114645799D01*
X174348587Y-114479846D01*
X174350029Y-114281889D01*
X174351380Y-114053870D01*
X174352632Y-113797729D01*
X174353776Y-113515408D01*
X174354804Y-113208847D01*
X174355708Y-112879987D01*
X174356479Y-112530769D01*
X174357109Y-112163135D01*
X174357590Y-111779024D01*
X174357914Y-111380377D01*
X174358072Y-110969137D01*
X174358087Y-110796580D01*
X174358087Y-106622586D01*
X173841954Y-106920268D01*
X173732665Y-106983286D01*
X173591940Y-107064406D01*
X173424486Y-107160916D01*
X173235012Y-107270103D01*
X173028223Y-107389255D01*
X172808828Y-107515660D01*
X172581533Y-107646605D01*
X172351046Y-107779379D01*
X172122073Y-107911269D01*
X172064163Y-107944624D01*
X171853232Y-108066247D01*
X171652535Y-108182228D01*
X171465059Y-108290825D01*
X171293792Y-108390294D01*
X171141723Y-108478892D01*
X171011838Y-108554878D01*
X170907125Y-108616507D01*
X170830573Y-108662037D01*
X170785169Y-108689725D01*
X170773609Y-108697472D01*
X170764385Y-108713772D01*
X170767036Y-108740749D01*
G36*
X170690908Y-113676146D02*
X170716590Y-113691469D01*
X170775469Y-113725911D01*
X170864602Y-113777769D01*
X170981049Y-113845340D01*
X171121867Y-113926921D01*
X171284114Y-114020809D01*
X171464849Y-114125299D01*
X171661130Y-114238690D01*
X171870016Y-114359278D01*
X172085017Y-114483313D01*
X172304649Y-114609987D01*
X172515495Y-114731608D01*
X172714499Y-114846412D01*
X172898607Y-114952638D01*
X173064765Y-115048523D01*
X173209917Y-115132302D01*
X173331009Y-115202214D01*
X173424988Y-115256496D01*
X173488797Y-115293385D01*
X173518719Y-115310731D01*
X173569271Y-115339007D01*
X173600914Y-115354382D01*
X173606420Y-115355224D01*
X173596082Y-115336488D01*
X173566407Y-115284386D01*
X173518968Y-115201640D01*
X173455333Y-115090975D01*
X173377074Y-114955114D01*
X173285759Y-114796781D01*
X173182960Y-114618698D01*
X173070247Y-114423590D01*
X172949189Y-114214180D01*
X172821357Y-113993191D01*
X172772702Y-113909113D01*
X172642567Y-113684170D01*
X172518497Y-113469524D01*
X172402077Y-113267932D01*
X172294893Y-113082148D01*
X172198531Y-112914928D01*
X172114578Y-112769027D01*
X172044620Y-112647201D01*
X171990243Y-112552204D01*
X171953034Y-112486792D01*
X171934578Y-112453720D01*
X171932830Y-112450262D01*
X171917005Y-112460339D01*
X171874692Y-112495407D01*
X171809790Y-112551885D01*
X171726196Y-112626193D01*
X171627809Y-112714752D01*
X171518525Y-112813980D01*
X171402244Y-112920298D01*
X171282862Y-113030125D01*
X171164277Y-113139882D01*
X171050388Y-113245988D01*
X170945092Y-113344862D01*
X170852287Y-113432926D01*
X170775870Y-113506599D01*
X170719740Y-113562300D01*
X170701335Y-113581403D01*
X170641872Y-113644708D01*
X170690908Y-113676146D01*
X170690908Y-113676146D01*
G37*
X170690908Y-113676146D02*
X170716590Y-113691469D01*
X170775469Y-113725911D01*
X170864602Y-113777769D01*
X170981049Y-113845340D01*
X171121867Y-113926921D01*
X171284114Y-114020809D01*
X171464849Y-114125299D01*
X171661130Y-114238690D01*
X171870016Y-114359278D01*
X172085017Y-114483313D01*
X172304649Y-114609987D01*
X172515495Y-114731608D01*
X172714499Y-114846412D01*
X172898607Y-114952638D01*
X173064765Y-115048523D01*
X173209917Y-115132302D01*
X173331009Y-115202214D01*
X173424988Y-115256496D01*
X173488797Y-115293385D01*
X173518719Y-115310731D01*
X173569271Y-115339007D01*
X173600914Y-115354382D01*
X173606420Y-115355224D01*
X173596082Y-115336488D01*
X173566407Y-115284386D01*
X173518968Y-115201640D01*
X173455333Y-115090975D01*
X173377074Y-114955114D01*
X173285759Y-114796781D01*
X173182960Y-114618698D01*
X173070247Y-114423590D01*
X172949189Y-114214180D01*
X172821357Y-113993191D01*
X172772702Y-113909113D01*
X172642567Y-113684170D01*
X172518497Y-113469524D01*
X172402077Y-113267932D01*
X172294893Y-113082148D01*
X172198531Y-112914928D01*
X172114578Y-112769027D01*
X172044620Y-112647201D01*
X171990243Y-112552204D01*
X171953034Y-112486792D01*
X171934578Y-112453720D01*
X171932830Y-112450262D01*
X171917005Y-112460339D01*
X171874692Y-112495407D01*
X171809790Y-112551885D01*
X171726196Y-112626193D01*
X171627809Y-112714752D01*
X171518525Y-112813980D01*
X171402244Y-112920298D01*
X171282862Y-113030125D01*
X171164277Y-113139882D01*
X171050388Y-113245988D01*
X170945092Y-113344862D01*
X170852287Y-113432926D01*
X170775870Y-113506599D01*
X170719740Y-113562300D01*
X170701335Y-113581403D01*
X170641872Y-113644708D01*
X170690908Y-113676146D01*
G36*
X166451166Y-111220878D02*
X166501538Y-111251876D01*
X166581341Y-111299634D01*
X166687180Y-111362194D01*
X166815659Y-111437597D01*
X166963384Y-111523885D01*
X167126958Y-111619101D01*
X167302987Y-111721285D01*
X167488075Y-111828481D01*
X167678827Y-111938729D01*
X167871847Y-112050071D01*
X168063741Y-112160550D01*
X168251111Y-112268207D01*
X168430565Y-112371084D01*
X168598705Y-112467223D01*
X168752137Y-112554665D01*
X168887465Y-112631453D01*
X169001294Y-112695628D01*
X169090229Y-112745233D01*
X169150874Y-112778309D01*
X169179833Y-112792897D01*
X169181644Y-112793431D01*
X169206217Y-112775321D01*
X169243807Y-112724980D01*
X169290722Y-112648395D01*
X169343274Y-112551552D01*
X169393213Y-112450167D01*
X169453769Y-112312215D01*
X169508179Y-112167142D01*
X169557651Y-112009950D01*
X169603395Y-111835643D01*
X169646620Y-111639222D01*
X169688534Y-111415689D01*
X169730347Y-111160048D01*
X169769284Y-110895606D01*
X169803828Y-110665852D01*
X169838026Y-110472917D01*
X169873577Y-110311964D01*
X169912182Y-110178155D01*
X169955539Y-110066650D01*
X170005348Y-109972614D01*
X170063309Y-109891206D01*
X170131120Y-109817590D01*
X170156312Y-109793851D01*
X170214958Y-109742397D01*
X170262815Y-109704334D01*
X170290958Y-109686677D01*
X170293265Y-109686206D01*
X170307416Y-109680028D01*
X170307575Y-109658590D01*
X170291861Y-109617533D01*
X170258391Y-109552501D01*
X170205281Y-109459137D01*
X170167088Y-109394252D01*
X170107385Y-109297501D01*
X170056263Y-109222312D01*
X170017399Y-109173739D01*
X169994472Y-109156835D01*
X169994305Y-109156845D01*
X169972456Y-109167328D01*
X169917739Y-109196931D01*
X169833136Y-109243938D01*
X169721629Y-109306629D01*
X169586201Y-109383286D01*
X169429833Y-109472191D01*
X169255507Y-109571626D01*
X169066206Y-109679872D01*
X168864911Y-109795211D01*
X168654605Y-109915924D01*
X168438271Y-110040294D01*
X168218889Y-110166601D01*
X167999442Y-110293127D01*
X167782912Y-110418155D01*
X167572281Y-110539965D01*
X167370532Y-110656839D01*
X167180647Y-110767060D01*
X167005606Y-110868908D01*
X166848394Y-110960665D01*
X166711991Y-111040613D01*
X166599380Y-111107034D01*
X166513543Y-111158209D01*
X166457462Y-111192420D01*
X166434119Y-111207948D01*
X166433621Y-111208598D01*
X166451166Y-111220878D01*
X166451166Y-111220878D01*
G37*
X166451166Y-111220878D02*
X166501538Y-111251876D01*
X166581341Y-111299634D01*
X166687180Y-111362194D01*
X166815659Y-111437597D01*
X166963384Y-111523885D01*
X167126958Y-111619101D01*
X167302987Y-111721285D01*
X167488075Y-111828481D01*
X167678827Y-111938729D01*
X167871847Y-112050071D01*
X168063741Y-112160550D01*
X168251111Y-112268207D01*
X168430565Y-112371084D01*
X168598705Y-112467223D01*
X168752137Y-112554665D01*
X168887465Y-112631453D01*
X169001294Y-112695628D01*
X169090229Y-112745233D01*
X169150874Y-112778309D01*
X169179833Y-112792897D01*
X169181644Y-112793431D01*
X169206217Y-112775321D01*
X169243807Y-112724980D01*
X169290722Y-112648395D01*
X169343274Y-112551552D01*
X169393213Y-112450167D01*
X169453769Y-112312215D01*
X169508179Y-112167142D01*
X169557651Y-112009950D01*
X169603395Y-111835643D01*
X169646620Y-111639222D01*
X169688534Y-111415689D01*
X169730347Y-111160048D01*
X169769284Y-110895606D01*
X169803828Y-110665852D01*
X169838026Y-110472917D01*
X169873577Y-110311964D01*
X169912182Y-110178155D01*
X169955539Y-110066650D01*
X170005348Y-109972614D01*
X170063309Y-109891206D01*
X170131120Y-109817590D01*
X170156312Y-109793851D01*
X170214958Y-109742397D01*
X170262815Y-109704334D01*
X170290958Y-109686677D01*
X170293265Y-109686206D01*
X170307416Y-109680028D01*
X170307575Y-109658590D01*
X170291861Y-109617533D01*
X170258391Y-109552501D01*
X170205281Y-109459137D01*
X170167088Y-109394252D01*
X170107385Y-109297501D01*
X170056263Y-109222312D01*
X170017399Y-109173739D01*
X169994472Y-109156835D01*
X169994305Y-109156845D01*
X169972456Y-109167328D01*
X169917739Y-109196931D01*
X169833136Y-109243938D01*
X169721629Y-109306629D01*
X169586201Y-109383286D01*
X169429833Y-109472191D01*
X169255507Y-109571626D01*
X169066206Y-109679872D01*
X168864911Y-109795211D01*
X168654605Y-109915924D01*
X168438271Y-110040294D01*
X168218889Y-110166601D01*
X167999442Y-110293127D01*
X167782912Y-110418155D01*
X167572281Y-110539965D01*
X167370532Y-110656839D01*
X167180647Y-110767060D01*
X167005606Y-110868908D01*
X166848394Y-110960665D01*
X166711991Y-111040613D01*
X166599380Y-111107034D01*
X166513543Y-111158209D01*
X166457462Y-111192420D01*
X166434119Y-111207948D01*
X166433621Y-111208598D01*
X166451166Y-111220878D01*
G36*
X101894184Y-125441241D02*
X101907282Y-125467753D01*
X101930106Y-125500447D01*
X101954996Y-125524275D01*
X101986249Y-125540594D01*
X102028166Y-125550760D01*
X102085044Y-125556128D01*
X102161184Y-125558056D01*
X102193917Y-125558169D01*
X102265656Y-125557839D01*
X102316927Y-125556473D01*
X102352404Y-125553500D01*
X102376763Y-125548351D01*
X102394680Y-125540457D01*
X102406902Y-125532243D01*
X102458905Y-125479813D01*
X102490184Y-125418070D01*
X102499592Y-125351464D01*
X102485980Y-125284442D01*
X102476354Y-125263208D01*
X102449859Y-125212376D01*
X102865052Y-125212376D01*
X102845868Y-125249475D01*
X102831025Y-125298357D01*
X102827222Y-125358439D01*
X102834243Y-125418436D01*
X102850013Y-125463744D01*
X102880047Y-125501325D01*
X102923024Y-125533436D01*
X102927436Y-125535850D01*
X102948221Y-125546033D01*
X102969170Y-125553470D01*
X102994548Y-125558589D01*
X103028618Y-125561819D01*
X103075641Y-125563587D01*
X103139882Y-125564323D01*
X103212176Y-125564456D01*
X103442822Y-125564456D01*
X103442822Y-125426139D01*
X103017533Y-125426139D01*
X102984979Y-125387451D01*
X102958940Y-125347262D01*
X102954205Y-125309203D01*
X102966389Y-125270934D01*
X102978320Y-125250538D01*
X102995313Y-125235358D01*
X103020995Y-125224562D01*
X103058991Y-125217317D01*
X103112926Y-125212792D01*
X103186425Y-125210156D01*
X103235347Y-125209228D01*
X103436535Y-125206089D01*
X103440336Y-125140074D01*
X103444136Y-125074060D01*
X102195650Y-125074060D01*
X102195650Y-125212376D01*
X102265254Y-125215903D01*
X102313569Y-125227785D01*
X102343631Y-125249980D01*
X102358471Y-125284441D01*
X102361436Y-125319258D01*
X102358028Y-125358671D01*
X102344617Y-125384829D01*
X102326896Y-125401186D01*
X102307835Y-125414063D01*
X102286601Y-125421728D01*
X102256849Y-125425139D01*
X102212236Y-125425251D01*
X102174880Y-125424103D01*
X102118604Y-125421468D01*
X102081658Y-125417544D01*
X102058223Y-125410937D01*
X102042480Y-125400251D01*
X102033380Y-125390167D01*
X102013537Y-125348030D01*
X102010332Y-125298160D01*
X102017168Y-125269524D01*
X102041464Y-125241172D01*
X102088728Y-125222391D01*
X102158624Y-125213288D01*
X102195650Y-125212376D01*
X102195650Y-125074060D01*
X101883614Y-125074060D01*
X101883614Y-125143218D01*
X101885256Y-125184740D01*
X101891087Y-125206162D01*
X101902461Y-125212374D01*
X101902798Y-125212376D01*
X101913938Y-125215258D01*
X101912673Y-125227970D01*
X101900433Y-125253243D01*
X101881707Y-125312131D01*
X101879739Y-125378385D01*
X101894184Y-125441241D01*
X101894184Y-125441241D01*
G37*
X101894184Y-125441241D02*
X101907282Y-125467753D01*
X101930106Y-125500447D01*
X101954996Y-125524275D01*
X101986249Y-125540594D01*
X102028166Y-125550760D01*
X102085044Y-125556128D01*
X102161184Y-125558056D01*
X102193917Y-125558169D01*
X102265656Y-125557839D01*
X102316927Y-125556473D01*
X102352404Y-125553500D01*
X102376763Y-125548351D01*
X102394680Y-125540457D01*
X102406902Y-125532243D01*
X102458905Y-125479813D01*
X102490184Y-125418070D01*
X102499592Y-125351464D01*
X102485980Y-125284442D01*
X102476354Y-125263208D01*
X102449859Y-125212376D01*
X102865052Y-125212376D01*
X102845868Y-125249475D01*
X102831025Y-125298357D01*
X102827222Y-125358439D01*
X102834243Y-125418436D01*
X102850013Y-125463744D01*
X102880047Y-125501325D01*
X102923024Y-125533436D01*
X102927436Y-125535850D01*
X102948221Y-125546033D01*
X102969170Y-125553470D01*
X102994548Y-125558589D01*
X103028618Y-125561819D01*
X103075641Y-125563587D01*
X103139882Y-125564323D01*
X103212176Y-125564456D01*
X103442822Y-125564456D01*
X103442822Y-125426139D01*
X103017533Y-125426139D01*
X102984979Y-125387451D01*
X102958940Y-125347262D01*
X102954205Y-125309203D01*
X102966389Y-125270934D01*
X102978320Y-125250538D01*
X102995313Y-125235358D01*
X103020995Y-125224562D01*
X103058991Y-125217317D01*
X103112926Y-125212792D01*
X103186425Y-125210156D01*
X103235347Y-125209228D01*
X103436535Y-125206089D01*
X103440336Y-125140074D01*
X103444136Y-125074060D01*
X102195650Y-125074060D01*
X102195650Y-125212376D01*
X102265254Y-125215903D01*
X102313569Y-125227785D01*
X102343631Y-125249980D01*
X102358471Y-125284441D01*
X102361436Y-125319258D01*
X102358028Y-125358671D01*
X102344617Y-125384829D01*
X102326896Y-125401186D01*
X102307835Y-125414063D01*
X102286601Y-125421728D01*
X102256849Y-125425139D01*
X102212236Y-125425251D01*
X102174880Y-125424103D01*
X102118604Y-125421468D01*
X102081658Y-125417544D01*
X102058223Y-125410937D01*
X102042480Y-125400251D01*
X102033380Y-125390167D01*
X102013537Y-125348030D01*
X102010332Y-125298160D01*
X102017168Y-125269524D01*
X102041464Y-125241172D01*
X102088728Y-125222391D01*
X102158624Y-125213288D01*
X102195650Y-125212376D01*
X102195650Y-125074060D01*
X101883614Y-125074060D01*
X101883614Y-125143218D01*
X101885256Y-125184740D01*
X101891087Y-125206162D01*
X101902461Y-125212374D01*
X101902798Y-125212376D01*
X101913938Y-125215258D01*
X101912673Y-125227970D01*
X101900433Y-125253243D01*
X101881707Y-125312131D01*
X101879739Y-125378385D01*
X101894184Y-125441241D01*
G36*
X102831555Y-125965790D02*
X102847339Y-126024945D01*
X102875948Y-126069977D01*
X102913419Y-126101754D01*
X102929411Y-126111634D01*
X102946163Y-126118927D01*
X102967592Y-126124026D01*
X102997616Y-126127321D01*
X103040154Y-126129203D01*
X103099122Y-126130063D01*
X103178440Y-126130293D01*
X103199484Y-126130297D01*
X103442822Y-126130297D01*
X103442822Y-126069941D01*
X103440126Y-126031443D01*
X103433295Y-126002977D01*
X103429083Y-125995845D01*
X103421813Y-125976348D01*
X103429083Y-125956434D01*
X103438160Y-125923647D01*
X103441813Y-125876022D01*
X103440228Y-125823236D01*
X103433589Y-125774964D01*
X103425072Y-125746782D01*
X103390063Y-125692247D01*
X103341479Y-125658165D01*
X103276882Y-125642843D01*
X103275223Y-125642701D01*
X103246566Y-125644045D01*
X103246566Y-125765644D01*
X103279161Y-125776274D01*
X103297505Y-125793590D01*
X103311379Y-125828348D01*
X103316917Y-125874227D01*
X103314191Y-125921012D01*
X103303274Y-125958486D01*
X103296269Y-125968985D01*
X103263904Y-125987332D01*
X103227111Y-125991980D01*
X103178763Y-125991980D01*
X103178763Y-125922418D01*
X103183850Y-125856333D01*
X103198263Y-125806236D01*
X103220729Y-125775071D01*
X103246566Y-125765644D01*
X103246566Y-125644045D01*
X103204647Y-125646013D01*
X103148845Y-125669290D01*
X103106647Y-125713052D01*
X103102808Y-125719101D01*
X103090309Y-125745093D01*
X103082740Y-125777265D01*
X103079061Y-125822240D01*
X103078216Y-125875669D01*
X103078169Y-125991980D01*
X103029411Y-125991980D01*
X102991581Y-125987047D01*
X102966236Y-125974457D01*
X102964887Y-125972983D01*
X102953800Y-125944966D01*
X102949503Y-125902674D01*
X102951615Y-125855936D01*
X102959756Y-125814582D01*
X102971965Y-125790043D01*
X102981746Y-125776747D01*
X102983613Y-125762706D01*
X102975600Y-125743329D01*
X102955739Y-125714024D01*
X102922063Y-125670197D01*
X102918909Y-125666175D01*
X102907236Y-125668236D01*
X102887822Y-125685432D01*
X102866248Y-125711567D01*
X102848096Y-125740448D01*
X102843809Y-125749522D01*
X102835256Y-125782620D01*
X102829155Y-125831120D01*
X102826708Y-125885305D01*
X102826703Y-125887839D01*
X102831555Y-125965790D01*
X102831555Y-125965790D01*
G37*
X102831555Y-125965790D02*
X102847339Y-126024945D01*
X102875948Y-126069977D01*
X102913419Y-126101754D01*
X102929411Y-126111634D01*
X102946163Y-126118927D01*
X102967592Y-126124026D01*
X102997616Y-126127321D01*
X103040154Y-126129203D01*
X103099122Y-126130063D01*
X103178440Y-126130293D01*
X103199484Y-126130297D01*
X103442822Y-126130297D01*
X103442822Y-126069941D01*
X103440126Y-126031443D01*
X103433295Y-126002977D01*
X103429083Y-125995845D01*
X103421813Y-125976348D01*
X103429083Y-125956434D01*
X103438160Y-125923647D01*
X103441813Y-125876022D01*
X103440228Y-125823236D01*
X103433589Y-125774964D01*
X103425072Y-125746782D01*
X103390063Y-125692247D01*
X103341479Y-125658165D01*
X103276882Y-125642843D01*
X103275223Y-125642701D01*
X103246566Y-125644045D01*
X103246566Y-125765644D01*
X103279161Y-125776274D01*
X103297505Y-125793590D01*
X103311379Y-125828348D01*
X103316917Y-125874227D01*
X103314191Y-125921012D01*
X103303274Y-125958486D01*
X103296269Y-125968985D01*
X103263904Y-125987332D01*
X103227111Y-125991980D01*
X103178763Y-125991980D01*
X103178763Y-125922418D01*
X103183850Y-125856333D01*
X103198263Y-125806236D01*
X103220729Y-125775071D01*
X103246566Y-125765644D01*
X103246566Y-125644045D01*
X103204647Y-125646013D01*
X103148845Y-125669290D01*
X103106647Y-125713052D01*
X103102808Y-125719101D01*
X103090309Y-125745093D01*
X103082740Y-125777265D01*
X103079061Y-125822240D01*
X103078216Y-125875669D01*
X103078169Y-125991980D01*
X103029411Y-125991980D01*
X102991581Y-125987047D01*
X102966236Y-125974457D01*
X102964887Y-125972983D01*
X102953800Y-125944966D01*
X102949503Y-125902674D01*
X102951615Y-125855936D01*
X102959756Y-125814582D01*
X102971965Y-125790043D01*
X102981746Y-125776747D01*
X102983613Y-125762706D01*
X102975600Y-125743329D01*
X102955739Y-125714024D01*
X102922063Y-125670197D01*
X102918909Y-125666175D01*
X102907236Y-125668236D01*
X102887822Y-125685432D01*
X102866248Y-125711567D01*
X102848096Y-125740448D01*
X102843809Y-125749522D01*
X102835256Y-125782620D01*
X102829155Y-125831120D01*
X102826708Y-125885305D01*
X102826703Y-125887839D01*
X102831555Y-125965790D01*
G36*
X102828020Y-126356644D02*
X102833660Y-126375461D01*
X102846053Y-126381527D01*
X102851647Y-126381782D01*
X102867230Y-126382871D01*
X102869676Y-126390368D01*
X102858993Y-126410619D01*
X102851694Y-126422649D01*
X102836063Y-126460600D01*
X102828334Y-126505928D01*
X102827740Y-126553456D01*
X102833513Y-126598005D01*
X102844884Y-126634398D01*
X102861088Y-126657457D01*
X102881355Y-126662004D01*
X102886843Y-126659709D01*
X102909626Y-126642980D01*
X102937647Y-126617037D01*
X102942177Y-126612345D01*
X102963005Y-126587617D01*
X102969735Y-126566282D01*
X102965038Y-126536445D01*
X102961917Y-126524492D01*
X102954421Y-126487295D01*
X102957792Y-126461141D01*
X102969681Y-126439054D01*
X102985635Y-126418822D01*
X103005700Y-126403921D01*
X103033702Y-126393566D01*
X103073467Y-126386971D01*
X103128823Y-126383351D01*
X103203594Y-126381922D01*
X103248740Y-126381782D01*
X103442822Y-126381782D01*
X103442822Y-126256040D01*
X102826683Y-126256040D01*
X102826683Y-126318911D01*
X102828020Y-126356644D01*
X102828020Y-126356644D01*
G37*
X102828020Y-126356644D02*
X102833660Y-126375461D01*
X102846053Y-126381527D01*
X102851647Y-126381782D01*
X102867230Y-126382871D01*
X102869676Y-126390368D01*
X102858993Y-126410619D01*
X102851694Y-126422649D01*
X102836063Y-126460600D01*
X102828334Y-126505928D01*
X102827740Y-126553456D01*
X102833513Y-126598005D01*
X102844884Y-126634398D01*
X102861088Y-126657457D01*
X102881355Y-126662004D01*
X102886843Y-126659709D01*
X102909626Y-126642980D01*
X102937647Y-126617037D01*
X102942177Y-126612345D01*
X102963005Y-126587617D01*
X102969735Y-126566282D01*
X102965038Y-126536445D01*
X102961917Y-126524492D01*
X102954421Y-126487295D01*
X102957792Y-126461141D01*
X102969681Y-126439054D01*
X102985635Y-126418822D01*
X103005700Y-126403921D01*
X103033702Y-126393566D01*
X103073467Y-126386971D01*
X103128823Y-126383351D01*
X103203594Y-126381922D01*
X103248740Y-126381782D01*
X103442822Y-126381782D01*
X103442822Y-126256040D01*
X102826683Y-126256040D01*
X102826683Y-126318911D01*
X102828020Y-126356644D01*
G36*
X103442822Y-127148812D02*
X103442822Y-127079654D01*
X103441645Y-127039512D01*
X103436772Y-127018606D01*
X103426186Y-127011078D01*
X103419029Y-127010495D01*
X103404676Y-127009226D01*
X103401923Y-127001221D01*
X103410771Y-126980185D01*
X103419029Y-126963827D01*
X103438597Y-126901023D01*
X103439729Y-126832752D01*
X103425135Y-126777248D01*
X103389877Y-126725562D01*
X103337835Y-126686162D01*
X103276450Y-126664587D01*
X103273018Y-126664038D01*
X103235571Y-126660833D01*
X103181813Y-126659239D01*
X103141155Y-126659367D01*
X103141155Y-126796721D01*
X103195194Y-126799903D01*
X103239735Y-126807141D01*
X103264888Y-126816940D01*
X103299260Y-126854011D01*
X103311582Y-126898026D01*
X103301618Y-126943416D01*
X103271895Y-126982203D01*
X103251905Y-126996892D01*
X103228050Y-127005481D01*
X103193230Y-127009504D01*
X103140930Y-127010495D01*
X103089139Y-127008722D01*
X103043634Y-127004037D01*
X103013181Y-126997397D01*
X103010452Y-126996290D01*
X102978000Y-126969509D01*
X102960183Y-126930421D01*
X102957306Y-126886685D01*
X102969674Y-126845962D01*
X102997593Y-126815913D01*
X103003148Y-126812796D01*
X103037022Y-126803039D01*
X103085728Y-126797723D01*
X103141155Y-126796721D01*
X103141155Y-126659367D01*
X103120540Y-126659432D01*
X103087563Y-126660336D01*
X103005981Y-126666486D01*
X102944730Y-126679267D01*
X102899449Y-126700529D01*
X102865779Y-126732122D01*
X102846014Y-126762793D01*
X102832120Y-126805646D01*
X102827354Y-126858944D01*
X102831236Y-126913520D01*
X102843282Y-126960208D01*
X102857693Y-126984876D01*
X102880878Y-127010495D01*
X102587773Y-127010495D01*
X102587773Y-127148812D01*
X103442822Y-127148812D01*
X103442822Y-127148812D01*
G37*
X103442822Y-127148812D02*
X103442822Y-127079654D01*
X103441645Y-127039512D01*
X103436772Y-127018606D01*
X103426186Y-127011078D01*
X103419029Y-127010495D01*
X103404676Y-127009226D01*
X103401923Y-127001221D01*
X103410771Y-126980185D01*
X103419029Y-126963827D01*
X103438597Y-126901023D01*
X103439729Y-126832752D01*
X103425135Y-126777248D01*
X103389877Y-126725562D01*
X103337835Y-126686162D01*
X103276450Y-126664587D01*
X103273018Y-126664038D01*
X103235571Y-126660833D01*
X103181813Y-126659239D01*
X103141155Y-126659367D01*
X103141155Y-126796721D01*
X103195194Y-126799903D01*
X103239735Y-126807141D01*
X103264888Y-126816940D01*
X103299260Y-126854011D01*
X103311582Y-126898026D01*
X103301618Y-126943416D01*
X103271895Y-126982203D01*
X103251905Y-126996892D01*
X103228050Y-127005481D01*
X103193230Y-127009504D01*
X103140930Y-127010495D01*
X103089139Y-127008722D01*
X103043634Y-127004037D01*
X103013181Y-126997397D01*
X103010452Y-126996290D01*
X102978000Y-126969509D01*
X102960183Y-126930421D01*
X102957306Y-126886685D01*
X102969674Y-126845962D01*
X102997593Y-126815913D01*
X103003148Y-126812796D01*
X103037022Y-126803039D01*
X103085728Y-126797723D01*
X103141155Y-126796721D01*
X103141155Y-126659367D01*
X103120540Y-126659432D01*
X103087563Y-126660336D01*
X103005981Y-126666486D01*
X102944730Y-126679267D01*
X102899449Y-126700529D01*
X102865779Y-126732122D01*
X102846014Y-126762793D01*
X102832120Y-126805646D01*
X102827354Y-126858944D01*
X102831236Y-126913520D01*
X102843282Y-126960208D01*
X102857693Y-126984876D01*
X102880878Y-127010495D01*
X102587773Y-127010495D01*
X102587773Y-127148812D01*
X103442822Y-127148812D01*
G36*
X102829237Y-127631524D02*
X102832971Y-127681255D01*
X103222773Y-127811291D01*
X103153614Y-127831678D01*
X103110874Y-127843946D01*
X103053115Y-127860085D01*
X102989625Y-127877512D01*
X102955570Y-127886726D01*
X102826683Y-127921388D01*
X102826683Y-128064391D01*
X102961857Y-128021646D01*
X103028342Y-128000596D01*
X103108539Y-127975167D01*
X103192193Y-127948610D01*
X103266782Y-127924902D01*
X103436535Y-127870902D01*
X103440328Y-127812598D01*
X103444122Y-127754295D01*
X103339734Y-127722679D01*
X103274889Y-127703182D01*
X103203400Y-127681904D01*
X103140263Y-127663308D01*
X103137750Y-127662574D01*
X103094969Y-127648684D01*
X103065779Y-127636429D01*
X103054741Y-127627846D01*
X103056018Y-127626082D01*
X103073130Y-127619891D01*
X103109787Y-127608128D01*
X103161378Y-127592225D01*
X103223294Y-127573614D01*
X103257352Y-127563543D01*
X103442822Y-127509007D01*
X103442822Y-127393264D01*
X103150471Y-127300737D01*
X103068462Y-127274744D01*
X102993987Y-127251066D01*
X102930544Y-127230820D01*
X102881632Y-127215126D01*
X102850749Y-127205102D01*
X102841726Y-127202055D01*
X102832487Y-127204467D01*
X102828441Y-127223408D01*
X102828846Y-127262823D01*
X102829152Y-127268993D01*
X102832971Y-127342086D01*
X103009010Y-127389957D01*
X103073211Y-127407553D01*
X103129649Y-127423277D01*
X103173422Y-127435746D01*
X103199630Y-127443574D01*
X103203903Y-127445020D01*
X103198990Y-127451014D01*
X103173532Y-127463101D01*
X103130997Y-127479893D01*
X103074850Y-127500003D01*
X103024130Y-127517003D01*
X102825504Y-127581794D01*
X102829237Y-127631524D01*
X102829237Y-127631524D01*
G37*
X102829237Y-127631524D02*
X102832971Y-127681255D01*
X103222773Y-127811291D01*
X103153614Y-127831678D01*
X103110874Y-127843946D01*
X103053115Y-127860085D01*
X102989625Y-127877512D01*
X102955570Y-127886726D01*
X102826683Y-127921388D01*
X102826683Y-128064391D01*
X102961857Y-128021646D01*
X103028342Y-128000596D01*
X103108539Y-127975167D01*
X103192193Y-127948610D01*
X103266782Y-127924902D01*
X103436535Y-127870902D01*
X103440328Y-127812598D01*
X103444122Y-127754295D01*
X103339734Y-127722679D01*
X103274889Y-127703182D01*
X103203400Y-127681904D01*
X103140263Y-127663308D01*
X103137750Y-127662574D01*
X103094969Y-127648684D01*
X103065779Y-127636429D01*
X103054741Y-127627846D01*
X103056018Y-127626082D01*
X103073130Y-127619891D01*
X103109787Y-127608128D01*
X103161378Y-127592225D01*
X103223294Y-127573614D01*
X103257352Y-127563543D01*
X103442822Y-127509007D01*
X103442822Y-127393264D01*
X103150471Y-127300737D01*
X103068462Y-127274744D01*
X102993987Y-127251066D01*
X102930544Y-127230820D01*
X102881632Y-127215126D01*
X102850749Y-127205102D01*
X102841726Y-127202055D01*
X102832487Y-127204467D01*
X102828441Y-127223408D01*
X102828846Y-127262823D01*
X102829152Y-127268993D01*
X102832971Y-127342086D01*
X103009010Y-127389957D01*
X103073211Y-127407553D01*
X103129649Y-127423277D01*
X103173422Y-127435746D01*
X103199630Y-127443574D01*
X103203903Y-127445020D01*
X103198990Y-127451014D01*
X103173532Y-127463101D01*
X103130997Y-127479893D01*
X103074850Y-127500003D01*
X103024130Y-127517003D01*
X102825504Y-127581794D01*
X102829237Y-127631524D01*
G36*
X102830417Y-128388411D02*
X102843290Y-128441411D01*
X102850110Y-128456731D01*
X102867974Y-128486428D01*
X102888093Y-128509220D01*
X102913962Y-128526083D01*
X102949073Y-128537998D01*
X102996920Y-128545942D01*
X103060996Y-128550894D01*
X103144794Y-128553831D01*
X103200768Y-128554947D01*
X103442822Y-128559052D01*
X103442822Y-128488932D01*
X103441038Y-128446393D01*
X103434942Y-128424476D01*
X103424706Y-128418812D01*
X103413637Y-128415821D01*
X103415754Y-128402451D01*
X103424629Y-128384233D01*
X103438233Y-128338624D01*
X103441899Y-128280007D01*
X103435903Y-128218354D01*
X103420521Y-128163638D01*
X103418386Y-128158730D01*
X103383255Y-128108723D01*
X103334419Y-128075756D01*
X103277333Y-128060587D01*
X103256824Y-128061746D01*
X103256824Y-128185508D01*
X103284425Y-128196413D01*
X103304204Y-128228745D01*
X103314819Y-128280910D01*
X103316228Y-128308787D01*
X103312620Y-128355247D01*
X103298597Y-128386129D01*
X103291931Y-128393664D01*
X103255666Y-128414076D01*
X103222773Y-128418812D01*
X103178763Y-128418812D01*
X103178763Y-128357513D01*
X103182395Y-128286256D01*
X103193818Y-128236276D01*
X103213824Y-128204696D01*
X103222743Y-128197626D01*
X103256824Y-128185508D01*
X103256824Y-128061746D01*
X103217456Y-128063971D01*
X103160244Y-128086663D01*
X103121580Y-128117624D01*
X103104864Y-128136376D01*
X103093878Y-128154733D01*
X103087180Y-128178619D01*
X103083326Y-128213957D01*
X103080873Y-128266669D01*
X103080168Y-128287577D01*
X103075879Y-128418812D01*
X103036158Y-128418620D01*
X102994405Y-128413537D01*
X102969158Y-128395162D01*
X102953030Y-128358039D01*
X102952742Y-128357043D01*
X102946400Y-128304410D01*
X102954684Y-128252906D01*
X102974827Y-128214630D01*
X102984773Y-128199272D01*
X102983397Y-128182730D01*
X102968987Y-128157275D01*
X102958817Y-128142328D01*
X102937088Y-128113091D01*
X102920800Y-128094980D01*
X102916137Y-128092074D01*
X102892005Y-128104040D01*
X102863185Y-128139396D01*
X102853461Y-128154753D01*
X102836714Y-128198901D01*
X102827227Y-128258398D01*
X102825095Y-128324487D01*
X102830417Y-128388411D01*
X102830417Y-128388411D01*
G37*
X102830417Y-128388411D02*
X102843290Y-128441411D01*
X102850110Y-128456731D01*
X102867974Y-128486428D01*
X102888093Y-128509220D01*
X102913962Y-128526083D01*
X102949073Y-128537998D01*
X102996920Y-128545942D01*
X103060996Y-128550894D01*
X103144794Y-128553831D01*
X103200768Y-128554947D01*
X103442822Y-128559052D01*
X103442822Y-128488932D01*
X103441038Y-128446393D01*
X103434942Y-128424476D01*
X103424706Y-128418812D01*
X103413637Y-128415821D01*
X103415754Y-128402451D01*
X103424629Y-128384233D01*
X103438233Y-128338624D01*
X103441899Y-128280007D01*
X103435903Y-128218354D01*
X103420521Y-128163638D01*
X103418386Y-128158730D01*
X103383255Y-128108723D01*
X103334419Y-128075756D01*
X103277333Y-128060587D01*
X103256824Y-128061746D01*
X103256824Y-128185508D01*
X103284425Y-128196413D01*
X103304204Y-128228745D01*
X103314819Y-128280910D01*
X103316228Y-128308787D01*
X103312620Y-128355247D01*
X103298597Y-128386129D01*
X103291931Y-128393664D01*
X103255666Y-128414076D01*
X103222773Y-128418812D01*
X103178763Y-128418812D01*
X103178763Y-128357513D01*
X103182395Y-128286256D01*
X103193818Y-128236276D01*
X103213824Y-128204696D01*
X103222743Y-128197626D01*
X103256824Y-128185508D01*
X103256824Y-128061746D01*
X103217456Y-128063971D01*
X103160244Y-128086663D01*
X103121580Y-128117624D01*
X103104864Y-128136376D01*
X103093878Y-128154733D01*
X103087180Y-128178619D01*
X103083326Y-128213957D01*
X103080873Y-128266669D01*
X103080168Y-128287577D01*
X103075879Y-128418812D01*
X103036158Y-128418620D01*
X102994405Y-128413537D01*
X102969158Y-128395162D01*
X102953030Y-128358039D01*
X102952742Y-128357043D01*
X102946400Y-128304410D01*
X102954684Y-128252906D01*
X102974827Y-128214630D01*
X102984773Y-128199272D01*
X102983397Y-128182730D01*
X102968987Y-128157275D01*
X102958817Y-128142328D01*
X102937088Y-128113091D01*
X102920800Y-128094980D01*
X102916137Y-128092074D01*
X102892005Y-128104040D01*
X102863185Y-128139396D01*
X102853461Y-128154753D01*
X102836714Y-128198901D01*
X102827227Y-128258398D01*
X102825095Y-128324487D01*
X102830417Y-128388411D01*
G36*
X102826486Y-128985255D02*
X102836015Y-129033595D01*
X102850125Y-129061114D01*
X102873568Y-129090064D01*
X102925571Y-129048876D01*
X102957064Y-129023482D01*
X102972428Y-129006238D01*
X102974776Y-128989102D01*
X102967217Y-128964027D01*
X102962941Y-128952257D01*
X102956631Y-128904270D01*
X102970156Y-128860324D01*
X103000710Y-128828060D01*
X103010452Y-128822819D01*
X103036258Y-128817112D01*
X103083817Y-128812706D01*
X103149758Y-128809811D01*
X103230710Y-128808631D01*
X103242226Y-128808614D01*
X103442822Y-128808614D01*
X103442822Y-128670297D01*
X102826683Y-128670297D01*
X102826683Y-128739456D01*
X102827725Y-128779333D01*
X102832358Y-128800107D01*
X102842849Y-128807789D01*
X102852745Y-128808614D01*
X102878806Y-128808614D01*
X102852745Y-128841745D01*
X102834965Y-128879735D01*
X102826174Y-128930770D01*
X102826486Y-128985255D01*
X102826486Y-128985255D01*
G37*
X102826486Y-128985255D02*
X102836015Y-129033595D01*
X102850125Y-129061114D01*
X102873568Y-129090064D01*
X102925571Y-129048876D01*
X102957064Y-129023482D01*
X102972428Y-129006238D01*
X102974776Y-128989102D01*
X102967217Y-128964027D01*
X102962941Y-128952257D01*
X102956631Y-128904270D01*
X102970156Y-128860324D01*
X103000710Y-128828060D01*
X103010452Y-128822819D01*
X103036258Y-128817112D01*
X103083817Y-128812706D01*
X103149758Y-128809811D01*
X103230710Y-128808631D01*
X103242226Y-128808614D01*
X103442822Y-128808614D01*
X103442822Y-128670297D01*
X102826683Y-128670297D01*
X102826683Y-128739456D01*
X102827725Y-128779333D01*
X102832358Y-128800107D01*
X102842849Y-128807789D01*
X102852745Y-128808614D01*
X102878806Y-128808614D01*
X102852745Y-128841745D01*
X102834965Y-128879735D01*
X102826174Y-128930770D01*
X102826486Y-128985255D01*
G36*
X102829970Y-129382581D02*
X102845597Y-129442685D01*
X102877848Y-129493021D01*
X102901940Y-129517393D01*
X102958895Y-129557345D01*
X103024965Y-129580242D01*
X103106182Y-129588108D01*
X103112748Y-129588148D01*
X103178763Y-129588218D01*
X103178763Y-129208264D01*
X103213342Y-129216363D01*
X103244659Y-129230987D01*
X103277291Y-129256581D01*
X103282500Y-129261935D01*
X103310694Y-129307943D01*
X103315475Y-129360410D01*
X103296926Y-129420803D01*
X103291931Y-129431040D01*
X103276745Y-129462439D01*
X103268094Y-129483470D01*
X103267293Y-129487139D01*
X103275063Y-129499948D01*
X103294072Y-129524378D01*
X103304460Y-129536779D01*
X103328321Y-129562476D01*
X103344077Y-129570915D01*
X103358571Y-129565058D01*
X103362534Y-129561928D01*
X103379879Y-129540725D01*
X103400959Y-129505738D01*
X103413265Y-129481337D01*
X103434946Y-129412072D01*
X103441971Y-129335388D01*
X103433647Y-129262765D01*
X103427686Y-129242426D01*
X103393952Y-129179476D01*
X103342045Y-129132815D01*
X103271459Y-129102173D01*
X103181692Y-129087282D01*
X103134753Y-129085647D01*
X103066413Y-129090421D01*
X103066413Y-129210990D01*
X103071465Y-129222652D01*
X103075429Y-129253998D01*
X103077768Y-129299571D01*
X103078169Y-129330446D01*
X103077783Y-129385981D01*
X103075975Y-129421033D01*
X103071773Y-129440262D01*
X103064203Y-129448330D01*
X103053218Y-129449901D01*
X103019381Y-129439121D01*
X102985940Y-129411980D01*
X102960272Y-129376277D01*
X102949772Y-129340560D01*
X102959086Y-129292048D01*
X102986013Y-129250053D01*
X103024827Y-129220936D01*
X103066413Y-129210990D01*
X103066413Y-129090421D01*
X103035236Y-129092599D01*
X102955949Y-129114055D01*
X102896263Y-129150470D01*
X102855549Y-129202297D01*
X102833179Y-129269990D01*
X102828871Y-129306662D01*
X102829970Y-129382581D01*
X102829970Y-129382581D01*
G37*
X102829970Y-129382581D02*
X102845597Y-129442685D01*
X102877848Y-129493021D01*
X102901940Y-129517393D01*
X102958895Y-129557345D01*
X103024965Y-129580242D01*
X103106182Y-129588108D01*
X103112748Y-129588148D01*
X103178763Y-129588218D01*
X103178763Y-129208264D01*
X103213342Y-129216363D01*
X103244659Y-129230987D01*
X103277291Y-129256581D01*
X103282500Y-129261935D01*
X103310694Y-129307943D01*
X103315475Y-129360410D01*
X103296926Y-129420803D01*
X103291931Y-129431040D01*
X103276745Y-129462439D01*
X103268094Y-129483470D01*
X103267293Y-129487139D01*
X103275063Y-129499948D01*
X103294072Y-129524378D01*
X103304460Y-129536779D01*
X103328321Y-129562476D01*
X103344077Y-129570915D01*
X103358571Y-129565058D01*
X103362534Y-129561928D01*
X103379879Y-129540725D01*
X103400959Y-129505738D01*
X103413265Y-129481337D01*
X103434946Y-129412072D01*
X103441971Y-129335388D01*
X103433647Y-129262765D01*
X103427686Y-129242426D01*
X103393952Y-129179476D01*
X103342045Y-129132815D01*
X103271459Y-129102173D01*
X103181692Y-129087282D01*
X103134753Y-129085647D01*
X103066413Y-129090421D01*
X103066413Y-129210990D01*
X103071465Y-129222652D01*
X103075429Y-129253998D01*
X103077768Y-129299571D01*
X103078169Y-129330446D01*
X103077783Y-129385981D01*
X103075975Y-129421033D01*
X103071773Y-129440262D01*
X103064203Y-129448330D01*
X103053218Y-129449901D01*
X103019381Y-129439121D01*
X102985940Y-129411980D01*
X102960272Y-129376277D01*
X102949772Y-129340560D01*
X102959086Y-129292048D01*
X102986013Y-129250053D01*
X103024827Y-129220936D01*
X103066413Y-129210990D01*
X103066413Y-129090421D01*
X103035236Y-129092599D01*
X102955949Y-129114055D01*
X102896263Y-129150470D01*
X102855549Y-129202297D01*
X102833179Y-129269990D01*
X102828871Y-129306662D01*
X102829970Y-129382581D01*
G36*
X101890148Y-124811739D02*
X101919231Y-124877521D01*
X101967793Y-124927460D01*
X102035908Y-124961626D01*
X102123651Y-124980093D01*
X102137351Y-124981417D01*
X102233939Y-124982454D01*
X102318602Y-124969007D01*
X102387221Y-124941892D01*
X102409294Y-124927373D01*
X102456011Y-124876799D01*
X102486268Y-124812391D01*
X102498824Y-124740334D01*
X102492439Y-124666815D01*
X102472772Y-124610928D01*
X102439629Y-124562868D01*
X102396175Y-124523588D01*
X102395158Y-124522908D01*
X102368338Y-124506956D01*
X102341368Y-124496590D01*
X102307332Y-124490312D01*
X102259310Y-124486627D01*
X102219931Y-124485003D01*
X102184219Y-124484328D01*
X102184219Y-124610045D01*
X102219770Y-124611274D01*
X102267094Y-124615734D01*
X102297465Y-124623603D01*
X102319072Y-124637793D01*
X102331694Y-124651083D01*
X102358122Y-124698198D01*
X102361653Y-124747495D01*
X102342639Y-124793407D01*
X102321331Y-124816362D01*
X102299859Y-124832904D01*
X102279313Y-124842579D01*
X102252574Y-124846826D01*
X102212523Y-124847080D01*
X102175638Y-124845772D01*
X102122947Y-124842957D01*
X102088772Y-124838495D01*
X102066480Y-124830452D01*
X102049442Y-124816897D01*
X102039703Y-124806155D01*
X102014123Y-124761223D01*
X102012847Y-124712751D01*
X102027999Y-124672106D01*
X102059642Y-124637433D01*
X102111620Y-124616776D01*
X102184219Y-124610045D01*
X102184219Y-124484328D01*
X102141621Y-124483521D01*
X102083056Y-124486052D01*
X102039007Y-124493638D01*
X102004248Y-124507319D01*
X101973551Y-124528135D01*
X101964436Y-124535853D01*
X101919021Y-124584111D01*
X101892493Y-124635872D01*
X101881379Y-124699172D01*
X101880471Y-124730039D01*
X101890148Y-124811739D01*
X101890148Y-124811739D01*
G37*
X101890148Y-124811739D02*
X101919231Y-124877521D01*
X101967793Y-124927460D01*
X102035908Y-124961626D01*
X102123651Y-124980093D01*
X102137351Y-124981417D01*
X102233939Y-124982454D01*
X102318602Y-124969007D01*
X102387221Y-124941892D01*
X102409294Y-124927373D01*
X102456011Y-124876799D01*
X102486268Y-124812391D01*
X102498824Y-124740334D01*
X102492439Y-124666815D01*
X102472772Y-124610928D01*
X102439629Y-124562868D01*
X102396175Y-124523588D01*
X102395158Y-124522908D01*
X102368338Y-124506956D01*
X102341368Y-124496590D01*
X102307332Y-124490312D01*
X102259310Y-124486627D01*
X102219931Y-124485003D01*
X102184219Y-124484328D01*
X102184219Y-124610045D01*
X102219770Y-124611274D01*
X102267094Y-124615734D01*
X102297465Y-124623603D01*
X102319072Y-124637793D01*
X102331694Y-124651083D01*
X102358122Y-124698198D01*
X102361653Y-124747495D01*
X102342639Y-124793407D01*
X102321331Y-124816362D01*
X102299859Y-124832904D01*
X102279313Y-124842579D01*
X102252574Y-124846826D01*
X102212523Y-124847080D01*
X102175638Y-124845772D01*
X102122947Y-124842957D01*
X102088772Y-124838495D01*
X102066480Y-124830452D01*
X102049442Y-124816897D01*
X102039703Y-124806155D01*
X102014123Y-124761223D01*
X102012847Y-124712751D01*
X102027999Y-124672106D01*
X102059642Y-124637433D01*
X102111620Y-124616776D01*
X102184219Y-124610045D01*
X102184219Y-124484328D01*
X102141621Y-124483521D01*
X102083056Y-124486052D01*
X102039007Y-124493638D01*
X102004248Y-124507319D01*
X101973551Y-124528135D01*
X101964436Y-124535853D01*
X101919021Y-124584111D01*
X101892493Y-124635872D01*
X101881379Y-124699172D01*
X101880471Y-124730039D01*
X101890148Y-124811739D01*
G36*
X101897614Y-125993301D02*
X101903514Y-126005832D01*
X101935283Y-126049201D01*
X101981646Y-126090210D01*
X102032696Y-126120832D01*
X102056166Y-126129541D01*
X102098091Y-126137488D01*
X102148757Y-126142226D01*
X102169679Y-126142801D01*
X102235693Y-126142871D01*
X102235693Y-125762917D01*
X102270273Y-125771017D01*
X102311170Y-125790896D01*
X102346514Y-125825653D01*
X102369282Y-125867002D01*
X102374010Y-125893351D01*
X102368273Y-125929084D01*
X102353882Y-125971718D01*
X102347262Y-125986201D01*
X102320513Y-126039760D01*
X102355376Y-126085467D01*
X102378955Y-126111842D01*
X102398417Y-126125876D01*
X102404129Y-126126586D01*
X102417973Y-126114049D01*
X102439012Y-126086572D01*
X102455425Y-126061634D01*
X102484930Y-125994336D01*
X102498284Y-125918890D01*
X102494812Y-125844112D01*
X102476663Y-125784505D01*
X102437784Y-125723059D01*
X102386595Y-125679392D01*
X102320367Y-125652074D01*
X102236371Y-125639678D01*
X102197936Y-125638579D01*
X102109861Y-125642978D01*
X102107299Y-125643518D01*
X102107299Y-125769418D01*
X102115558Y-125772885D01*
X102120113Y-125787137D01*
X102122065Y-125816530D01*
X102122517Y-125865425D01*
X102122525Y-125884252D01*
X102121843Y-125941533D01*
X102119364Y-125977859D01*
X102114443Y-125997396D01*
X102106434Y-126004310D01*
X102103862Y-126004555D01*
X102083423Y-125996664D01*
X102054789Y-125976915D01*
X102044763Y-125968425D01*
X102016408Y-125936906D01*
X102005259Y-125904051D01*
X102004327Y-125886349D01*
X102015981Y-125838461D01*
X102047285Y-125798301D01*
X102092752Y-125772827D01*
X102094233Y-125772375D01*
X102107299Y-125769418D01*
X102107299Y-125643518D01*
X102040510Y-125657608D01*
X101985025Y-125683962D01*
X101945639Y-125716193D01*
X101902931Y-125775783D01*
X101880109Y-125845832D01*
X101878046Y-125920339D01*
X101897614Y-125993301D01*
X101897614Y-125993301D01*
G37*
X101897614Y-125993301D02*
X101903514Y-126005832D01*
X101935283Y-126049201D01*
X101981646Y-126090210D01*
X102032696Y-126120832D01*
X102056166Y-126129541D01*
X102098091Y-126137488D01*
X102148757Y-126142226D01*
X102169679Y-126142801D01*
X102235693Y-126142871D01*
X102235693Y-125762917D01*
X102270273Y-125771017D01*
X102311170Y-125790896D01*
X102346514Y-125825653D01*
X102369282Y-125867002D01*
X102374010Y-125893351D01*
X102368273Y-125929084D01*
X102353882Y-125971718D01*
X102347262Y-125986201D01*
X102320513Y-126039760D01*
X102355376Y-126085467D01*
X102378955Y-126111842D01*
X102398417Y-126125876D01*
X102404129Y-126126586D01*
X102417973Y-126114049D01*
X102439012Y-126086572D01*
X102455425Y-126061634D01*
X102484930Y-125994336D01*
X102498284Y-125918890D01*
X102494812Y-125844112D01*
X102476663Y-125784505D01*
X102437784Y-125723059D01*
X102386595Y-125679392D01*
X102320367Y-125652074D01*
X102236371Y-125639678D01*
X102197936Y-125638579D01*
X102109861Y-125642978D01*
X102107299Y-125643518D01*
X102107299Y-125769418D01*
X102115558Y-125772885D01*
X102120113Y-125787137D01*
X102122065Y-125816530D01*
X102122517Y-125865425D01*
X102122525Y-125884252D01*
X102121843Y-125941533D01*
X102119364Y-125977859D01*
X102114443Y-125997396D01*
X102106434Y-126004310D01*
X102103862Y-126004555D01*
X102083423Y-125996664D01*
X102054789Y-125976915D01*
X102044763Y-125968425D01*
X102016408Y-125936906D01*
X102005259Y-125904051D01*
X102004327Y-125886349D01*
X102015981Y-125838461D01*
X102047285Y-125798301D01*
X102092752Y-125772827D01*
X102094233Y-125772375D01*
X102107299Y-125769418D01*
X102107299Y-125643518D01*
X102040510Y-125657608D01*
X101985025Y-125683962D01*
X101945639Y-125716193D01*
X101902931Y-125775783D01*
X101880109Y-125845832D01*
X101878046Y-125920339D01*
X101897614Y-125993301D01*
G36*
X101881452Y-127364017D02*
X101890482Y-127411634D01*
X101909370Y-127461034D01*
X101911777Y-127466312D01*
X101931476Y-127503774D01*
X101949781Y-127529717D01*
X101961508Y-127538103D01*
X101980632Y-127530117D01*
X102008850Y-127510720D01*
X102019384Y-127502110D01*
X102060847Y-127466628D01*
X102033858Y-127420885D01*
X102015878Y-127377350D01*
X102006267Y-127327050D01*
X102005660Y-127278812D01*
X102014691Y-127241467D01*
X102020327Y-127232505D01*
X102046171Y-127215437D01*
X102075941Y-127213363D01*
X102099197Y-127226134D01*
X102103708Y-127233688D01*
X102109309Y-127256325D01*
X102115892Y-127296115D01*
X102122183Y-127345166D01*
X102123170Y-127354215D01*
X102136798Y-127432996D01*
X102159946Y-127490136D01*
X102194752Y-127528030D01*
X102243354Y-127549079D01*
X102302718Y-127555635D01*
X102370198Y-127546577D01*
X102423188Y-127517164D01*
X102461783Y-127467278D01*
X102486081Y-127396800D01*
X102495667Y-127318565D01*
X102495552Y-127254766D01*
X102486845Y-127203016D01*
X102474825Y-127167673D01*
X102453880Y-127123017D01*
X102429574Y-127081747D01*
X102418876Y-127067079D01*
X102388084Y-127029357D01*
X102342049Y-127074852D01*
X102296013Y-127120347D01*
X102330243Y-127172072D01*
X102355952Y-127223952D01*
X102369399Y-127279351D01*
X102370818Y-127332605D01*
X102360443Y-127378049D01*
X102338507Y-127410016D01*
X102319998Y-127420338D01*
X102290314Y-127418789D01*
X102267615Y-127393140D01*
X102251940Y-127343460D01*
X102244695Y-127289031D01*
X102230873Y-127205264D01*
X102204796Y-127143033D01*
X102165699Y-127101507D01*
X102112820Y-127079853D01*
X102050126Y-127076853D01*
X101984642Y-127091671D01*
X101935144Y-127125454D01*
X101901408Y-127178505D01*
X101883207Y-127251126D01*
X101879639Y-127304928D01*
X101881452Y-127364017D01*
X101881452Y-127364017D01*
G37*
X101881452Y-127364017D02*
X101890482Y-127411634D01*
X101909370Y-127461034D01*
X101911777Y-127466312D01*
X101931476Y-127503774D01*
X101949781Y-127529717D01*
X101961508Y-127538103D01*
X101980632Y-127530117D01*
X102008850Y-127510720D01*
X102019384Y-127502110D01*
X102060847Y-127466628D01*
X102033858Y-127420885D01*
X102015878Y-127377350D01*
X102006267Y-127327050D01*
X102005660Y-127278812D01*
X102014691Y-127241467D01*
X102020327Y-127232505D01*
X102046171Y-127215437D01*
X102075941Y-127213363D01*
X102099197Y-127226134D01*
X102103708Y-127233688D01*
X102109309Y-127256325D01*
X102115892Y-127296115D01*
X102122183Y-127345166D01*
X102123170Y-127354215D01*
X102136798Y-127432996D01*
X102159946Y-127490136D01*
X102194752Y-127528030D01*
X102243354Y-127549079D01*
X102302718Y-127555635D01*
X102370198Y-127546577D01*
X102423188Y-127517164D01*
X102461783Y-127467278D01*
X102486081Y-127396800D01*
X102495667Y-127318565D01*
X102495552Y-127254766D01*
X102486845Y-127203016D01*
X102474825Y-127167673D01*
X102453880Y-127123017D01*
X102429574Y-127081747D01*
X102418876Y-127067079D01*
X102388084Y-127029357D01*
X102342049Y-127074852D01*
X102296013Y-127120347D01*
X102330243Y-127172072D01*
X102355952Y-127223952D01*
X102369399Y-127279351D01*
X102370818Y-127332605D01*
X102360443Y-127378049D01*
X102338507Y-127410016D01*
X102319998Y-127420338D01*
X102290314Y-127418789D01*
X102267615Y-127393140D01*
X102251940Y-127343460D01*
X102244695Y-127289031D01*
X102230873Y-127205264D01*
X102204796Y-127143033D01*
X102165699Y-127101507D01*
X102112820Y-127079853D01*
X102050126Y-127076853D01*
X101984642Y-127091671D01*
X101935144Y-127125454D01*
X101901408Y-127178505D01*
X101883207Y-127251126D01*
X101879639Y-127304928D01*
X101881452Y-127364017D01*
G36*
X101891055Y-127960762D02*
X101925692Y-128024363D01*
X101980372Y-128074123D01*
X102024842Y-128097568D01*
X102064121Y-128107634D01*
X102120116Y-128114156D01*
X102184621Y-128116951D01*
X102249429Y-128115836D01*
X102306334Y-128110626D01*
X102336727Y-128104541D01*
X102378306Y-128084014D01*
X102422468Y-128048463D01*
X102461087Y-128005619D01*
X102486034Y-127963211D01*
X102486430Y-127962177D01*
X102497331Y-127909553D01*
X102497601Y-127847188D01*
X102487676Y-127787924D01*
X102479722Y-127765040D01*
X102446300Y-127706102D01*
X102402511Y-127663890D01*
X102344538Y-127636156D01*
X102268565Y-127620651D01*
X102228771Y-127617143D01*
X102178766Y-127617590D01*
X102178766Y-127752376D01*
X102251732Y-127756917D01*
X102307334Y-127769986D01*
X102342861Y-127790756D01*
X102353020Y-127805552D01*
X102360104Y-127843464D01*
X102358007Y-127888527D01*
X102347812Y-127927487D01*
X102342204Y-127937704D01*
X102309538Y-127964659D01*
X102259545Y-127982451D01*
X102198705Y-127990024D01*
X102133497Y-127986325D01*
X102094253Y-127978057D01*
X102048805Y-127954320D01*
X102020396Y-127916849D01*
X102010573Y-127871720D01*
X102020887Y-127825011D01*
X102046112Y-127789132D01*
X102066925Y-127770277D01*
X102087439Y-127759272D01*
X102115203Y-127754026D01*
X102157762Y-127752449D01*
X102178766Y-127752376D01*
X102178766Y-127617590D01*
X102122580Y-127618094D01*
X102035501Y-127635388D01*
X101967530Y-127669029D01*
X101918664Y-127719018D01*
X101888899Y-127785356D01*
X101885448Y-127799601D01*
X101877345Y-127885210D01*
X101891055Y-127960762D01*
X101891055Y-127960762D01*
G37*
X101891055Y-127960762D02*
X101925692Y-128024363D01*
X101980372Y-128074123D01*
X102024842Y-128097568D01*
X102064121Y-128107634D01*
X102120116Y-128114156D01*
X102184621Y-128116951D01*
X102249429Y-128115836D01*
X102306334Y-128110626D01*
X102336727Y-128104541D01*
X102378306Y-128084014D01*
X102422468Y-128048463D01*
X102461087Y-128005619D01*
X102486034Y-127963211D01*
X102486430Y-127962177D01*
X102497331Y-127909553D01*
X102497601Y-127847188D01*
X102487676Y-127787924D01*
X102479722Y-127765040D01*
X102446300Y-127706102D01*
X102402511Y-127663890D01*
X102344538Y-127636156D01*
X102268565Y-127620651D01*
X102228771Y-127617143D01*
X102178766Y-127617590D01*
X102178766Y-127752376D01*
X102251732Y-127756917D01*
X102307334Y-127769986D01*
X102342861Y-127790756D01*
X102353020Y-127805552D01*
X102360104Y-127843464D01*
X102358007Y-127888527D01*
X102347812Y-127927487D01*
X102342204Y-127937704D01*
X102309538Y-127964659D01*
X102259545Y-127982451D01*
X102198705Y-127990024D01*
X102133497Y-127986325D01*
X102094253Y-127978057D01*
X102048805Y-127954320D01*
X102020396Y-127916849D01*
X102010573Y-127871720D01*
X102020887Y-127825011D01*
X102046112Y-127789132D01*
X102066925Y-127770277D01*
X102087439Y-127759272D01*
X102115203Y-127754026D01*
X102157762Y-127752449D01*
X102178766Y-127752376D01*
X102178766Y-127617590D01*
X102122580Y-127618094D01*
X102035501Y-127635388D01*
X101967530Y-127669029D01*
X101918664Y-127719018D01*
X101888899Y-127785356D01*
X101885448Y-127799601D01*
X101877345Y-127885210D01*
X101891055Y-127960762D01*
G36*
X102079342Y-128343367D02*
X102171563Y-128344555D01*
X102241610Y-128348897D01*
X102292381Y-128357558D01*
X102326772Y-128371704D01*
X102347679Y-128392500D01*
X102358000Y-128421110D01*
X102360636Y-128456535D01*
X102357682Y-128493636D01*
X102346889Y-128521818D01*
X102325360Y-128542243D01*
X102290199Y-128556079D01*
X102238510Y-128564491D01*
X102167394Y-128568643D01*
X102079342Y-128569703D01*
X101883614Y-128569703D01*
X101883614Y-128708020D01*
X102487179Y-128708020D01*
X102487179Y-128638862D01*
X102485489Y-128597170D01*
X102479556Y-128575701D01*
X102468293Y-128569703D01*
X102458261Y-128566091D01*
X102460383Y-128551714D01*
X102474580Y-128522736D01*
X102496480Y-128456319D01*
X102494928Y-128385875D01*
X102471147Y-128318377D01*
X102452362Y-128286233D01*
X102432022Y-128261715D01*
X102406573Y-128243804D01*
X102372458Y-128231479D01*
X102326121Y-128223723D01*
X102264007Y-128219516D01*
X102182561Y-128217840D01*
X102119578Y-128217624D01*
X101883614Y-128217624D01*
X101883614Y-128343367D01*
X102079342Y-128343367D01*
X102079342Y-128343367D01*
G37*
X102079342Y-128343367D02*
X102171563Y-128344555D01*
X102241610Y-128348897D01*
X102292381Y-128357558D01*
X102326772Y-128371704D01*
X102347679Y-128392500D01*
X102358000Y-128421110D01*
X102360636Y-128456535D01*
X102357682Y-128493636D01*
X102346889Y-128521818D01*
X102325360Y-128542243D01*
X102290199Y-128556079D01*
X102238510Y-128564491D01*
X102167394Y-128568643D01*
X102079342Y-128569703D01*
X101883614Y-128569703D01*
X101883614Y-128708020D01*
X102487179Y-128708020D01*
X102487179Y-128638862D01*
X102485489Y-128597170D01*
X102479556Y-128575701D01*
X102468293Y-128569703D01*
X102458261Y-128566091D01*
X102460383Y-128551714D01*
X102474580Y-128522736D01*
X102496480Y-128456319D01*
X102494928Y-128385875D01*
X102471147Y-128318377D01*
X102452362Y-128286233D01*
X102432022Y-128261715D01*
X102406573Y-128243804D01*
X102372458Y-128231479D01*
X102326121Y-128223723D01*
X102264007Y-128219516D01*
X102182561Y-128217840D01*
X102119578Y-128217624D01*
X101883614Y-128217624D01*
X101883614Y-128343367D01*
X102079342Y-128343367D01*
G36*
X101888880Y-129567226D02*
X101919830Y-129640080D01*
X101934895Y-129663027D01*
X101958048Y-129692354D01*
X101976253Y-129710764D01*
X101982183Y-129713961D01*
X101995340Y-129704935D01*
X102017667Y-129681837D01*
X102033250Y-129663344D01*
X102073926Y-129612728D01*
X102040295Y-129572760D01*
X102018584Y-129541874D01*
X102011090Y-129511759D01*
X102012920Y-129477292D01*
X102026528Y-129422561D01*
X102054772Y-129384886D01*
X102100433Y-129361991D01*
X102166289Y-129351597D01*
X102166331Y-129351595D01*
X102239939Y-129352494D01*
X102293946Y-129366463D01*
X102330716Y-129394328D01*
X102343168Y-129413325D01*
X102358673Y-129463776D01*
X102358683Y-129517663D01*
X102343638Y-129564546D01*
X102336287Y-129575644D01*
X102317511Y-129603476D01*
X102314434Y-129625236D01*
X102328409Y-129648704D01*
X102353510Y-129674649D01*
X102395880Y-129715716D01*
X102433464Y-129670121D01*
X102475882Y-129599674D01*
X102496785Y-129520233D01*
X102495272Y-129437215D01*
X102481411Y-129382694D01*
X102447135Y-129318970D01*
X102393212Y-129268005D01*
X102355149Y-129244851D01*
X102300536Y-129226099D01*
X102231369Y-129216715D01*
X102156407Y-129216643D01*
X102084409Y-129225824D01*
X102024137Y-129244199D01*
X102017958Y-129247093D01*
X101957351Y-129289952D01*
X101913224Y-129347979D01*
X101886493Y-129416591D01*
X101878073Y-129491201D01*
X101888880Y-129567226D01*
X101888880Y-129567226D01*
G37*
X101888880Y-129567226D02*
X101919830Y-129640080D01*
X101934895Y-129663027D01*
X101958048Y-129692354D01*
X101976253Y-129710764D01*
X101982183Y-129713961D01*
X101995340Y-129704935D01*
X102017667Y-129681837D01*
X102033250Y-129663344D01*
X102073926Y-129612728D01*
X102040295Y-129572760D01*
X102018584Y-129541874D01*
X102011090Y-129511759D01*
X102012920Y-129477292D01*
X102026528Y-129422561D01*
X102054772Y-129384886D01*
X102100433Y-129361991D01*
X102166289Y-129351597D01*
X102166331Y-129351595D01*
X102239939Y-129352494D01*
X102293946Y-129366463D01*
X102330716Y-129394328D01*
X102343168Y-129413325D01*
X102358673Y-129463776D01*
X102358683Y-129517663D01*
X102343638Y-129564546D01*
X102336287Y-129575644D01*
X102317511Y-129603476D01*
X102314434Y-129625236D01*
X102328409Y-129648704D01*
X102353510Y-129674649D01*
X102395880Y-129715716D01*
X102433464Y-129670121D01*
X102475882Y-129599674D01*
X102496785Y-129520233D01*
X102495272Y-129437215D01*
X102481411Y-129382694D01*
X102447135Y-129318970D01*
X102393212Y-129268005D01*
X102355149Y-129244851D01*
X102300536Y-129226099D01*
X102231369Y-129216715D01*
X102156407Y-129216643D01*
X102084409Y-129225824D01*
X102024137Y-129244199D01*
X102017958Y-129247093D01*
X101957351Y-129289952D01*
X101913224Y-129347979D01*
X101886493Y-129416591D01*
X101878073Y-129491201D01*
X101888880Y-129567226D01*
G36*
X101881457Y-130027898D02*
X101889279Y-130060096D01*
X101917921Y-130121825D01*
X101961667Y-130174610D01*
X102014117Y-130211141D01*
X102025893Y-130216160D01*
X102056740Y-130223045D01*
X102102371Y-130227864D01*
X102148492Y-130229505D01*
X102235693Y-130229505D01*
X102235693Y-130047178D01*
X102235978Y-129971979D01*
X102237704Y-129919003D01*
X102242181Y-129885325D01*
X102250720Y-129868020D01*
X102264630Y-129864163D01*
X102285222Y-129870829D01*
X102309315Y-129882770D01*
X102349525Y-129916080D01*
X102369558Y-129962368D01*
X102368905Y-130018944D01*
X102347101Y-130083031D01*
X102320193Y-130138417D01*
X102356532Y-130184375D01*
X102392872Y-130230333D01*
X102432819Y-130187096D01*
X102470563Y-130129374D01*
X102493320Y-130058386D01*
X102499688Y-129982029D01*
X102488268Y-129908199D01*
X102484393Y-129896287D01*
X102450506Y-129831399D01*
X102399986Y-129783130D01*
X102331325Y-129750465D01*
X102243014Y-129732385D01*
X102241121Y-129732175D01*
X102144878Y-129730556D01*
X102110542Y-129737100D01*
X102110542Y-129864852D01*
X102115822Y-129876584D01*
X102119867Y-129908438D01*
X102122176Y-129955397D01*
X102122525Y-129985154D01*
X102122306Y-130040648D01*
X102120916Y-130075346D01*
X102117251Y-130093601D01*
X102110210Y-130099766D01*
X102098690Y-130098195D01*
X102094233Y-130096878D01*
X102052355Y-130074382D01*
X102018604Y-130039003D01*
X102003773Y-130007780D01*
X102004668Y-129966301D01*
X102023164Y-129924269D01*
X102053786Y-129889012D01*
X102091062Y-129867854D01*
X102110542Y-129864852D01*
X102110542Y-129737100D01*
X102060229Y-129746690D01*
X101989191Y-129778698D01*
X101933779Y-129824701D01*
X101896009Y-129882821D01*
X101877896Y-129951180D01*
X101881457Y-130027898D01*
X101881457Y-130027898D01*
G37*
X101881457Y-130027898D02*
X101889279Y-130060096D01*
X101917921Y-130121825D01*
X101961667Y-130174610D01*
X102014117Y-130211141D01*
X102025893Y-130216160D01*
X102056740Y-130223045D01*
X102102371Y-130227864D01*
X102148492Y-130229505D01*
X102235693Y-130229505D01*
X102235693Y-130047178D01*
X102235978Y-129971979D01*
X102237704Y-129919003D01*
X102242181Y-129885325D01*
X102250720Y-129868020D01*
X102264630Y-129864163D01*
X102285222Y-129870829D01*
X102309315Y-129882770D01*
X102349525Y-129916080D01*
X102369558Y-129962368D01*
X102368905Y-130018944D01*
X102347101Y-130083031D01*
X102320193Y-130138417D01*
X102356532Y-130184375D01*
X102392872Y-130230333D01*
X102432819Y-130187096D01*
X102470563Y-130129374D01*
X102493320Y-130058386D01*
X102499688Y-129982029D01*
X102488268Y-129908199D01*
X102484393Y-129896287D01*
X102450506Y-129831399D01*
X102399986Y-129783130D01*
X102331325Y-129750465D01*
X102243014Y-129732385D01*
X102241121Y-129732175D01*
X102144878Y-129730556D01*
X102110542Y-129737100D01*
X102110542Y-129864852D01*
X102115822Y-129876584D01*
X102119867Y-129908438D01*
X102122176Y-129955397D01*
X102122525Y-129985154D01*
X102122306Y-130040648D01*
X102120916Y-130075346D01*
X102117251Y-130093601D01*
X102110210Y-130099766D01*
X102098690Y-130098195D01*
X102094233Y-130096878D01*
X102052355Y-130074382D01*
X102018604Y-130039003D01*
X102003773Y-130007780D01*
X102004668Y-129966301D01*
X102023164Y-129924269D01*
X102053786Y-129889012D01*
X102091062Y-129867854D01*
X102110542Y-129864852D01*
X102110542Y-129737100D01*
X102060229Y-129746690D01*
X101989191Y-129778698D01*
X101933779Y-129824701D01*
X101896009Y-129882821D01*
X101877896Y-129951180D01*
X101881457Y-130027898D01*
G36*
X101894002Y-126595988D02*
X101908950Y-126627283D01*
X101930541Y-126657591D01*
X101955391Y-126680682D01*
X101987087Y-126697500D01*
X102029214Y-126708994D01*
X102085358Y-126716109D01*
X102159106Y-126719793D01*
X102254044Y-126720992D01*
X102263985Y-126721011D01*
X102487179Y-126721287D01*
X102487179Y-126582970D01*
X102281418Y-126582970D01*
X102205189Y-126582872D01*
X102149939Y-126582191D01*
X102111501Y-126580349D01*
X102085706Y-126576767D01*
X102068384Y-126570868D01*
X102055368Y-126562073D01*
X102042507Y-126549820D01*
X102014873Y-126506953D01*
X102009745Y-126460157D01*
X102027217Y-126415576D01*
X102040221Y-126400072D01*
X102052447Y-126388690D01*
X102065540Y-126380519D01*
X102083615Y-126375026D01*
X102110787Y-126371680D01*
X102151170Y-126369949D01*
X102208879Y-126369303D01*
X102279132Y-126369208D01*
X102487179Y-126369208D01*
X102487179Y-126230891D01*
X101883614Y-126230891D01*
X101883614Y-126300050D01*
X101885256Y-126341572D01*
X101891087Y-126362994D01*
X101902461Y-126369205D01*
X101902798Y-126369208D01*
X101913938Y-126372090D01*
X101912674Y-126384801D01*
X101900434Y-126410074D01*
X101882424Y-126467395D01*
X101880421Y-126532963D01*
X101894002Y-126595988D01*
X101894002Y-126595988D01*
G37*
X101894002Y-126595988D02*
X101908950Y-126627283D01*
X101930541Y-126657591D01*
X101955391Y-126680682D01*
X101987087Y-126697500D01*
X102029214Y-126708994D01*
X102085358Y-126716109D01*
X102159106Y-126719793D01*
X102254044Y-126720992D01*
X102263985Y-126721011D01*
X102487179Y-126721287D01*
X102487179Y-126582970D01*
X102281418Y-126582970D01*
X102205189Y-126582872D01*
X102149939Y-126582191D01*
X102111501Y-126580349D01*
X102085706Y-126576767D01*
X102068384Y-126570868D01*
X102055368Y-126562073D01*
X102042507Y-126549820D01*
X102014873Y-126506953D01*
X102009745Y-126460157D01*
X102027217Y-126415576D01*
X102040221Y-126400072D01*
X102052447Y-126388690D01*
X102065540Y-126380519D01*
X102083615Y-126375026D01*
X102110787Y-126371680D01*
X102151170Y-126369949D01*
X102208879Y-126369303D01*
X102279132Y-126369208D01*
X102487179Y-126369208D01*
X102487179Y-126230891D01*
X101883614Y-126230891D01*
X101883614Y-126300050D01*
X101885256Y-126341572D01*
X101891087Y-126362994D01*
X101902461Y-126369205D01*
X101902798Y-126369208D01*
X101913938Y-126372090D01*
X101912674Y-126384801D01*
X101900434Y-126410074D01*
X101882424Y-126467395D01*
X101880421Y-126532963D01*
X101894002Y-126595988D01*
G36*
X101883030Y-129149460D02*
X101896245Y-129192711D01*
X101912941Y-129220558D01*
X101926145Y-129229629D01*
X101941797Y-129227132D01*
X101966385Y-129210931D01*
X101983800Y-129197232D01*
X102015283Y-129168992D01*
X102028529Y-129147775D01*
X102027664Y-129129688D01*
X102014010Y-129076035D01*
X102014630Y-129036630D01*
X102030104Y-129004632D01*
X102039161Y-128993890D01*
X102071027Y-128959505D01*
X102487179Y-128959505D01*
X102487179Y-128821188D01*
X101883614Y-128821188D01*
X101883614Y-128890347D01*
X101885256Y-128931869D01*
X101891087Y-128953291D01*
X101902461Y-128959502D01*
X101902798Y-128959505D01*
X101914713Y-128962439D01*
X101913159Y-128975704D01*
X101904563Y-128994084D01*
X101888568Y-129032046D01*
X101878945Y-129062872D01*
X101876478Y-129102536D01*
X101883030Y-129149460D01*
X101883030Y-129149460D01*
G37*
X101883030Y-129149460D02*
X101896245Y-129192711D01*
X101912941Y-129220558D01*
X101926145Y-129229629D01*
X101941797Y-129227132D01*
X101966385Y-129210931D01*
X101983800Y-129197232D01*
X102015283Y-129168992D01*
X102028529Y-129147775D01*
X102027664Y-129129688D01*
X102014010Y-129076035D01*
X102014630Y-129036630D01*
X102030104Y-129004632D01*
X102039161Y-128993890D01*
X102071027Y-128959505D01*
X102487179Y-128959505D01*
X102487179Y-128821188D01*
X101883614Y-128821188D01*
X101883614Y-128890347D01*
X101885256Y-128931869D01*
X101891087Y-128953291D01*
X101902461Y-128959502D01*
X101902798Y-128959505D01*
X101914713Y-128962439D01*
X101913159Y-128975704D01*
X101904563Y-128994084D01*
X101888568Y-129032046D01*
X101878945Y-129062872D01*
X101876478Y-129102536D01*
X101883030Y-129149460D01*
G36*
X97715018Y-127726964D02*
X98016570Y-127783812D01*
X98189512Y-128203338D01*
X98018395Y-128454984D01*
X97970750Y-128525458D01*
X97928210Y-128589163D01*
X97892715Y-128643126D01*
X97866210Y-128684373D01*
X97850636Y-128709934D01*
X97847278Y-128716895D01*
X97855914Y-128729435D01*
X97879792Y-128756231D01*
X97915859Y-128794280D01*
X97961067Y-128840579D01*
X98012364Y-128892123D01*
X98066701Y-128945909D01*
X98121028Y-128998935D01*
X98172295Y-129048195D01*
X98217451Y-129090687D01*
X98253446Y-129123407D01*
X98277230Y-129143351D01*
X98285190Y-129148119D01*
X98299865Y-129141257D01*
X98332014Y-129122020D01*
X98378492Y-129092430D01*
X98436156Y-129054510D01*
X98501860Y-129010282D01*
X98539336Y-128984654D01*
X98607768Y-128937941D01*
X98669520Y-128896432D01*
X98721519Y-128862140D01*
X98760692Y-128837080D01*
X98783965Y-128823264D01*
X98788855Y-128821188D01*
X98802755Y-128825895D01*
X98835150Y-128838723D01*
X98881485Y-128857738D01*
X98937206Y-128881003D01*
X98997758Y-128906584D01*
X99058586Y-128932545D01*
X99115136Y-128956950D01*
X99162852Y-128977863D01*
X99197181Y-128993349D01*
X99213568Y-129001472D01*
X99214212Y-129001952D01*
X99217341Y-129014707D01*
X99224321Y-129048677D01*
X99234467Y-129100340D01*
X99247092Y-129166176D01*
X99261509Y-129242664D01*
X99269823Y-129287290D01*
X99285384Y-129369021D01*
X99300192Y-129442843D01*
X99313436Y-129505021D01*
X99324305Y-129551822D01*
X99331989Y-129579509D01*
X99334427Y-129585074D01*
X99350930Y-129590526D01*
X99388200Y-129594924D01*
X99441880Y-129598272D01*
X99507612Y-129600574D01*
X99581037Y-129601832D01*
X99657796Y-129602048D01*
X99733532Y-129601227D01*
X99803886Y-129599371D01*
X99864500Y-129596482D01*
X99911016Y-129592565D01*
X99939075Y-129587622D01*
X99944916Y-129584657D01*
X99951917Y-129566934D01*
X99961927Y-129529381D01*
X99973769Y-129476964D01*
X99986267Y-129414652D01*
X99990310Y-129392900D01*
X100009520Y-129288024D01*
X100024991Y-129205180D01*
X100037337Y-129141630D01*
X100047173Y-129094637D01*
X100055114Y-129061463D01*
X100061776Y-129039371D01*
X100067773Y-129025624D01*
X100073719Y-129017484D01*
X100074894Y-129016345D01*
X100093826Y-129004977D01*
X100130669Y-128987635D01*
X100180913Y-128966050D01*
X100240046Y-128941954D01*
X100303556Y-128917079D01*
X100366932Y-128893157D01*
X100425662Y-128871919D01*
X100475235Y-128855097D01*
X100511139Y-128844422D01*
X100528862Y-128841627D01*
X100529483Y-128841860D01*
X100543970Y-128851331D01*
X100575844Y-128872818D01*
X100621789Y-128904063D01*
X100678485Y-128942807D01*
X100742617Y-128986793D01*
X100760842Y-128999319D01*
X100826914Y-129043984D01*
X100887200Y-129083288D01*
X100938235Y-129115088D01*
X100976560Y-129137245D01*
X100998711Y-129147617D01*
X101001432Y-129148119D01*
X101015736Y-129139405D01*
X101044072Y-129115325D01*
X101083396Y-129078976D01*
X101130661Y-129033453D01*
X101182823Y-128981852D01*
X101236835Y-128927267D01*
X101289653Y-128872794D01*
X101338231Y-128821529D01*
X101379523Y-128776567D01*
X101410485Y-128741004D01*
X101428070Y-128717935D01*
X101430941Y-128711554D01*
X101424178Y-128696699D01*
X101405939Y-128666286D01*
X101379297Y-128625268D01*
X101357852Y-128593709D01*
X101318503Y-128536525D01*
X101272171Y-128468806D01*
X101225913Y-128400880D01*
X101201155Y-128364361D01*
X101117547Y-128240752D01*
X101173650Y-128136991D01*
X101198228Y-128089720D01*
X101217331Y-128049523D01*
X101228227Y-128022326D01*
X101229743Y-128015402D01*
X101218549Y-128007077D01*
X101186917Y-127990654D01*
X101137765Y-127967357D01*
X101074010Y-127938414D01*
X100998571Y-127905050D01*
X100914364Y-127868491D01*
X100824308Y-127829964D01*
X100731321Y-127790694D01*
X100638320Y-127751908D01*
X100548223Y-127714830D01*
X100463948Y-127680689D01*
X100388413Y-127650708D01*
X100324534Y-127626116D01*
X100275231Y-127608136D01*
X100243421Y-127597997D01*
X100232496Y-127596366D01*
X100218561Y-127609291D01*
X100195940Y-127637589D01*
X100169333Y-127675346D01*
X100167228Y-127678515D01*
X100089114Y-127776100D01*
X99997982Y-127854786D01*
X99896745Y-127913891D01*
X99788318Y-127952732D01*
X99675614Y-127970628D01*
X99561548Y-127966897D01*
X99449034Y-127940857D01*
X99340985Y-127891825D01*
X99317345Y-127877400D01*
X99221887Y-127802369D01*
X99145232Y-127713730D01*
X99087780Y-127614549D01*
X99049929Y-127507895D01*
X99032078Y-127396836D01*
X99034625Y-127284439D01*
X99057970Y-127173773D01*
X99102510Y-127067906D01*
X99168645Y-126969905D01*
X99195487Y-126939590D01*
X99279512Y-126862438D01*
X99367966Y-126806218D01*
X99467115Y-126767653D01*
X99565303Y-126746174D01*
X99675697Y-126740872D01*
X99786640Y-126758552D01*
X99894381Y-126797419D01*
X99995169Y-126855677D01*
X100085256Y-126931531D01*
X100160892Y-127023183D01*
X100168864Y-127035228D01*
X100194974Y-127073389D01*
X100217595Y-127102399D01*
X100232039Y-127116268D01*
X100232496Y-127116469D01*
X100248121Y-127113492D01*
X100283582Y-127101689D01*
X100335962Y-127082286D01*
X100402345Y-127056512D01*
X100479814Y-127025591D01*
X100565450Y-126990751D01*
X100656337Y-126953217D01*
X100749559Y-126914217D01*
X100842197Y-126874977D01*
X100931335Y-126836724D01*
X101014055Y-126800683D01*
X101087441Y-126768083D01*
X101148575Y-126740148D01*
X101194541Y-126718105D01*
X101222421Y-126703182D01*
X101229743Y-126697172D01*
X101224041Y-126678809D01*
X101208749Y-126644448D01*
X101186599Y-126600016D01*
X101173650Y-126575583D01*
X101117547Y-126471822D01*
X101201155Y-126348213D01*
X101243987Y-126285114D01*
X101291122Y-126216030D01*
X101335503Y-126151293D01*
X101357852Y-126118866D01*
X101388477Y-126073259D01*
X101412747Y-126034640D01*
X101427587Y-126008048D01*
X101430724Y-125999410D01*
X101422261Y-125986839D01*
X101398636Y-125959016D01*
X101362302Y-125918639D01*
X101315711Y-125868405D01*
X101261317Y-125811012D01*
X101226392Y-125774714D01*
X101163996Y-125711210D01*
X101108188Y-125656327D01*
X101061354Y-125612286D01*
X101025882Y-125581305D01*
X101004161Y-125565602D01*
X100999752Y-125564095D01*
X100982985Y-125571086D01*
X100949082Y-125590406D01*
X100901476Y-125619909D01*
X100843599Y-125657455D01*
X100778884Y-125700900D01*
X100760842Y-125713255D01*
X100695267Y-125758273D01*
X100636228Y-125798660D01*
X100587042Y-125832160D01*
X100551028Y-125856514D01*
X100531502Y-125869464D01*
X100529483Y-125870715D01*
X100513922Y-125868844D01*
X100479709Y-125858913D01*
X100431355Y-125842653D01*
X100373371Y-125821795D01*
X100310270Y-125798073D01*
X100246563Y-125773216D01*
X100186761Y-125748958D01*
X100135376Y-125727029D01*
X100096919Y-125709162D01*
X100075902Y-125697087D01*
X100074894Y-125696229D01*
X100068888Y-125688846D01*
X100062948Y-125676375D01*
X100056460Y-125656080D01*
X100048809Y-125625222D01*
X100039380Y-125581066D01*
X100027559Y-125520874D01*
X100012729Y-125441907D01*
X99994277Y-125341430D01*
X99990310Y-125319675D01*
X99977853Y-125255198D01*
X99965666Y-125198989D01*
X99954926Y-125156013D01*
X99946809Y-125131240D01*
X99944916Y-125127918D01*
X99928138Y-125122444D01*
X99890645Y-125117994D01*
X99836794Y-125114572D01*
X99770944Y-125112181D01*
X99697453Y-125110823D01*
X99620680Y-125110501D01*
X99544983Y-125111219D01*
X99474720Y-125112979D01*
X99414250Y-125115784D01*
X99367930Y-125119638D01*
X99340119Y-125124543D01*
X99334427Y-125127500D01*
X99328686Y-125143963D01*
X99319345Y-125181449D01*
X99307215Y-125236225D01*
X99293107Y-125304555D01*
X99277830Y-125382706D01*
X99269823Y-125425284D01*
X99254721Y-125506071D01*
X99241040Y-125578113D01*
X99229467Y-125637889D01*
X99220687Y-125681879D01*
X99215387Y-125706561D01*
X99214212Y-125710623D01*
X99200965Y-125717489D01*
X99169057Y-125732002D01*
X99123047Y-125752229D01*
X99067492Y-125776234D01*
X99006953Y-125802082D01*
X98945986Y-125827840D01*
X98889151Y-125851573D01*
X98841006Y-125871346D01*
X98806110Y-125885224D01*
X98789021Y-125891274D01*
X98788274Y-125891386D01*
X98774793Y-125884528D01*
X98743770Y-125865302D01*
X98698289Y-125835728D01*
X98641432Y-125797827D01*
X98576283Y-125753620D01*
X98538862Y-125727921D01*
X98470247Y-125681093D01*
X98407952Y-125639501D01*
X98355129Y-125605175D01*
X98314927Y-125580143D01*
X98290500Y-125566435D01*
X98285024Y-125564456D01*
X98272278Y-125572966D01*
X98245063Y-125596493D01*
X98206428Y-125632032D01*
X98159423Y-125676577D01*
X98107095Y-125727123D01*
X98052495Y-125780664D01*
X97998670Y-125834195D01*
X97948670Y-125884711D01*
X97905543Y-125929206D01*
X97872339Y-125964675D01*
X97852106Y-125988113D01*
X97847278Y-125995954D01*
X97854067Y-126008720D01*
X97873142Y-126039256D01*
X97902561Y-126084590D01*
X97940381Y-126141756D01*
X97984661Y-126207784D01*
X98018395Y-126257590D01*
X98189512Y-126509236D01*
X98103041Y-126718999D01*
X98016570Y-126928763D01*
X97715018Y-126985611D01*
X97413466Y-127042460D01*
X97413466Y-127670115D01*
X97715018Y-127726964D01*
X97715018Y-127726964D01*
G37*
X97715018Y-127726964D02*
X98016570Y-127783812D01*
X98189512Y-128203338D01*
X98018395Y-128454984D01*
X97970750Y-128525458D01*
X97928210Y-128589163D01*
X97892715Y-128643126D01*
X97866210Y-128684373D01*
X97850636Y-128709934D01*
X97847278Y-128716895D01*
X97855914Y-128729435D01*
X97879792Y-128756231D01*
X97915859Y-128794280D01*
X97961067Y-128840579D01*
X98012364Y-128892123D01*
X98066701Y-128945909D01*
X98121028Y-128998935D01*
X98172295Y-129048195D01*
X98217451Y-129090687D01*
X98253446Y-129123407D01*
X98277230Y-129143351D01*
X98285190Y-129148119D01*
X98299865Y-129141257D01*
X98332014Y-129122020D01*
X98378492Y-129092430D01*
X98436156Y-129054510D01*
X98501860Y-129010282D01*
X98539336Y-128984654D01*
X98607768Y-128937941D01*
X98669520Y-128896432D01*
X98721519Y-128862140D01*
X98760692Y-128837080D01*
X98783965Y-128823264D01*
X98788855Y-128821188D01*
X98802755Y-128825895D01*
X98835150Y-128838723D01*
X98881485Y-128857738D01*
X98937206Y-128881003D01*
X98997758Y-128906584D01*
X99058586Y-128932545D01*
X99115136Y-128956950D01*
X99162852Y-128977863D01*
X99197181Y-128993349D01*
X99213568Y-129001472D01*
X99214212Y-129001952D01*
X99217341Y-129014707D01*
X99224321Y-129048677D01*
X99234467Y-129100340D01*
X99247092Y-129166176D01*
X99261509Y-129242664D01*
X99269823Y-129287290D01*
X99285384Y-129369021D01*
X99300192Y-129442843D01*
X99313436Y-129505021D01*
X99324305Y-129551822D01*
X99331989Y-129579509D01*
X99334427Y-129585074D01*
X99350930Y-129590526D01*
X99388200Y-129594924D01*
X99441880Y-129598272D01*
X99507612Y-129600574D01*
X99581037Y-129601832D01*
X99657796Y-129602048D01*
X99733532Y-129601227D01*
X99803886Y-129599371D01*
X99864500Y-129596482D01*
X99911016Y-129592565D01*
X99939075Y-129587622D01*
X99944916Y-129584657D01*
X99951917Y-129566934D01*
X99961927Y-129529381D01*
X99973769Y-129476964D01*
X99986267Y-129414652D01*
X99990310Y-129392900D01*
X100009520Y-129288024D01*
X100024991Y-129205180D01*
X100037337Y-129141630D01*
X100047173Y-129094637D01*
X100055114Y-129061463D01*
X100061776Y-129039371D01*
X100067773Y-129025624D01*
X100073719Y-129017484D01*
X100074894Y-129016345D01*
X100093826Y-129004977D01*
X100130669Y-128987635D01*
X100180913Y-128966050D01*
X100240046Y-128941954D01*
X100303556Y-128917079D01*
X100366932Y-128893157D01*
X100425662Y-128871919D01*
X100475235Y-128855097D01*
X100511139Y-128844422D01*
X100528862Y-128841627D01*
X100529483Y-128841860D01*
X100543970Y-128851331D01*
X100575844Y-128872818D01*
X100621789Y-128904063D01*
X100678485Y-128942807D01*
X100742617Y-128986793D01*
X100760842Y-128999319D01*
X100826914Y-129043984D01*
X100887200Y-129083288D01*
X100938235Y-129115088D01*
X100976560Y-129137245D01*
X100998711Y-129147617D01*
X101001432Y-129148119D01*
X101015736Y-129139405D01*
X101044072Y-129115325D01*
X101083396Y-129078976D01*
X101130661Y-129033453D01*
X101182823Y-128981852D01*
X101236835Y-128927267D01*
X101289653Y-128872794D01*
X101338231Y-128821529D01*
X101379523Y-128776567D01*
X101410485Y-128741004D01*
X101428070Y-128717935D01*
X101430941Y-128711554D01*
X101424178Y-128696699D01*
X101405939Y-128666286D01*
X101379297Y-128625268D01*
X101357852Y-128593709D01*
X101318503Y-128536525D01*
X101272171Y-128468806D01*
X101225913Y-128400880D01*
X101201155Y-128364361D01*
X101117547Y-128240752D01*
X101173650Y-128136991D01*
X101198228Y-128089720D01*
X101217331Y-128049523D01*
X101228227Y-128022326D01*
X101229743Y-128015402D01*
X101218549Y-128007077D01*
X101186917Y-127990654D01*
X101137765Y-127967357D01*
X101074010Y-127938414D01*
X100998571Y-127905050D01*
X100914364Y-127868491D01*
X100824308Y-127829964D01*
X100731321Y-127790694D01*
X100638320Y-127751908D01*
X100548223Y-127714830D01*
X100463948Y-127680689D01*
X100388413Y-127650708D01*
X100324534Y-127626116D01*
X100275231Y-127608136D01*
X100243421Y-127597997D01*
X100232496Y-127596366D01*
X100218561Y-127609291D01*
X100195940Y-127637589D01*
X100169333Y-127675346D01*
X100167228Y-127678515D01*
X100089114Y-127776100D01*
X99997982Y-127854786D01*
X99896745Y-127913891D01*
X99788318Y-127952732D01*
X99675614Y-127970628D01*
X99561548Y-127966897D01*
X99449034Y-127940857D01*
X99340985Y-127891825D01*
X99317345Y-127877400D01*
X99221887Y-127802369D01*
X99145232Y-127713730D01*
X99087780Y-127614549D01*
X99049929Y-127507895D01*
X99032078Y-127396836D01*
X99034625Y-127284439D01*
X99057970Y-127173773D01*
X99102510Y-127067906D01*
X99168645Y-126969905D01*
X99195487Y-126939590D01*
X99279512Y-126862438D01*
X99367966Y-126806218D01*
X99467115Y-126767653D01*
X99565303Y-126746174D01*
X99675697Y-126740872D01*
X99786640Y-126758552D01*
X99894381Y-126797419D01*
X99995169Y-126855677D01*
X100085256Y-126931531D01*
X100160892Y-127023183D01*
X100168864Y-127035228D01*
X100194974Y-127073389D01*
X100217595Y-127102399D01*
X100232039Y-127116268D01*
X100232496Y-127116469D01*
X100248121Y-127113492D01*
X100283582Y-127101689D01*
X100335962Y-127082286D01*
X100402345Y-127056512D01*
X100479814Y-127025591D01*
X100565450Y-126990751D01*
X100656337Y-126953217D01*
X100749559Y-126914217D01*
X100842197Y-126874977D01*
X100931335Y-126836724D01*
X101014055Y-126800683D01*
X101087441Y-126768083D01*
X101148575Y-126740148D01*
X101194541Y-126718105D01*
X101222421Y-126703182D01*
X101229743Y-126697172D01*
X101224041Y-126678809D01*
X101208749Y-126644448D01*
X101186599Y-126600016D01*
X101173650Y-126575583D01*
X101117547Y-126471822D01*
X101201155Y-126348213D01*
X101243987Y-126285114D01*
X101291122Y-126216030D01*
X101335503Y-126151293D01*
X101357852Y-126118866D01*
X101388477Y-126073259D01*
X101412747Y-126034640D01*
X101427587Y-126008048D01*
X101430724Y-125999410D01*
X101422261Y-125986839D01*
X101398636Y-125959016D01*
X101362302Y-125918639D01*
X101315711Y-125868405D01*
X101261317Y-125811012D01*
X101226392Y-125774714D01*
X101163996Y-125711210D01*
X101108188Y-125656327D01*
X101061354Y-125612286D01*
X101025882Y-125581305D01*
X101004161Y-125565602D01*
X100999752Y-125564095D01*
X100982985Y-125571086D01*
X100949082Y-125590406D01*
X100901476Y-125619909D01*
X100843599Y-125657455D01*
X100778884Y-125700900D01*
X100760842Y-125713255D01*
X100695267Y-125758273D01*
X100636228Y-125798660D01*
X100587042Y-125832160D01*
X100551028Y-125856514D01*
X100531502Y-125869464D01*
X100529483Y-125870715D01*
X100513922Y-125868844D01*
X100479709Y-125858913D01*
X100431355Y-125842653D01*
X100373371Y-125821795D01*
X100310270Y-125798073D01*
X100246563Y-125773216D01*
X100186761Y-125748958D01*
X100135376Y-125727029D01*
X100096919Y-125709162D01*
X100075902Y-125697087D01*
X100074894Y-125696229D01*
X100068888Y-125688846D01*
X100062948Y-125676375D01*
X100056460Y-125656080D01*
X100048809Y-125625222D01*
X100039380Y-125581066D01*
X100027559Y-125520874D01*
X100012729Y-125441907D01*
X99994277Y-125341430D01*
X99990310Y-125319675D01*
X99977853Y-125255198D01*
X99965666Y-125198989D01*
X99954926Y-125156013D01*
X99946809Y-125131240D01*
X99944916Y-125127918D01*
X99928138Y-125122444D01*
X99890645Y-125117994D01*
X99836794Y-125114572D01*
X99770944Y-125112181D01*
X99697453Y-125110823D01*
X99620680Y-125110501D01*
X99544983Y-125111219D01*
X99474720Y-125112979D01*
X99414250Y-125115784D01*
X99367930Y-125119638D01*
X99340119Y-125124543D01*
X99334427Y-125127500D01*
X99328686Y-125143963D01*
X99319345Y-125181449D01*
X99307215Y-125236225D01*
X99293107Y-125304555D01*
X99277830Y-125382706D01*
X99269823Y-125425284D01*
X99254721Y-125506071D01*
X99241040Y-125578113D01*
X99229467Y-125637889D01*
X99220687Y-125681879D01*
X99215387Y-125706561D01*
X99214212Y-125710623D01*
X99200965Y-125717489D01*
X99169057Y-125732002D01*
X99123047Y-125752229D01*
X99067492Y-125776234D01*
X99006953Y-125802082D01*
X98945986Y-125827840D01*
X98889151Y-125851573D01*
X98841006Y-125871346D01*
X98806110Y-125885224D01*
X98789021Y-125891274D01*
X98788274Y-125891386D01*
X98774793Y-125884528D01*
X98743770Y-125865302D01*
X98698289Y-125835728D01*
X98641432Y-125797827D01*
X98576283Y-125753620D01*
X98538862Y-125727921D01*
X98470247Y-125681093D01*
X98407952Y-125639501D01*
X98355129Y-125605175D01*
X98314927Y-125580143D01*
X98290500Y-125566435D01*
X98285024Y-125564456D01*
X98272278Y-125572966D01*
X98245063Y-125596493D01*
X98206428Y-125632032D01*
X98159423Y-125676577D01*
X98107095Y-125727123D01*
X98052495Y-125780664D01*
X97998670Y-125834195D01*
X97948670Y-125884711D01*
X97905543Y-125929206D01*
X97872339Y-125964675D01*
X97852106Y-125988113D01*
X97847278Y-125995954D01*
X97854067Y-126008720D01*
X97873142Y-126039256D01*
X97902561Y-126084590D01*
X97940381Y-126141756D01*
X97984661Y-126207784D01*
X98018395Y-126257590D01*
X98189512Y-126509236D01*
X98103041Y-126718999D01*
X98016570Y-126928763D01*
X97715018Y-126985611D01*
X97413466Y-127042460D01*
X97413466Y-127670115D01*
X97715018Y-127726964D01*
G36*
X183785526Y-114022763D02*
X183785526Y-109343816D01*
X182632500Y-109343816D01*
X182632500Y-114022763D01*
X183785526Y-114022763D01*
X183785526Y-114022763D01*
G37*
X183785526Y-114022763D02*
X183785526Y-109343816D01*
X182632500Y-109343816D01*
X182632500Y-114022763D01*
X183785526Y-114022763D01*
G36*
X175874337Y-114523256D02*
X175990066Y-114522433D01*
X176600000Y-113922115D01*
X177209934Y-113321796D01*
X177489835Y-113321359D01*
X177769737Y-113320921D01*
X177769737Y-112955337D01*
X177840756Y-112945917D01*
X177873127Y-112942350D01*
X177934087Y-112936338D01*
X178019998Y-112928201D01*
X178127226Y-112918262D01*
X178252133Y-112906843D01*
X178391083Y-112894264D01*
X178540441Y-112880847D01*
X178696568Y-112866915D01*
X178855830Y-112852788D01*
X179014590Y-112838788D01*
X179169211Y-112825237D01*
X179316057Y-112812456D01*
X179451493Y-112800767D01*
X179571880Y-112790492D01*
X179673584Y-112781952D01*
X179752967Y-112775469D01*
X179806394Y-112771364D01*
X179830229Y-112769959D01*
X179830342Y-112769960D01*
X179849466Y-112780204D01*
X179888955Y-112810974D01*
X179949266Y-112862689D01*
X180030861Y-112935767D01*
X180134198Y-113030627D01*
X180259738Y-113147687D01*
X180407940Y-113287367D01*
X180579263Y-113450084D01*
X180627237Y-113495821D01*
X181387566Y-114221195D01*
X181446052Y-114162551D01*
X181504539Y-114103908D01*
X181401310Y-114009026D01*
X181364003Y-113974315D01*
X181306311Y-113920094D01*
X181232013Y-113849941D01*
X181144889Y-113767432D01*
X181048718Y-113676145D01*
X180947280Y-113579658D01*
X180886695Y-113521935D01*
X180773197Y-113413566D01*
X180682285Y-113325972D01*
X180612307Y-113256920D01*
X180561610Y-113204176D01*
X180528540Y-113165506D01*
X180511444Y-113138677D01*
X180508669Y-113121456D01*
X180518563Y-113111608D01*
X180539471Y-113106901D01*
X180569741Y-113105101D01*
X180578002Y-113104859D01*
X180634909Y-113092342D01*
X180703693Y-113061503D01*
X180773475Y-113018497D01*
X180833378Y-112969480D01*
X180851882Y-112949866D01*
X180916628Y-112849230D01*
X180952854Y-112731673D01*
X180961447Y-112627738D01*
X180945239Y-112509951D01*
X180897712Y-112401169D01*
X180820511Y-112304890D01*
X180801295Y-112287125D01*
X180727500Y-112222168D01*
X180727500Y-111098421D01*
X180961447Y-111098421D01*
X180961447Y-110797632D01*
X180852152Y-110797632D01*
X180777539Y-110793857D01*
X180725750Y-110781175D01*
X180697580Y-110765763D01*
X180677424Y-110754750D01*
X180648200Y-110745321D01*
X180605575Y-110736849D01*
X180545217Y-110728710D01*
X180462793Y-110720279D01*
X180353972Y-110710932D01*
X180273017Y-110704531D01*
X179893732Y-110675169D01*
X180623938Y-109954341D01*
X180756066Y-109824008D01*
X180883096Y-109698892D01*
X181002695Y-109581279D01*
X181112528Y-109473455D01*
X181210263Y-109377705D01*
X181293566Y-109296317D01*
X181360104Y-109231577D01*
X181407542Y-109185770D01*
X181433520Y-109161208D01*
X181474649Y-109120855D01*
X181503335Y-109087195D01*
X181512895Y-109069090D01*
X181501697Y-109045965D01*
X181473719Y-109012257D01*
X181462326Y-109000831D01*
X181411757Y-108952383D01*
X181140702Y-109219119D01*
X181071652Y-109287169D01*
X180982774Y-109374915D01*
X180877959Y-109478508D01*
X180761097Y-109594100D01*
X180636079Y-109717841D01*
X180506795Y-109845881D01*
X180377136Y-109974372D01*
X180284179Y-110066546D01*
X180142520Y-110206658D01*
X180022591Y-110324368D01*
X179922768Y-110421180D01*
X179841428Y-110498601D01*
X179776948Y-110558136D01*
X179743277Y-110587642D01*
X179743277Y-110824591D01*
X180122592Y-110854257D01*
X180233777Y-110863203D01*
X180335453Y-110871858D01*
X180422304Y-110879729D01*
X180489018Y-110886328D01*
X180530279Y-110891164D01*
X180539506Y-110892720D01*
X180577105Y-110901518D01*
X180577105Y-112163319D01*
X180472173Y-112171742D01*
X180348195Y-112197172D01*
X180238524Y-112250389D01*
X180147156Y-112328037D01*
X180078083Y-112426763D01*
X180036620Y-112537572D01*
X180017171Y-112573520D01*
X179975430Y-112591517D01*
X179973589Y-112591894D01*
X179955967Y-112594053D01*
X179937922Y-112591384D01*
X179916108Y-112581280D01*
X179887177Y-112561137D01*
X179847783Y-112528349D01*
X179794577Y-112480310D01*
X179724214Y-112414416D01*
X179633346Y-112328060D01*
X179627493Y-112322480D01*
X179529956Y-112229595D01*
X179426067Y-112130845D01*
X179322977Y-112033016D01*
X179227839Y-111942893D01*
X179147804Y-111867262D01*
X179129911Y-111850395D01*
X179062444Y-111785735D01*
X179004709Y-111728295D01*
X178960675Y-111682199D01*
X178934314Y-111651569D01*
X178928521Y-111641285D01*
X178940646Y-111625948D01*
X178973910Y-111590083D01*
X179025542Y-111536512D01*
X179092775Y-111468060D01*
X179172837Y-111387553D01*
X179262961Y-111297813D01*
X179337198Y-111224468D01*
X179743277Y-110824591D01*
X179743277Y-110587642D01*
X179727703Y-110601291D01*
X179692071Y-110629571D01*
X179668429Y-110644483D01*
X179657480Y-110647801D01*
X179633586Y-110646544D01*
X179579501Y-110642726D01*
X179498338Y-110636593D01*
X179393210Y-110628393D01*
X179267228Y-110618373D01*
X179123505Y-110606780D01*
X178965154Y-110593860D01*
X178795287Y-110579862D01*
X178659528Y-110568581D01*
X177894106Y-110504750D01*
X177894106Y-110668996D01*
X177910624Y-110669703D01*
X177957145Y-110673031D01*
X178030378Y-110678710D01*
X178127028Y-110686474D01*
X178243805Y-110696057D01*
X178377414Y-110707189D01*
X178524563Y-110719605D01*
X178664271Y-110731520D01*
X178822787Y-110745016D01*
X178972421Y-110757587D01*
X179109602Y-110768945D01*
X179230759Y-110778802D01*
X179332320Y-110786870D01*
X179410712Y-110792860D01*
X179462363Y-110796485D01*
X179482423Y-110797491D01*
X179494908Y-110799060D01*
X179499862Y-110805278D01*
X179495218Y-110818541D01*
X179478909Y-110841247D01*
X179448868Y-110875792D01*
X179403027Y-110924573D01*
X179339320Y-110989987D01*
X179255679Y-111074431D01*
X179166299Y-111164029D01*
X178800186Y-111530426D01*
X178797434Y-111527859D01*
X178797434Y-111770049D01*
X178812550Y-111781087D01*
X178848142Y-111811987D01*
X178900941Y-111859653D01*
X178967673Y-111920987D01*
X179045070Y-111992893D01*
X179129858Y-112072273D01*
X179218767Y-112156031D01*
X179308526Y-112241070D01*
X179395864Y-112324292D01*
X179477509Y-112402601D01*
X179550191Y-112472900D01*
X179610637Y-112532091D01*
X179655578Y-112577078D01*
X179681742Y-112604764D01*
X179687072Y-112612314D01*
X179669867Y-112614803D01*
X179622348Y-112619970D01*
X179547489Y-112627530D01*
X179448264Y-112637200D01*
X179327649Y-112648695D01*
X179188618Y-112661731D01*
X179034145Y-112676024D01*
X178867206Y-112691290D01*
X178732597Y-112703479D01*
X178558054Y-112719071D01*
X178393627Y-112733477D01*
X178242299Y-112746453D01*
X178107053Y-112757759D01*
X177990870Y-112767152D01*
X177896735Y-112774389D01*
X177827630Y-112779228D01*
X177786538Y-112781427D01*
X177775868Y-112781176D01*
X177785372Y-112768030D01*
X177815920Y-112734554D01*
X177864556Y-112683674D01*
X177928323Y-112618317D01*
X178004265Y-112541409D01*
X178089424Y-112455876D01*
X178180845Y-112364646D01*
X178275569Y-112270644D01*
X178370641Y-112176798D01*
X178463103Y-112086033D01*
X178549999Y-112001277D01*
X178628372Y-111925456D01*
X178695265Y-111861497D01*
X178747722Y-111812326D01*
X178782785Y-111780869D01*
X178797434Y-111770049D01*
X178797434Y-111527859D01*
X178653760Y-111393798D01*
X178579448Y-111324216D01*
X178496483Y-111246119D01*
X178408102Y-111162594D01*
X178317541Y-111076730D01*
X178228036Y-110991615D01*
X178142823Y-110910336D01*
X178065139Y-110835981D01*
X177998220Y-110771637D01*
X177945303Y-110720394D01*
X177909623Y-110685337D01*
X177894416Y-110669556D01*
X177894106Y-110668996D01*
X177894106Y-110504750D01*
X177702807Y-110488796D01*
X176863485Y-109690714D01*
X176024164Y-108892632D01*
X175906852Y-108893219D01*
X175789539Y-108893806D01*
X175927253Y-109022725D01*
X176004063Y-109094876D01*
X176094304Y-109180060D01*
X176195575Y-109275979D01*
X176305476Y-109380334D01*
X176421604Y-109490826D01*
X176541558Y-109605156D01*
X176662936Y-109721025D01*
X176783338Y-109836135D01*
X176900362Y-109948186D01*
X177011606Y-110054881D01*
X177114669Y-110153920D01*
X177207150Y-110243003D01*
X177286647Y-110319834D01*
X177350758Y-110382112D01*
X177397083Y-110427538D01*
X177423219Y-110453815D01*
X177428233Y-110459574D01*
X177410791Y-110459970D01*
X177366135Y-110457792D01*
X177300340Y-110453417D01*
X177219483Y-110447225D01*
X177187183Y-110444567D01*
X176950921Y-110424772D01*
X176950921Y-110579758D01*
X176988520Y-110587760D01*
X177018255Y-110591840D01*
X177074203Y-110597575D01*
X177149236Y-110604299D01*
X177236225Y-110611352D01*
X177268421Y-110613793D01*
X177360861Y-110620992D01*
X177446707Y-110628258D01*
X177517847Y-110634864D01*
X177566169Y-110640084D01*
X177574939Y-110641261D01*
X177592942Y-110645702D01*
X177614017Y-110655313D01*
X177640525Y-110672140D01*
X177674828Y-110698225D01*
X177719289Y-110735613D01*
X177776271Y-110786346D01*
X177848136Y-110852470D01*
X177937246Y-110936026D01*
X178045964Y-111039060D01*
X178156275Y-111144167D01*
X178265441Y-111248738D01*
X178366540Y-111346351D01*
X178457115Y-111434578D01*
X178534708Y-111510988D01*
X178596862Y-111573151D01*
X178641118Y-111618637D01*
X178665018Y-111645017D01*
X178668574Y-111650643D01*
X178655681Y-111665443D01*
X178622060Y-111700039D01*
X178571082Y-111751071D01*
X178506120Y-111815183D01*
X178430548Y-111889016D01*
X178375493Y-111942411D01*
X178087237Y-112221173D01*
X178087237Y-111399210D01*
X177769737Y-111399210D01*
X177769737Y-112401842D01*
X177911206Y-112401842D01*
X177727960Y-112585658D01*
X177597971Y-112716052D01*
X177597971Y-112970000D01*
X177618477Y-112972429D01*
X177629902Y-112984724D01*
X177634880Y-113014396D01*
X177636044Y-113068955D01*
X177636052Y-113078618D01*
X177636052Y-113187237D01*
X177344584Y-113187237D01*
X177452237Y-113078618D01*
X177517687Y-113017346D01*
X177567829Y-112980699D01*
X177597971Y-112970000D01*
X177597971Y-112716052D01*
X177544715Y-112769474D01*
X177381502Y-112769474D01*
X177306414Y-112769985D01*
X177258645Y-112772328D01*
X177232098Y-112777711D01*
X177220679Y-112787344D01*
X177218289Y-112801871D01*
X177214780Y-112818027D01*
X177200711Y-112829969D01*
X177170769Y-112839139D01*
X177119642Y-112846982D01*
X177042017Y-112854942D01*
X177013585Y-112857496D01*
X176950921Y-112863026D01*
X176950921Y-110579758D01*
X176950921Y-110424772D01*
X176950921Y-110212763D01*
X176800526Y-110212763D01*
X176800526Y-110302859D01*
X176799083Y-110355555D01*
X176792116Y-110384188D01*
X176787970Y-110387691D01*
X176787970Y-110572234D01*
X176797442Y-110581946D01*
X176800366Y-110615588D01*
X176800526Y-110638294D01*
X176800526Y-110714079D01*
X176800526Y-110996694D01*
X176800526Y-112876519D01*
X176735413Y-112812938D01*
X176655062Y-112714186D01*
X176593089Y-112591968D01*
X176548646Y-112444213D01*
X176524065Y-112297401D01*
X176512596Y-112201316D01*
X176633421Y-112201316D01*
X176633421Y-111432632D01*
X176496345Y-111432632D01*
X176507776Y-111319835D01*
X176517425Y-111241025D01*
X176530214Y-111157057D01*
X176539348Y-111106776D01*
X176559488Y-111006513D01*
X176680007Y-111001603D01*
X176800526Y-110996694D01*
X176800526Y-110714079D01*
X176733684Y-110714079D01*
X176691810Y-110711869D01*
X176668536Y-110706350D01*
X176666842Y-110704126D01*
X176677560Y-110679387D01*
X176703563Y-110643243D01*
X176735623Y-110607010D01*
X176764511Y-110582001D01*
X176768267Y-110579773D01*
X176787970Y-110572234D01*
X176787970Y-110387691D01*
X176775674Y-110398081D01*
X176757762Y-110403689D01*
X176711279Y-110426578D01*
X176655400Y-110470540D01*
X176597960Y-110528011D01*
X176546793Y-110591427D01*
X176520143Y-110633082D01*
X176490972Y-110680534D01*
X176466467Y-110704859D01*
X176437572Y-110713405D01*
X176420362Y-110714062D01*
X176416184Y-110714063D01*
X176416184Y-111566316D01*
X176499737Y-111566316D01*
X176499737Y-112067632D01*
X176416184Y-112067632D01*
X176416184Y-111566316D01*
X176416184Y-110714063D01*
X176366052Y-110714079D01*
X176366052Y-110854726D01*
X176367617Y-110919436D01*
X176371785Y-110969870D01*
X176377773Y-110997906D01*
X176380197Y-111000943D01*
X176383918Y-111018727D01*
X176382394Y-111062008D01*
X176376075Y-111123349D01*
X176370240Y-111165263D01*
X176358778Y-111241263D01*
X176348430Y-111310770D01*
X176340796Y-111363003D01*
X176338627Y-111378322D01*
X176326232Y-111418347D01*
X176306808Y-111432632D01*
X176298898Y-111436975D01*
X176292863Y-111452510D01*
X176288466Y-111482999D01*
X176285469Y-111532200D01*
X176283635Y-111603874D01*
X176282725Y-111701781D01*
X176282500Y-111816974D01*
X176282628Y-111939914D01*
X176283230Y-112033441D01*
X176284639Y-112101560D01*
X176287181Y-112148281D01*
X176291189Y-112177609D01*
X176296991Y-112193551D01*
X176304917Y-112200115D01*
X176314133Y-112201316D01*
X176343385Y-112211540D01*
X176360031Y-112245030D01*
X176365968Y-112306012D01*
X176366052Y-112316983D01*
X176376706Y-112420254D01*
X176406033Y-112537547D01*
X176450084Y-112658285D01*
X176504911Y-112771889D01*
X176566564Y-112867781D01*
X176576332Y-112880201D01*
X176608115Y-112920682D01*
X176620844Y-112944655D01*
X176616729Y-112961396D01*
X176599750Y-112978581D01*
X176566492Y-113029336D01*
X176553725Y-113095393D01*
X176560365Y-113166526D01*
X176585327Y-113232514D01*
X176627529Y-113283132D01*
X176632434Y-113286797D01*
X176711211Y-113324672D01*
X176792754Y-113331719D01*
X176870487Y-113308715D01*
X176937835Y-113256437D01*
X176943396Y-113250044D01*
X176969813Y-113212927D01*
X176981447Y-113175267D01*
X176982287Y-113122324D01*
X176981542Y-113109098D01*
X176979641Y-113057297D01*
X176983996Y-113030614D01*
X176997138Y-113020955D01*
X177009408Y-113019963D01*
X177045002Y-113017939D01*
X177098533Y-113012914D01*
X177130559Y-113009303D01*
X177181427Y-113004066D01*
X177207468Y-113006244D01*
X177216986Y-113018875D01*
X177218289Y-113041375D01*
X177213986Y-113054718D01*
X177200057Y-113076244D01*
X177174977Y-113107548D01*
X177137219Y-113150224D01*
X177085256Y-113205868D01*
X177017562Y-113276075D01*
X176932611Y-113362440D01*
X176828875Y-113466558D01*
X176704828Y-113590025D01*
X176558944Y-113734436D01*
X176488449Y-113804031D01*
X175758610Y-114524079D01*
X175874337Y-114523256D01*
X175874337Y-114523256D01*
G37*
X175874337Y-114523256D02*
X175990066Y-114522433D01*
X176600000Y-113922115D01*
X177209934Y-113321796D01*
X177489835Y-113321359D01*
X177769737Y-113320921D01*
X177769737Y-112955337D01*
X177840756Y-112945917D01*
X177873127Y-112942350D01*
X177934087Y-112936338D01*
X178019998Y-112928201D01*
X178127226Y-112918262D01*
X178252133Y-112906843D01*
X178391083Y-112894264D01*
X178540441Y-112880847D01*
X178696568Y-112866915D01*
X178855830Y-112852788D01*
X179014590Y-112838788D01*
X179169211Y-112825237D01*
X179316057Y-112812456D01*
X179451493Y-112800767D01*
X179571880Y-112790492D01*
X179673584Y-112781952D01*
X179752967Y-112775469D01*
X179806394Y-112771364D01*
X179830229Y-112769959D01*
X179830342Y-112769960D01*
X179849466Y-112780204D01*
X179888955Y-112810974D01*
X179949266Y-112862689D01*
X180030861Y-112935767D01*
X180134198Y-113030627D01*
X180259738Y-113147687D01*
X180407940Y-113287367D01*
X180579263Y-113450084D01*
X180627237Y-113495821D01*
X181387566Y-114221195D01*
X181446052Y-114162551D01*
X181504539Y-114103908D01*
X181401310Y-114009026D01*
X181364003Y-113974315D01*
X181306311Y-113920094D01*
X181232013Y-113849941D01*
X181144889Y-113767432D01*
X181048718Y-113676145D01*
X180947280Y-113579658D01*
X180886695Y-113521935D01*
X180773197Y-113413566D01*
X180682285Y-113325972D01*
X180612307Y-113256920D01*
X180561610Y-113204176D01*
X180528540Y-113165506D01*
X180511444Y-113138677D01*
X180508669Y-113121456D01*
X180518563Y-113111608D01*
X180539471Y-113106901D01*
X180569741Y-113105101D01*
X180578002Y-113104859D01*
X180634909Y-113092342D01*
X180703693Y-113061503D01*
X180773475Y-113018497D01*
X180833378Y-112969480D01*
X180851882Y-112949866D01*
X180916628Y-112849230D01*
X180952854Y-112731673D01*
X180961447Y-112627738D01*
X180945239Y-112509951D01*
X180897712Y-112401169D01*
X180820511Y-112304890D01*
X180801295Y-112287125D01*
X180727500Y-112222168D01*
X180727500Y-111098421D01*
X180961447Y-111098421D01*
X180961447Y-110797632D01*
X180852152Y-110797632D01*
X180777539Y-110793857D01*
X180725750Y-110781175D01*
X180697580Y-110765763D01*
X180677424Y-110754750D01*
X180648200Y-110745321D01*
X180605575Y-110736849D01*
X180545217Y-110728710D01*
X180462793Y-110720279D01*
X180353972Y-110710932D01*
X180273017Y-110704531D01*
X179893732Y-110675169D01*
X180623938Y-109954341D01*
X180756066Y-109824008D01*
X180883096Y-109698892D01*
X181002695Y-109581279D01*
X181112528Y-109473455D01*
X181210263Y-109377705D01*
X181293566Y-109296317D01*
X181360104Y-109231577D01*
X181407542Y-109185770D01*
X181433520Y-109161208D01*
X181474649Y-109120855D01*
X181503335Y-109087195D01*
X181512895Y-109069090D01*
X181501697Y-109045965D01*
X181473719Y-109012257D01*
X181462326Y-109000831D01*
X181411757Y-108952383D01*
X181140702Y-109219119D01*
X181071652Y-109287169D01*
X180982774Y-109374915D01*
X180877959Y-109478508D01*
X180761097Y-109594100D01*
X180636079Y-109717841D01*
X180506795Y-109845881D01*
X180377136Y-109974372D01*
X180284179Y-110066546D01*
X180142520Y-110206658D01*
X180022591Y-110324368D01*
X179922768Y-110421180D01*
X179841428Y-110498601D01*
X179776948Y-110558136D01*
X179743277Y-110587642D01*
X179743277Y-110824591D01*
X180122592Y-110854257D01*
X180233777Y-110863203D01*
X180335453Y-110871858D01*
X180422304Y-110879729D01*
X180489018Y-110886328D01*
X180530279Y-110891164D01*
X180539506Y-110892720D01*
X180577105Y-110901518D01*
X180577105Y-112163319D01*
X180472173Y-112171742D01*
X180348195Y-112197172D01*
X180238524Y-112250389D01*
X180147156Y-112328037D01*
X180078083Y-112426763D01*
X180036620Y-112537572D01*
X180017171Y-112573520D01*
X179975430Y-112591517D01*
X179973589Y-112591894D01*
X179955967Y-112594053D01*
X179937922Y-112591384D01*
X179916108Y-112581280D01*
X179887177Y-112561137D01*
X179847783Y-112528349D01*
X179794577Y-112480310D01*
X179724214Y-112414416D01*
X179633346Y-112328060D01*
X179627493Y-112322480D01*
X179529956Y-112229595D01*
X179426067Y-112130845D01*
X179322977Y-112033016D01*
X179227839Y-111942893D01*
X179147804Y-111867262D01*
X179129911Y-111850395D01*
X179062444Y-111785735D01*
X179004709Y-111728295D01*
X178960675Y-111682199D01*
X178934314Y-111651569D01*
X178928521Y-111641285D01*
X178940646Y-111625948D01*
X178973910Y-111590083D01*
X179025542Y-111536512D01*
X179092775Y-111468060D01*
X179172837Y-111387553D01*
X179262961Y-111297813D01*
X179337198Y-111224468D01*
X179743277Y-110824591D01*
X179743277Y-110587642D01*
X179727703Y-110601291D01*
X179692071Y-110629571D01*
X179668429Y-110644483D01*
X179657480Y-110647801D01*
X179633586Y-110646544D01*
X179579501Y-110642726D01*
X179498338Y-110636593D01*
X179393210Y-110628393D01*
X179267228Y-110618373D01*
X179123505Y-110606780D01*
X178965154Y-110593860D01*
X178795287Y-110579862D01*
X178659528Y-110568581D01*
X177894106Y-110504750D01*
X177894106Y-110668996D01*
X177910624Y-110669703D01*
X177957145Y-110673031D01*
X178030378Y-110678710D01*
X178127028Y-110686474D01*
X178243805Y-110696057D01*
X178377414Y-110707189D01*
X178524563Y-110719605D01*
X178664271Y-110731520D01*
X178822787Y-110745016D01*
X178972421Y-110757587D01*
X179109602Y-110768945D01*
X179230759Y-110778802D01*
X179332320Y-110786870D01*
X179410712Y-110792860D01*
X179462363Y-110796485D01*
X179482423Y-110797491D01*
X179494908Y-110799060D01*
X179499862Y-110805278D01*
X179495218Y-110818541D01*
X179478909Y-110841247D01*
X179448868Y-110875792D01*
X179403027Y-110924573D01*
X179339320Y-110989987D01*
X179255679Y-111074431D01*
X179166299Y-111164029D01*
X178800186Y-111530426D01*
X178797434Y-111527859D01*
X178797434Y-111770049D01*
X178812550Y-111781087D01*
X178848142Y-111811987D01*
X178900941Y-111859653D01*
X178967673Y-111920987D01*
X179045070Y-111992893D01*
X179129858Y-112072273D01*
X179218767Y-112156031D01*
X179308526Y-112241070D01*
X179395864Y-112324292D01*
X179477509Y-112402601D01*
X179550191Y-112472900D01*
X179610637Y-112532091D01*
X179655578Y-112577078D01*
X179681742Y-112604764D01*
X179687072Y-112612314D01*
X179669867Y-112614803D01*
X179622348Y-112619970D01*
X179547489Y-112627530D01*
X179448264Y-112637200D01*
X179327649Y-112648695D01*
X179188618Y-112661731D01*
X179034145Y-112676024D01*
X178867206Y-112691290D01*
X178732597Y-112703479D01*
X178558054Y-112719071D01*
X178393627Y-112733477D01*
X178242299Y-112746453D01*
X178107053Y-112757759D01*
X177990870Y-112767152D01*
X177896735Y-112774389D01*
X177827630Y-112779228D01*
X177786538Y-112781427D01*
X177775868Y-112781176D01*
X177785372Y-112768030D01*
X177815920Y-112734554D01*
X177864556Y-112683674D01*
X177928323Y-112618317D01*
X178004265Y-112541409D01*
X178089424Y-112455876D01*
X178180845Y-112364646D01*
X178275569Y-112270644D01*
X178370641Y-112176798D01*
X178463103Y-112086033D01*
X178549999Y-112001277D01*
X178628372Y-111925456D01*
X178695265Y-111861497D01*
X178747722Y-111812326D01*
X178782785Y-111780869D01*
X178797434Y-111770049D01*
X178797434Y-111527859D01*
X178653760Y-111393798D01*
X178579448Y-111324216D01*
X178496483Y-111246119D01*
X178408102Y-111162594D01*
X178317541Y-111076730D01*
X178228036Y-110991615D01*
X178142823Y-110910336D01*
X178065139Y-110835981D01*
X177998220Y-110771637D01*
X177945303Y-110720394D01*
X177909623Y-110685337D01*
X177894416Y-110669556D01*
X177894106Y-110668996D01*
X177894106Y-110504750D01*
X177702807Y-110488796D01*
X176863485Y-109690714D01*
X176024164Y-108892632D01*
X175906852Y-108893219D01*
X175789539Y-108893806D01*
X175927253Y-109022725D01*
X176004063Y-109094876D01*
X176094304Y-109180060D01*
X176195575Y-109275979D01*
X176305476Y-109380334D01*
X176421604Y-109490826D01*
X176541558Y-109605156D01*
X176662936Y-109721025D01*
X176783338Y-109836135D01*
X176900362Y-109948186D01*
X177011606Y-110054881D01*
X177114669Y-110153920D01*
X177207150Y-110243003D01*
X177286647Y-110319834D01*
X177350758Y-110382112D01*
X177397083Y-110427538D01*
X177423219Y-110453815D01*
X177428233Y-110459574D01*
X177410791Y-110459970D01*
X177366135Y-110457792D01*
X177300340Y-110453417D01*
X177219483Y-110447225D01*
X177187183Y-110444567D01*
X176950921Y-110424772D01*
X176950921Y-110579758D01*
X176988520Y-110587760D01*
X177018255Y-110591840D01*
X177074203Y-110597575D01*
X177149236Y-110604299D01*
X177236225Y-110611352D01*
X177268421Y-110613793D01*
X177360861Y-110620992D01*
X177446707Y-110628258D01*
X177517847Y-110634864D01*
X177566169Y-110640084D01*
X177574939Y-110641261D01*
X177592942Y-110645702D01*
X177614017Y-110655313D01*
X177640525Y-110672140D01*
X177674828Y-110698225D01*
X177719289Y-110735613D01*
X177776271Y-110786346D01*
X177848136Y-110852470D01*
X177937246Y-110936026D01*
X178045964Y-111039060D01*
X178156275Y-111144167D01*
X178265441Y-111248738D01*
X178366540Y-111346351D01*
X178457115Y-111434578D01*
X178534708Y-111510988D01*
X178596862Y-111573151D01*
X178641118Y-111618637D01*
X178665018Y-111645017D01*
X178668574Y-111650643D01*
X178655681Y-111665443D01*
X178622060Y-111700039D01*
X178571082Y-111751071D01*
X178506120Y-111815183D01*
X178430548Y-111889016D01*
X178375493Y-111942411D01*
X178087237Y-112221173D01*
X178087237Y-111399210D01*
X177769737Y-111399210D01*
X177769737Y-112401842D01*
X177911206Y-112401842D01*
X177727960Y-112585658D01*
X177597971Y-112716052D01*
X177597971Y-112970000D01*
X177618477Y-112972429D01*
X177629902Y-112984724D01*
X177634880Y-113014396D01*
X177636044Y-113068955D01*
X177636052Y-113078618D01*
X177636052Y-113187237D01*
X177344584Y-113187237D01*
X177452237Y-113078618D01*
X177517687Y-113017346D01*
X177567829Y-112980699D01*
X177597971Y-112970000D01*
X177597971Y-112716052D01*
X177544715Y-112769474D01*
X177381502Y-112769474D01*
X177306414Y-112769985D01*
X177258645Y-112772328D01*
X177232098Y-112777711D01*
X177220679Y-112787344D01*
X177218289Y-112801871D01*
X177214780Y-112818027D01*
X177200711Y-112829969D01*
X177170769Y-112839139D01*
X177119642Y-112846982D01*
X177042017Y-112854942D01*
X177013585Y-112857496D01*
X176950921Y-112863026D01*
X176950921Y-110579758D01*
X176950921Y-110424772D01*
X176950921Y-110212763D01*
X176800526Y-110212763D01*
X176800526Y-110302859D01*
X176799083Y-110355555D01*
X176792116Y-110384188D01*
X176787970Y-110387691D01*
X176787970Y-110572234D01*
X176797442Y-110581946D01*
X176800366Y-110615588D01*
X176800526Y-110638294D01*
X176800526Y-110714079D01*
X176800526Y-110996694D01*
X176800526Y-112876519D01*
X176735413Y-112812938D01*
X176655062Y-112714186D01*
X176593089Y-112591968D01*
X176548646Y-112444213D01*
X176524065Y-112297401D01*
X176512596Y-112201316D01*
X176633421Y-112201316D01*
X176633421Y-111432632D01*
X176496345Y-111432632D01*
X176507776Y-111319835D01*
X176517425Y-111241025D01*
X176530214Y-111157057D01*
X176539348Y-111106776D01*
X176559488Y-111006513D01*
X176680007Y-111001603D01*
X176800526Y-110996694D01*
X176800526Y-110714079D01*
X176733684Y-110714079D01*
X176691810Y-110711869D01*
X176668536Y-110706350D01*
X176666842Y-110704126D01*
X176677560Y-110679387D01*
X176703563Y-110643243D01*
X176735623Y-110607010D01*
X176764511Y-110582001D01*
X176768267Y-110579773D01*
X176787970Y-110572234D01*
X176787970Y-110387691D01*
X176775674Y-110398081D01*
X176757762Y-110403689D01*
X176711279Y-110426578D01*
X176655400Y-110470540D01*
X176597960Y-110528011D01*
X176546793Y-110591427D01*
X176520143Y-110633082D01*
X176490972Y-110680534D01*
X176466467Y-110704859D01*
X176437572Y-110713405D01*
X176420362Y-110714062D01*
X176416184Y-110714063D01*
X176416184Y-111566316D01*
X176499737Y-111566316D01*
X176499737Y-112067632D01*
X176416184Y-112067632D01*
X176416184Y-111566316D01*
X176416184Y-110714063D01*
X176366052Y-110714079D01*
X176366052Y-110854726D01*
X176367617Y-110919436D01*
X176371785Y-110969870D01*
X176377773Y-110997906D01*
X176380197Y-111000943D01*
X176383918Y-111018727D01*
X176382394Y-111062008D01*
X176376075Y-111123349D01*
X176370240Y-111165263D01*
X176358778Y-111241263D01*
X176348430Y-111310770D01*
X176340796Y-111363003D01*
X176338627Y-111378322D01*
X176326232Y-111418347D01*
X176306808Y-111432632D01*
X176298898Y-111436975D01*
X176292863Y-111452510D01*
X176288466Y-111482999D01*
X176285469Y-111532200D01*
X176283635Y-111603874D01*
X176282725Y-111701781D01*
X176282500Y-111816974D01*
X176282628Y-111939914D01*
X176283230Y-112033441D01*
X176284639Y-112101560D01*
X176287181Y-112148281D01*
X176291189Y-112177609D01*
X176296991Y-112193551D01*
X176304917Y-112200115D01*
X176314133Y-112201316D01*
X176343385Y-112211540D01*
X176360031Y-112245030D01*
X176365968Y-112306012D01*
X176366052Y-112316983D01*
X176376706Y-112420254D01*
X176406033Y-112537547D01*
X176450084Y-112658285D01*
X176504911Y-112771889D01*
X176566564Y-112867781D01*
X176576332Y-112880201D01*
X176608115Y-112920682D01*
X176620844Y-112944655D01*
X176616729Y-112961396D01*
X176599750Y-112978581D01*
X176566492Y-113029336D01*
X176553725Y-113095393D01*
X176560365Y-113166526D01*
X176585327Y-113232514D01*
X176627529Y-113283132D01*
X176632434Y-113286797D01*
X176711211Y-113324672D01*
X176792754Y-113331719D01*
X176870487Y-113308715D01*
X176937835Y-113256437D01*
X176943396Y-113250044D01*
X176969813Y-113212927D01*
X176981447Y-113175267D01*
X176982287Y-113122324D01*
X176981542Y-113109098D01*
X176979641Y-113057297D01*
X176983996Y-113030614D01*
X176997138Y-113020955D01*
X177009408Y-113019963D01*
X177045002Y-113017939D01*
X177098533Y-113012914D01*
X177130559Y-113009303D01*
X177181427Y-113004066D01*
X177207468Y-113006244D01*
X177216986Y-113018875D01*
X177218289Y-113041375D01*
X177213986Y-113054718D01*
X177200057Y-113076244D01*
X177174977Y-113107548D01*
X177137219Y-113150224D01*
X177085256Y-113205868D01*
X177017562Y-113276075D01*
X176932611Y-113362440D01*
X176828875Y-113466558D01*
X176704828Y-113590025D01*
X176558944Y-113734436D01*
X176488449Y-113804031D01*
X175758610Y-114524079D01*
X175874337Y-114523256D01*
D13*
G04 #@! TO.C,JP2*
X108285000Y-126310000D02*
X110065000Y-126310000D01*
X110065000Y-122490000D02*
X110065000Y-126310000D01*
X108285000Y-122490000D02*
X110065000Y-122490000D01*
X108285000Y-126310000D02*
X108285000Y-122490000D01*
G04 #@! TO.C,J4*
D15*
X156676190Y-87533333D02*
X157033333Y-87533333D01*
X157104761Y-87509523D01*
X157152380Y-87461904D01*
X157176190Y-87390476D01*
X157176190Y-87342857D01*
X156842857Y-87985714D02*
X157176190Y-87985714D01*
X156652380Y-87866666D02*
X157009523Y-87747619D01*
X157009523Y-88057142D01*
G04 #@! TO.C,J5*
X156626190Y-103883333D02*
X156983333Y-103883333D01*
X157054761Y-103859523D01*
X157102380Y-103811904D01*
X157126190Y-103740476D01*
X157126190Y-103692857D01*
X156626190Y-104359523D02*
X156626190Y-104121428D01*
X156864285Y-104097619D01*
X156840476Y-104121428D01*
X156816666Y-104169047D01*
X156816666Y-104288095D01*
X156840476Y-104335714D01*
X156864285Y-104359523D01*
X156911904Y-104383333D01*
X157030952Y-104383333D01*
X157078571Y-104359523D01*
X157102380Y-104335714D01*
X157126190Y-104288095D01*
X157126190Y-104169047D01*
X157102380Y-104121428D01*
X157078571Y-104097619D01*
G04 #@! TO.C,J34*
X183326190Y-102320238D02*
X183683333Y-102320238D01*
X183754761Y-102296428D01*
X183802380Y-102248809D01*
X183826190Y-102177380D01*
X183826190Y-102129761D01*
X183326190Y-102510714D02*
X183326190Y-102820238D01*
X183516666Y-102653571D01*
X183516666Y-102725000D01*
X183540476Y-102772619D01*
X183564285Y-102796428D01*
X183611904Y-102820238D01*
X183730952Y-102820238D01*
X183778571Y-102796428D01*
X183802380Y-102772619D01*
X183826190Y-102725000D01*
X183826190Y-102582142D01*
X183802380Y-102534523D01*
X183778571Y-102510714D01*
X183492857Y-103248809D02*
X183826190Y-103248809D01*
X183302380Y-103129761D02*
X183659523Y-103010714D01*
X183659523Y-103320238D01*
G04 #@! TO.C,JP1*
X117196666Y-123616190D02*
X117196666Y-123973333D01*
X117220476Y-124044761D01*
X117268095Y-124092380D01*
X117339523Y-124116190D01*
X117387142Y-124116190D01*
X116958571Y-124116190D02*
X116958571Y-123616190D01*
X116768095Y-123616190D01*
X116720476Y-123640000D01*
X116696666Y-123663809D01*
X116672857Y-123711428D01*
X116672857Y-123782857D01*
X116696666Y-123830476D01*
X116720476Y-123854285D01*
X116768095Y-123878095D01*
X116958571Y-123878095D01*
X116196666Y-124116190D02*
X116482380Y-124116190D01*
X116339523Y-124116190D02*
X116339523Y-123616190D01*
X116387142Y-123687619D01*
X116434761Y-123735238D01*
X116482380Y-123759047D01*
G04 #@! TO.C,JP2*
X107748809Y-124816666D02*
X107391666Y-124816666D01*
X107320238Y-124840476D01*
X107272619Y-124888095D01*
X107248809Y-124959523D01*
X107248809Y-125007142D01*
X107248809Y-124578571D02*
X107748809Y-124578571D01*
X107748809Y-124388095D01*
X107725000Y-124340476D01*
X107701190Y-124316666D01*
X107653571Y-124292857D01*
X107582142Y-124292857D01*
X107534523Y-124316666D01*
X107510714Y-124340476D01*
X107486904Y-124388095D01*
X107486904Y-124578571D01*
X107701190Y-124102380D02*
X107725000Y-124078571D01*
X107748809Y-124030952D01*
X107748809Y-123911904D01*
X107725000Y-123864285D01*
X107701190Y-123840476D01*
X107653571Y-123816666D01*
X107605952Y-123816666D01*
X107534523Y-123840476D01*
X107248809Y-124126190D01*
X107248809Y-123816666D01*
G04 #@! TD*
M02*
