G04 #@! TF.GenerationSoftware,KiCad,Pcbnew,5.0.2-bee76a0~70~ubuntu16.04.1*
G04 #@! TF.CreationDate,2019-03-26T22:40:40+05:30*
G04 #@! TF.ProjectId,neurolab,6e657572-6f6c-4616-922e-6b696361645f,rev?*
G04 #@! TF.SameCoordinates,Original*
G04 #@! TF.FileFunction,Soldermask,Top*
G04 #@! TF.FilePolarity,Negative*
%FSLAX46Y46*%
G04 Gerber Fmt 4.6, Leading zero omitted, Abs format (unit mm)*
G04 Created by KiCad (PCBNEW 5.0.2-bee76a0~70~ubuntu16.04.1) date Tue 26 Mar 2019 22:40:40 +0530*
%MOMM*%
%LPD*%
G01*
G04 APERTURE LIST*
%ADD10C,0.100000*%
G04 APERTURE END LIST*
D10*
G36*
X117900000Y-131875000D02*
X114950000Y-131875000D01*
X114950000Y-128975000D01*
X117900000Y-128975000D01*
X117900000Y-131875000D01*
X117900000Y-131875000D01*
G37*
G36*
X112850000Y-131875000D02*
X109900000Y-131875000D01*
X109900000Y-128975000D01*
X112850000Y-128975000D01*
X112850000Y-131875000D01*
X112850000Y-131875000D01*
G37*
G36*
X95650000Y-131875000D02*
X92700000Y-131875000D01*
X92700000Y-128975000D01*
X95650000Y-128975000D01*
X95650000Y-131875000D01*
X95650000Y-131875000D01*
G37*
G36*
X100700000Y-131875000D02*
X97750000Y-131875000D01*
X97750000Y-128975000D01*
X100700000Y-128975000D01*
X100700000Y-131875000D01*
X100700000Y-131875000D01*
G37*
G36*
X109300000Y-131875000D02*
X106350000Y-131875000D01*
X106350000Y-128975000D01*
X109300000Y-128975000D01*
X109300000Y-131875000D01*
X109300000Y-131875000D01*
G37*
G36*
X104250000Y-131875000D02*
X101300000Y-131875000D01*
X101300000Y-128975000D01*
X104250000Y-128975000D01*
X104250000Y-131875000D01*
X104250000Y-131875000D01*
G37*
G36*
X112520000Y-128225000D02*
X111520000Y-128225000D01*
X111520000Y-126275000D01*
X112520000Y-126275000D01*
X112520000Y-128225000D01*
X112520000Y-128225000D01*
G37*
G36*
X113790000Y-128225000D02*
X112790000Y-128225000D01*
X112790000Y-126275000D01*
X113790000Y-126275000D01*
X113790000Y-128225000D01*
X113790000Y-128225000D01*
G37*
G36*
X116330000Y-128225000D02*
X115330000Y-128225000D01*
X115330000Y-126275000D01*
X116330000Y-126275000D01*
X116330000Y-128225000D01*
X116330000Y-128225000D01*
G37*
G36*
X115060000Y-128225000D02*
X114060000Y-128225000D01*
X114060000Y-126275000D01*
X115060000Y-126275000D01*
X115060000Y-128225000D01*
X115060000Y-128225000D01*
G37*
G36*
X96430000Y-126050000D02*
X94970000Y-126050000D01*
X94970000Y-123100000D01*
X96430000Y-123100000D01*
X96430000Y-126050000D01*
X96430000Y-126050000D01*
G37*
G36*
X104930000Y-126050000D02*
X103470000Y-126050000D01*
X103470000Y-123100000D01*
X104930000Y-123100000D01*
X104930000Y-126050000D01*
X104930000Y-126050000D01*
G37*
G36*
X107130000Y-126050000D02*
X105670000Y-126050000D01*
X105670000Y-123100000D01*
X107130000Y-123100000D01*
X107130000Y-126050000D01*
X107130000Y-126050000D01*
G37*
G36*
X98630000Y-126050000D02*
X97170000Y-126050000D01*
X97170000Y-123100000D01*
X98630000Y-123100000D01*
X98630000Y-126050000D01*
X98630000Y-126050000D01*
G37*
G36*
X112520000Y-122825000D02*
X111520000Y-122825000D01*
X111520000Y-120875000D01*
X112520000Y-120875000D01*
X112520000Y-122825000D01*
X112520000Y-122825000D01*
G37*
G36*
X113790000Y-122825000D02*
X112790000Y-122825000D01*
X112790000Y-120875000D01*
X113790000Y-120875000D01*
X113790000Y-122825000D01*
X113790000Y-122825000D01*
G37*
G36*
X115060000Y-122825000D02*
X114060000Y-122825000D01*
X114060000Y-120875000D01*
X115060000Y-120875000D01*
X115060000Y-122825000D01*
X115060000Y-122825000D01*
G37*
G36*
X116330000Y-122825000D02*
X115330000Y-122825000D01*
X115330000Y-120875000D01*
X116330000Y-120875000D01*
X116330000Y-122825000D01*
X116330000Y-122825000D01*
G37*
G36*
X104250000Y-120100000D02*
X101300000Y-120100000D01*
X101300000Y-117200000D01*
X104250000Y-117200000D01*
X104250000Y-120100000D01*
X104250000Y-120100000D01*
G37*
G36*
X109300000Y-120100000D02*
X106350000Y-120100000D01*
X106350000Y-117200000D01*
X109300000Y-117200000D01*
X109300000Y-120100000D01*
X109300000Y-120100000D01*
G37*
G36*
X100775000Y-120075000D02*
X97825000Y-120075000D01*
X97825000Y-117175000D01*
X100775000Y-117175000D01*
X100775000Y-120075000D01*
X100775000Y-120075000D01*
G37*
G36*
X95725000Y-120075000D02*
X92775000Y-120075000D01*
X92775000Y-117175000D01*
X95725000Y-117175000D01*
X95725000Y-120075000D01*
X95725000Y-120075000D01*
G37*
G36*
X117925000Y-120075000D02*
X114975000Y-120075000D01*
X114975000Y-117175000D01*
X117925000Y-117175000D01*
X117925000Y-120075000D01*
X117925000Y-120075000D01*
G37*
G36*
X112875000Y-120075000D02*
X109925000Y-120075000D01*
X109925000Y-117175000D01*
X112875000Y-117175000D01*
X112875000Y-120075000D01*
X112875000Y-120075000D01*
G37*
G36*
X109275000Y-115725000D02*
X108125000Y-115725000D01*
X108125000Y-114525000D01*
X109275000Y-114525000D01*
X109275000Y-115725000D01*
X109275000Y-115725000D01*
G37*
G36*
X106925000Y-115725000D02*
X105775000Y-115725000D01*
X105775000Y-114525000D01*
X106925000Y-114525000D01*
X106925000Y-115725000D01*
X106925000Y-115725000D01*
G37*
G36*
X104625000Y-115725000D02*
X103475000Y-115725000D01*
X103475000Y-114525000D01*
X104625000Y-114525000D01*
X104625000Y-115725000D01*
X104625000Y-115725000D01*
G37*
G36*
X102275000Y-115725000D02*
X101125000Y-115725000D01*
X101125000Y-114525000D01*
X102275000Y-114525000D01*
X102275000Y-115725000D01*
X102275000Y-115725000D01*
G37*
G36*
X99900000Y-115725000D02*
X98750000Y-115725000D01*
X98750000Y-114525000D01*
X99900000Y-114525000D01*
X99900000Y-115725000D01*
X99900000Y-115725000D01*
G37*
G36*
X168575000Y-115625000D02*
X167275000Y-115625000D01*
X167275000Y-114025000D01*
X168575000Y-114025000D01*
X168575000Y-115625000D01*
X168575000Y-115625000D01*
G37*
G36*
X179150000Y-115600000D02*
X177850000Y-115600000D01*
X177850000Y-114000000D01*
X179150000Y-114000000D01*
X179150000Y-115600000D01*
X179150000Y-115600000D01*
G37*
G36*
X165775000Y-115500000D02*
X162975000Y-115500000D01*
X162975000Y-113650000D01*
X165775000Y-113650000D01*
X165775000Y-115500000D01*
X165775000Y-115500000D01*
G37*
G36*
X160050000Y-115500000D02*
X157250000Y-115500000D01*
X157250000Y-113650000D01*
X160050000Y-113650000D01*
X160050000Y-115500000D01*
X160050000Y-115500000D01*
G37*
G36*
X172925000Y-115400000D02*
X171725000Y-115400000D01*
X171725000Y-114250000D01*
X172925000Y-114250000D01*
X172925000Y-115400000D01*
X172925000Y-115400000D01*
G37*
G36*
X174425000Y-115400000D02*
X173225000Y-115400000D01*
X173225000Y-114250000D01*
X174425000Y-114250000D01*
X174425000Y-115400000D01*
X174425000Y-115400000D01*
G37*
G36*
X141280000Y-115385000D02*
X137370000Y-115385000D01*
X137370000Y-113715000D01*
X141280000Y-113715000D01*
X141280000Y-115385000D01*
X141280000Y-115385000D01*
G37*
G36*
X154300000Y-115225000D02*
X152700000Y-115225000D01*
X152700000Y-113925000D01*
X154300000Y-113925000D01*
X154300000Y-115225000D01*
X154300000Y-115225000D01*
G37*
G36*
X156500000Y-115225000D02*
X154900000Y-115225000D01*
X154900000Y-113925000D01*
X156500000Y-113925000D01*
X156500000Y-115225000D01*
X156500000Y-115225000D01*
G37*
G36*
X146325000Y-115200000D02*
X145125000Y-115200000D01*
X145125000Y-114000000D01*
X146325000Y-114000000D01*
X146325000Y-115200000D01*
X146325000Y-115200000D01*
G37*
G36*
X144000000Y-115150000D02*
X142850000Y-115150000D01*
X142850000Y-113950000D01*
X144000000Y-113950000D01*
X144000000Y-115150000D01*
X144000000Y-115150000D01*
G37*
G36*
X151350000Y-115100000D02*
X150200000Y-115100000D01*
X150200000Y-113900000D01*
X151350000Y-113900000D01*
X151350000Y-115100000D01*
X151350000Y-115100000D01*
G37*
G36*
X184030000Y-115070000D02*
X182830000Y-115070000D01*
X182830000Y-113870000D01*
X184030000Y-113870000D01*
X184030000Y-115070000D01*
X184030000Y-115070000D01*
G37*
G36*
X148825000Y-114950000D02*
X147525000Y-114950000D01*
X147525000Y-114050000D01*
X148825000Y-114050000D01*
X148825000Y-114950000D01*
X148825000Y-114950000D01*
G37*
G36*
X102275000Y-114225000D02*
X101125000Y-114225000D01*
X101125000Y-113025000D01*
X102275000Y-113025000D01*
X102275000Y-114225000D01*
X102275000Y-114225000D01*
G37*
G36*
X109275000Y-114225000D02*
X108125000Y-114225000D01*
X108125000Y-113025000D01*
X109275000Y-113025000D01*
X109275000Y-114225000D01*
X109275000Y-114225000D01*
G37*
G36*
X106925000Y-114225000D02*
X105775000Y-114225000D01*
X105775000Y-113025000D01*
X106925000Y-113025000D01*
X106925000Y-114225000D01*
X106925000Y-114225000D01*
G37*
G36*
X99900000Y-114225000D02*
X98750000Y-114225000D01*
X98750000Y-113025000D01*
X99900000Y-113025000D01*
X99900000Y-114225000D01*
X99900000Y-114225000D01*
G37*
G36*
X104625000Y-114225000D02*
X103475000Y-114225000D01*
X103475000Y-113025000D01*
X104625000Y-113025000D01*
X104625000Y-114225000D01*
X104625000Y-114225000D01*
G37*
G36*
X127475000Y-114000000D02*
X126175000Y-114000000D01*
X126175000Y-112400000D01*
X127475000Y-112400000D01*
X127475000Y-114000000D01*
X127475000Y-114000000D01*
G37*
G36*
X122800000Y-114000000D02*
X121500000Y-114000000D01*
X121500000Y-112400000D01*
X122800000Y-112400000D01*
X122800000Y-114000000D01*
X122800000Y-114000000D01*
G37*
G36*
X135525000Y-113950000D02*
X134225000Y-113950000D01*
X134225000Y-112350000D01*
X135525000Y-112350000D01*
X135525000Y-113950000D01*
X135525000Y-113950000D01*
G37*
G36*
X132055000Y-113835000D02*
X128145000Y-113835000D01*
X128145000Y-112165000D01*
X132055000Y-112165000D01*
X132055000Y-113835000D01*
X132055000Y-113835000D01*
G37*
G36*
X144000000Y-113650000D02*
X142850000Y-113650000D01*
X142850000Y-112450000D01*
X144000000Y-112450000D01*
X144000000Y-113650000D01*
X144000000Y-113650000D01*
G37*
G36*
X151350000Y-113600000D02*
X150200000Y-113600000D01*
X150200000Y-112400000D01*
X151350000Y-112400000D01*
X151350000Y-113600000D01*
X151350000Y-113600000D01*
G37*
G36*
X146325000Y-113600000D02*
X145125000Y-113600000D01*
X145125000Y-112400000D01*
X146325000Y-112400000D01*
X146325000Y-113600000D01*
X146325000Y-113600000D01*
G37*
G36*
X184030000Y-113470000D02*
X182830000Y-113470000D01*
X182830000Y-112270000D01*
X184030000Y-112270000D01*
X184030000Y-113470000D01*
X184030000Y-113470000D01*
G37*
G36*
X120275000Y-113450000D02*
X119125000Y-113450000D01*
X119125000Y-112250000D01*
X120275000Y-112250000D01*
X120275000Y-113450000D01*
X120275000Y-113450000D01*
G37*
G36*
X148825000Y-113450000D02*
X147525000Y-113450000D01*
X147525000Y-112550000D01*
X148825000Y-112550000D01*
X148825000Y-113450000D01*
X148825000Y-113450000D01*
G37*
G36*
X125100000Y-113450000D02*
X123950000Y-113450000D01*
X123950000Y-112250000D01*
X125100000Y-112250000D01*
X125100000Y-113450000D01*
X125100000Y-113450000D01*
G37*
G36*
X168575000Y-113425000D02*
X167275000Y-113425000D01*
X167275000Y-111825000D01*
X168575000Y-111825000D01*
X168575000Y-113425000D01*
X168575000Y-113425000D01*
G37*
G36*
X179150000Y-113400000D02*
X177850000Y-113400000D01*
X177850000Y-111800000D01*
X179150000Y-111800000D01*
X179150000Y-113400000D01*
X179150000Y-113400000D01*
G37*
G36*
X176850000Y-113355000D02*
X174900000Y-113355000D01*
X174900000Y-112355000D01*
X176850000Y-112355000D01*
X176850000Y-113355000D01*
X176850000Y-113355000D01*
G37*
G36*
X171450000Y-113355000D02*
X169500000Y-113355000D01*
X169500000Y-112355000D01*
X171450000Y-112355000D01*
X171450000Y-113355000D01*
X171450000Y-113355000D01*
G37*
G36*
X162075000Y-113150000D02*
X160925000Y-113150000D01*
X160925000Y-111950000D01*
X162075000Y-111950000D01*
X162075000Y-113150000D01*
X162075000Y-113150000D01*
G37*
G36*
X156275000Y-113150000D02*
X155125000Y-113150000D01*
X155125000Y-111950000D01*
X156275000Y-111950000D01*
X156275000Y-113150000D01*
X156275000Y-113150000D01*
G37*
G36*
X118120000Y-113070000D02*
X116020000Y-113070000D01*
X116020000Y-110970000D01*
X118120000Y-110970000D01*
X118120000Y-113070000D01*
X118120000Y-113070000D01*
G37*
G36*
X171450000Y-112085000D02*
X169500000Y-112085000D01*
X169500000Y-111085000D01*
X171450000Y-111085000D01*
X171450000Y-112085000D01*
X171450000Y-112085000D01*
G37*
G36*
X176850000Y-112085000D02*
X174900000Y-112085000D01*
X174900000Y-111085000D01*
X176850000Y-111085000D01*
X176850000Y-112085000D01*
X176850000Y-112085000D01*
G37*
G36*
X125100000Y-111950000D02*
X123950000Y-111950000D01*
X123950000Y-110750000D01*
X125100000Y-110750000D01*
X125100000Y-111950000D01*
X125100000Y-111950000D01*
G37*
G36*
X120275000Y-111950000D02*
X119125000Y-111950000D01*
X119125000Y-110750000D01*
X120275000Y-110750000D01*
X120275000Y-111950000D01*
X120275000Y-111950000D01*
G37*
G36*
X127475000Y-111800000D02*
X126175000Y-111800000D01*
X126175000Y-110200000D01*
X127475000Y-110200000D01*
X127475000Y-111800000D01*
X127475000Y-111800000D01*
G37*
G36*
X122800000Y-111800000D02*
X121500000Y-111800000D01*
X121500000Y-110200000D01*
X122800000Y-110200000D01*
X122800000Y-111800000D01*
X122800000Y-111800000D01*
G37*
G36*
X135525000Y-111750000D02*
X134225000Y-111750000D01*
X134225000Y-110150000D01*
X135525000Y-110150000D01*
X135525000Y-111750000D01*
X135525000Y-111750000D01*
G37*
G36*
X162075000Y-111650000D02*
X160925000Y-111650000D01*
X160925000Y-110450000D01*
X162075000Y-110450000D01*
X162075000Y-111650000D01*
X162075000Y-111650000D01*
G37*
G36*
X104700000Y-111650000D02*
X103100000Y-111650000D01*
X103100000Y-110350000D01*
X104700000Y-110350000D01*
X104700000Y-111650000D01*
X104700000Y-111650000D01*
G37*
G36*
X102500000Y-111650000D02*
X100900000Y-111650000D01*
X100900000Y-110350000D01*
X102500000Y-110350000D01*
X102500000Y-111650000D01*
X102500000Y-111650000D01*
G37*
G36*
X156275000Y-111650000D02*
X155125000Y-111650000D01*
X155125000Y-110450000D01*
X156275000Y-110450000D01*
X156275000Y-111650000D01*
X156275000Y-111650000D01*
G37*
G36*
X154125000Y-111600000D02*
X152825000Y-111600000D01*
X152825000Y-110000000D01*
X154125000Y-110000000D01*
X154125000Y-111600000D01*
X154125000Y-111600000D01*
G37*
G36*
X108100000Y-111575000D02*
X106900000Y-111575000D01*
X106900000Y-110425000D01*
X108100000Y-110425000D01*
X108100000Y-111575000D01*
X108100000Y-111575000D01*
G37*
G36*
X106600000Y-111575000D02*
X105400000Y-111575000D01*
X105400000Y-110425000D01*
X106600000Y-110425000D01*
X106600000Y-111575000D01*
X106600000Y-111575000D01*
G37*
G36*
X110300000Y-111575000D02*
X109100000Y-111575000D01*
X109100000Y-110425000D01*
X110300000Y-110425000D01*
X110300000Y-111575000D01*
X110300000Y-111575000D01*
G37*
G36*
X111800000Y-111575000D02*
X110600000Y-111575000D01*
X110600000Y-110425000D01*
X111800000Y-110425000D01*
X111800000Y-111575000D01*
X111800000Y-111575000D01*
G37*
G36*
X146400000Y-111555000D02*
X144450000Y-111555000D01*
X144450000Y-110555000D01*
X146400000Y-110555000D01*
X146400000Y-111555000D01*
X146400000Y-111555000D01*
G37*
G36*
X151800000Y-111555000D02*
X149850000Y-111555000D01*
X149850000Y-110555000D01*
X151800000Y-110555000D01*
X151800000Y-111555000D01*
X151800000Y-111555000D01*
G37*
G36*
X132000000Y-111500000D02*
X130400000Y-111500000D01*
X130400000Y-110200000D01*
X132000000Y-110200000D01*
X132000000Y-111500000D01*
X132000000Y-111500000D01*
G37*
G36*
X129800000Y-111500000D02*
X128200000Y-111500000D01*
X128200000Y-110200000D01*
X129800000Y-110200000D01*
X129800000Y-111500000D01*
X129800000Y-111500000D01*
G37*
G36*
X114060000Y-111455000D02*
X112390000Y-111455000D01*
X112390000Y-107545000D01*
X114060000Y-107545000D01*
X114060000Y-111455000D01*
X114060000Y-111455000D01*
G37*
G36*
X143125000Y-111225000D02*
X141525000Y-111225000D01*
X141525000Y-109925000D01*
X143125000Y-109925000D01*
X143125000Y-111225000D01*
X143125000Y-111225000D01*
G37*
G36*
X179150000Y-111225000D02*
X177850000Y-111225000D01*
X177850000Y-109625000D01*
X179150000Y-109625000D01*
X179150000Y-111225000D01*
X179150000Y-111225000D01*
G37*
G36*
X181625000Y-111225000D02*
X180325000Y-111225000D01*
X180325000Y-109625000D01*
X181625000Y-109625000D01*
X181625000Y-111225000D01*
X181625000Y-111225000D01*
G37*
G36*
X140925000Y-111225000D02*
X139325000Y-111225000D01*
X139325000Y-109925000D01*
X140925000Y-109925000D01*
X140925000Y-111225000D01*
X140925000Y-111225000D01*
G37*
G36*
X184080000Y-111200000D02*
X182780000Y-111200000D01*
X182780000Y-109600000D01*
X184080000Y-109600000D01*
X184080000Y-111200000D01*
X184080000Y-111200000D01*
G37*
G36*
X165775000Y-111100000D02*
X162975000Y-111100000D01*
X162975000Y-109250000D01*
X165775000Y-109250000D01*
X165775000Y-111100000D01*
X165775000Y-111100000D01*
G37*
G36*
X160050000Y-111100000D02*
X157250000Y-111100000D01*
X157250000Y-109250000D01*
X160050000Y-109250000D01*
X160050000Y-111100000D01*
X160050000Y-111100000D01*
G37*
G36*
X99950000Y-110825000D02*
X98650000Y-110825000D01*
X98650000Y-109225000D01*
X99950000Y-109225000D01*
X99950000Y-110825000D01*
X99950000Y-110825000D01*
G37*
G36*
X171450000Y-110815000D02*
X169500000Y-110815000D01*
X169500000Y-109815000D01*
X171450000Y-109815000D01*
X171450000Y-110815000D01*
X171450000Y-110815000D01*
G37*
G36*
X176850000Y-110815000D02*
X174900000Y-110815000D01*
X174900000Y-109815000D01*
X176850000Y-109815000D01*
X176850000Y-110815000D01*
X176850000Y-110815000D01*
G37*
G36*
X168450000Y-110675000D02*
X167300000Y-110675000D01*
X167300000Y-109475000D01*
X168450000Y-109475000D01*
X168450000Y-110675000D01*
X168450000Y-110675000D01*
G37*
G36*
X151800000Y-110285000D02*
X149850000Y-110285000D01*
X149850000Y-109285000D01*
X151800000Y-109285000D01*
X151800000Y-110285000D01*
X151800000Y-110285000D01*
G37*
G36*
X146400000Y-110285000D02*
X144450000Y-110285000D01*
X144450000Y-109285000D01*
X146400000Y-109285000D01*
X146400000Y-110285000D01*
X146400000Y-110285000D01*
G37*
G36*
X109896030Y-107934469D02*
X109896033Y-107934470D01*
X109896034Y-107934470D01*
X110084535Y-107991651D01*
X110084537Y-107991652D01*
X110258260Y-108084509D01*
X110410528Y-108209472D01*
X110535491Y-108361740D01*
X110628348Y-108535463D01*
X110685531Y-108723970D01*
X110704838Y-108920000D01*
X110685531Y-109116030D01*
X110685530Y-109116033D01*
X110685530Y-109116034D01*
X110634275Y-109285000D01*
X110628348Y-109304537D01*
X110535491Y-109478260D01*
X110410528Y-109630528D01*
X110258260Y-109755491D01*
X110258258Y-109755492D01*
X110084535Y-109848349D01*
X109896034Y-109905530D01*
X109896033Y-109905530D01*
X109896030Y-109905531D01*
X109749124Y-109920000D01*
X109650876Y-109920000D01*
X109503970Y-109905531D01*
X109503967Y-109905530D01*
X109503966Y-109905530D01*
X109315465Y-109848349D01*
X109141742Y-109755492D01*
X109141740Y-109755491D01*
X108989472Y-109630528D01*
X108864509Y-109478260D01*
X108771652Y-109304537D01*
X108765726Y-109285000D01*
X108714470Y-109116034D01*
X108714470Y-109116033D01*
X108714469Y-109116030D01*
X108695162Y-108920000D01*
X108714469Y-108723970D01*
X108771652Y-108535463D01*
X108864509Y-108361740D01*
X108989472Y-108209472D01*
X109141740Y-108084509D01*
X109315463Y-107991652D01*
X109315465Y-107991651D01*
X109503966Y-107934470D01*
X109503967Y-107934470D01*
X109503970Y-107934469D01*
X109650876Y-107920000D01*
X109749124Y-107920000D01*
X109896030Y-107934469D01*
X109896030Y-107934469D01*
G37*
G36*
X107356030Y-107934469D02*
X107356033Y-107934470D01*
X107356034Y-107934470D01*
X107544535Y-107991651D01*
X107544537Y-107991652D01*
X107718260Y-108084509D01*
X107870528Y-108209472D01*
X107995491Y-108361740D01*
X108088348Y-108535463D01*
X108145531Y-108723970D01*
X108164838Y-108920000D01*
X108145531Y-109116030D01*
X108145530Y-109116033D01*
X108145530Y-109116034D01*
X108094275Y-109285000D01*
X108088348Y-109304537D01*
X107995491Y-109478260D01*
X107870528Y-109630528D01*
X107718260Y-109755491D01*
X107718258Y-109755492D01*
X107544535Y-109848349D01*
X107356034Y-109905530D01*
X107356033Y-109905530D01*
X107356030Y-109905531D01*
X107209124Y-109920000D01*
X107110876Y-109920000D01*
X106963970Y-109905531D01*
X106963967Y-109905530D01*
X106963966Y-109905530D01*
X106775465Y-109848349D01*
X106601742Y-109755492D01*
X106601740Y-109755491D01*
X106449472Y-109630528D01*
X106324509Y-109478260D01*
X106231652Y-109304537D01*
X106225726Y-109285000D01*
X106174470Y-109116034D01*
X106174470Y-109116033D01*
X106174469Y-109116030D01*
X106155162Y-108920000D01*
X106174469Y-108723970D01*
X106231652Y-108535463D01*
X106324509Y-108361740D01*
X106449472Y-108209472D01*
X106601740Y-108084509D01*
X106775463Y-107991652D01*
X106775465Y-107991651D01*
X106963966Y-107934470D01*
X106963967Y-107934470D01*
X106963970Y-107934469D01*
X107110876Y-107920000D01*
X107209124Y-107920000D01*
X107356030Y-107934469D01*
X107356030Y-107934469D01*
G37*
G36*
X102276030Y-107934469D02*
X102276033Y-107934470D01*
X102276034Y-107934470D01*
X102464535Y-107991651D01*
X102464537Y-107991652D01*
X102638260Y-108084509D01*
X102790528Y-108209472D01*
X102915491Y-108361740D01*
X103008348Y-108535463D01*
X103065531Y-108723970D01*
X103084838Y-108920000D01*
X103065531Y-109116030D01*
X103065530Y-109116033D01*
X103065530Y-109116034D01*
X103014275Y-109285000D01*
X103008348Y-109304537D01*
X102915491Y-109478260D01*
X102790528Y-109630528D01*
X102638260Y-109755491D01*
X102638258Y-109755492D01*
X102464535Y-109848349D01*
X102276034Y-109905530D01*
X102276033Y-109905530D01*
X102276030Y-109905531D01*
X102129124Y-109920000D01*
X102030876Y-109920000D01*
X101883970Y-109905531D01*
X101883967Y-109905530D01*
X101883966Y-109905530D01*
X101695465Y-109848349D01*
X101521742Y-109755492D01*
X101521740Y-109755491D01*
X101369472Y-109630528D01*
X101244509Y-109478260D01*
X101151652Y-109304537D01*
X101145726Y-109285000D01*
X101094470Y-109116034D01*
X101094470Y-109116033D01*
X101094469Y-109116030D01*
X101075162Y-108920000D01*
X101094469Y-108723970D01*
X101151652Y-108535463D01*
X101244509Y-108361740D01*
X101369472Y-108209472D01*
X101521740Y-108084509D01*
X101695463Y-107991652D01*
X101695465Y-107991651D01*
X101883966Y-107934470D01*
X101883967Y-107934470D01*
X101883970Y-107934469D01*
X102030876Y-107920000D01*
X102129124Y-107920000D01*
X102276030Y-107934469D01*
X102276030Y-107934469D01*
G37*
G36*
X104816030Y-107934469D02*
X104816033Y-107934470D01*
X104816034Y-107934470D01*
X105004535Y-107991651D01*
X105004537Y-107991652D01*
X105178260Y-108084509D01*
X105330528Y-108209472D01*
X105455491Y-108361740D01*
X105548348Y-108535463D01*
X105605531Y-108723970D01*
X105624838Y-108920000D01*
X105605531Y-109116030D01*
X105605530Y-109116033D01*
X105605530Y-109116034D01*
X105554275Y-109285000D01*
X105548348Y-109304537D01*
X105455491Y-109478260D01*
X105330528Y-109630528D01*
X105178260Y-109755491D01*
X105178258Y-109755492D01*
X105004535Y-109848349D01*
X104816034Y-109905530D01*
X104816033Y-109905530D01*
X104816030Y-109905531D01*
X104669124Y-109920000D01*
X104570876Y-109920000D01*
X104423970Y-109905531D01*
X104423967Y-109905530D01*
X104423966Y-109905530D01*
X104235465Y-109848349D01*
X104061742Y-109755492D01*
X104061740Y-109755491D01*
X103909472Y-109630528D01*
X103784509Y-109478260D01*
X103691652Y-109304537D01*
X103685726Y-109285000D01*
X103634470Y-109116034D01*
X103634470Y-109116033D01*
X103634469Y-109116030D01*
X103615162Y-108920000D01*
X103634469Y-108723970D01*
X103691652Y-108535463D01*
X103784509Y-108361740D01*
X103909472Y-108209472D01*
X104061740Y-108084509D01*
X104235463Y-107991652D01*
X104235465Y-107991651D01*
X104423966Y-107934470D01*
X104423967Y-107934470D01*
X104423970Y-107934469D01*
X104570876Y-107920000D01*
X104669124Y-107920000D01*
X104816030Y-107934469D01*
X104816030Y-107934469D01*
G37*
G36*
X135525000Y-109600000D02*
X134225000Y-109600000D01*
X134225000Y-108000000D01*
X135525000Y-108000000D01*
X135525000Y-109600000D01*
X135525000Y-109600000D01*
G37*
G36*
X133200000Y-109585000D02*
X131300000Y-109585000D01*
X131300000Y-108585000D01*
X133200000Y-108585000D01*
X133200000Y-109585000D01*
X133200000Y-109585000D01*
G37*
G36*
X127800000Y-109585000D02*
X125900000Y-109585000D01*
X125900000Y-108585000D01*
X127800000Y-108585000D01*
X127800000Y-109585000D01*
X127800000Y-109585000D01*
G37*
G36*
X176850000Y-109545000D02*
X174900000Y-109545000D01*
X174900000Y-108545000D01*
X176850000Y-108545000D01*
X176850000Y-109545000D01*
X176850000Y-109545000D01*
G37*
G36*
X171450000Y-109545000D02*
X169500000Y-109545000D01*
X169500000Y-108545000D01*
X171450000Y-108545000D01*
X171450000Y-109545000D01*
X171450000Y-109545000D01*
G37*
G36*
X154125000Y-109400000D02*
X152825000Y-109400000D01*
X152825000Y-107800000D01*
X154125000Y-107800000D01*
X154125000Y-109400000D01*
X154125000Y-109400000D01*
G37*
G36*
X168450000Y-109175000D02*
X167300000Y-109175000D01*
X167300000Y-107975000D01*
X168450000Y-107975000D01*
X168450000Y-109175000D01*
X168450000Y-109175000D01*
G37*
G36*
X181625000Y-109025000D02*
X180325000Y-109025000D01*
X180325000Y-107425000D01*
X181625000Y-107425000D01*
X181625000Y-109025000D01*
X181625000Y-109025000D01*
G37*
G36*
X179150000Y-109025000D02*
X177850000Y-109025000D01*
X177850000Y-107425000D01*
X179150000Y-107425000D01*
X179150000Y-109025000D01*
X179150000Y-109025000D01*
G37*
G36*
X151800000Y-109015000D02*
X149850000Y-109015000D01*
X149850000Y-108015000D01*
X151800000Y-108015000D01*
X151800000Y-109015000D01*
X151800000Y-109015000D01*
G37*
G36*
X146400000Y-109015000D02*
X144450000Y-109015000D01*
X144450000Y-108015000D01*
X146400000Y-108015000D01*
X146400000Y-109015000D01*
X146400000Y-109015000D01*
G37*
G36*
X184080000Y-109000000D02*
X182780000Y-109000000D01*
X182780000Y-107400000D01*
X184080000Y-107400000D01*
X184080000Y-109000000D01*
X184080000Y-109000000D01*
G37*
G36*
X122850000Y-108925000D02*
X121250000Y-108925000D01*
X121250000Y-107625000D01*
X122850000Y-107625000D01*
X122850000Y-108925000D01*
X122850000Y-108925000D01*
G37*
G36*
X125050000Y-108925000D02*
X123450000Y-108925000D01*
X123450000Y-107625000D01*
X125050000Y-107625000D01*
X125050000Y-108925000D01*
X125050000Y-108925000D01*
G37*
G36*
X119725000Y-108850000D02*
X118525000Y-108850000D01*
X118525000Y-107700000D01*
X119725000Y-107700000D01*
X119725000Y-108850000D01*
X119725000Y-108850000D01*
G37*
G36*
X118225000Y-108850000D02*
X117025000Y-108850000D01*
X117025000Y-107700000D01*
X118225000Y-107700000D01*
X118225000Y-108850000D01*
X118225000Y-108850000D01*
G37*
G36*
X99950000Y-108625000D02*
X98650000Y-108625000D01*
X98650000Y-107025000D01*
X99950000Y-107025000D01*
X99950000Y-108625000D01*
X99950000Y-108625000D01*
G37*
G36*
X163380000Y-108485000D02*
X159470000Y-108485000D01*
X159470000Y-106815000D01*
X163380000Y-106815000D01*
X163380000Y-108485000D01*
X163380000Y-108485000D01*
G37*
G36*
X140050000Y-108375000D02*
X137350000Y-108375000D01*
X137350000Y-106575000D01*
X140050000Y-106575000D01*
X140050000Y-108375000D01*
X140050000Y-108375000D01*
G37*
G36*
X133200000Y-108315000D02*
X131300000Y-108315000D01*
X131300000Y-107315000D01*
X133200000Y-107315000D01*
X133200000Y-108315000D01*
X133200000Y-108315000D01*
G37*
G36*
X127800000Y-108315000D02*
X125900000Y-108315000D01*
X125900000Y-107315000D01*
X127800000Y-107315000D01*
X127800000Y-108315000D01*
X127800000Y-108315000D01*
G37*
G36*
X157575000Y-108250000D02*
X156375000Y-108250000D01*
X156375000Y-107100000D01*
X157575000Y-107100000D01*
X157575000Y-108250000D01*
X157575000Y-108250000D01*
G37*
G36*
X159075000Y-108250000D02*
X157875000Y-108250000D01*
X157875000Y-107100000D01*
X159075000Y-107100000D01*
X159075000Y-108250000D01*
X159075000Y-108250000D01*
G37*
G36*
X166500000Y-108225000D02*
X165300000Y-108225000D01*
X165300000Y-107075000D01*
X166500000Y-107075000D01*
X166500000Y-108225000D01*
X166500000Y-108225000D01*
G37*
G36*
X165000000Y-108225000D02*
X163800000Y-108225000D01*
X163800000Y-107075000D01*
X165000000Y-107075000D01*
X165000000Y-108225000D01*
X165000000Y-108225000D01*
G37*
G36*
X175105000Y-108085000D02*
X171195000Y-108085000D01*
X171195000Y-106415000D01*
X175105000Y-106415000D01*
X175105000Y-108085000D01*
X175105000Y-108085000D01*
G37*
G36*
X146400000Y-107745000D02*
X144450000Y-107745000D01*
X144450000Y-106745000D01*
X146400000Y-106745000D01*
X146400000Y-107745000D01*
X146400000Y-107745000D01*
G37*
G36*
X151800000Y-107745000D02*
X149850000Y-107745000D01*
X149850000Y-106745000D01*
X151800000Y-106745000D01*
X151800000Y-107745000D01*
X151800000Y-107745000D01*
G37*
G36*
X135525000Y-107400000D02*
X134225000Y-107400000D01*
X134225000Y-105800000D01*
X135525000Y-105800000D01*
X135525000Y-107400000D01*
X135525000Y-107400000D01*
G37*
G36*
X115725000Y-107150000D02*
X114425000Y-107150000D01*
X114425000Y-105550000D01*
X115725000Y-105550000D01*
X115725000Y-107150000D01*
X115725000Y-107150000D01*
G37*
G36*
X113450000Y-107150000D02*
X112150000Y-107150000D01*
X112150000Y-105550000D01*
X113450000Y-105550000D01*
X113450000Y-107150000D01*
X113450000Y-107150000D01*
G37*
G36*
X133200000Y-107045000D02*
X131300000Y-107045000D01*
X131300000Y-106045000D01*
X133200000Y-106045000D01*
X133200000Y-107045000D01*
X133200000Y-107045000D01*
G37*
G36*
X127800000Y-107045000D02*
X125900000Y-107045000D01*
X125900000Y-106045000D01*
X127800000Y-106045000D01*
X127800000Y-107045000D01*
X127800000Y-107045000D01*
G37*
G36*
X143075000Y-104695000D02*
X143077402Y-104719386D01*
X143084515Y-104742835D01*
X143096066Y-104764446D01*
X143111612Y-104783388D01*
X143130554Y-104798934D01*
X143152165Y-104810485D01*
X143175614Y-104817598D01*
X143200000Y-104820000D01*
X143425000Y-104820000D01*
X143425000Y-105680000D01*
X143200000Y-105680000D01*
X143175614Y-105682402D01*
X143152165Y-105689515D01*
X143130554Y-105701066D01*
X143111612Y-105716612D01*
X143096066Y-105735554D01*
X143084515Y-105757165D01*
X143077402Y-105780614D01*
X143075000Y-105805000D01*
X143075000Y-106815000D01*
X141575000Y-106815000D01*
X141575000Y-105800000D01*
X141572598Y-105775614D01*
X141565485Y-105752165D01*
X141553934Y-105730554D01*
X141538388Y-105711612D01*
X141519446Y-105696066D01*
X141497835Y-105684515D01*
X141474386Y-105677402D01*
X141450000Y-105675000D01*
X141225000Y-105675000D01*
X141225000Y-104825000D01*
X141450000Y-104825000D01*
X141474386Y-104822598D01*
X141497835Y-104815485D01*
X141519446Y-104803934D01*
X141538388Y-104788388D01*
X141553934Y-104769446D01*
X141565485Y-104747835D01*
X141572598Y-104724386D01*
X141575000Y-104700000D01*
X141575000Y-103685000D01*
X143075000Y-103685000D01*
X143075000Y-104695000D01*
X143075000Y-104695000D01*
G37*
G36*
X100050000Y-104650000D02*
X100052402Y-104674386D01*
X100059515Y-104697835D01*
X100071066Y-104719446D01*
X100086612Y-104738388D01*
X100105554Y-104753934D01*
X100127165Y-104765485D01*
X100150614Y-104772598D01*
X100175000Y-104775000D01*
X100400000Y-104775000D01*
X100400000Y-105625000D01*
X100175000Y-105625000D01*
X100150614Y-105627402D01*
X100127165Y-105634515D01*
X100105554Y-105646066D01*
X100086612Y-105661612D01*
X100071066Y-105680554D01*
X100059515Y-105702165D01*
X100052402Y-105725614D01*
X100050000Y-105750000D01*
X100050000Y-106765000D01*
X98550000Y-106765000D01*
X98550000Y-105755000D01*
X98547598Y-105730614D01*
X98540485Y-105707165D01*
X98528934Y-105685554D01*
X98513388Y-105666612D01*
X98494446Y-105651066D01*
X98472835Y-105639515D01*
X98449386Y-105632402D01*
X98425000Y-105630000D01*
X98200000Y-105630000D01*
X98200000Y-104770000D01*
X98425000Y-104770000D01*
X98449386Y-104767598D01*
X98472835Y-104760485D01*
X98494446Y-104748934D01*
X98513388Y-104733388D01*
X98528934Y-104714446D01*
X98540485Y-104692835D01*
X98547598Y-104669386D01*
X98550000Y-104645000D01*
X98550000Y-103635000D01*
X100050000Y-103635000D01*
X100050000Y-104650000D01*
X100050000Y-104650000D01*
G37*
G36*
X118575000Y-106650000D02*
X116725000Y-106650000D01*
X116725000Y-103850000D01*
X118575000Y-103850000D01*
X118575000Y-106650000D01*
X118575000Y-106650000D01*
G37*
G36*
X122975000Y-106650000D02*
X121125000Y-106650000D01*
X121125000Y-103850000D01*
X122975000Y-103850000D01*
X122975000Y-106650000D01*
X122975000Y-106650000D01*
G37*
G36*
X181400000Y-106550000D02*
X180100000Y-106550000D01*
X180100000Y-105350000D01*
X181400000Y-105350000D01*
X181400000Y-106550000D01*
X181400000Y-106550000D01*
G37*
G36*
X162260000Y-106375000D02*
X160590000Y-106375000D01*
X160590000Y-103725000D01*
X162260000Y-103725000D01*
X162260000Y-106375000D01*
X162260000Y-106375000D01*
G37*
G36*
X124825000Y-106175000D02*
X123675000Y-106175000D01*
X123675000Y-104975000D01*
X124825000Y-104975000D01*
X124825000Y-106175000D01*
X124825000Y-106175000D01*
G37*
G36*
X147975000Y-105825000D02*
X146775000Y-105825000D01*
X146775000Y-104675000D01*
X147975000Y-104675000D01*
X147975000Y-105825000D01*
X147975000Y-105825000D01*
G37*
G36*
X149475000Y-105825000D02*
X148275000Y-105825000D01*
X148275000Y-104675000D01*
X149475000Y-104675000D01*
X149475000Y-105825000D01*
X149475000Y-105825000D01*
G37*
G36*
X175400000Y-105800000D02*
X174200000Y-105800000D01*
X174200000Y-104650000D01*
X175400000Y-104650000D01*
X175400000Y-105800000D01*
X175400000Y-105800000D01*
G37*
G36*
X173900000Y-105800000D02*
X172700000Y-105800000D01*
X172700000Y-104650000D01*
X173900000Y-104650000D01*
X173900000Y-105800000D01*
X173900000Y-105800000D01*
G37*
G36*
X133200000Y-105775000D02*
X131300000Y-105775000D01*
X131300000Y-104775000D01*
X133200000Y-104775000D01*
X133200000Y-105775000D01*
X133200000Y-105775000D01*
G37*
G36*
X127800000Y-105775000D02*
X125900000Y-105775000D01*
X125900000Y-104775000D01*
X127800000Y-104775000D01*
X127800000Y-105775000D01*
X127800000Y-105775000D01*
G37*
G36*
X179400000Y-105600000D02*
X178100000Y-105600000D01*
X178100000Y-104400000D01*
X179400000Y-104400000D01*
X179400000Y-105600000D01*
X179400000Y-105600000D01*
G37*
G36*
X135450000Y-105175000D02*
X134300000Y-105175000D01*
X134300000Y-103975000D01*
X135450000Y-103975000D01*
X135450000Y-105175000D01*
X135450000Y-105175000D01*
G37*
G36*
X113450000Y-104950000D02*
X112150000Y-104950000D01*
X112150000Y-103350000D01*
X113450000Y-103350000D01*
X113450000Y-104950000D01*
X113450000Y-104950000D01*
G37*
G36*
X115725000Y-104950000D02*
X114425000Y-104950000D01*
X114425000Y-103350000D01*
X115725000Y-103350000D01*
X115725000Y-104950000D01*
X115725000Y-104950000D01*
G37*
G36*
X124825000Y-104675000D02*
X123675000Y-104675000D01*
X123675000Y-103475000D01*
X124825000Y-103475000D01*
X124825000Y-104675000D01*
X124825000Y-104675000D01*
G37*
G36*
X181400000Y-104650000D02*
X180100000Y-104650000D01*
X180100000Y-103450000D01*
X181400000Y-103450000D01*
X181400000Y-104650000D01*
X181400000Y-104650000D01*
G37*
G36*
X133200000Y-104505000D02*
X131300000Y-104505000D01*
X131300000Y-103505000D01*
X133200000Y-103505000D01*
X133200000Y-104505000D01*
X133200000Y-104505000D01*
G37*
G36*
X127800000Y-104505000D02*
X125900000Y-104505000D01*
X125900000Y-103505000D01*
X127800000Y-103505000D01*
X127800000Y-104505000D01*
X127800000Y-104505000D01*
G37*
G36*
X95828707Y-102357597D02*
X95905836Y-102365193D01*
X96024094Y-102401066D01*
X96103763Y-102425233D01*
X96286172Y-102522733D01*
X96446054Y-102653946D01*
X96577267Y-102813828D01*
X96674767Y-102996237D01*
X96674767Y-102996238D01*
X96734807Y-103194164D01*
X96755080Y-103400000D01*
X96734807Y-103605836D01*
X96725960Y-103635000D01*
X96674767Y-103803763D01*
X96577267Y-103986172D01*
X96446054Y-104146054D01*
X96286172Y-104277267D01*
X96103763Y-104374767D01*
X96037787Y-104394780D01*
X95905836Y-104434807D01*
X95828707Y-104442403D01*
X95751580Y-104450000D01*
X95648420Y-104450000D01*
X95571293Y-104442403D01*
X95494164Y-104434807D01*
X95362213Y-104394780D01*
X95296237Y-104374767D01*
X95113828Y-104277267D01*
X94953946Y-104146054D01*
X94822733Y-103986172D01*
X94725233Y-103803763D01*
X94674040Y-103635000D01*
X94665193Y-103605836D01*
X94644920Y-103400000D01*
X94665193Y-103194164D01*
X94725233Y-102996238D01*
X94725233Y-102996237D01*
X94822733Y-102813828D01*
X94953946Y-102653946D01*
X95113828Y-102522733D01*
X95296237Y-102425233D01*
X95375906Y-102401066D01*
X95494164Y-102365193D01*
X95571293Y-102357597D01*
X95648420Y-102350000D01*
X95751580Y-102350000D01*
X95828707Y-102357597D01*
X95828707Y-102357597D01*
G37*
G36*
X176475000Y-104275000D02*
X175325000Y-104275000D01*
X175325000Y-103075000D01*
X176475000Y-103075000D01*
X176475000Y-104275000D01*
X176475000Y-104275000D01*
G37*
G36*
X173950000Y-104125000D02*
X172650000Y-104125000D01*
X172650000Y-103225000D01*
X173950000Y-103225000D01*
X173950000Y-104125000D01*
X173950000Y-104125000D01*
G37*
G36*
X140050000Y-103975000D02*
X137350000Y-103975000D01*
X137350000Y-102175000D01*
X140050000Y-102175000D01*
X140050000Y-103975000D01*
X140050000Y-103975000D01*
G37*
G36*
X154125000Y-103850000D02*
X152825000Y-103850000D01*
X152825000Y-102250000D01*
X154125000Y-102250000D01*
X154125000Y-103850000D01*
X154125000Y-103850000D01*
G37*
G36*
X146400000Y-103830000D02*
X144450000Y-103830000D01*
X144450000Y-102830000D01*
X146400000Y-102830000D01*
X146400000Y-103830000D01*
X146400000Y-103830000D01*
G37*
G36*
X151800000Y-103830000D02*
X149850000Y-103830000D01*
X149850000Y-102830000D01*
X151800000Y-102830000D01*
X151800000Y-103830000D01*
X151800000Y-103830000D01*
G37*
G36*
X135450000Y-103675000D02*
X134300000Y-103675000D01*
X134300000Y-102475000D01*
X135450000Y-102475000D01*
X135450000Y-103675000D01*
X135450000Y-103675000D01*
G37*
G36*
X157000000Y-101400000D02*
X157002402Y-101424386D01*
X157009515Y-101447835D01*
X157021066Y-101469446D01*
X157036612Y-101488388D01*
X157055554Y-101503934D01*
X157077165Y-101515485D01*
X157100614Y-101522598D01*
X157125000Y-101525000D01*
X157350000Y-101525000D01*
X157350000Y-102375000D01*
X157125000Y-102375000D01*
X157100614Y-102377402D01*
X157077165Y-102384515D01*
X157055554Y-102396066D01*
X157036612Y-102411612D01*
X157021066Y-102430554D01*
X157009515Y-102452165D01*
X157002402Y-102475614D01*
X157000000Y-102500000D01*
X157000000Y-103515000D01*
X155500000Y-103515000D01*
X155500000Y-102505000D01*
X155497598Y-102480614D01*
X155490485Y-102457165D01*
X155478934Y-102435554D01*
X155463388Y-102416612D01*
X155444446Y-102401066D01*
X155422835Y-102389515D01*
X155399386Y-102382402D01*
X155375000Y-102380000D01*
X155150000Y-102380000D01*
X155150000Y-101520000D01*
X155375000Y-101520000D01*
X155399386Y-101517598D01*
X155422835Y-101510485D01*
X155444446Y-101498934D01*
X155463388Y-101483388D01*
X155478934Y-101464446D01*
X155490485Y-101442835D01*
X155497598Y-101419386D01*
X155500000Y-101395000D01*
X155500000Y-100385000D01*
X157000000Y-100385000D01*
X157000000Y-101400000D01*
X157000000Y-101400000D01*
G37*
G36*
X171600000Y-103250000D02*
X169750000Y-103250000D01*
X169750000Y-100450000D01*
X171600000Y-100450000D01*
X171600000Y-103250000D01*
X171600000Y-103250000D01*
G37*
G36*
X167200000Y-103250000D02*
X165350000Y-103250000D01*
X165350000Y-100450000D01*
X167200000Y-100450000D01*
X167200000Y-103250000D01*
X167200000Y-103250000D01*
G37*
G36*
X133200000Y-103235000D02*
X131300000Y-103235000D01*
X131300000Y-102235000D01*
X133200000Y-102235000D01*
X133200000Y-103235000D01*
X133200000Y-103235000D01*
G37*
G36*
X127800000Y-103235000D02*
X125900000Y-103235000D01*
X125900000Y-102235000D01*
X127800000Y-102235000D01*
X127800000Y-103235000D01*
X127800000Y-103235000D01*
G37*
G36*
X162000000Y-103200000D02*
X160850000Y-103200000D01*
X160850000Y-102000000D01*
X162000000Y-102000000D01*
X162000000Y-103200000D01*
X162000000Y-103200000D01*
G37*
G36*
X99950000Y-103200000D02*
X98650000Y-103200000D01*
X98650000Y-101600000D01*
X99950000Y-101600000D01*
X99950000Y-103200000D01*
X99950000Y-103200000D01*
G37*
G36*
X164300000Y-103200000D02*
X163150000Y-103200000D01*
X163150000Y-102000000D01*
X164300000Y-102000000D01*
X164300000Y-103200000D01*
X164300000Y-103200000D01*
G37*
G36*
X114010000Y-102780000D02*
X112340000Y-102780000D01*
X112340000Y-98870000D01*
X114010000Y-98870000D01*
X114010000Y-102780000D01*
X114010000Y-102780000D01*
G37*
G36*
X176475000Y-102775000D02*
X175325000Y-102775000D01*
X175325000Y-101575000D01*
X176475000Y-101575000D01*
X176475000Y-102775000D01*
X176475000Y-102775000D01*
G37*
G36*
X125050000Y-102675000D02*
X123450000Y-102675000D01*
X123450000Y-101375000D01*
X125050000Y-101375000D01*
X125050000Y-102675000D01*
X125050000Y-102675000D01*
G37*
G36*
X122850000Y-102675000D02*
X121250000Y-102675000D01*
X121250000Y-101375000D01*
X122850000Y-101375000D01*
X122850000Y-102675000D01*
X122850000Y-102675000D01*
G37*
G36*
X173950000Y-102625000D02*
X172650000Y-102625000D01*
X172650000Y-101725000D01*
X173950000Y-101725000D01*
X173950000Y-102625000D01*
X173950000Y-102625000D01*
G37*
G36*
X119725000Y-102600000D02*
X118525000Y-102600000D01*
X118525000Y-101450000D01*
X119725000Y-101450000D01*
X119725000Y-102600000D01*
X119725000Y-102600000D01*
G37*
G36*
X118225000Y-102600000D02*
X117025000Y-102600000D01*
X117025000Y-101450000D01*
X118225000Y-101450000D01*
X118225000Y-102600000D01*
X118225000Y-102600000D01*
G37*
G36*
X151800000Y-102560000D02*
X149850000Y-102560000D01*
X149850000Y-101560000D01*
X151800000Y-101560000D01*
X151800000Y-102560000D01*
X151800000Y-102560000D01*
G37*
G36*
X146400000Y-102560000D02*
X144450000Y-102560000D01*
X144450000Y-101560000D01*
X146400000Y-101560000D01*
X146400000Y-102560000D01*
X146400000Y-102560000D01*
G37*
G36*
X110700000Y-102300000D02*
X108700000Y-102300000D01*
X108700000Y-100300000D01*
X110700000Y-100300000D01*
X110700000Y-102300000D01*
X110700000Y-102300000D01*
G37*
G36*
X102276030Y-100314469D02*
X102276033Y-100314470D01*
X102276034Y-100314470D01*
X102464535Y-100371651D01*
X102464537Y-100371652D01*
X102638260Y-100464509D01*
X102790528Y-100589472D01*
X102915491Y-100741740D01*
X103008348Y-100915463D01*
X103065531Y-101103970D01*
X103084838Y-101300000D01*
X103065531Y-101496030D01*
X103065530Y-101496033D01*
X103065530Y-101496034D01*
X103058989Y-101517598D01*
X103008348Y-101684537D01*
X102915491Y-101858260D01*
X102790528Y-102010528D01*
X102638260Y-102135491D01*
X102638258Y-102135492D01*
X102464535Y-102228349D01*
X102276034Y-102285530D01*
X102276033Y-102285530D01*
X102276030Y-102285531D01*
X102129124Y-102300000D01*
X102030876Y-102300000D01*
X101883970Y-102285531D01*
X101883967Y-102285530D01*
X101883966Y-102285530D01*
X101695465Y-102228349D01*
X101521742Y-102135492D01*
X101521740Y-102135491D01*
X101369472Y-102010528D01*
X101244509Y-101858260D01*
X101151652Y-101684537D01*
X101101012Y-101517598D01*
X101094470Y-101496034D01*
X101094470Y-101496033D01*
X101094469Y-101496030D01*
X101075162Y-101300000D01*
X101094469Y-101103970D01*
X101151652Y-100915463D01*
X101244509Y-100741740D01*
X101369472Y-100589472D01*
X101521740Y-100464509D01*
X101695463Y-100371652D01*
X101695465Y-100371651D01*
X101883966Y-100314470D01*
X101883967Y-100314470D01*
X101883970Y-100314469D01*
X102030876Y-100300000D01*
X102129124Y-100300000D01*
X102276030Y-100314469D01*
X102276030Y-100314469D01*
G37*
G36*
X104816030Y-100314469D02*
X104816033Y-100314470D01*
X104816034Y-100314470D01*
X105004535Y-100371651D01*
X105004537Y-100371652D01*
X105178260Y-100464509D01*
X105330528Y-100589472D01*
X105455491Y-100741740D01*
X105548348Y-100915463D01*
X105605531Y-101103970D01*
X105624838Y-101300000D01*
X105605531Y-101496030D01*
X105605530Y-101496033D01*
X105605530Y-101496034D01*
X105598989Y-101517598D01*
X105548348Y-101684537D01*
X105455491Y-101858260D01*
X105330528Y-102010528D01*
X105178260Y-102135491D01*
X105178258Y-102135492D01*
X105004535Y-102228349D01*
X104816034Y-102285530D01*
X104816033Y-102285530D01*
X104816030Y-102285531D01*
X104669124Y-102300000D01*
X104570876Y-102300000D01*
X104423970Y-102285531D01*
X104423967Y-102285530D01*
X104423966Y-102285530D01*
X104235465Y-102228349D01*
X104061742Y-102135492D01*
X104061740Y-102135491D01*
X103909472Y-102010528D01*
X103784509Y-101858260D01*
X103691652Y-101684537D01*
X103641012Y-101517598D01*
X103634470Y-101496034D01*
X103634470Y-101496033D01*
X103634469Y-101496030D01*
X103615162Y-101300000D01*
X103634469Y-101103970D01*
X103691652Y-100915463D01*
X103784509Y-100741740D01*
X103909472Y-100589472D01*
X104061740Y-100464509D01*
X104235463Y-100371652D01*
X104235465Y-100371651D01*
X104423966Y-100314470D01*
X104423967Y-100314470D01*
X104423970Y-100314469D01*
X104570876Y-100300000D01*
X104669124Y-100300000D01*
X104816030Y-100314469D01*
X104816030Y-100314469D01*
G37*
G36*
X107356030Y-100314469D02*
X107356033Y-100314470D01*
X107356034Y-100314470D01*
X107544535Y-100371651D01*
X107544537Y-100371652D01*
X107718260Y-100464509D01*
X107870528Y-100589472D01*
X107995491Y-100741740D01*
X108088348Y-100915463D01*
X108145531Y-101103970D01*
X108164838Y-101300000D01*
X108145531Y-101496030D01*
X108145530Y-101496033D01*
X108145530Y-101496034D01*
X108138989Y-101517598D01*
X108088348Y-101684537D01*
X107995491Y-101858260D01*
X107870528Y-102010528D01*
X107718260Y-102135491D01*
X107718258Y-102135492D01*
X107544535Y-102228349D01*
X107356034Y-102285530D01*
X107356033Y-102285530D01*
X107356030Y-102285531D01*
X107209124Y-102300000D01*
X107110876Y-102300000D01*
X106963970Y-102285531D01*
X106963967Y-102285530D01*
X106963966Y-102285530D01*
X106775465Y-102228349D01*
X106601742Y-102135492D01*
X106601740Y-102135491D01*
X106449472Y-102010528D01*
X106324509Y-101858260D01*
X106231652Y-101684537D01*
X106181012Y-101517598D01*
X106174470Y-101496034D01*
X106174470Y-101496033D01*
X106174469Y-101496030D01*
X106155162Y-101300000D01*
X106174469Y-101103970D01*
X106231652Y-100915463D01*
X106324509Y-100741740D01*
X106449472Y-100589472D01*
X106601740Y-100464509D01*
X106775463Y-100371652D01*
X106775465Y-100371651D01*
X106963966Y-100314470D01*
X106963967Y-100314470D01*
X106963970Y-100314469D01*
X107110876Y-100300000D01*
X107209124Y-100300000D01*
X107356030Y-100314469D01*
X107356030Y-100314469D01*
G37*
G36*
X133200000Y-101965000D02*
X131300000Y-101965000D01*
X131300000Y-100965000D01*
X133200000Y-100965000D01*
X133200000Y-101965000D01*
X133200000Y-101965000D01*
G37*
G36*
X127800000Y-101965000D02*
X125900000Y-101965000D01*
X125900000Y-100965000D01*
X127800000Y-100965000D01*
X127800000Y-101965000D01*
X127800000Y-101965000D01*
G37*
G36*
X95828707Y-99817596D02*
X95905836Y-99825193D01*
X96037787Y-99865220D01*
X96103763Y-99885233D01*
X96286172Y-99982733D01*
X96446054Y-100113946D01*
X96577267Y-100273828D01*
X96674767Y-100456237D01*
X96694780Y-100522213D01*
X96734807Y-100654164D01*
X96755080Y-100860000D01*
X96734807Y-101065836D01*
X96694780Y-101197787D01*
X96674767Y-101263763D01*
X96577267Y-101446172D01*
X96446054Y-101606054D01*
X96286172Y-101737267D01*
X96103763Y-101834767D01*
X96037787Y-101854780D01*
X95905836Y-101894807D01*
X95828707Y-101902404D01*
X95751580Y-101910000D01*
X95648420Y-101910000D01*
X95571293Y-101902404D01*
X95494164Y-101894807D01*
X95362213Y-101854780D01*
X95296237Y-101834767D01*
X95113828Y-101737267D01*
X94953946Y-101606054D01*
X94822733Y-101446172D01*
X94725233Y-101263763D01*
X94705220Y-101197787D01*
X94665193Y-101065836D01*
X94644920Y-100860000D01*
X94665193Y-100654164D01*
X94705220Y-100522213D01*
X94725233Y-100456237D01*
X94822733Y-100273828D01*
X94953946Y-100113946D01*
X95113828Y-99982733D01*
X95296237Y-99885233D01*
X95362213Y-99865220D01*
X95494164Y-99825193D01*
X95571293Y-99817596D01*
X95648420Y-99810000D01*
X95751580Y-99810000D01*
X95828707Y-99817596D01*
X95828707Y-99817596D01*
G37*
G36*
X162000000Y-101700000D02*
X160850000Y-101700000D01*
X160850000Y-100500000D01*
X162000000Y-100500000D01*
X162000000Y-101700000D01*
X162000000Y-101700000D01*
G37*
G36*
X164300000Y-101700000D02*
X163150000Y-101700000D01*
X163150000Y-100500000D01*
X164300000Y-100500000D01*
X164300000Y-101700000D01*
X164300000Y-101700000D01*
G37*
G36*
X135450000Y-101700000D02*
X134300000Y-101700000D01*
X134300000Y-100500000D01*
X135450000Y-100500000D01*
X135450000Y-101700000D01*
X135450000Y-101700000D01*
G37*
G36*
X154125000Y-101650000D02*
X152825000Y-101650000D01*
X152825000Y-100050000D01*
X154125000Y-100050000D01*
X154125000Y-101650000D01*
X154125000Y-101650000D01*
G37*
G36*
X146400000Y-101290000D02*
X144450000Y-101290000D01*
X144450000Y-100290000D01*
X146400000Y-100290000D01*
X146400000Y-101290000D01*
X146400000Y-101290000D01*
G37*
G36*
X151800000Y-101290000D02*
X149850000Y-101290000D01*
X149850000Y-100290000D01*
X151800000Y-100290000D01*
X151800000Y-101290000D01*
X151800000Y-101290000D01*
G37*
G36*
X179978707Y-99047596D02*
X180055836Y-99055193D01*
X180187787Y-99095220D01*
X180253763Y-99115233D01*
X180436172Y-99212733D01*
X180596054Y-99343946D01*
X180727267Y-99503828D01*
X180824767Y-99686237D01*
X180824767Y-99686238D01*
X180884807Y-99884164D01*
X180905080Y-100090000D01*
X180884807Y-100295836D01*
X180857759Y-100385000D01*
X180824767Y-100493763D01*
X180727267Y-100676172D01*
X180596054Y-100836054D01*
X180436172Y-100967267D01*
X180253763Y-101064767D01*
X180187787Y-101084780D01*
X180055836Y-101124807D01*
X179978707Y-101132403D01*
X179901580Y-101140000D01*
X179798420Y-101140000D01*
X179721293Y-101132404D01*
X179644164Y-101124807D01*
X179512213Y-101084780D01*
X179446237Y-101064767D01*
X179263828Y-100967267D01*
X179103946Y-100836054D01*
X178972733Y-100676172D01*
X178875233Y-100493763D01*
X178842241Y-100385000D01*
X178815193Y-100295836D01*
X178794920Y-100090000D01*
X178815193Y-99884164D01*
X178875233Y-99686238D01*
X178875233Y-99686237D01*
X178972733Y-99503828D01*
X179103946Y-99343946D01*
X179263828Y-99212733D01*
X179446237Y-99115233D01*
X179512213Y-99095220D01*
X179644164Y-99055193D01*
X179721293Y-99047597D01*
X179798420Y-99040000D01*
X179901580Y-99040000D01*
X179978707Y-99047596D01*
X179978707Y-99047596D01*
G37*
G36*
X182518707Y-99047596D02*
X182595836Y-99055193D01*
X182727787Y-99095220D01*
X182793763Y-99115233D01*
X182976172Y-99212733D01*
X183136054Y-99343946D01*
X183267267Y-99503828D01*
X183364767Y-99686237D01*
X183364767Y-99686238D01*
X183424807Y-99884164D01*
X183445080Y-100090000D01*
X183424807Y-100295836D01*
X183397759Y-100385000D01*
X183364767Y-100493763D01*
X183267267Y-100676172D01*
X183136054Y-100836054D01*
X182976172Y-100967267D01*
X182793763Y-101064767D01*
X182727787Y-101084780D01*
X182595836Y-101124807D01*
X182518707Y-101132403D01*
X182441580Y-101140000D01*
X182338420Y-101140000D01*
X182261293Y-101132404D01*
X182184164Y-101124807D01*
X182052213Y-101084780D01*
X181986237Y-101064767D01*
X181803828Y-100967267D01*
X181643946Y-100836054D01*
X181512733Y-100676172D01*
X181415233Y-100493763D01*
X181382241Y-100385000D01*
X181355193Y-100295836D01*
X181334920Y-100090000D01*
X181355193Y-99884164D01*
X181415233Y-99686238D01*
X181415233Y-99686237D01*
X181512733Y-99503828D01*
X181643946Y-99343946D01*
X181803828Y-99212733D01*
X181986237Y-99115233D01*
X182052213Y-99095220D01*
X182184164Y-99055193D01*
X182261293Y-99047597D01*
X182338420Y-99040000D01*
X182441580Y-99040000D01*
X182518707Y-99047596D01*
X182518707Y-99047596D01*
G37*
G36*
X173925000Y-101100000D02*
X172725000Y-101100000D01*
X172725000Y-99950000D01*
X173925000Y-99950000D01*
X173925000Y-101100000D01*
X173925000Y-101100000D01*
G37*
G36*
X175425000Y-101100000D02*
X174225000Y-101100000D01*
X174225000Y-99950000D01*
X175425000Y-99950000D01*
X175425000Y-101100000D01*
X175425000Y-101100000D01*
G37*
G36*
X99950000Y-101000000D02*
X98650000Y-101000000D01*
X98650000Y-99400000D01*
X99950000Y-99400000D01*
X99950000Y-101000000D01*
X99950000Y-101000000D01*
G37*
G36*
X140925000Y-100675000D02*
X139325000Y-100675000D01*
X139325000Y-99375000D01*
X140925000Y-99375000D01*
X140925000Y-100675000D01*
X140925000Y-100675000D01*
G37*
G36*
X143125000Y-100675000D02*
X141525000Y-100675000D01*
X141525000Y-99375000D01*
X143125000Y-99375000D01*
X143125000Y-100675000D01*
X143125000Y-100675000D01*
G37*
G36*
X132055000Y-100510000D02*
X128145000Y-100510000D01*
X128145000Y-98840000D01*
X132055000Y-98840000D01*
X132055000Y-100510000D01*
X132055000Y-100510000D01*
G37*
G36*
X122850000Y-100325000D02*
X121250000Y-100325000D01*
X121250000Y-99025000D01*
X122850000Y-99025000D01*
X122850000Y-100325000D01*
X122850000Y-100325000D01*
G37*
G36*
X125050000Y-100325000D02*
X123450000Y-100325000D01*
X123450000Y-99025000D01*
X125050000Y-99025000D01*
X125050000Y-100325000D01*
X125050000Y-100325000D01*
G37*
G36*
X135450000Y-100200000D02*
X134300000Y-100200000D01*
X134300000Y-99000000D01*
X135450000Y-99000000D01*
X135450000Y-100200000D01*
X135450000Y-100200000D01*
G37*
G36*
X146400000Y-100020000D02*
X144450000Y-100020000D01*
X144450000Y-99020000D01*
X146400000Y-99020000D01*
X146400000Y-100020000D01*
X146400000Y-100020000D01*
G37*
G36*
X151800000Y-100020000D02*
X149850000Y-100020000D01*
X149850000Y-99020000D01*
X151800000Y-99020000D01*
X151800000Y-100020000D01*
X151800000Y-100020000D01*
G37*
G36*
X108650000Y-99975000D02*
X107050000Y-99975000D01*
X107050000Y-98675000D01*
X108650000Y-98675000D01*
X108650000Y-99975000D01*
X108650000Y-99975000D01*
G37*
G36*
X106450000Y-99975000D02*
X104850000Y-99975000D01*
X104850000Y-98675000D01*
X106450000Y-98675000D01*
X106450000Y-99975000D01*
X106450000Y-99975000D01*
G37*
G36*
X110300000Y-99900000D02*
X109100000Y-99900000D01*
X109100000Y-98750000D01*
X110300000Y-98750000D01*
X110300000Y-99900000D01*
X110300000Y-99900000D01*
G37*
G36*
X111800000Y-99900000D02*
X110600000Y-99900000D01*
X110600000Y-98750000D01*
X111800000Y-98750000D01*
X111800000Y-99900000D01*
X111800000Y-99900000D01*
G37*
G36*
X104150000Y-99900000D02*
X102950000Y-99900000D01*
X102950000Y-98750000D01*
X104150000Y-98750000D01*
X104150000Y-99900000D01*
X104150000Y-99900000D01*
G37*
G36*
X102650000Y-99900000D02*
X101450000Y-99900000D01*
X101450000Y-98750000D01*
X102650000Y-98750000D01*
X102650000Y-99900000D01*
X102650000Y-99900000D01*
G37*
G36*
X162650300Y-93774700D02*
X162652702Y-93799086D01*
X162659815Y-93822535D01*
X162671366Y-93844146D01*
X162686912Y-93863088D01*
X162705854Y-93878634D01*
X162727465Y-93890185D01*
X162750914Y-93897298D01*
X162775300Y-93899700D01*
X163525330Y-93899700D01*
X163525330Y-99100300D01*
X162775300Y-99100300D01*
X162750914Y-99102702D01*
X162727465Y-99109815D01*
X162705854Y-99121366D01*
X162686912Y-99136912D01*
X162671366Y-99155854D01*
X162659815Y-99177465D01*
X162652702Y-99200914D01*
X162650300Y-99225300D01*
X162650300Y-99850870D01*
X157449700Y-99850870D01*
X157449700Y-99225300D01*
X157447298Y-99200914D01*
X157440185Y-99177465D01*
X157428634Y-99155854D01*
X157413088Y-99136912D01*
X157394146Y-99121366D01*
X157372535Y-99109815D01*
X157349086Y-99102702D01*
X157324700Y-99100300D01*
X156574670Y-99100300D01*
X156574670Y-94225310D01*
X157525850Y-94225310D01*
X157525850Y-98774690D01*
X157528252Y-98799076D01*
X157535365Y-98822525D01*
X157546916Y-98844136D01*
X157562462Y-98863078D01*
X157581404Y-98878624D01*
X157603015Y-98890175D01*
X157626464Y-98897288D01*
X157650850Y-98899690D01*
X162449150Y-98899690D01*
X162473536Y-98897288D01*
X162496985Y-98890175D01*
X162518596Y-98878624D01*
X162537538Y-98863078D01*
X162553084Y-98844136D01*
X162564635Y-98822525D01*
X162571748Y-98799076D01*
X162574150Y-98774690D01*
X162574150Y-94225310D01*
X162571748Y-94200924D01*
X162564635Y-94177475D01*
X162553084Y-94155864D01*
X162537538Y-94136922D01*
X162518596Y-94121376D01*
X162496985Y-94109825D01*
X162473536Y-94102712D01*
X162449150Y-94100310D01*
X157650850Y-94100310D01*
X157626464Y-94102712D01*
X157603015Y-94109825D01*
X157581404Y-94121376D01*
X157562462Y-94136922D01*
X157546916Y-94155864D01*
X157535365Y-94177475D01*
X157528252Y-94200924D01*
X157525850Y-94225310D01*
X156574670Y-94225310D01*
X156574670Y-93899700D01*
X157324700Y-93899700D01*
X157349086Y-93897298D01*
X157372535Y-93890185D01*
X157394146Y-93878634D01*
X157413088Y-93863088D01*
X157428634Y-93844146D01*
X157440185Y-93822535D01*
X157447298Y-93799086D01*
X157449700Y-93774700D01*
X157449700Y-93149130D01*
X162650300Y-93149130D01*
X162650300Y-93774700D01*
X162650300Y-93774700D01*
G37*
G36*
X162000000Y-98450000D02*
X158100000Y-98450000D01*
X158100000Y-94550000D01*
X162000000Y-94550000D01*
X162000000Y-98450000D01*
X162000000Y-98450000D01*
G37*
G36*
X95828707Y-97277596D02*
X95905836Y-97285193D01*
X96037787Y-97325220D01*
X96103763Y-97345233D01*
X96286172Y-97442733D01*
X96446054Y-97573946D01*
X96577267Y-97733828D01*
X96674767Y-97916237D01*
X96674767Y-97916238D01*
X96734807Y-98114164D01*
X96755080Y-98320000D01*
X96734807Y-98525836D01*
X96694780Y-98657787D01*
X96674767Y-98723763D01*
X96577267Y-98906172D01*
X96446054Y-99066054D01*
X96286172Y-99197267D01*
X96103763Y-99294767D01*
X96037787Y-99314780D01*
X95905836Y-99354807D01*
X95828707Y-99362403D01*
X95751580Y-99370000D01*
X95648420Y-99370000D01*
X95571293Y-99362404D01*
X95494164Y-99354807D01*
X95362213Y-99314780D01*
X95296237Y-99294767D01*
X95113828Y-99197267D01*
X94953946Y-99066054D01*
X94822733Y-98906172D01*
X94725233Y-98723763D01*
X94705220Y-98657787D01*
X94665193Y-98525836D01*
X94644920Y-98320000D01*
X94665193Y-98114164D01*
X94725233Y-97916238D01*
X94725233Y-97916237D01*
X94822733Y-97733828D01*
X94953946Y-97573946D01*
X95113828Y-97442733D01*
X95296237Y-97345233D01*
X95362213Y-97325220D01*
X95494164Y-97285193D01*
X95571293Y-97277596D01*
X95648420Y-97270000D01*
X95751580Y-97270000D01*
X95828707Y-97277596D01*
X95828707Y-97277596D01*
G37*
G36*
X182518707Y-96507596D02*
X182595836Y-96515193D01*
X182727787Y-96555220D01*
X182793763Y-96575233D01*
X182976172Y-96672733D01*
X183136054Y-96803946D01*
X183267267Y-96963828D01*
X183364767Y-97146237D01*
X183364767Y-97146238D01*
X183424807Y-97344164D01*
X183445080Y-97550000D01*
X183424807Y-97755836D01*
X183396243Y-97850000D01*
X183364767Y-97953763D01*
X183267267Y-98136172D01*
X183136054Y-98296054D01*
X182976172Y-98427267D01*
X182793763Y-98524767D01*
X182727787Y-98544780D01*
X182595836Y-98584807D01*
X182518707Y-98592403D01*
X182441580Y-98600000D01*
X182338420Y-98600000D01*
X182261293Y-98592404D01*
X182184164Y-98584807D01*
X182052213Y-98544780D01*
X181986237Y-98524767D01*
X181803828Y-98427267D01*
X181643946Y-98296054D01*
X181512733Y-98136172D01*
X181415233Y-97953763D01*
X181383757Y-97850000D01*
X181355193Y-97755836D01*
X181334920Y-97550000D01*
X181355193Y-97344164D01*
X181415233Y-97146238D01*
X181415233Y-97146237D01*
X181512733Y-96963828D01*
X181643946Y-96803946D01*
X181803828Y-96672733D01*
X181986237Y-96575233D01*
X182052213Y-96555220D01*
X182184164Y-96515193D01*
X182261293Y-96507597D01*
X182338420Y-96500000D01*
X182441580Y-96500000D01*
X182518707Y-96507596D01*
X182518707Y-96507596D01*
G37*
G36*
X179978707Y-96507596D02*
X180055836Y-96515193D01*
X180187787Y-96555220D01*
X180253763Y-96575233D01*
X180436172Y-96672733D01*
X180596054Y-96803946D01*
X180727267Y-96963828D01*
X180824767Y-97146237D01*
X180824767Y-97146238D01*
X180884807Y-97344164D01*
X180905080Y-97550000D01*
X180884807Y-97755836D01*
X180856243Y-97850000D01*
X180824767Y-97953763D01*
X180727267Y-98136172D01*
X180596054Y-98296054D01*
X180436172Y-98427267D01*
X180253763Y-98524767D01*
X180187787Y-98544780D01*
X180055836Y-98584807D01*
X179978707Y-98592403D01*
X179901580Y-98600000D01*
X179798420Y-98600000D01*
X179721293Y-98592404D01*
X179644164Y-98584807D01*
X179512213Y-98544780D01*
X179446237Y-98524767D01*
X179263828Y-98427267D01*
X179103946Y-98296054D01*
X178972733Y-98136172D01*
X178875233Y-97953763D01*
X178843757Y-97850000D01*
X178815193Y-97755836D01*
X178794920Y-97550000D01*
X178815193Y-97344164D01*
X178875233Y-97146238D01*
X178875233Y-97146237D01*
X178972733Y-96963828D01*
X179103946Y-96803946D01*
X179263828Y-96672733D01*
X179446237Y-96575233D01*
X179512213Y-96555220D01*
X179644164Y-96515193D01*
X179721293Y-96507597D01*
X179798420Y-96500000D01*
X179901580Y-96500000D01*
X179978707Y-96507596D01*
X179978707Y-96507596D01*
G37*
G36*
X149475000Y-98225000D02*
X148275000Y-98225000D01*
X148275000Y-97075000D01*
X149475000Y-97075000D01*
X149475000Y-98225000D01*
X149475000Y-98225000D01*
G37*
G36*
X147975000Y-98225000D02*
X146775000Y-98225000D01*
X146775000Y-97075000D01*
X147975000Y-97075000D01*
X147975000Y-98225000D01*
X147975000Y-98225000D01*
G37*
G36*
X168250000Y-97850000D02*
X167100000Y-97850000D01*
X167100000Y-96650000D01*
X168250000Y-96650000D01*
X168250000Y-97850000D01*
X168250000Y-97850000D01*
G37*
G36*
X166025000Y-97850000D02*
X164875000Y-97850000D01*
X164875000Y-96650000D01*
X166025000Y-96650000D01*
X166025000Y-97850000D01*
X166025000Y-97850000D01*
G37*
G36*
X141050000Y-97625000D02*
X139850000Y-97625000D01*
X139850000Y-96475000D01*
X141050000Y-96475000D01*
X141050000Y-97625000D01*
X141050000Y-97625000D01*
G37*
G36*
X142550000Y-97625000D02*
X141350000Y-97625000D01*
X141350000Y-96475000D01*
X142550000Y-96475000D01*
X142550000Y-97625000D01*
X142550000Y-97625000D01*
G37*
G36*
X122750000Y-97625000D02*
X121450000Y-97625000D01*
X121450000Y-96025000D01*
X122750000Y-96025000D01*
X122750000Y-97625000D01*
X122750000Y-97625000D01*
G37*
G36*
X127475000Y-97625000D02*
X126175000Y-97625000D01*
X126175000Y-96025000D01*
X127475000Y-96025000D01*
X127475000Y-97625000D01*
X127475000Y-97625000D01*
G37*
G36*
X132055000Y-97460000D02*
X128145000Y-97460000D01*
X128145000Y-95790000D01*
X132055000Y-95790000D01*
X132055000Y-97460000D01*
X132055000Y-97460000D01*
G37*
G36*
X135550000Y-97425000D02*
X134250000Y-97425000D01*
X134250000Y-95825000D01*
X135550000Y-95825000D01*
X135550000Y-97425000D01*
X135550000Y-97425000D01*
G37*
G36*
X120350000Y-97100000D02*
X119200000Y-97100000D01*
X119200000Y-95900000D01*
X120350000Y-95900000D01*
X120350000Y-97100000D01*
X120350000Y-97100000D01*
G37*
G36*
X125050000Y-97075000D02*
X123900000Y-97075000D01*
X123900000Y-95875000D01*
X125050000Y-95875000D01*
X125050000Y-97075000D01*
X125050000Y-97075000D01*
G37*
G36*
X95828707Y-94737596D02*
X95905836Y-94745193D01*
X96037787Y-94785220D01*
X96103763Y-94805233D01*
X96286172Y-94902733D01*
X96446054Y-95033946D01*
X96577267Y-95193828D01*
X96674767Y-95376237D01*
X96674767Y-95376238D01*
X96734807Y-95574164D01*
X96755080Y-95780000D01*
X96734807Y-95985836D01*
X96700006Y-96100560D01*
X96674767Y-96183763D01*
X96577267Y-96366172D01*
X96446054Y-96526054D01*
X96286172Y-96657267D01*
X96103763Y-96754767D01*
X96037787Y-96774780D01*
X95905836Y-96814807D01*
X95828707Y-96822404D01*
X95751580Y-96830000D01*
X95648420Y-96830000D01*
X95571293Y-96822404D01*
X95494164Y-96814807D01*
X95362213Y-96774780D01*
X95296237Y-96754767D01*
X95113828Y-96657267D01*
X94953946Y-96526054D01*
X94822733Y-96366172D01*
X94725233Y-96183763D01*
X94699994Y-96100560D01*
X94665193Y-95985836D01*
X94644920Y-95780000D01*
X94665193Y-95574164D01*
X94725233Y-95376238D01*
X94725233Y-95376237D01*
X94822733Y-95193828D01*
X94953946Y-95033946D01*
X95113828Y-94902733D01*
X95296237Y-94805233D01*
X95362213Y-94785220D01*
X95494164Y-94745193D01*
X95571293Y-94737596D01*
X95648420Y-94730000D01*
X95751580Y-94730000D01*
X95828707Y-94737596D01*
X95828707Y-94737596D01*
G37*
G36*
X168250000Y-96350000D02*
X167100000Y-96350000D01*
X167100000Y-95150000D01*
X168250000Y-95150000D01*
X168250000Y-96350000D01*
X168250000Y-96350000D01*
G37*
G36*
X166025000Y-96350000D02*
X164875000Y-96350000D01*
X164875000Y-95150000D01*
X166025000Y-95150000D01*
X166025000Y-96350000D01*
X166025000Y-96350000D01*
G37*
G36*
X182518707Y-93967596D02*
X182595836Y-93975193D01*
X182727787Y-94015220D01*
X182793763Y-94035233D01*
X182976172Y-94132733D01*
X183136054Y-94263946D01*
X183267267Y-94423828D01*
X183364767Y-94606237D01*
X183364767Y-94606238D01*
X183424807Y-94804164D01*
X183445080Y-95010000D01*
X183424807Y-95215836D01*
X183422027Y-95225000D01*
X183364767Y-95413763D01*
X183267267Y-95596172D01*
X183136054Y-95756054D01*
X182976172Y-95887267D01*
X182793763Y-95984767D01*
X182727787Y-96004780D01*
X182595836Y-96044807D01*
X182518707Y-96052403D01*
X182441580Y-96060000D01*
X182338420Y-96060000D01*
X182261293Y-96052404D01*
X182184164Y-96044807D01*
X182052213Y-96004780D01*
X181986237Y-95984767D01*
X181803828Y-95887267D01*
X181643946Y-95756054D01*
X181512733Y-95596172D01*
X181415233Y-95413763D01*
X181357973Y-95225000D01*
X181355193Y-95215836D01*
X181334920Y-95010000D01*
X181355193Y-94804164D01*
X181415233Y-94606238D01*
X181415233Y-94606237D01*
X181512733Y-94423828D01*
X181643946Y-94263946D01*
X181803828Y-94132733D01*
X181986237Y-94035233D01*
X182052213Y-94015220D01*
X182184164Y-93975193D01*
X182261293Y-93967596D01*
X182338420Y-93960000D01*
X182441580Y-93960000D01*
X182518707Y-93967596D01*
X182518707Y-93967596D01*
G37*
G36*
X179978707Y-93967596D02*
X180055836Y-93975193D01*
X180187787Y-94015220D01*
X180253763Y-94035233D01*
X180436172Y-94132733D01*
X180596054Y-94263946D01*
X180727267Y-94423828D01*
X180824767Y-94606237D01*
X180824767Y-94606238D01*
X180884807Y-94804164D01*
X180905080Y-95010000D01*
X180884807Y-95215836D01*
X180882027Y-95225000D01*
X180824767Y-95413763D01*
X180727267Y-95596172D01*
X180596054Y-95756054D01*
X180436172Y-95887267D01*
X180253763Y-95984767D01*
X180187787Y-96004780D01*
X180055836Y-96044807D01*
X179978707Y-96052403D01*
X179901580Y-96060000D01*
X179798420Y-96060000D01*
X179721293Y-96052404D01*
X179644164Y-96044807D01*
X179512213Y-96004780D01*
X179446237Y-95984767D01*
X179263828Y-95887267D01*
X179103946Y-95756054D01*
X178972733Y-95596172D01*
X178875233Y-95413763D01*
X178817973Y-95225000D01*
X178815193Y-95215836D01*
X178794920Y-95010000D01*
X178815193Y-94804164D01*
X178875233Y-94606238D01*
X178875233Y-94606237D01*
X178972733Y-94423828D01*
X179103946Y-94263946D01*
X179263828Y-94132733D01*
X179446237Y-94035233D01*
X179512213Y-94015220D01*
X179644164Y-93975193D01*
X179721293Y-93967596D01*
X179798420Y-93960000D01*
X179901580Y-93960000D01*
X179978707Y-93967596D01*
X179978707Y-93967596D01*
G37*
G36*
X102525000Y-95600000D02*
X100925000Y-95600000D01*
X100925000Y-94300000D01*
X102525000Y-94300000D01*
X102525000Y-95600000D01*
X102525000Y-95600000D01*
G37*
G36*
X104725000Y-95600000D02*
X103125000Y-95600000D01*
X103125000Y-94300000D01*
X104725000Y-94300000D01*
X104725000Y-95600000D01*
X104725000Y-95600000D01*
G37*
G36*
X120350000Y-95600000D02*
X119200000Y-95600000D01*
X119200000Y-94400000D01*
X120350000Y-94400000D01*
X120350000Y-95600000D01*
X120350000Y-95600000D01*
G37*
G36*
X125050000Y-95575000D02*
X123900000Y-95575000D01*
X123900000Y-94375000D01*
X125050000Y-94375000D01*
X125050000Y-95575000D01*
X125050000Y-95575000D01*
G37*
G36*
X106675000Y-95525000D02*
X105475000Y-95525000D01*
X105475000Y-94375000D01*
X106675000Y-94375000D01*
X106675000Y-95525000D01*
X106675000Y-95525000D01*
G37*
G36*
X110325000Y-95525000D02*
X109125000Y-95525000D01*
X109125000Y-94375000D01*
X110325000Y-94375000D01*
X110325000Y-95525000D01*
X110325000Y-95525000D01*
G37*
G36*
X111825000Y-95525000D02*
X110625000Y-95525000D01*
X110625000Y-94375000D01*
X111825000Y-94375000D01*
X111825000Y-95525000D01*
X111825000Y-95525000D01*
G37*
G36*
X108175000Y-95525000D02*
X106975000Y-95525000D01*
X106975000Y-94375000D01*
X108175000Y-94375000D01*
X108175000Y-95525000D01*
X108175000Y-95525000D01*
G37*
G36*
X127475000Y-95425000D02*
X126175000Y-95425000D01*
X126175000Y-93825000D01*
X127475000Y-93825000D01*
X127475000Y-95425000D01*
X127475000Y-95425000D01*
G37*
G36*
X122750000Y-95425000D02*
X121450000Y-95425000D01*
X121450000Y-93825000D01*
X122750000Y-93825000D01*
X122750000Y-95425000D01*
X122750000Y-95425000D01*
G37*
G36*
X114060000Y-95405000D02*
X112390000Y-95405000D01*
X112390000Y-91495000D01*
X114060000Y-91495000D01*
X114060000Y-95405000D01*
X114060000Y-95405000D01*
G37*
G36*
X135550000Y-95225000D02*
X134250000Y-95225000D01*
X134250000Y-93625000D01*
X135550000Y-93625000D01*
X135550000Y-95225000D01*
X135550000Y-95225000D01*
G37*
G36*
X146400000Y-95205000D02*
X144450000Y-95205000D01*
X144450000Y-94205000D01*
X146400000Y-94205000D01*
X146400000Y-95205000D01*
X146400000Y-95205000D01*
G37*
G36*
X151800000Y-95205000D02*
X149850000Y-95205000D01*
X149850000Y-94205000D01*
X151800000Y-94205000D01*
X151800000Y-95205000D01*
X151800000Y-95205000D01*
G37*
G36*
X154125000Y-95200000D02*
X152825000Y-95200000D01*
X152825000Y-93600000D01*
X154125000Y-93600000D01*
X154125000Y-95200000D01*
X154125000Y-95200000D01*
G37*
G36*
X129650000Y-95200000D02*
X128050000Y-95200000D01*
X128050000Y-93900000D01*
X129650000Y-93900000D01*
X129650000Y-95200000D01*
X129650000Y-95200000D01*
G37*
G36*
X131850000Y-95200000D02*
X130250000Y-95200000D01*
X130250000Y-93900000D01*
X131850000Y-93900000D01*
X131850000Y-95200000D01*
X131850000Y-95200000D01*
G37*
G36*
X99975000Y-94700000D02*
X98675000Y-94700000D01*
X98675000Y-93100000D01*
X99975000Y-93100000D01*
X99975000Y-94700000D01*
X99975000Y-94700000D01*
G37*
G36*
X140925000Y-94650000D02*
X139325000Y-94650000D01*
X139325000Y-93350000D01*
X140925000Y-93350000D01*
X140925000Y-94650000D01*
X140925000Y-94650000D01*
G37*
G36*
X143125000Y-94650000D02*
X141525000Y-94650000D01*
X141525000Y-93350000D01*
X143125000Y-93350000D01*
X143125000Y-94650000D01*
X143125000Y-94650000D01*
G37*
G36*
X168175000Y-94600000D02*
X164975000Y-94600000D01*
X164975000Y-92800000D01*
X168175000Y-92800000D01*
X168175000Y-94600000D01*
X168175000Y-94600000D01*
G37*
G36*
X95828707Y-92197596D02*
X95905836Y-92205193D01*
X96009839Y-92236742D01*
X96103763Y-92265233D01*
X96286172Y-92362733D01*
X96446054Y-92493946D01*
X96577267Y-92653828D01*
X96674767Y-92836237D01*
X96674767Y-92836238D01*
X96734807Y-93034164D01*
X96755080Y-93240000D01*
X96734807Y-93445836D01*
X96694780Y-93577787D01*
X96674767Y-93643763D01*
X96577267Y-93826172D01*
X96446054Y-93986054D01*
X96286172Y-94117267D01*
X96103763Y-94214767D01*
X96037787Y-94234780D01*
X95905836Y-94274807D01*
X95828707Y-94282403D01*
X95751580Y-94290000D01*
X95648420Y-94290000D01*
X95571293Y-94282403D01*
X95494164Y-94274807D01*
X95362213Y-94234780D01*
X95296237Y-94214767D01*
X95113828Y-94117267D01*
X94953946Y-93986054D01*
X94822733Y-93826172D01*
X94725233Y-93643763D01*
X94705220Y-93577787D01*
X94665193Y-93445836D01*
X94644920Y-93240000D01*
X94665193Y-93034164D01*
X94725233Y-92836238D01*
X94725233Y-92836237D01*
X94822733Y-92653828D01*
X94953946Y-92493946D01*
X95113828Y-92362733D01*
X95296237Y-92265233D01*
X95390161Y-92236742D01*
X95494164Y-92205193D01*
X95571293Y-92197596D01*
X95648420Y-92190000D01*
X95751580Y-92190000D01*
X95828707Y-92197596D01*
X95828707Y-92197596D01*
G37*
G36*
X169975000Y-93950000D02*
X168825000Y-93950000D01*
X168825000Y-92750000D01*
X169975000Y-92750000D01*
X169975000Y-93950000D01*
X169975000Y-93950000D01*
G37*
G36*
X151800000Y-93935000D02*
X149850000Y-93935000D01*
X149850000Y-92935000D01*
X151800000Y-92935000D01*
X151800000Y-93935000D01*
X151800000Y-93935000D01*
G37*
G36*
X146400000Y-93935000D02*
X144450000Y-93935000D01*
X144450000Y-92935000D01*
X146400000Y-92935000D01*
X146400000Y-93935000D01*
X146400000Y-93935000D01*
G37*
G36*
X102351030Y-91809469D02*
X102351033Y-91809470D01*
X102351034Y-91809470D01*
X102539535Y-91866651D01*
X102539537Y-91866652D01*
X102713260Y-91959509D01*
X102865528Y-92084472D01*
X102990491Y-92236740D01*
X103005721Y-92265233D01*
X103083349Y-92410465D01*
X103110509Y-92500000D01*
X103140531Y-92598970D01*
X103159838Y-92795000D01*
X103140531Y-92991030D01*
X103140530Y-92991033D01*
X103140530Y-92991034D01*
X103107476Y-93100000D01*
X103083348Y-93179537D01*
X102990491Y-93353260D01*
X102865528Y-93505528D01*
X102713260Y-93630491D01*
X102713258Y-93630492D01*
X102539535Y-93723349D01*
X102351034Y-93780530D01*
X102351033Y-93780530D01*
X102351030Y-93780531D01*
X102204124Y-93795000D01*
X102105876Y-93795000D01*
X101958970Y-93780531D01*
X101958967Y-93780530D01*
X101958966Y-93780530D01*
X101770465Y-93723349D01*
X101596742Y-93630492D01*
X101596740Y-93630491D01*
X101444472Y-93505528D01*
X101319509Y-93353260D01*
X101226652Y-93179537D01*
X101202525Y-93100000D01*
X101169470Y-92991034D01*
X101169470Y-92991033D01*
X101169469Y-92991030D01*
X101150162Y-92795000D01*
X101169469Y-92598970D01*
X101199491Y-92500000D01*
X101226651Y-92410465D01*
X101304279Y-92265233D01*
X101319509Y-92236740D01*
X101444472Y-92084472D01*
X101596740Y-91959509D01*
X101770463Y-91866652D01*
X101770465Y-91866651D01*
X101958966Y-91809470D01*
X101958967Y-91809470D01*
X101958970Y-91809469D01*
X102105876Y-91795000D01*
X102204124Y-91795000D01*
X102351030Y-91809469D01*
X102351030Y-91809469D01*
G37*
G36*
X104891030Y-91809469D02*
X104891033Y-91809470D01*
X104891034Y-91809470D01*
X105079535Y-91866651D01*
X105079537Y-91866652D01*
X105253260Y-91959509D01*
X105405528Y-92084472D01*
X105530491Y-92236740D01*
X105545721Y-92265233D01*
X105623349Y-92410465D01*
X105650509Y-92500000D01*
X105680531Y-92598970D01*
X105699838Y-92795000D01*
X105680531Y-92991030D01*
X105680530Y-92991033D01*
X105680530Y-92991034D01*
X105647476Y-93100000D01*
X105623348Y-93179537D01*
X105530491Y-93353260D01*
X105405528Y-93505528D01*
X105253260Y-93630491D01*
X105253258Y-93630492D01*
X105079535Y-93723349D01*
X104891034Y-93780530D01*
X104891033Y-93780530D01*
X104891030Y-93780531D01*
X104744124Y-93795000D01*
X104645876Y-93795000D01*
X104498970Y-93780531D01*
X104498967Y-93780530D01*
X104498966Y-93780530D01*
X104310465Y-93723349D01*
X104136742Y-93630492D01*
X104136740Y-93630491D01*
X103984472Y-93505528D01*
X103859509Y-93353260D01*
X103766652Y-93179537D01*
X103742525Y-93100000D01*
X103709470Y-92991034D01*
X103709470Y-92991033D01*
X103709469Y-92991030D01*
X103690162Y-92795000D01*
X103709469Y-92598970D01*
X103739491Y-92500000D01*
X103766651Y-92410465D01*
X103844279Y-92265233D01*
X103859509Y-92236740D01*
X103984472Y-92084472D01*
X104136740Y-91959509D01*
X104310463Y-91866652D01*
X104310465Y-91866651D01*
X104498966Y-91809470D01*
X104498967Y-91809470D01*
X104498970Y-91809469D01*
X104645876Y-91795000D01*
X104744124Y-91795000D01*
X104891030Y-91809469D01*
X104891030Y-91809469D01*
G37*
G36*
X109971030Y-91809469D02*
X109971033Y-91809470D01*
X109971034Y-91809470D01*
X110159535Y-91866651D01*
X110159537Y-91866652D01*
X110333260Y-91959509D01*
X110485528Y-92084472D01*
X110610491Y-92236740D01*
X110625721Y-92265233D01*
X110703349Y-92410465D01*
X110730509Y-92500000D01*
X110760531Y-92598970D01*
X110779838Y-92795000D01*
X110760531Y-92991030D01*
X110760530Y-92991033D01*
X110760530Y-92991034D01*
X110727476Y-93100000D01*
X110703348Y-93179537D01*
X110610491Y-93353260D01*
X110485528Y-93505528D01*
X110333260Y-93630491D01*
X110333258Y-93630492D01*
X110159535Y-93723349D01*
X109971034Y-93780530D01*
X109971033Y-93780530D01*
X109971030Y-93780531D01*
X109824124Y-93795000D01*
X109725876Y-93795000D01*
X109578970Y-93780531D01*
X109578967Y-93780530D01*
X109578966Y-93780530D01*
X109390465Y-93723349D01*
X109216742Y-93630492D01*
X109216740Y-93630491D01*
X109064472Y-93505528D01*
X108939509Y-93353260D01*
X108846652Y-93179537D01*
X108822525Y-93100000D01*
X108789470Y-92991034D01*
X108789470Y-92991033D01*
X108789469Y-92991030D01*
X108770162Y-92795000D01*
X108789469Y-92598970D01*
X108819491Y-92500000D01*
X108846651Y-92410465D01*
X108924279Y-92265233D01*
X108939509Y-92236740D01*
X109064472Y-92084472D01*
X109216740Y-91959509D01*
X109390463Y-91866652D01*
X109390465Y-91866651D01*
X109578966Y-91809470D01*
X109578967Y-91809470D01*
X109578970Y-91809469D01*
X109725876Y-91795000D01*
X109824124Y-91795000D01*
X109971030Y-91809469D01*
X109971030Y-91809469D01*
G37*
G36*
X107431030Y-91809469D02*
X107431033Y-91809470D01*
X107431034Y-91809470D01*
X107619535Y-91866651D01*
X107619537Y-91866652D01*
X107793260Y-91959509D01*
X107945528Y-92084472D01*
X108070491Y-92236740D01*
X108085721Y-92265233D01*
X108163349Y-92410465D01*
X108190509Y-92500000D01*
X108220531Y-92598970D01*
X108239838Y-92795000D01*
X108220531Y-92991030D01*
X108220530Y-92991033D01*
X108220530Y-92991034D01*
X108187476Y-93100000D01*
X108163348Y-93179537D01*
X108070491Y-93353260D01*
X107945528Y-93505528D01*
X107793260Y-93630491D01*
X107793258Y-93630492D01*
X107619535Y-93723349D01*
X107431034Y-93780530D01*
X107431033Y-93780530D01*
X107431030Y-93780531D01*
X107284124Y-93795000D01*
X107185876Y-93795000D01*
X107038970Y-93780531D01*
X107038967Y-93780530D01*
X107038966Y-93780530D01*
X106850465Y-93723349D01*
X106676742Y-93630492D01*
X106676740Y-93630491D01*
X106524472Y-93505528D01*
X106399509Y-93353260D01*
X106306652Y-93179537D01*
X106282525Y-93100000D01*
X106249470Y-92991034D01*
X106249470Y-92991033D01*
X106249469Y-92991030D01*
X106230162Y-92795000D01*
X106249469Y-92598970D01*
X106279491Y-92500000D01*
X106306651Y-92410465D01*
X106384279Y-92265233D01*
X106399509Y-92236740D01*
X106524472Y-92084472D01*
X106676740Y-91959509D01*
X106850463Y-91866652D01*
X106850465Y-91866651D01*
X107038966Y-91809470D01*
X107038967Y-91809470D01*
X107038970Y-91809469D01*
X107185876Y-91795000D01*
X107284124Y-91795000D01*
X107431030Y-91809469D01*
X107431030Y-91809469D01*
G37*
G36*
X182518707Y-91427596D02*
X182595836Y-91435193D01*
X182727063Y-91475000D01*
X182793763Y-91495233D01*
X182976172Y-91592733D01*
X183136054Y-91723946D01*
X183267267Y-91883828D01*
X183364767Y-92066237D01*
X183364767Y-92066238D01*
X183424807Y-92264164D01*
X183445080Y-92470000D01*
X183424807Y-92675836D01*
X183397759Y-92765000D01*
X183364767Y-92873763D01*
X183267267Y-93056172D01*
X183136054Y-93216054D01*
X182976172Y-93347267D01*
X182793763Y-93444767D01*
X182727787Y-93464780D01*
X182595836Y-93504807D01*
X182518707Y-93512403D01*
X182441580Y-93520000D01*
X182338420Y-93520000D01*
X182261293Y-93512403D01*
X182184164Y-93504807D01*
X182052213Y-93464780D01*
X181986237Y-93444767D01*
X181803828Y-93347267D01*
X181643946Y-93216054D01*
X181512733Y-93056172D01*
X181415233Y-92873763D01*
X181382241Y-92765000D01*
X181355193Y-92675836D01*
X181334920Y-92470000D01*
X181355193Y-92264164D01*
X181415233Y-92066238D01*
X181415233Y-92066237D01*
X181512733Y-91883828D01*
X181643946Y-91723946D01*
X181803828Y-91592733D01*
X181986237Y-91495233D01*
X182052937Y-91475000D01*
X182184164Y-91435193D01*
X182261293Y-91427597D01*
X182338420Y-91420000D01*
X182441580Y-91420000D01*
X182518707Y-91427596D01*
X182518707Y-91427596D01*
G37*
G36*
X179978707Y-91427596D02*
X180055836Y-91435193D01*
X180187063Y-91475000D01*
X180253763Y-91495233D01*
X180436172Y-91592733D01*
X180596054Y-91723946D01*
X180727267Y-91883828D01*
X180824767Y-92066237D01*
X180824767Y-92066238D01*
X180884807Y-92264164D01*
X180905080Y-92470000D01*
X180884807Y-92675836D01*
X180857759Y-92765000D01*
X180824767Y-92873763D01*
X180727267Y-93056172D01*
X180596054Y-93216054D01*
X180436172Y-93347267D01*
X180253763Y-93444767D01*
X180187787Y-93464780D01*
X180055836Y-93504807D01*
X179978707Y-93512403D01*
X179901580Y-93520000D01*
X179798420Y-93520000D01*
X179721293Y-93512403D01*
X179644164Y-93504807D01*
X179512213Y-93464780D01*
X179446237Y-93444767D01*
X179263828Y-93347267D01*
X179103946Y-93216054D01*
X178972733Y-93056172D01*
X178875233Y-92873763D01*
X178842241Y-92765000D01*
X178815193Y-92675836D01*
X178794920Y-92470000D01*
X178815193Y-92264164D01*
X178875233Y-92066238D01*
X178875233Y-92066237D01*
X178972733Y-91883828D01*
X179103946Y-91723946D01*
X179263828Y-91592733D01*
X179446237Y-91495233D01*
X179512937Y-91475000D01*
X179644164Y-91435193D01*
X179721293Y-91427597D01*
X179798420Y-91420000D01*
X179901580Y-91420000D01*
X179978707Y-91427596D01*
X179978707Y-91427596D01*
G37*
G36*
X133200000Y-93310000D02*
X131300000Y-93310000D01*
X131300000Y-92310000D01*
X133200000Y-92310000D01*
X133200000Y-93310000D01*
X133200000Y-93310000D01*
G37*
G36*
X127800000Y-93310000D02*
X125900000Y-93310000D01*
X125900000Y-92310000D01*
X127800000Y-92310000D01*
X127800000Y-93310000D01*
X127800000Y-93310000D01*
G37*
G36*
X135525000Y-93075000D02*
X134225000Y-93075000D01*
X134225000Y-91475000D01*
X135525000Y-91475000D01*
X135525000Y-93075000D01*
X135525000Y-93075000D01*
G37*
G36*
X154125000Y-93000000D02*
X152825000Y-93000000D01*
X152825000Y-91400000D01*
X154125000Y-91400000D01*
X154125000Y-93000000D01*
X154125000Y-93000000D01*
G37*
G36*
X122850000Y-92675000D02*
X121250000Y-92675000D01*
X121250000Y-91375000D01*
X122850000Y-91375000D01*
X122850000Y-92675000D01*
X122850000Y-92675000D01*
G37*
G36*
X125050000Y-92675000D02*
X123450000Y-92675000D01*
X123450000Y-91375000D01*
X125050000Y-91375000D01*
X125050000Y-92675000D01*
X125050000Y-92675000D01*
G37*
G36*
X151800000Y-92665000D02*
X149850000Y-92665000D01*
X149850000Y-91665000D01*
X151800000Y-91665000D01*
X151800000Y-92665000D01*
X151800000Y-92665000D01*
G37*
G36*
X146400000Y-92665000D02*
X144450000Y-92665000D01*
X144450000Y-91665000D01*
X146400000Y-91665000D01*
X146400000Y-92665000D01*
X146400000Y-92665000D01*
G37*
G36*
X118225000Y-92600000D02*
X117025000Y-92600000D01*
X117025000Y-91450000D01*
X118225000Y-91450000D01*
X118225000Y-92600000D01*
X118225000Y-92600000D01*
G37*
G36*
X119725000Y-92600000D02*
X118525000Y-92600000D01*
X118525000Y-91450000D01*
X119725000Y-91450000D01*
X119725000Y-92600000D01*
X119725000Y-92600000D01*
G37*
G36*
X99975000Y-92500000D02*
X98675000Y-92500000D01*
X98675000Y-90900000D01*
X99975000Y-90900000D01*
X99975000Y-92500000D01*
X99975000Y-92500000D01*
G37*
G36*
X169975000Y-92450000D02*
X168825000Y-92450000D01*
X168825000Y-91250000D01*
X169975000Y-91250000D01*
X169975000Y-92450000D01*
X169975000Y-92450000D01*
G37*
G36*
X168175000Y-92400000D02*
X164975000Y-92400000D01*
X164975000Y-90600000D01*
X168175000Y-90600000D01*
X168175000Y-92400000D01*
X168175000Y-92400000D01*
G37*
G36*
X140025000Y-92075000D02*
X137325000Y-92075000D01*
X137325000Y-90275000D01*
X140025000Y-90275000D01*
X140025000Y-92075000D01*
X140025000Y-92075000D01*
G37*
G36*
X133200000Y-92040000D02*
X131300000Y-92040000D01*
X131300000Y-91040000D01*
X133200000Y-91040000D01*
X133200000Y-92040000D01*
X133200000Y-92040000D01*
G37*
G36*
X127800000Y-92040000D02*
X125900000Y-92040000D01*
X125900000Y-91040000D01*
X127800000Y-91040000D01*
X127800000Y-92040000D01*
X127800000Y-92040000D01*
G37*
G36*
X96750000Y-91750000D02*
X94650000Y-91750000D01*
X94650000Y-89650000D01*
X96750000Y-89650000D01*
X96750000Y-91750000D01*
X96750000Y-91750000D01*
G37*
G36*
X159175000Y-91550000D02*
X157975000Y-91550000D01*
X157975000Y-90400000D01*
X159175000Y-90400000D01*
X159175000Y-91550000D01*
X159175000Y-91550000D01*
G37*
G36*
X157675000Y-91550000D02*
X156475000Y-91550000D01*
X156475000Y-90400000D01*
X157675000Y-90400000D01*
X157675000Y-91550000D01*
X157675000Y-91550000D01*
G37*
G36*
X151800000Y-91395000D02*
X149850000Y-91395000D01*
X149850000Y-90395000D01*
X151800000Y-90395000D01*
X151800000Y-91395000D01*
X151800000Y-91395000D01*
G37*
G36*
X146400000Y-91395000D02*
X144450000Y-91395000D01*
X144450000Y-90395000D01*
X146400000Y-90395000D01*
X146400000Y-91395000D01*
X146400000Y-91395000D01*
G37*
G36*
X179978707Y-88887597D02*
X180055836Y-88895193D01*
X180187787Y-88935220D01*
X180253763Y-88955233D01*
X180436172Y-89052733D01*
X180596054Y-89183946D01*
X180727267Y-89343828D01*
X180824767Y-89526237D01*
X180824767Y-89526238D01*
X180884807Y-89724164D01*
X180905080Y-89930000D01*
X180884807Y-90135836D01*
X180844780Y-90267787D01*
X180824767Y-90333763D01*
X180727267Y-90516172D01*
X180596054Y-90676054D01*
X180436172Y-90807267D01*
X180253763Y-90904767D01*
X180187787Y-90924780D01*
X180055836Y-90964807D01*
X179978707Y-90972404D01*
X179901580Y-90980000D01*
X179798420Y-90980000D01*
X179721293Y-90972403D01*
X179644164Y-90964807D01*
X179512213Y-90924780D01*
X179446237Y-90904767D01*
X179263828Y-90807267D01*
X179103946Y-90676054D01*
X178972733Y-90516172D01*
X178875233Y-90333763D01*
X178855220Y-90267787D01*
X178815193Y-90135836D01*
X178794920Y-89930000D01*
X178815193Y-89724164D01*
X178875233Y-89526238D01*
X178875233Y-89526237D01*
X178972733Y-89343828D01*
X179103946Y-89183946D01*
X179263828Y-89052733D01*
X179446237Y-88955233D01*
X179512213Y-88935220D01*
X179644164Y-88895193D01*
X179721293Y-88887597D01*
X179798420Y-88880000D01*
X179901580Y-88880000D01*
X179978707Y-88887597D01*
X179978707Y-88887597D01*
G37*
G36*
X182518707Y-88887597D02*
X182595836Y-88895193D01*
X182727787Y-88935220D01*
X182793763Y-88955233D01*
X182976172Y-89052733D01*
X183136054Y-89183946D01*
X183267267Y-89343828D01*
X183364767Y-89526237D01*
X183364767Y-89526238D01*
X183424807Y-89724164D01*
X183445080Y-89930000D01*
X183424807Y-90135836D01*
X183384780Y-90267787D01*
X183364767Y-90333763D01*
X183267267Y-90516172D01*
X183136054Y-90676054D01*
X182976172Y-90807267D01*
X182793763Y-90904767D01*
X182727787Y-90924780D01*
X182595836Y-90964807D01*
X182518707Y-90972404D01*
X182441580Y-90980000D01*
X182338420Y-90980000D01*
X182261293Y-90972403D01*
X182184164Y-90964807D01*
X182052213Y-90924780D01*
X181986237Y-90904767D01*
X181803828Y-90807267D01*
X181643946Y-90676054D01*
X181512733Y-90516172D01*
X181415233Y-90333763D01*
X181395220Y-90267787D01*
X181355193Y-90135836D01*
X181334920Y-89930000D01*
X181355193Y-89724164D01*
X181415233Y-89526238D01*
X181415233Y-89526237D01*
X181512733Y-89343828D01*
X181643946Y-89183946D01*
X181803828Y-89052733D01*
X181986237Y-88955233D01*
X182052213Y-88935220D01*
X182184164Y-88895193D01*
X182261293Y-88887597D01*
X182338420Y-88880000D01*
X182441580Y-88880000D01*
X182518707Y-88887597D01*
X182518707Y-88887597D01*
G37*
G36*
X135525000Y-90875000D02*
X134225000Y-90875000D01*
X134225000Y-89275000D01*
X135525000Y-89275000D01*
X135525000Y-90875000D01*
X135525000Y-90875000D01*
G37*
G36*
X115700000Y-90875000D02*
X114400000Y-90875000D01*
X114400000Y-89275000D01*
X115700000Y-89275000D01*
X115700000Y-90875000D01*
X115700000Y-90875000D01*
G37*
G36*
X113425000Y-90875000D02*
X112125000Y-90875000D01*
X112125000Y-89275000D01*
X113425000Y-89275000D01*
X113425000Y-90875000D01*
X113425000Y-90875000D01*
G37*
G36*
X133200000Y-90770000D02*
X131300000Y-90770000D01*
X131300000Y-89770000D01*
X133200000Y-89770000D01*
X133200000Y-90770000D01*
X133200000Y-90770000D01*
G37*
G36*
X127800000Y-90770000D02*
X125900000Y-90770000D01*
X125900000Y-89770000D01*
X127800000Y-89770000D01*
X127800000Y-90770000D01*
X127800000Y-90770000D01*
G37*
G36*
X143075000Y-88420000D02*
X143077402Y-88444386D01*
X143084515Y-88467835D01*
X143096066Y-88489446D01*
X143111612Y-88508388D01*
X143130554Y-88523934D01*
X143152165Y-88535485D01*
X143175614Y-88542598D01*
X143200000Y-88545000D01*
X143425000Y-88545000D01*
X143425000Y-89405000D01*
X143200000Y-89405000D01*
X143175614Y-89407402D01*
X143152165Y-89414515D01*
X143130554Y-89426066D01*
X143111612Y-89441612D01*
X143096066Y-89460554D01*
X143084515Y-89482165D01*
X143077402Y-89505614D01*
X143075000Y-89530000D01*
X143075000Y-90540000D01*
X141575000Y-90540000D01*
X141575000Y-89525000D01*
X141572598Y-89500614D01*
X141565485Y-89477165D01*
X141553934Y-89455554D01*
X141538388Y-89436612D01*
X141519446Y-89421066D01*
X141497835Y-89409515D01*
X141474386Y-89402402D01*
X141450000Y-89400000D01*
X141225000Y-89400000D01*
X141225000Y-88550000D01*
X141450000Y-88550000D01*
X141474386Y-88547598D01*
X141497835Y-88540485D01*
X141519446Y-88528934D01*
X141538388Y-88513388D01*
X141553934Y-88494446D01*
X141565485Y-88472835D01*
X141572598Y-88449386D01*
X141575000Y-88425000D01*
X141575000Y-87410000D01*
X143075000Y-87410000D01*
X143075000Y-88420000D01*
X143075000Y-88420000D01*
G37*
G36*
X100075000Y-88400000D02*
X100077402Y-88424386D01*
X100084515Y-88447835D01*
X100096066Y-88469446D01*
X100111612Y-88488388D01*
X100130554Y-88503934D01*
X100152165Y-88515485D01*
X100175614Y-88522598D01*
X100200000Y-88525000D01*
X100425000Y-88525000D01*
X100425000Y-89375000D01*
X100200000Y-89375000D01*
X100175614Y-89377402D01*
X100152165Y-89384515D01*
X100130554Y-89396066D01*
X100111612Y-89411612D01*
X100096066Y-89430554D01*
X100084515Y-89452165D01*
X100077402Y-89475614D01*
X100075000Y-89500000D01*
X100075000Y-90515000D01*
X98575000Y-90515000D01*
X98575000Y-89505000D01*
X98572598Y-89480614D01*
X98565485Y-89457165D01*
X98553934Y-89435554D01*
X98538388Y-89416612D01*
X98519446Y-89401066D01*
X98497835Y-89389515D01*
X98474386Y-89382402D01*
X98450000Y-89380000D01*
X98225000Y-89380000D01*
X98225000Y-88520000D01*
X98450000Y-88520000D01*
X98474386Y-88517598D01*
X98497835Y-88510485D01*
X98519446Y-88498934D01*
X98538388Y-88483388D01*
X98553934Y-88464446D01*
X98565485Y-88442835D01*
X98572598Y-88419386D01*
X98575000Y-88395000D01*
X98575000Y-87385000D01*
X100075000Y-87385000D01*
X100075000Y-88400000D01*
X100075000Y-88400000D01*
G37*
G36*
X118575000Y-90400000D02*
X116725000Y-90400000D01*
X116725000Y-87600000D01*
X118575000Y-87600000D01*
X118575000Y-90400000D01*
X118575000Y-90400000D01*
G37*
G36*
X122975000Y-90400000D02*
X121125000Y-90400000D01*
X121125000Y-87600000D01*
X122975000Y-87600000D01*
X122975000Y-90400000D01*
X122975000Y-90400000D01*
G37*
G36*
X124825000Y-89925000D02*
X123675000Y-89925000D01*
X123675000Y-88725000D01*
X124825000Y-88725000D01*
X124825000Y-89925000D01*
X124825000Y-89925000D01*
G37*
G36*
X167925000Y-89925000D02*
X166725000Y-89925000D01*
X166725000Y-88775000D01*
X167925000Y-88775000D01*
X167925000Y-89925000D01*
X167925000Y-89925000D01*
G37*
G36*
X166425000Y-89925000D02*
X165225000Y-89925000D01*
X165225000Y-88775000D01*
X166425000Y-88775000D01*
X166425000Y-89925000D01*
X166425000Y-89925000D01*
G37*
G36*
X149475000Y-89550000D02*
X148275000Y-89550000D01*
X148275000Y-88400000D01*
X149475000Y-88400000D01*
X149475000Y-89550000D01*
X149475000Y-89550000D01*
G37*
G36*
X147975000Y-89550000D02*
X146775000Y-89550000D01*
X146775000Y-88400000D01*
X147975000Y-88400000D01*
X147975000Y-89550000D01*
X147975000Y-89550000D01*
G37*
G36*
X127800000Y-89500000D02*
X125900000Y-89500000D01*
X125900000Y-88500000D01*
X127800000Y-88500000D01*
X127800000Y-89500000D01*
X127800000Y-89500000D01*
G37*
G36*
X133200000Y-89500000D02*
X131300000Y-89500000D01*
X131300000Y-88500000D01*
X133200000Y-88500000D01*
X133200000Y-89500000D01*
X133200000Y-89500000D01*
G37*
G36*
X159175000Y-89275000D02*
X157975000Y-89275000D01*
X157975000Y-88125000D01*
X159175000Y-88125000D01*
X159175000Y-89275000D01*
X159175000Y-89275000D01*
G37*
G36*
X157675000Y-89275000D02*
X156475000Y-89275000D01*
X156475000Y-88125000D01*
X157675000Y-88125000D01*
X157675000Y-89275000D01*
X157675000Y-89275000D01*
G37*
G36*
X115700000Y-88675000D02*
X114400000Y-88675000D01*
X114400000Y-87075000D01*
X115700000Y-87075000D01*
X115700000Y-88675000D01*
X115700000Y-88675000D01*
G37*
G36*
X113425000Y-88675000D02*
X112125000Y-88675000D01*
X112125000Y-87075000D01*
X113425000Y-87075000D01*
X113425000Y-88675000D01*
X113425000Y-88675000D01*
G37*
G36*
X135450000Y-88650000D02*
X134300000Y-88650000D01*
X134300000Y-87450000D01*
X135450000Y-87450000D01*
X135450000Y-88650000D01*
X135450000Y-88650000D01*
G37*
G36*
X182494710Y-86345233D02*
X182595836Y-86355193D01*
X182727787Y-86395220D01*
X182793763Y-86415233D01*
X182976172Y-86512733D01*
X183136054Y-86643946D01*
X183267267Y-86803828D01*
X183364767Y-86986237D01*
X183364767Y-86986238D01*
X183424807Y-87184164D01*
X183445080Y-87390000D01*
X183424807Y-87595836D01*
X183422027Y-87605000D01*
X183364767Y-87793763D01*
X183267267Y-87976172D01*
X183136054Y-88136054D01*
X182976172Y-88267267D01*
X182793763Y-88364767D01*
X182727787Y-88384780D01*
X182595836Y-88424807D01*
X182518707Y-88432403D01*
X182441580Y-88440000D01*
X182338420Y-88440000D01*
X182261293Y-88432403D01*
X182184164Y-88424807D01*
X182052213Y-88384780D01*
X181986237Y-88364767D01*
X181803828Y-88267267D01*
X181643946Y-88136054D01*
X181512733Y-87976172D01*
X181415233Y-87793763D01*
X181357973Y-87605000D01*
X181355193Y-87595836D01*
X181334920Y-87390000D01*
X181355193Y-87184164D01*
X181415233Y-86986238D01*
X181415233Y-86986237D01*
X181512733Y-86803828D01*
X181643946Y-86643946D01*
X181803828Y-86512733D01*
X181986237Y-86415233D01*
X182052213Y-86395220D01*
X182184164Y-86355193D01*
X182285290Y-86345233D01*
X182338420Y-86340000D01*
X182441580Y-86340000D01*
X182494710Y-86345233D01*
X182494710Y-86345233D01*
G37*
G36*
X179954710Y-86345233D02*
X180055836Y-86355193D01*
X180187787Y-86395220D01*
X180253763Y-86415233D01*
X180436172Y-86512733D01*
X180596054Y-86643946D01*
X180727267Y-86803828D01*
X180824767Y-86986237D01*
X180824767Y-86986238D01*
X180884807Y-87184164D01*
X180905080Y-87390000D01*
X180884807Y-87595836D01*
X180882027Y-87605000D01*
X180824767Y-87793763D01*
X180727267Y-87976172D01*
X180596054Y-88136054D01*
X180436172Y-88267267D01*
X180253763Y-88364767D01*
X180187787Y-88384780D01*
X180055836Y-88424807D01*
X179978707Y-88432403D01*
X179901580Y-88440000D01*
X179798420Y-88440000D01*
X179721293Y-88432403D01*
X179644164Y-88424807D01*
X179512213Y-88384780D01*
X179446237Y-88364767D01*
X179263828Y-88267267D01*
X179103946Y-88136054D01*
X178972733Y-87976172D01*
X178875233Y-87793763D01*
X178817973Y-87605000D01*
X178815193Y-87595836D01*
X178794920Y-87390000D01*
X178815193Y-87184164D01*
X178875233Y-86986238D01*
X178875233Y-86986237D01*
X178972733Y-86803828D01*
X179103946Y-86643946D01*
X179263828Y-86512733D01*
X179446237Y-86415233D01*
X179512213Y-86395220D01*
X179644164Y-86355193D01*
X179745290Y-86345233D01*
X179798420Y-86340000D01*
X179901580Y-86340000D01*
X179954710Y-86345233D01*
X179954710Y-86345233D01*
G37*
G36*
X124825000Y-88425000D02*
X123675000Y-88425000D01*
X123675000Y-87225000D01*
X124825000Y-87225000D01*
X124825000Y-88425000D01*
X124825000Y-88425000D01*
G37*
G36*
X133200000Y-88230000D02*
X131300000Y-88230000D01*
X131300000Y-87230000D01*
X133200000Y-87230000D01*
X133200000Y-88230000D01*
X133200000Y-88230000D01*
G37*
G36*
X127800000Y-88230000D02*
X125900000Y-88230000D01*
X125900000Y-87230000D01*
X127800000Y-87230000D01*
X127800000Y-88230000D01*
X127800000Y-88230000D01*
G37*
G36*
X140025000Y-87675000D02*
X137325000Y-87675000D01*
X137325000Y-85875000D01*
X140025000Y-85875000D01*
X140025000Y-87675000D01*
X140025000Y-87675000D01*
G37*
G36*
X154125000Y-87625000D02*
X152825000Y-87625000D01*
X152825000Y-86025000D01*
X154125000Y-86025000D01*
X154125000Y-87625000D01*
X154125000Y-87625000D01*
G37*
G36*
X146425000Y-87605000D02*
X144475000Y-87605000D01*
X144475000Y-86605000D01*
X146425000Y-86605000D01*
X146425000Y-87605000D01*
X146425000Y-87605000D01*
G37*
G36*
X151825000Y-87605000D02*
X149875000Y-87605000D01*
X149875000Y-86605000D01*
X151825000Y-86605000D01*
X151825000Y-87605000D01*
X151825000Y-87605000D01*
G37*
G36*
X157125000Y-85150000D02*
X157127402Y-85174386D01*
X157134515Y-85197835D01*
X157146066Y-85219446D01*
X157161612Y-85238388D01*
X157180554Y-85253934D01*
X157202165Y-85265485D01*
X157225614Y-85272598D01*
X157250000Y-85275000D01*
X157475000Y-85275000D01*
X157475000Y-86125000D01*
X157250000Y-86125000D01*
X157225614Y-86127402D01*
X157202165Y-86134515D01*
X157180554Y-86146066D01*
X157161612Y-86161612D01*
X157146066Y-86180554D01*
X157134515Y-86202165D01*
X157127402Y-86225614D01*
X157125000Y-86250000D01*
X157125000Y-87265000D01*
X155625000Y-87265000D01*
X155625000Y-86255000D01*
X155622598Y-86230614D01*
X155615485Y-86207165D01*
X155603934Y-86185554D01*
X155588388Y-86166612D01*
X155569446Y-86151066D01*
X155547835Y-86139515D01*
X155524386Y-86132402D01*
X155500000Y-86130000D01*
X155275000Y-86130000D01*
X155275000Y-85270000D01*
X155500000Y-85270000D01*
X155524386Y-85267598D01*
X155547835Y-85260485D01*
X155569446Y-85248934D01*
X155588388Y-85233388D01*
X155603934Y-85214446D01*
X155615485Y-85192835D01*
X155622598Y-85169386D01*
X155625000Y-85145000D01*
X155625000Y-84135000D01*
X157125000Y-84135000D01*
X157125000Y-85150000D01*
X157125000Y-85150000D01*
G37*
G36*
X93622224Y-85840128D02*
X93754175Y-85880155D01*
X93875781Y-85945155D01*
X93982370Y-86032630D01*
X94069845Y-86139219D01*
X94134845Y-86260825D01*
X94174872Y-86392776D01*
X94188387Y-86530000D01*
X94174872Y-86667224D01*
X94134845Y-86799175D01*
X94069845Y-86920781D01*
X93982370Y-87027370D01*
X93875781Y-87114845D01*
X93754175Y-87179845D01*
X93622224Y-87219872D01*
X93519390Y-87230000D01*
X92900610Y-87230000D01*
X92797776Y-87219872D01*
X92665825Y-87179845D01*
X92544219Y-87114845D01*
X92437630Y-87027370D01*
X92350155Y-86920781D01*
X92285155Y-86799175D01*
X92245128Y-86667224D01*
X92231613Y-86530000D01*
X92245128Y-86392776D01*
X92285155Y-86260825D01*
X92350155Y-86139219D01*
X92437630Y-86032630D01*
X92544219Y-85945155D01*
X92665825Y-85880155D01*
X92797776Y-85840128D01*
X92900610Y-85830000D01*
X93519390Y-85830000D01*
X93622224Y-85840128D01*
X93622224Y-85840128D01*
G37*
G36*
X135450000Y-87150000D02*
X134300000Y-87150000D01*
X134300000Y-85950000D01*
X135450000Y-85950000D01*
X135450000Y-87150000D01*
X135450000Y-87150000D01*
G37*
G36*
X99975000Y-87050000D02*
X98675000Y-87050000D01*
X98675000Y-85450000D01*
X99975000Y-85450000D01*
X99975000Y-87050000D01*
X99975000Y-87050000D01*
G37*
G36*
X127800000Y-86960000D02*
X125900000Y-86960000D01*
X125900000Y-85960000D01*
X127800000Y-85960000D01*
X127800000Y-86960000D01*
X127800000Y-86960000D01*
G37*
G36*
X133200000Y-86960000D02*
X131300000Y-86960000D01*
X131300000Y-85960000D01*
X133200000Y-85960000D01*
X133200000Y-86960000D01*
X133200000Y-86960000D01*
G37*
G36*
X114035000Y-86505000D02*
X112365000Y-86505000D01*
X112365000Y-82595000D01*
X114035000Y-82595000D01*
X114035000Y-86505000D01*
X114035000Y-86505000D01*
G37*
G36*
X125050000Y-86400000D02*
X123450000Y-86400000D01*
X123450000Y-85100000D01*
X125050000Y-85100000D01*
X125050000Y-86400000D01*
X125050000Y-86400000D01*
G37*
G36*
X122850000Y-86400000D02*
X121250000Y-86400000D01*
X121250000Y-85100000D01*
X122850000Y-85100000D01*
X122850000Y-86400000D01*
X122850000Y-86400000D01*
G37*
G36*
X96042322Y-79714767D02*
X96169560Y-79753364D01*
X96286823Y-79816042D01*
X96338214Y-79858218D01*
X96389604Y-79900392D01*
X96389606Y-79900395D01*
X96473958Y-80003176D01*
X96536636Y-80120439D01*
X96575233Y-80247677D01*
X96585000Y-80346841D01*
X96585000Y-80713158D01*
X96575233Y-80812322D01*
X96536636Y-80939561D01*
X96473958Y-81056824D01*
X96417431Y-81125701D01*
X96403817Y-81146076D01*
X96394439Y-81168715D01*
X96389659Y-81192748D01*
X96389659Y-81217252D01*
X96394440Y-81241286D01*
X96403817Y-81263925D01*
X96417431Y-81284299D01*
X96434758Y-81301626D01*
X96455133Y-81315240D01*
X96477772Y-81324618D01*
X96514057Y-81330000D01*
X96785000Y-81330000D01*
X96785000Y-84730000D01*
X96514057Y-84730000D01*
X96489671Y-84732402D01*
X96466222Y-84739515D01*
X96444611Y-84751066D01*
X96425669Y-84766612D01*
X96410123Y-84785554D01*
X96398572Y-84807165D01*
X96391459Y-84830614D01*
X96389057Y-84855000D01*
X96391459Y-84879386D01*
X96398572Y-84902835D01*
X96417430Y-84934298D01*
X96473958Y-85003176D01*
X96536636Y-85120439D01*
X96575233Y-85247677D01*
X96585000Y-85346841D01*
X96585000Y-85713158D01*
X96575233Y-85812322D01*
X96536636Y-85939561D01*
X96473958Y-86056824D01*
X96389606Y-86159606D01*
X96286824Y-86243958D01*
X96169561Y-86306636D01*
X96042323Y-86345233D01*
X95910000Y-86358266D01*
X95777678Y-86345233D01*
X95650440Y-86306636D01*
X95533177Y-86243958D01*
X95462012Y-86185554D01*
X95430396Y-86159608D01*
X95408069Y-86132402D01*
X95346042Y-86056824D01*
X95283364Y-85939561D01*
X95244767Y-85812323D01*
X95235000Y-85713159D01*
X95235000Y-85346842D01*
X95244767Y-85247678D01*
X95283364Y-85120440D01*
X95346042Y-85003177D01*
X95402570Y-84934298D01*
X95416184Y-84913924D01*
X95425561Y-84891285D01*
X95430341Y-84867251D01*
X95430341Y-84842747D01*
X95425560Y-84818713D01*
X95416183Y-84796074D01*
X95402569Y-84775700D01*
X95385241Y-84758373D01*
X95364867Y-84744759D01*
X95342228Y-84735382D01*
X95305943Y-84730000D01*
X95035000Y-84730000D01*
X95035000Y-81330000D01*
X95305943Y-81330000D01*
X95330329Y-81327598D01*
X95353778Y-81320485D01*
X95375389Y-81308934D01*
X95394331Y-81293388D01*
X95409877Y-81274446D01*
X95421428Y-81252835D01*
X95428541Y-81229386D01*
X95430943Y-81205000D01*
X95428541Y-81180614D01*
X95421428Y-81157165D01*
X95402569Y-81125701D01*
X95365749Y-81080836D01*
X95346042Y-81056824D01*
X95283364Y-80939561D01*
X95244767Y-80812323D01*
X95235000Y-80713159D01*
X95235000Y-80346842D01*
X95244767Y-80247678D01*
X95283364Y-80120440D01*
X95346042Y-80003177D01*
X95413664Y-79920780D01*
X95430392Y-79900396D01*
X95454229Y-79880834D01*
X95533176Y-79816042D01*
X95650439Y-79753364D01*
X95777677Y-79714767D01*
X95910000Y-79701734D01*
X96042322Y-79714767D01*
X96042322Y-79714767D01*
G37*
G36*
X151825000Y-86335000D02*
X149875000Y-86335000D01*
X149875000Y-85335000D01*
X151825000Y-85335000D01*
X151825000Y-86335000D01*
X151825000Y-86335000D01*
G37*
G36*
X146425000Y-86335000D02*
X144475000Y-86335000D01*
X144475000Y-85335000D01*
X146425000Y-85335000D01*
X146425000Y-86335000D01*
X146425000Y-86335000D01*
G37*
G36*
X118225000Y-86325000D02*
X117025000Y-86325000D01*
X117025000Y-85175000D01*
X118225000Y-85175000D01*
X118225000Y-86325000D01*
X118225000Y-86325000D01*
G37*
G36*
X119725000Y-86325000D02*
X118525000Y-86325000D01*
X118525000Y-85175000D01*
X119725000Y-85175000D01*
X119725000Y-86325000D01*
X119725000Y-86325000D01*
G37*
G36*
X104891030Y-84189469D02*
X104891033Y-84189470D01*
X104891034Y-84189470D01*
X105079535Y-84246651D01*
X105079537Y-84246652D01*
X105253260Y-84339509D01*
X105405528Y-84464472D01*
X105530491Y-84616740D01*
X105610599Y-84766612D01*
X105623349Y-84790465D01*
X105656696Y-84900395D01*
X105680531Y-84978970D01*
X105699838Y-85175000D01*
X105680531Y-85371030D01*
X105680530Y-85371033D01*
X105680530Y-85371034D01*
X105660771Y-85436172D01*
X105623348Y-85559537D01*
X105530491Y-85733260D01*
X105405528Y-85885528D01*
X105253260Y-86010491D01*
X105211841Y-86032630D01*
X105079535Y-86103349D01*
X104891034Y-86160530D01*
X104891033Y-86160530D01*
X104891030Y-86160531D01*
X104744124Y-86175000D01*
X104645876Y-86175000D01*
X104498970Y-86160531D01*
X104498967Y-86160530D01*
X104498966Y-86160530D01*
X104310465Y-86103349D01*
X104178159Y-86032630D01*
X104136740Y-86010491D01*
X103984472Y-85885528D01*
X103859509Y-85733260D01*
X103766652Y-85559537D01*
X103729230Y-85436172D01*
X103709470Y-85371034D01*
X103709470Y-85371033D01*
X103709469Y-85371030D01*
X103690162Y-85175000D01*
X103709469Y-84978970D01*
X103733304Y-84900395D01*
X103766651Y-84790465D01*
X103779401Y-84766612D01*
X103859509Y-84616740D01*
X103984472Y-84464472D01*
X104136740Y-84339509D01*
X104310463Y-84246652D01*
X104310465Y-84246651D01*
X104498966Y-84189470D01*
X104498967Y-84189470D01*
X104498970Y-84189469D01*
X104645876Y-84175000D01*
X104744124Y-84175000D01*
X104891030Y-84189469D01*
X104891030Y-84189469D01*
G37*
G36*
X110775000Y-86175000D02*
X108775000Y-86175000D01*
X108775000Y-84175000D01*
X110775000Y-84175000D01*
X110775000Y-86175000D01*
X110775000Y-86175000D01*
G37*
G36*
X107431030Y-84189469D02*
X107431033Y-84189470D01*
X107431034Y-84189470D01*
X107619535Y-84246651D01*
X107619537Y-84246652D01*
X107793260Y-84339509D01*
X107945528Y-84464472D01*
X108070491Y-84616740D01*
X108150599Y-84766612D01*
X108163349Y-84790465D01*
X108196696Y-84900395D01*
X108220531Y-84978970D01*
X108239838Y-85175000D01*
X108220531Y-85371030D01*
X108220530Y-85371033D01*
X108220530Y-85371034D01*
X108200771Y-85436172D01*
X108163348Y-85559537D01*
X108070491Y-85733260D01*
X107945528Y-85885528D01*
X107793260Y-86010491D01*
X107751841Y-86032630D01*
X107619535Y-86103349D01*
X107431034Y-86160530D01*
X107431033Y-86160530D01*
X107431030Y-86160531D01*
X107284124Y-86175000D01*
X107185876Y-86175000D01*
X107038970Y-86160531D01*
X107038967Y-86160530D01*
X107038966Y-86160530D01*
X106850465Y-86103349D01*
X106718159Y-86032630D01*
X106676740Y-86010491D01*
X106524472Y-85885528D01*
X106399509Y-85733260D01*
X106306652Y-85559537D01*
X106269230Y-85436172D01*
X106249470Y-85371034D01*
X106249470Y-85371033D01*
X106249469Y-85371030D01*
X106230162Y-85175000D01*
X106249469Y-84978970D01*
X106273304Y-84900395D01*
X106306651Y-84790465D01*
X106319401Y-84766612D01*
X106399509Y-84616740D01*
X106524472Y-84464472D01*
X106676740Y-84339509D01*
X106850463Y-84246652D01*
X106850465Y-84246651D01*
X107038966Y-84189470D01*
X107038967Y-84189470D01*
X107038970Y-84189469D01*
X107185876Y-84175000D01*
X107284124Y-84175000D01*
X107431030Y-84189469D01*
X107431030Y-84189469D01*
G37*
G36*
X102351030Y-84189469D02*
X102351033Y-84189470D01*
X102351034Y-84189470D01*
X102539535Y-84246651D01*
X102539537Y-84246652D01*
X102713260Y-84339509D01*
X102865528Y-84464472D01*
X102990491Y-84616740D01*
X103070599Y-84766612D01*
X103083349Y-84790465D01*
X103116696Y-84900395D01*
X103140531Y-84978970D01*
X103159838Y-85175000D01*
X103140531Y-85371030D01*
X103140530Y-85371033D01*
X103140530Y-85371034D01*
X103120771Y-85436172D01*
X103083348Y-85559537D01*
X102990491Y-85733260D01*
X102865528Y-85885528D01*
X102713260Y-86010491D01*
X102671841Y-86032630D01*
X102539535Y-86103349D01*
X102351034Y-86160530D01*
X102351033Y-86160530D01*
X102351030Y-86160531D01*
X102204124Y-86175000D01*
X102105876Y-86175000D01*
X101958970Y-86160531D01*
X101958967Y-86160530D01*
X101958966Y-86160530D01*
X101770465Y-86103349D01*
X101638159Y-86032630D01*
X101596740Y-86010491D01*
X101444472Y-85885528D01*
X101319509Y-85733260D01*
X101226652Y-85559537D01*
X101189230Y-85436172D01*
X101169470Y-85371034D01*
X101169470Y-85371033D01*
X101169469Y-85371030D01*
X101150162Y-85175000D01*
X101169469Y-84978970D01*
X101193304Y-84900395D01*
X101226651Y-84790465D01*
X101239401Y-84766612D01*
X101319509Y-84616740D01*
X101444472Y-84464472D01*
X101596740Y-84339509D01*
X101770463Y-84246652D01*
X101770465Y-84246651D01*
X101958966Y-84189470D01*
X101958967Y-84189470D01*
X101958970Y-84189469D01*
X102105876Y-84175000D01*
X102204124Y-84175000D01*
X102351030Y-84189469D01*
X102351030Y-84189469D01*
G37*
G36*
X180900000Y-85900000D02*
X178800000Y-85900000D01*
X178800000Y-83800000D01*
X180900000Y-83800000D01*
X180900000Y-85900000D01*
X180900000Y-85900000D01*
G37*
G36*
X182518707Y-83807597D02*
X182595836Y-83815193D01*
X182727787Y-83855220D01*
X182793763Y-83875233D01*
X182976172Y-83972733D01*
X183136054Y-84103946D01*
X183267267Y-84263828D01*
X183364767Y-84446237D01*
X183364767Y-84446238D01*
X183424807Y-84644164D01*
X183445080Y-84850000D01*
X183424807Y-85055836D01*
X183400793Y-85135000D01*
X183364767Y-85253763D01*
X183267267Y-85436172D01*
X183136054Y-85596054D01*
X182976172Y-85727267D01*
X182793763Y-85824767D01*
X182743120Y-85840129D01*
X182595836Y-85884807D01*
X182518707Y-85892403D01*
X182441580Y-85900000D01*
X182338420Y-85900000D01*
X182261293Y-85892403D01*
X182184164Y-85884807D01*
X182036880Y-85840129D01*
X181986237Y-85824767D01*
X181803828Y-85727267D01*
X181643946Y-85596054D01*
X181512733Y-85436172D01*
X181415233Y-85253763D01*
X181379207Y-85135000D01*
X181355193Y-85055836D01*
X181334920Y-84850000D01*
X181355193Y-84644164D01*
X181415233Y-84446238D01*
X181415233Y-84446237D01*
X181512733Y-84263828D01*
X181643946Y-84103946D01*
X181803828Y-83972733D01*
X181986237Y-83875233D01*
X182052213Y-83855220D01*
X182184164Y-83815193D01*
X182261293Y-83807597D01*
X182338420Y-83800000D01*
X182441580Y-83800000D01*
X182518707Y-83807597D01*
X182518707Y-83807597D01*
G37*
G36*
X127800000Y-85690000D02*
X125900000Y-85690000D01*
X125900000Y-84690000D01*
X127800000Y-84690000D01*
X127800000Y-85690000D01*
X127800000Y-85690000D01*
G37*
G36*
X133200000Y-85690000D02*
X131300000Y-85690000D01*
X131300000Y-84690000D01*
X133200000Y-84690000D01*
X133200000Y-85690000D01*
X133200000Y-85690000D01*
G37*
G36*
X154125000Y-85425000D02*
X152825000Y-85425000D01*
X152825000Y-83825000D01*
X154125000Y-83825000D01*
X154125000Y-85425000D01*
X154125000Y-85425000D01*
G37*
G36*
X135450000Y-85300000D02*
X134300000Y-85300000D01*
X134300000Y-84100000D01*
X135450000Y-84100000D01*
X135450000Y-85300000D01*
X135450000Y-85300000D01*
G37*
G36*
X146425000Y-85065000D02*
X144475000Y-85065000D01*
X144475000Y-84065000D01*
X146425000Y-84065000D01*
X146425000Y-85065000D01*
X146425000Y-85065000D01*
G37*
G36*
X151825000Y-85065000D02*
X149875000Y-85065000D01*
X149875000Y-84065000D01*
X151825000Y-84065000D01*
X151825000Y-85065000D01*
X151825000Y-85065000D01*
G37*
G36*
X99975000Y-84850000D02*
X98675000Y-84850000D01*
X98675000Y-83250000D01*
X99975000Y-83250000D01*
X99975000Y-84850000D01*
X99975000Y-84850000D01*
G37*
G36*
X132055000Y-84235000D02*
X128145000Y-84235000D01*
X128145000Y-82565000D01*
X132055000Y-82565000D01*
X132055000Y-84235000D01*
X132055000Y-84235000D01*
G37*
G36*
X125050000Y-84025000D02*
X123450000Y-84025000D01*
X123450000Y-82725000D01*
X125050000Y-82725000D01*
X125050000Y-84025000D01*
X125050000Y-84025000D01*
G37*
G36*
X122850000Y-84025000D02*
X121250000Y-84025000D01*
X121250000Y-82725000D01*
X122850000Y-82725000D01*
X122850000Y-84025000D01*
X122850000Y-84025000D01*
G37*
G36*
X143125000Y-83950000D02*
X141525000Y-83950000D01*
X141525000Y-82650000D01*
X143125000Y-82650000D01*
X143125000Y-83950000D01*
X143125000Y-83950000D01*
G37*
G36*
X140925000Y-83950000D02*
X139325000Y-83950000D01*
X139325000Y-82650000D01*
X140925000Y-82650000D01*
X140925000Y-83950000D01*
X140925000Y-83950000D01*
G37*
G36*
X135450000Y-83800000D02*
X134300000Y-83800000D01*
X134300000Y-82600000D01*
X135450000Y-82600000D01*
X135450000Y-83800000D01*
X135450000Y-83800000D01*
G37*
G36*
X146425000Y-83795000D02*
X144475000Y-83795000D01*
X144475000Y-82795000D01*
X146425000Y-82795000D01*
X146425000Y-83795000D01*
X146425000Y-83795000D01*
G37*
G36*
X151825000Y-83795000D02*
X149875000Y-83795000D01*
X149875000Y-82795000D01*
X151825000Y-82795000D01*
X151825000Y-83795000D01*
X151825000Y-83795000D01*
G37*
G36*
X108675000Y-83700000D02*
X107075000Y-83700000D01*
X107075000Y-82400000D01*
X108675000Y-82400000D01*
X108675000Y-83700000D01*
X108675000Y-83700000D01*
G37*
G36*
X106475000Y-83700000D02*
X104875000Y-83700000D01*
X104875000Y-82400000D01*
X106475000Y-82400000D01*
X106475000Y-83700000D01*
X106475000Y-83700000D01*
G37*
G36*
X111825000Y-83625000D02*
X110625000Y-83625000D01*
X110625000Y-82475000D01*
X111825000Y-82475000D01*
X111825000Y-83625000D01*
X111825000Y-83625000D01*
G37*
G36*
X102675000Y-83625000D02*
X101475000Y-83625000D01*
X101475000Y-82475000D01*
X102675000Y-82475000D01*
X102675000Y-83625000D01*
X102675000Y-83625000D01*
G37*
G36*
X110325000Y-83625000D02*
X109125000Y-83625000D01*
X109125000Y-82475000D01*
X110325000Y-82475000D01*
X110325000Y-83625000D01*
X110325000Y-83625000D01*
G37*
G36*
X104175000Y-83625000D02*
X102975000Y-83625000D01*
X102975000Y-82475000D01*
X104175000Y-82475000D01*
X104175000Y-83625000D01*
X104175000Y-83625000D01*
G37*
G36*
X161550000Y-82825000D02*
X159950000Y-82825000D01*
X159950000Y-81525000D01*
X161550000Y-81525000D01*
X161550000Y-82825000D01*
X161550000Y-82825000D01*
G37*
G36*
X159350000Y-82825000D02*
X157750000Y-82825000D01*
X157750000Y-81525000D01*
X159350000Y-81525000D01*
X159350000Y-82825000D01*
X159350000Y-82825000D01*
G37*
G36*
X156625000Y-82825000D02*
X155025000Y-82825000D01*
X155025000Y-81525000D01*
X156625000Y-81525000D01*
X156625000Y-82825000D01*
X156625000Y-82825000D01*
G37*
G36*
X154425000Y-82825000D02*
X152825000Y-82825000D01*
X152825000Y-81525000D01*
X154425000Y-81525000D01*
X154425000Y-82825000D01*
X154425000Y-82825000D01*
G37*
G36*
X171525000Y-82800000D02*
X169925000Y-82800000D01*
X169925000Y-81500000D01*
X171525000Y-81500000D01*
X171525000Y-82800000D01*
X171525000Y-82800000D01*
G37*
G36*
X169325000Y-82800000D02*
X167725000Y-82800000D01*
X167725000Y-81500000D01*
X169325000Y-81500000D01*
X169325000Y-82800000D01*
X169325000Y-82800000D01*
G37*
G36*
X166475000Y-82800000D02*
X164875000Y-82800000D01*
X164875000Y-81500000D01*
X166475000Y-81500000D01*
X166475000Y-82800000D01*
X166475000Y-82800000D01*
G37*
G36*
X164275000Y-82800000D02*
X162675000Y-82800000D01*
X162675000Y-81500000D01*
X164275000Y-81500000D01*
X164275000Y-82800000D01*
X164275000Y-82800000D01*
G37*
G36*
X175825000Y-81925000D02*
X173725000Y-81925000D01*
X173725000Y-79825000D01*
X175825000Y-79825000D01*
X175825000Y-81925000D01*
X175825000Y-81925000D01*
G37*
G36*
X177443707Y-79832596D02*
X177520836Y-79840193D01*
X177652787Y-79880220D01*
X177718763Y-79900233D01*
X177901172Y-79997733D01*
X178061054Y-80128946D01*
X178192267Y-80288828D01*
X178289767Y-80471237D01*
X178289767Y-80471238D01*
X178349807Y-80669164D01*
X178370080Y-80875000D01*
X178349807Y-81080836D01*
X178326653Y-81157165D01*
X178289767Y-81278763D01*
X178192267Y-81461172D01*
X178061054Y-81621054D01*
X177901172Y-81752267D01*
X177718763Y-81849767D01*
X177652787Y-81869780D01*
X177520836Y-81909807D01*
X177443707Y-81917403D01*
X177366580Y-81925000D01*
X177263420Y-81925000D01*
X177186293Y-81917403D01*
X177109164Y-81909807D01*
X176977213Y-81869780D01*
X176911237Y-81849767D01*
X176728828Y-81752267D01*
X176568946Y-81621054D01*
X176437733Y-81461172D01*
X176340233Y-81278763D01*
X176303347Y-81157165D01*
X176280193Y-81080836D01*
X176259920Y-80875000D01*
X176280193Y-80669164D01*
X176340233Y-80471238D01*
X176340233Y-80471237D01*
X176437733Y-80288828D01*
X176568946Y-80128946D01*
X176728828Y-79997733D01*
X176911237Y-79900233D01*
X176977213Y-79880220D01*
X177109164Y-79840193D01*
X177186293Y-79832596D01*
X177263420Y-79825000D01*
X177366580Y-79825000D01*
X177443707Y-79832596D01*
X177443707Y-79832596D01*
G37*
G36*
X182523707Y-79832596D02*
X182600836Y-79840193D01*
X182732787Y-79880220D01*
X182798763Y-79900233D01*
X182981172Y-79997733D01*
X183141054Y-80128946D01*
X183272267Y-80288828D01*
X183369767Y-80471237D01*
X183369767Y-80471238D01*
X183429807Y-80669164D01*
X183450080Y-80875000D01*
X183429807Y-81080836D01*
X183406653Y-81157165D01*
X183369767Y-81278763D01*
X183272267Y-81461172D01*
X183141054Y-81621054D01*
X182981172Y-81752267D01*
X182798763Y-81849767D01*
X182732787Y-81869780D01*
X182600836Y-81909807D01*
X182523707Y-81917403D01*
X182446580Y-81925000D01*
X182343420Y-81925000D01*
X182266293Y-81917403D01*
X182189164Y-81909807D01*
X182057213Y-81869780D01*
X181991237Y-81849767D01*
X181808828Y-81752267D01*
X181648946Y-81621054D01*
X181517733Y-81461172D01*
X181420233Y-81278763D01*
X181383347Y-81157165D01*
X181360193Y-81080836D01*
X181339920Y-80875000D01*
X181360193Y-80669164D01*
X181420233Y-80471238D01*
X181420233Y-80471237D01*
X181517733Y-80288828D01*
X181648946Y-80128946D01*
X181808828Y-79997733D01*
X181991237Y-79900233D01*
X182057213Y-79880220D01*
X182189164Y-79840193D01*
X182266293Y-79832596D01*
X182343420Y-79825000D01*
X182446580Y-79825000D01*
X182523707Y-79832596D01*
X182523707Y-79832596D01*
G37*
G36*
X179983707Y-79832596D02*
X180060836Y-79840193D01*
X180192787Y-79880220D01*
X180258763Y-79900233D01*
X180441172Y-79997733D01*
X180601054Y-80128946D01*
X180732267Y-80288828D01*
X180829767Y-80471237D01*
X180829767Y-80471238D01*
X180889807Y-80669164D01*
X180910080Y-80875000D01*
X180889807Y-81080836D01*
X180866653Y-81157165D01*
X180829767Y-81278763D01*
X180732267Y-81461172D01*
X180601054Y-81621054D01*
X180441172Y-81752267D01*
X180258763Y-81849767D01*
X180192787Y-81869780D01*
X180060836Y-81909807D01*
X179983707Y-81917403D01*
X179906580Y-81925000D01*
X179803420Y-81925000D01*
X179726293Y-81917403D01*
X179649164Y-81909807D01*
X179517213Y-81869780D01*
X179451237Y-81849767D01*
X179268828Y-81752267D01*
X179108946Y-81621054D01*
X178977733Y-81461172D01*
X178880233Y-81278763D01*
X178843347Y-81157165D01*
X178820193Y-81080836D01*
X178799920Y-80875000D01*
X178820193Y-80669164D01*
X178880233Y-80471238D01*
X178880233Y-80471237D01*
X178977733Y-80288828D01*
X179108946Y-80128946D01*
X179268828Y-79997733D01*
X179451237Y-79900233D01*
X179517213Y-79880220D01*
X179649164Y-79840193D01*
X179726293Y-79832596D01*
X179803420Y-79825000D01*
X179906580Y-79825000D01*
X179983707Y-79832596D01*
X179983707Y-79832596D01*
G37*
G36*
X101380000Y-81910000D02*
X97470000Y-81910000D01*
X97470000Y-80240000D01*
X101380000Y-80240000D01*
X101380000Y-81910000D01*
X101380000Y-81910000D01*
G37*
G36*
X147975000Y-81775000D02*
X146775000Y-81775000D01*
X146775000Y-80625000D01*
X147975000Y-80625000D01*
X147975000Y-81775000D01*
X147975000Y-81775000D01*
G37*
G36*
X149475000Y-81775000D02*
X148275000Y-81775000D01*
X148275000Y-80625000D01*
X149475000Y-80625000D01*
X149475000Y-81775000D01*
X149475000Y-81775000D01*
G37*
G36*
X121300000Y-81275000D02*
X120150000Y-81275000D01*
X120150000Y-80075000D01*
X121300000Y-80075000D01*
X121300000Y-81275000D01*
X121300000Y-81275000D01*
G37*
G36*
X125750000Y-81275000D02*
X124600000Y-81275000D01*
X124600000Y-80075000D01*
X125750000Y-80075000D01*
X125750000Y-81275000D01*
X125750000Y-81275000D01*
G37*
G36*
X123525000Y-81275000D02*
X122375000Y-81275000D01*
X122375000Y-80075000D01*
X123525000Y-80075000D01*
X123525000Y-81275000D01*
X123525000Y-81275000D01*
G37*
G36*
X116825000Y-81250000D02*
X115675000Y-81250000D01*
X115675000Y-80050000D01*
X116825000Y-80050000D01*
X116825000Y-81250000D01*
X116825000Y-81250000D01*
G37*
G36*
X119025000Y-81250000D02*
X117875000Y-81250000D01*
X117875000Y-80050000D01*
X119025000Y-80050000D01*
X119025000Y-81250000D01*
X119025000Y-81250000D01*
G37*
G36*
X108300000Y-80725000D02*
X106200000Y-80725000D01*
X106200000Y-78625000D01*
X108300000Y-78625000D01*
X108300000Y-80725000D01*
X108300000Y-80725000D01*
G37*
G36*
X109918707Y-78632597D02*
X109995836Y-78640193D01*
X110127787Y-78680220D01*
X110193763Y-78700233D01*
X110376172Y-78797733D01*
X110536054Y-78928946D01*
X110667267Y-79088828D01*
X110764767Y-79271237D01*
X110764767Y-79271238D01*
X110824807Y-79469164D01*
X110845080Y-79675000D01*
X110824807Y-79880836D01*
X110789347Y-79997733D01*
X110764767Y-80078763D01*
X110667267Y-80261172D01*
X110536054Y-80421054D01*
X110376172Y-80552267D01*
X110193763Y-80649767D01*
X110129818Y-80669164D01*
X109995836Y-80709807D01*
X109918707Y-80717403D01*
X109841580Y-80725000D01*
X109738420Y-80725000D01*
X109661293Y-80717403D01*
X109584164Y-80709807D01*
X109450182Y-80669164D01*
X109386237Y-80649767D01*
X109203828Y-80552267D01*
X109043946Y-80421054D01*
X108912733Y-80261172D01*
X108815233Y-80078763D01*
X108790653Y-79997733D01*
X108755193Y-79880836D01*
X108734920Y-79675000D01*
X108755193Y-79469164D01*
X108815233Y-79271238D01*
X108815233Y-79271237D01*
X108912733Y-79088828D01*
X109043946Y-78928946D01*
X109203828Y-78797733D01*
X109386237Y-78700233D01*
X109452213Y-78680220D01*
X109584164Y-78640193D01*
X109661293Y-78632597D01*
X109738420Y-78625000D01*
X109841580Y-78625000D01*
X109918707Y-78632597D01*
X109918707Y-78632597D01*
G37*
G36*
X166475000Y-80475000D02*
X164875000Y-80475000D01*
X164875000Y-79175000D01*
X166475000Y-79175000D01*
X166475000Y-80475000D01*
X166475000Y-80475000D01*
G37*
G36*
X164275000Y-80475000D02*
X162675000Y-80475000D01*
X162675000Y-79175000D01*
X164275000Y-79175000D01*
X164275000Y-80475000D01*
X164275000Y-80475000D01*
G37*
G36*
X156625000Y-80475000D02*
X155025000Y-80475000D01*
X155025000Y-79175000D01*
X156625000Y-79175000D01*
X156625000Y-80475000D01*
X156625000Y-80475000D01*
G37*
G36*
X154425000Y-80475000D02*
X152825000Y-80475000D01*
X152825000Y-79175000D01*
X154425000Y-79175000D01*
X154425000Y-80475000D01*
X154425000Y-80475000D01*
G37*
G36*
X161550000Y-80475000D02*
X159950000Y-80475000D01*
X159950000Y-79175000D01*
X161550000Y-79175000D01*
X161550000Y-80475000D01*
X161550000Y-80475000D01*
G37*
G36*
X159350000Y-80475000D02*
X157750000Y-80475000D01*
X157750000Y-79175000D01*
X159350000Y-79175000D01*
X159350000Y-80475000D01*
X159350000Y-80475000D01*
G37*
G36*
X171525000Y-80475000D02*
X169925000Y-80475000D01*
X169925000Y-79175000D01*
X171525000Y-79175000D01*
X171525000Y-80475000D01*
X171525000Y-80475000D01*
G37*
G36*
X169325000Y-80475000D02*
X167725000Y-80475000D01*
X167725000Y-79175000D01*
X169325000Y-79175000D01*
X169325000Y-80475000D01*
X169325000Y-80475000D01*
G37*
G36*
X93622224Y-78840128D02*
X93754175Y-78880155D01*
X93875781Y-78945155D01*
X93982370Y-79032630D01*
X94069845Y-79139219D01*
X94134845Y-79260825D01*
X94174872Y-79392776D01*
X94188387Y-79530000D01*
X94174872Y-79667224D01*
X94134845Y-79799175D01*
X94069845Y-79920781D01*
X93982370Y-80027370D01*
X93875781Y-80114845D01*
X93754175Y-80179845D01*
X93622224Y-80219872D01*
X93519390Y-80230000D01*
X92900610Y-80230000D01*
X92797776Y-80219872D01*
X92665825Y-80179845D01*
X92544219Y-80114845D01*
X92437630Y-80027370D01*
X92350155Y-79920781D01*
X92285155Y-79799175D01*
X92245128Y-79667224D01*
X92231613Y-79530000D01*
X92245128Y-79392776D01*
X92285155Y-79260825D01*
X92350155Y-79139219D01*
X92437630Y-79032630D01*
X92544219Y-78945155D01*
X92665825Y-78880155D01*
X92797776Y-78840128D01*
X92900610Y-78830000D01*
X93519390Y-78830000D01*
X93622224Y-78840128D01*
X93622224Y-78840128D01*
G37*
G36*
X121300000Y-79775000D02*
X120150000Y-79775000D01*
X120150000Y-78575000D01*
X121300000Y-78575000D01*
X121300000Y-79775000D01*
X121300000Y-79775000D01*
G37*
G36*
X123525000Y-79775000D02*
X122375000Y-79775000D01*
X122375000Y-78575000D01*
X123525000Y-78575000D01*
X123525000Y-79775000D01*
X123525000Y-79775000D01*
G37*
G36*
X125750000Y-79775000D02*
X124600000Y-79775000D01*
X124600000Y-78575000D01*
X125750000Y-78575000D01*
X125750000Y-79775000D01*
X125750000Y-79775000D01*
G37*
G36*
X119025000Y-79750000D02*
X117875000Y-79750000D01*
X117875000Y-78550000D01*
X119025000Y-78550000D01*
X119025000Y-79750000D01*
X119025000Y-79750000D01*
G37*
G36*
X116825000Y-79750000D02*
X115675000Y-79750000D01*
X115675000Y-78550000D01*
X116825000Y-78550000D01*
X116825000Y-79750000D01*
X116825000Y-79750000D01*
G37*
G36*
X101525000Y-79550000D02*
X100325000Y-79550000D01*
X100325000Y-78400000D01*
X101525000Y-78400000D01*
X101525000Y-79550000D01*
X101525000Y-79550000D01*
G37*
G36*
X100025000Y-79550000D02*
X98825000Y-79550000D01*
X98825000Y-78400000D01*
X100025000Y-78400000D01*
X100025000Y-79550000D01*
X100025000Y-79550000D01*
G37*
M02*
