M48
;DRILL file {KiCad 5.0.2-bee76a0~70~ubuntu16.04.1} date Tue 26 Mar 2019 22:40:43 +0530
;FORMAT={-:-/ absolute / metric / decimal}
FMAT,2
METRIC,TZ
T1C0.400
T2C0.500
T3C0.550
T4C0.800
T5C1.000
%
G90
G05
T1
X94.975Y-124.575
X95.3Y-88.275
X96.29Y-105.9
X96.775Y-121.625
X98.525Y-125.525
X99.225Y-130.425
X99.325Y-112.075
X99.45Y-81.05
X100.975Y-105.2
X101.025Y-88.925
X101.75Y-78.975
X102.32Y-124.575
X102.775Y-118.65
X103.55Y-100.2
X103.575Y-83.9
X106.4Y-126.4
X107.825Y-118.65
X111.2Y-110.075
X111.225Y-94.1
X111.225Y-121.825
X113.175Y-99.555
X113.225Y-94.72
X113.225Y-110.77
X114.4Y-115.15
X114.55Y-126.375
X114.975Y-81.3
X115.9Y-116.3
X116.425Y-118.625
X117.625Y-84.025
X117.625Y-93.625
X117.625Y-100.15
X117.625Y-109.925
X119.125Y-86.425
X119.125Y-91.35
X119.125Y-102.7
X119.125Y-107.6
X120.85Y-113.2
X120.925Y-96.825
X121.95Y-87.125
X122.05Y-90.85
X122.05Y-103.5
X122.05Y-107.
X127.775Y-87.725
X127.775Y-89.
X127.775Y-104.
X127.775Y-105.275
X128.7Y-85.225
X128.825Y-101.475
X131.325Y-85.225
X131.325Y-87.725
X131.325Y-89.
X131.325Y-90.275
X131.325Y-101.475
X131.325Y-104.
X131.325Y-105.275
X131.325Y-106.55
X133.95Y-99.6
X134.025Y-83.2
X135.9Y-85.075
X135.9Y-101.5
X137.65Y-85.075
X137.7Y-101.5
X137.775Y-105.275
X138.025Y-88.975
X138.025Y-92.8
X138.225Y-109.3
X139.35Y-97.05
X140.6Y-115.15
X142.675Y-113.05
X143.025Y-96.
X143.025Y-97.05
X143.7Y-88.975
X143.775Y-105.225
X146.35Y-90.9
X146.375Y-88.975
X146.375Y-102.075
X146.375Y-109.775
X146.4Y-85.85
X146.4Y-93.45
X146.4Y-105.25
X146.4Y-107.25
X148.775Y-111.05
X148.8Y-83.3
X148.8Y-87.15
X148.8Y-90.9
X148.8Y-107.25
X148.825Y-94.725
X148.825Y-99.525
X148.825Y-103.325
X149.575Y-81.2
X149.575Y-88.975
X149.625Y-105.25
X149.65Y-97.65
X149.825Y-112.975
X150.875Y-79.825
X150.95Y-98.125
X151.85Y-84.575
X151.85Y-92.175
X151.9Y-95.725
X151.9Y-98.15
X151.9Y-100.8
X151.9Y-108.525
X152.825Y-98.15
X152.85Y-95.725
X153.475Y-91.15
X153.5Y-107.525
X154.3Y-100.85
X154.4Y-84.6
X154.65Y-86.625
X154.66Y-88.07
X154.775Y-102.875
X154.8Y-105.11
X155.7Y-113.825
X156.975Y-108.6
X157.55Y-92.8
X157.6Y-101.95
X157.675Y-85.7
X158.325Y-113.55
X159.225Y-88.7
X159.625Y-109.025
X160.05Y-96.5
X160.155Y-107.65
X161.425Y-109.025
X161.8Y-79.82
X161.825Y-82.175
X163.22Y-86.2
X163.72Y-103.34
X163.75Y-107.65
X163.8Y-94.5
X163.91Y-105.8
X164.09Y-86.81
X164.7Y-113.55
X165.35Y-109.025
X165.775Y-93.7
X166.54Y-97.76
X166.575Y-79.825
X166.58Y-82.15
X167.375Y-91.5
X169.48Y-100.86
X169.56Y-84.74
X169.96Y-104.38
X170.01Y-106.72
X170.35Y-83.98
X171.425Y-110.325
X171.425Y-112.85
X171.625Y-79.825
X171.725Y-104.425
X172.325Y-113.875
X173.15Y-107.225
X174.925Y-111.575
X180.75Y-103.35
X182.39Y-114.43
X183.93Y-105.57
T4
X102.155Y-85.175
X102.155Y-92.795
X104.695Y-85.175
X104.695Y-92.795
X107.235Y-85.175
X107.235Y-92.795
X109.775Y-85.175
X109.775Y-92.795
X102.08Y-101.3
X102.08Y-108.92
X104.62Y-101.3
X104.62Y-108.92
X107.16Y-101.3
X107.16Y-108.92
X109.7Y-101.3
X109.7Y-108.92
T5
X107.25Y-79.675
X109.79Y-79.675
X117.07Y-112.02
X174.775Y-80.875
X177.315Y-80.875
X179.855Y-80.875
X182.395Y-80.875
X179.85Y-84.85
X179.85Y-87.39
X179.85Y-89.93
X179.85Y-92.47
X179.85Y-95.01
X179.85Y-97.55
X179.85Y-100.09
X182.39Y-84.85
X182.39Y-87.39
X182.39Y-89.93
X182.39Y-92.47
X182.39Y-95.01
X182.39Y-97.55
X182.39Y-100.09
X95.7Y-90.7
X95.7Y-93.24
X95.7Y-95.78
X95.7Y-98.32
X95.7Y-100.86
X95.7Y-103.4
T2
X92.885Y-79.53G85X93.535Y-79.53
G05
X92.885Y-86.53G85X93.535Y-86.53
G05
T3
X95.91Y-80.38G85X95.91Y-80.68
G05
X95.91Y-85.38G85X95.91Y-85.68
G05
T0
M30
